# CC0 David Gian-Cursio 2021; original authored material surfaces.
o chevron-fixed-block
v 0.000000 3.010293 0.186458
v 0.000000 3.024000 0.126000
v 0.000000 3.029202 0.207832
v 0.000000 2.905902 0.197932
v 0.000000 2.905902 0.167782
v -0.113454 3.042900 0.186300
v -0.113454 3.042900 0.124650
v -0.098151 2.996595 0.207990
v -0.105803 3.019743 0.197145
v -0.068178 2.905902 0.182858
v 0.098151 2.996595 0.207990
v 0.068178 2.905902 0.182858
v 0.113454 3.042900 0.186300
v 0.105803 3.019743 0.197145
v 0.113454 3.042900 0.124650
v 0.000000 3.042900 0.063000
v 0.000000 2.815200 0.157725
v 0.000000 3.061800 0.123300
v 0.000000 3.021966 0.180959
v 0.000000 3.024000 0.177750
v -0.104314 3.022047 0.180919
v -0.107881 3.026034 0.180679
v -0.104958 3.024000 0.177750
v -0.100430 3.010293 0.186458
v -0.103161 3.011751 0.188104
v 0.000000 2.998629 0.191956
v 0.000000 2.994426 0.192314
v -0.096546 2.998548 0.191996
v -0.095219 2.994525 0.192343
v -0.098151 2.996595 0.195165
v 0.096546 2.998548 0.191996
v 0.098151 2.996595 0.195165
v 0.095219 2.994525 0.192343
v 0.100430 3.010293 0.186458
v 0.103161 3.011751 0.188104
v 0.104314 3.022047 0.180919
v 0.104958 3.024000 0.177750
v 0.107881 3.026034 0.180679
v -0.104958 3.024000 0.126000
v -0.107913 3.026133 0.125848
v 0.104958 3.024000 0.126000
v 0.107913 3.026133 0.125848
v 0.104958 3.024000 0.074250
v 0.105602 3.025944 0.071073
v 0.107852 3.025944 0.073323
v 0.000000 3.024000 0.074250
v 0.000000 3.026034 0.071033
v -0.104958 3.024000 0.074250
v -0.107852 3.025944 0.073323
v -0.105602 3.025944 0.071073
v -0.106676 3.029202 0.207832
v -0.108445 3.027744 0.206186
v -0.116805 3.059847 0.193513
v -0.117450 3.061800 0.190350
v -0.119027 3.059766 0.191921
v 0.000000 3.059757 0.193552
v 0.000000 3.061800 0.190350
v 0.116805 3.059847 0.193513
v 0.119027 3.059766 0.191921
v 0.117450 3.061800 0.190350
v 0.106676 3.029202 0.207832
v 0.108445 3.027744 0.206186
v 0.000000 2.998638 0.222113
v 0.000000 2.994426 0.222464
v 0.096547 2.998548 0.222152
v 0.095219 2.994525 0.222493
v 0.098151 2.996595 0.220815
v -0.096547 2.998548 0.222152
v -0.098151 2.996595 0.220815
v -0.095219 2.994525 0.222493
v -0.065928 2.905902 0.197932
v -0.068178 2.905902 0.195682
v 0.065928 2.905902 0.197932
v 0.068178 2.905902 0.195682
v 0.000000 2.817369 0.173401
v 0.000000 2.815200 0.170550
v 0.036638 2.817270 0.173372
v 0.035955 2.815200 0.170550
v 0.038888 2.817270 0.171122
v -0.036638 2.817270 0.173372
v -0.038888 2.817270 0.171122
v -0.035955 2.815200 0.170550
v -0.117450 3.061800 0.123300
v -0.118995 3.059667 0.123452
v -0.117450 3.061800 0.056250
v -0.116807 3.059856 0.054927
v -0.119057 3.059856 0.057177
v 0.000000 3.061800 0.056250
v 0.000000 3.059766 0.054967
v 0.117450 3.061800 0.056250
v 0.119057 3.059856 0.057177
v 0.116807 3.059856 0.054927
v 0.117450 3.061800 0.123300
v 0.118995 3.059667 0.123452
v 0.065928 2.905902 0.167782
v 0.068178 2.905902 0.170032
v -0.065928 2.905902 0.167782
v -0.068178 2.905902 0.170032
v 0.000000 2.817369 0.143251
v 0.000000 2.815200 0.144900
v -0.036638 2.817270 0.143222
v -0.035955 2.815200 0.144900
v -0.038888 2.817270 0.145472
v 0.036638 2.817270 0.143222
v 0.038888 2.817270 0.145472
v 0.035955 2.815200 0.144900
v -0.113454 3.042900 0.065250
v -0.111204 3.042900 0.063000
v -0.038888 2.817270 0.158297
v -0.035955 2.815200 0.157725
v 0.035955 2.815200 0.157725
v 0.038888 2.817270 0.158297
v 0.113454 3.042900 0.065250
v 0.111204 3.042900 0.063000
v 0.000000 3.022506 0.180624
v 0.000000 3.022992 0.180168
v 0.000000 3.023406 0.179622
v 0.000000 3.023721 0.179016
v 0.000000 3.023928 0.178383
v -0.104850 3.022542 0.180773
v -0.105535 3.023181 0.180700
v -0.106275 3.023901 0.180679
v -0.106975 3.024657 0.180683
v -0.107541 3.025386 0.180691
v -0.107622 3.025494 0.180418
v -0.107234 3.025008 0.180029
v -0.106746 3.024594 0.179540
v -0.106186 3.024279 0.178978
v -0.105580 3.024072 0.178373
v -0.104842 3.023928 0.178372
v -0.104737 3.023739 0.178997
v -0.104638 3.023442 0.179597
v -0.104538 3.023046 0.180138
v -0.104432 3.022578 0.180589
v -0.101045 3.010347 0.186516
v -0.101631 3.010500 0.186682
v -0.102162 3.010725 0.186940
v -0.102611 3.011022 0.187273
v -0.102953 3.011364 0.187666
v -0.096333 2.997954 0.192217
v -0.096110 2.997288 0.192378
v -0.095882 2.996559 0.192474
v -0.095655 2.995839 0.192503
v -0.095432 2.995146 0.192460
v -0.095731 2.994912 0.192570
v -0.096321 2.995245 0.192982
v -0.096921 2.995551 0.193513
v -0.097469 2.995866 0.194098
v -0.097900 2.996208 0.194670
v -0.098094 2.996667 0.194534
v -0.097933 2.996865 0.193904
v -0.097682 2.997162 0.193305
v -0.097357 2.997558 0.192767
v -0.096972 2.998026 0.192321
v 0.000000 2.998008 0.192190
v 0.000000 2.997306 0.192358
v 0.000000 2.996559 0.192458
v 0.000000 2.995803 0.192487
v 0.000000 2.995074 0.192440
v 0.096873 2.998089 0.192315
v 0.097250 2.997702 0.192773
v 0.097619 2.997369 0.193328
v 0.097930 2.997081 0.193940
v 0.098125 2.996829 0.194566
v 0.098047 2.996523 0.194547
v 0.097751 2.996316 0.193951
v 0.097293 2.995992 0.193406
v 0.096699 2.995569 0.192938
v 0.095998 2.995074 0.192575
v 0.095432 2.995146 0.192460
v 0.095655 2.995839 0.192503
v 0.095882 2.996559 0.192474
v 0.096110 2.997288 0.192378
v 0.096333 2.997954 0.192217
v 0.101045 3.010347 0.186516
v 0.101631 3.010500 0.186682
v 0.102162 3.010725 0.186940
v 0.102611 3.011022 0.187273
v 0.102953 3.011364 0.187666
v 0.104432 3.022578 0.180589
v 0.104538 3.023046 0.180138
v 0.104638 3.023442 0.179597
v 0.104737 3.023739 0.178997
v 0.104842 3.023928 0.178372
v 0.105460 3.024090 0.178211
v 0.106045 3.024342 0.178702
v 0.106646 3.024711 0.179211
v 0.107197 3.025143 0.179719
v 0.107631 3.025602 0.180214
v 0.107599 3.025422 0.180531
v 0.107146 3.024738 0.180462
v 0.106557 3.024027 0.180468
v 0.105866 3.023316 0.180548
v 0.105107 3.022641 0.180699
v -0.105582 3.024072 0.125995
v -0.106190 3.024288 0.125979
v -0.106755 3.024621 0.125955
v -0.107249 3.025053 0.125924
v -0.107644 3.025566 0.125888
v 0.105582 3.024072 0.125995
v 0.106190 3.024288 0.125979
v 0.106755 3.024621 0.125955
v 0.107249 3.025053 0.125924
v 0.107644 3.025566 0.125888
v 0.105074 3.024072 0.073628
v 0.105178 3.024261 0.073001
v 0.105278 3.024558 0.072401
v 0.105378 3.024954 0.071859
v 0.105484 3.025422 0.071405
v 0.106156 3.025764 0.071231
v 0.106666 3.025674 0.071487
v 0.107111 3.025647 0.071833
v 0.107470 3.025692 0.072260
v 0.107724 3.025791 0.072759
v 0.107590 3.025413 0.073503
v 0.107200 3.024945 0.073655
v 0.106710 3.024558 0.073793
v 0.106152 3.024252 0.073929
v 0.105557 3.024063 0.074077
v 0.000000 3.024072 0.073617
v 0.000000 3.024279 0.072982
v 0.000000 3.024594 0.072376
v 0.000000 3.025008 0.071828
v 0.000000 3.025494 0.071370
v -0.105557 3.024063 0.074077
v -0.106152 3.024252 0.073929
v -0.106710 3.024558 0.073793
v -0.107200 3.024945 0.073655
v -0.107590 3.025413 0.073503
v -0.107724 3.025791 0.072759
v -0.107470 3.025692 0.072260
v -0.107111 3.025647 0.071833
v -0.106666 3.025674 0.071487
v -0.106156 3.025764 0.071231
v -0.105484 3.025422 0.071405
v -0.105378 3.024954 0.071859
v -0.105278 3.024558 0.072401
v -0.105178 3.024261 0.073001
v -0.105074 3.024072 0.073628
v -0.107257 3.029148 0.207774
v -0.107745 3.028995 0.207608
v -0.108126 3.028770 0.207350
v -0.108381 3.028473 0.207017
v -0.108492 3.028131 0.206624
v -0.116923 3.060378 0.193184
v -0.117029 3.060846 0.192734
v -0.117129 3.061233 0.192195
v -0.117229 3.061539 0.191596
v -0.117334 3.061728 0.190971
v -0.117891 3.061701 0.190707
v -0.118309 3.061449 0.190943
v -0.118668 3.061080 0.191120
v -0.118931 3.060648 0.191301
v -0.119063 3.060189 0.191547
v -0.119102 3.060234 0.192134
v -0.118971 3.060522 0.192389
v -0.118655 3.060630 0.192668
v -0.118174 3.060558 0.192959
v -0.117550 3.060297 0.193245
v 0.000000 3.060306 0.193219
v 0.000000 3.060792 0.192765
v 0.000000 3.061206 0.192220
v 0.000000 3.061521 0.191615
v 0.000000 3.061728 0.190982
v 0.117376 3.059910 0.193428
v 0.117883 3.059856 0.193297
v 0.118313 3.059757 0.193100
v 0.118655 3.059658 0.192818
v 0.118896 3.059640 0.192432
v 0.119126 3.060306 0.192021
v 0.119059 3.060792 0.191956
v 0.118844 3.061206 0.191742
v 0.118494 3.061521 0.191393
v 0.118024 3.061728 0.190924
v 0.117334 3.061728 0.190971
v 0.117229 3.061539 0.191596
v 0.117129 3.061233 0.192195
v 0.117029 3.060846 0.192734
v 0.116923 3.060378 0.193184
v 0.107257 3.029148 0.207774
v 0.107745 3.028995 0.207608
v 0.108126 3.028770 0.207350
v 0.108381 3.028473 0.207017
v 0.108492 3.028131 0.206624
v 0.096334 2.997963 0.222372
v 0.096111 2.997288 0.222531
v 0.095882 2.996568 0.222626
v 0.095655 2.995839 0.222654
v 0.095432 2.995146 0.222611
v 0.095794 2.994804 0.222466
v 0.096393 2.995083 0.222265
v 0.096971 2.995389 0.221946
v 0.097485 2.995731 0.221562
v 0.097894 2.996127 0.221167
v 0.098094 2.996667 0.221380
v 0.097933 2.996865 0.221826
v 0.097682 2.997171 0.222139
v 0.097357 2.997558 0.222306
v 0.096973 2.998026 0.222314
v 0.000000 2.998017 0.222344
v 0.000000 2.997306 0.222512
v 0.000000 2.996559 0.222611
v 0.000000 2.995803 0.222638
v 0.000000 2.995074 0.222590
v -0.097030 2.998224 0.222224
v -0.097466 2.997927 0.222141
v -0.097826 2.997630 0.221930
v -0.098079 2.997324 0.221620
v -0.098198 2.996982 0.221240
v -0.098047 2.996523 0.221393
v -0.097751 2.996316 0.221872
v -0.097293 2.995992 0.222239
v -0.096699 2.995569 0.222475
v -0.095998 2.995074 0.222565
v -0.095432 2.995146 0.222611
v -0.095655 2.995839 0.222654
v -0.095882 2.996568 0.222626
v -0.096111 2.997288 0.222531
v -0.096334 2.997963 0.222372
v -0.066526 2.905902 0.197852
v -0.067064 2.905902 0.197626
v -0.067519 2.905902 0.197274
v -0.067871 2.905902 0.196818
v -0.068098 2.905902 0.196281
v 0.066526 2.905902 0.197852
v 0.067064 2.905902 0.197626
v 0.067519 2.905902 0.197274
v 0.067871 2.905902 0.196818
v 0.068098 2.905902 0.196281
v 0.036503 2.816712 0.173136
v 0.036392 2.816217 0.172766
v 0.036293 2.815794 0.172293
v 0.036195 2.815479 0.171747
v 0.036086 2.815272 0.171156
v 0.036569 2.815272 0.170658
v 0.037172 2.815479 0.170751
v 0.037735 2.815803 0.170834
v 0.038228 2.816217 0.170919
v 0.038622 2.816712 0.171013
v 0.038764 2.817126 0.171695
v 0.038519 2.817036 0.172214
v 0.038169 2.817018 0.172660
v 0.037729 2.817054 0.173014
v 0.037213 2.817135 0.173258
v 0.000000 2.816793 0.173161
v 0.000000 2.816271 0.172790
v 0.000000 2.815839 0.172317
v 0.000000 2.815497 0.171768
v 0.000000 2.815281 0.171169
v -0.037213 2.817135 0.173258
v -0.037729 2.817054 0.173014
v -0.038169 2.817018 0.172660
v -0.038519 2.817036 0.172214
v -0.038764 2.817126 0.171695
v -0.038622 2.816712 0.171013
v -0.038228 2.816217 0.170919
v -0.037735 2.815803 0.170834
v -0.037172 2.815479 0.170751
v -0.036569 2.815272 0.170658
v -0.036086 2.815272 0.171156
v -0.036195 2.815479 0.171747
v -0.036293 2.815794 0.172293
v -0.036392 2.816217 0.172766
v -0.036503 2.816712 0.173136
v -0.118023 3.061728 0.123305
v -0.118490 3.061512 0.123321
v -0.118835 3.061179 0.123345
v -0.119044 3.060747 0.123376
v -0.119102 3.060234 0.123412
v -0.117255 3.061728 0.055731
v -0.117173 3.061512 0.055306
v -0.117147 3.061197 0.054993
v -0.117115 3.060801 0.054813
v -0.117022 3.060342 0.054784
v -0.117362 3.059676 0.055085
v -0.117871 3.059577 0.055341
v -0.118316 3.059559 0.055686
v -0.118675 3.059595 0.056114
v -0.118929 3.059703 0.056613
v -0.119124 3.060333 0.056906
v -0.119022 3.060792 0.056761
v -0.118778 3.061188 0.056682
v -0.118417 3.061512 0.056610
v -0.117965 3.061719 0.056485
v 0.000000 3.061728 0.055686
v 0.000000 3.061521 0.055246
v 0.000000 3.061206 0.054942
v 0.000000 3.060792 0.054786
v 0.000000 3.060306 0.054791
v 0.117965 3.061719 0.056485
v 0.118417 3.061512 0.056610
v 0.118778 3.061188 0.056682
v 0.119022 3.060792 0.056761
v 0.119124 3.060333 0.056906
v 0.118929 3.059703 0.056613
v 0.118675 3.059595 0.056114
v 0.118316 3.059559 0.055686
v 0.117871 3.059577 0.055341
v 0.117362 3.059676 0.055085
v 0.117022 3.060342 0.054784
v 0.117115 3.060801 0.054813
v 0.117147 3.061197 0.054993
v 0.117173 3.061512 0.055306
v 0.117255 3.061728 0.055731
v 0.118023 3.061728 0.123305
v 0.118490 3.061512 0.123321
v 0.118835 3.061179 0.123345
v 0.119044 3.060747 0.123376
v 0.119102 3.060234 0.123412
v 0.066526 2.905902 0.167863
v 0.067064 2.905902 0.168089
v 0.067519 2.905902 0.168441
v 0.067871 2.905902 0.168897
v 0.068098 2.905902 0.169434
v -0.066526 2.905902 0.167863
v -0.067064 2.905902 0.168089
v -0.067519 2.905902 0.168441
v -0.067871 2.905902 0.168897
v -0.068098 2.905902 0.169434
v -0.036445 2.816730 0.143161
v -0.036341 2.816244 0.143266
v -0.036283 2.815821 0.143516
v -0.036229 2.815488 0.143886
v -0.036133 2.815281 0.144355
v -0.036569 2.815272 0.145008
v -0.037172 2.815479 0.145101
v -0.037735 2.815803 0.145184
v -0.038228 2.816217 0.145269
v -0.038622 2.816712 0.145363
v -0.038764 2.817162 0.144900
v -0.038519 2.817180 0.144382
v -0.038169 2.817252 0.143935
v -0.037729 2.817324 0.143581
v -0.037213 2.817351 0.143337
v 0.000000 2.816793 0.143171
v 0.000000 2.816271 0.143255
v 0.000000 2.815839 0.143485
v 0.000000 2.815497 0.143846
v 0.000000 2.815281 0.144323
v 0.037213 2.817351 0.143337
v 0.037729 2.817324 0.143581
v 0.038169 2.817252 0.143935
v 0.038519 2.817180 0.144382
v 0.038764 2.817162 0.144900
v 0.038622 2.816712 0.145363
v 0.038228 2.816217 0.145269
v 0.037735 2.815803 0.145184
v 0.037172 2.815479 0.145101
v 0.036569 2.815272 0.145008
v 0.036133 2.815281 0.144355
v 0.036229 2.815488 0.143886
v 0.036283 2.815821 0.143516
v 0.036341 2.816244 0.143266
v 0.036445 2.816730 0.143161
v -0.113374 3.042900 0.064652
v -0.113147 3.042900 0.064114
v -0.112795 3.042900 0.063659
v -0.112340 3.042900 0.063307
v -0.111802 3.042900 0.063080
v -0.038626 2.816721 0.158145
v -0.038236 2.816226 0.158008
v -0.037746 2.815803 0.157892
v -0.037184 2.815479 0.157803
v -0.036578 2.815272 0.157746
v 0.036578 2.815272 0.157746
v 0.037184 2.815479 0.157803
v 0.037746 2.815803 0.157892
v 0.038236 2.816226 0.158008
v 0.038626 2.816721 0.158145
v 0.113374 3.042900 0.064652
v 0.113147 3.042900 0.064114
v 0.112795 3.042900 0.063659
v 0.112340 3.042900 0.063307
v 0.111802 3.042900 0.063080
v -0.106226 3.023991 0.179950
v -0.106834 3.024396 0.180536
v -0.107338 3.024999 0.180443
v -0.106672 3.024306 0.180118
v -0.107053 3.024747 0.179996
v -0.106515 3.024333 0.179633
v -0.106689 3.024531 0.179496
v -0.105099 3.023784 0.179170
v -0.105383 3.023991 0.178770
v -0.105674 3.023964 0.179376
v -0.106001 3.024189 0.179111
v -0.104917 3.023496 0.179636
v -0.105446 3.023685 0.179753
v -0.104901 3.023172 0.180186
v -0.104890 3.022857 0.180554
v -0.105481 3.023379 0.180338
v -0.105503 3.023199 0.180637
v -0.106186 3.023739 0.180450
v -0.106202 3.023712 0.180693
v -0.097158 2.996469 0.193071
v -0.095917 2.995758 0.192616
v -0.095818 2.995236 0.192621
v -0.096325 2.995551 0.192866
v -0.096269 2.995155 0.192923
v -0.096891 2.995551 0.193204
v -0.096813 2.995245 0.193351
v -0.097805 2.996757 0.193669
v -0.097860 2.996316 0.194165
v -0.097429 2.996307 0.193413
v -0.097395 2.995812 0.193768
v -0.097679 2.997252 0.193199
v -0.097504 2.997018 0.193122
v -0.097187 2.997450 0.192738
v -0.096729 2.997648 0.192431
v -0.096826 2.997081 0.192718
v -0.096376 2.997162 0.192487
v -0.096516 2.996523 0.192740
v -0.096091 2.996550 0.192541
v 0.097222 2.996631 0.193043
v 0.097873 2.997099 0.193632
v 0.098011 2.996721 0.194096
v 0.097578 2.996658 0.193373
v 0.097669 2.996316 0.193692
v 0.097195 2.996073 0.193189
v 0.097218 2.995857 0.193310
v 0.096008 2.995956 0.192589
v 0.096032 2.995461 0.192618
v 0.096501 2.996028 0.192801
v 0.096608 2.995659 0.192886
v 0.096114 2.996568 0.192537
v 0.096561 2.996595 0.192727
v 0.096448 2.997288 0.192496
v 0.096708 2.997765 0.192423
v 0.096995 2.997396 0.192723
v 0.097219 2.997738 0.192721
v 0.097546 2.997351 0.193055
v 0.097678 2.997594 0.193150
v 0.106252 3.024045 0.179816
v 0.105158 3.023856 0.179077
v 0.105336 3.024036 0.178623
v 0.105795 3.024117 0.179162
v 0.105972 3.024297 0.178834
v 0.106472 3.024414 0.179367
v 0.106603 3.024639 0.179166
v 0.106991 3.024522 0.180304
v 0.107392 3.025107 0.180172
v 0.106737 3.024396 0.179940
v 0.107042 3.024855 0.179715
v 0.106485 3.023910 0.180450
v 0.106384 3.023919 0.180232
v 0.105747 3.023361 0.180419
v 0.105075 3.022956 0.180457
v 0.105548 3.023496 0.180106
v 0.104954 3.023217 0.180089
v 0.105483 3.023712 0.179694
v 0.104944 3.023505 0.179621
v 0.106552 3.024729 0.072512
v 0.105951 3.024945 0.071926
v 0.106053 3.025323 0.071524
v 0.106455 3.024990 0.072058
v 0.106573 3.025323 0.071724
v 0.106794 3.025035 0.072233
v 0.106980 3.025341 0.072006
v 0.107123 3.024918 0.073144
v 0.107483 3.025323 0.072953
v 0.106967 3.024936 0.072677
v 0.107269 3.025305 0.072454
v 0.106692 3.024576 0.073302
v 0.106640 3.024630 0.072875
v 0.106186 3.024315 0.073378
v 0.105646 3.024135 0.073492
v 0.106215 3.024459 0.072861
v 0.105728 3.024315 0.072929
v 0.106230 3.024630 0.072450
v 0.105805 3.024576 0.072413
v -0.106564 3.024720 0.072536
v -0.107134 3.024945 0.073102
v -0.107489 3.025341 0.072932
v -0.106989 3.024990 0.072596
v -0.107280 3.025332 0.072412
v -0.106799 3.025026 0.072243
v -0.106981 3.025341 0.072009
v -0.105916 3.024918 0.071941
v -0.106035 3.025314 0.071531
v -0.106384 3.024936 0.072091
v -0.106538 3.025296 0.071740
v -0.105806 3.024576 0.072416
v -0.106234 3.024630 0.072461
v -0.105754 3.024315 0.072956
v -0.105658 3.024135 0.073506
v -0.106266 3.024459 0.072917
v -0.106211 3.024315 0.073405
v -0.106645 3.024630 0.072886
v -0.106693 3.024576 0.073305
v -0.118508 3.061134 0.192114
v -0.117861 3.061458 0.191736
v -0.117855 3.061638 0.191259
v -0.118333 3.061278 0.191881
v -0.118315 3.061395 0.191477
v -0.118597 3.061107 0.191959
v -0.118650 3.061089 0.191628
v -0.118914 3.060603 0.192323
v -0.119083 3.060486 0.191913
v -0.118759 3.060765 0.192228
v -0.118901 3.060738 0.191802
v -0.118626 3.060648 0.192624
v -0.118578 3.060819 0.192439
v -0.118208 3.060693 0.192818
v -0.117642 3.060639 0.193000
v -0.118249 3.060909 0.192530
v -0.117731 3.060927 0.192643
v -0.118268 3.061188 0.192159
v -0.117808 3.061224 0.192186
v 0.118470 3.060954 0.192387
v 0.118778 3.060234 0.192573
v 0.119009 3.060225 0.192345
v 0.118783 3.060747 0.192244
v 0.118976 3.060765 0.192069
v 0.118678 3.061098 0.192006
v 0.118803 3.061179 0.191791
v 0.117895 3.061476 0.191748
v 0.117952 3.061656 0.191340
v 0.118382 3.061314 0.191883
v 0.118454 3.061467 0.191584
v 0.117809 3.061206 0.192216
v 0.118256 3.061116 0.192280
v 0.117711 3.060837 0.192698
v 0.117543 3.060414 0.193111
v 0.118223 3.060765 0.192646
v 0.118068 3.060360 0.192998
v 0.118505 3.060657 0.192609
v 0.118453 3.060261 0.192848
v 0.097162 2.996433 0.222396
v 0.096251 2.996019 0.222611
v 0.096031 2.995434 0.222582
v 0.096827 2.996280 0.222476
v 0.096648 2.995785 0.222413
v 0.097243 2.996415 0.222304
v 0.097179 2.996073 0.222153
v 0.097813 2.996748 0.221957
v 0.097910 2.996415 0.221621
v 0.097584 2.996667 0.222118
v 0.097610 2.996298 0.221872
v 0.097602 2.997018 0.222198
v 0.097430 2.996775 0.222284
v 0.097231 2.997288 0.222391
v 0.096800 2.997594 0.222463
v 0.097039 2.996928 0.222459
v 0.096607 2.997117 0.222544
v 0.096829 2.996505 0.222524
v 0.096403 2.996550 0.222601
v -0.097260 2.996694 0.222422
v -0.097891 2.996964 0.221926
v -0.098052 2.996784 0.221690
v -0.097615 2.996649 0.222175
v -0.097743 2.996505 0.222027
v -0.097322 2.996433 0.222358
v -0.097333 2.996199 0.222296
v -0.096301 2.996028 0.222642
v -0.096155 2.995542 0.222642
v -0.096863 2.996253 0.222537
v -0.096790 2.995893 0.222526
v -0.096460 2.996577 0.222603
v -0.096919 2.996622 0.222536
v -0.096682 2.997153 0.222520
v -0.096854 2.997702 0.222411
v -0.097152 2.996991 0.222431
v -0.097312 2.997432 0.222320
v -0.097466 2.996883 0.222303
v -0.097654 2.997198 0.222139
v 0.037589 2.815983 0.172120
v 0.036754 2.815542 0.171770
v 0.036673 2.815344 0.171231
v 0.037271 2.815695 0.171778
v 0.037228 2.815542 0.171291
v 0.037670 2.815884 0.171778
v 0.037719 2.815821 0.171348
v 0.038316 2.816640 0.172118
v 0.038522 2.816640 0.171591
v 0.038018 2.816262 0.171997
v 0.038163 2.816217 0.171488
v 0.038023 2.816658 0.172531
v 0.037829 2.816307 0.172351
v 0.037570 2.816613 0.172823
v 0.037063 2.816631 0.173036
v 0.037388 2.816208 0.172532
v 0.036915 2.816190 0.172691
v 0.037228 2.815884 0.172217
v 0.036796 2.815821 0.172274
v -0.037572 2.815983 0.172132
v -0.038305 2.816613 0.172081
v -0.038516 2.816622 0.171572
v -0.037994 2.816208 0.171925
v -0.038152 2.816181 0.171451
v -0.037663 2.815884 0.171783
v -0.037717 2.815821 0.171350
v -0.036726 2.815542 0.171796
v -0.036659 2.815344 0.171245
v -0.037213 2.815695 0.171833
v -0.037200 2.815542 0.171318
v -0.036794 2.815821 0.172275
v -0.037220 2.815884 0.172222
v -0.036954 2.816217 0.172700
v -0.037082 2.816649 0.173040
v -0.037463 2.816262 0.172552
v -0.037609 2.816649 0.172832
v -0.037822 2.816307 0.172356
v -0.038021 2.816658 0.172533
v -0.118477 3.060927 0.055384
v -0.117675 3.060711 0.054916
v -0.117570 3.060189 0.054926
v -0.118152 3.060594 0.055128
v -0.118050 3.060090 0.055173
v -0.118501 3.060513 0.055388
v -0.118448 3.060054 0.055488
v -0.118941 3.060747 0.056213
v -0.119010 3.060225 0.056358
v -0.118755 3.060666 0.055761
v -0.118775 3.060144 0.055891
v -0.118744 3.061161 0.056135
v -0.118643 3.061071 0.055702
v -0.118328 3.061449 0.056012
v -0.117810 3.061647 0.055904
v -0.118225 3.061287 0.055490
v -0.117728 3.061449 0.055381
v -0.118131 3.061080 0.055167
v -0.117688 3.061170 0.055037
v 0.118442 3.060918 0.055352
v 0.118931 3.060711 0.056195
v 0.119005 3.060207 0.056349
v 0.118732 3.060594 0.055720
v 0.118765 3.060099 0.055873
v 0.118485 3.060504 0.055374
v 0.118444 3.060045 0.055486
v 0.117649 3.060747 0.054902
v 0.117557 3.060207 0.054920
v 0.118098 3.060666 0.055097
v 0.118025 3.060126 0.055159
v 0.117681 3.061170 0.055033
v 0.118113 3.061071 0.055153
v 0.117759 3.061449 0.055416
v 0.117826 3.061647 0.055922
v 0.118285 3.061287 0.055557
v 0.118361 3.061449 0.056049
v 0.118628 3.061071 0.055691
v 0.118740 3.061161 0.056134
v -0.037598 2.816055 0.143846
v -0.036751 2.815551 0.143951
v -0.036698 2.815353 0.144446
v -0.037253 2.815713 0.144062
v -0.037232 2.815542 0.144539
v -0.037674 2.815911 0.144181
v -0.037720 2.815830 0.144626
v -0.038290 2.816694 0.144246
v -0.038512 2.816649 0.144775
v -0.037991 2.816280 0.144158
v -0.038152 2.816217 0.144675
v -0.037990 2.816766 0.143828
v -0.037799 2.816370 0.143798
v -0.037519 2.816775 0.143500
v -0.037000 2.816793 0.143267
v -0.037318 2.816271 0.143536
v -0.036838 2.816262 0.143346
v -0.037187 2.815929 0.143662
v -0.036749 2.815848 0.143553
v 0.037560 2.816028 0.143850
v 0.038282 2.816658 0.144271
v 0.038509 2.816640 0.144788
v 0.037972 2.816217 0.144209
v 0.038145 2.816190 0.144700
v 0.037657 2.815902 0.144184
v 0.037716 2.815821 0.144629
v 0.036717 2.815551 0.143919
v 0.036682 2.815353 0.144430
v 0.037183 2.815704 0.143998
v 0.037199 2.815542 0.144508
v 0.036743 2.815848 0.143553
v 0.037168 2.815911 0.143664
v 0.036876 2.816289 0.143355
v 0.037020 2.816802 0.143272
v 0.037393 2.816325 0.143554
v 0.037559 2.816811 0.143509
v 0.037783 2.816352 0.143800
v 0.037986 2.816766 0.143829
v 0.055168 2.917305 0.091433
v 0.053128 2.917305 0.092311
v 0.053128 2.917305 0.095578
v 0.055167 2.917305 0.096457
v 0.065792 2.917305 0.096457
v 0.067832 2.917305 0.095578
v 0.067832 2.917305 0.092311
v 0.065792 2.917305 0.091433
v -0.065792 2.917305 0.091433
v -0.067832 2.917305 0.092311
v -0.067832 2.917305 0.095578
v -0.065792 2.917305 0.096457
v -0.055167 2.917305 0.096457
v -0.053128 2.917305 0.095578
v -0.053128 2.917305 0.092311
v -0.055168 2.917305 0.091433
v 0.067832 3.023478 0.092311
v 0.067832 3.023478 0.095578
v 0.065792 3.023478 0.096457
v 0.055167 3.023478 0.096457
v 0.053128 3.023478 0.095578
v 0.053128 3.023478 0.092311
v 0.055168 3.023478 0.091433
v 0.065792 3.023478 0.091433
v -0.053128 3.023478 0.092311
v -0.053128 3.023478 0.095578
v -0.055167 3.023478 0.096457
v -0.065792 3.023478 0.096457
v -0.067832 3.023478 0.095578
v -0.067832 3.023478 0.092311
v -0.055168 3.023478 0.091433
v -0.065792 3.023478 0.091433
v 0.000000 3.010293 -0.186458
v 0.000000 3.024000 -0.126000
v 0.000000 3.029202 -0.207832
v 0.000000 2.905902 -0.197932
v 0.000000 2.905902 -0.167782
v -0.113454 3.042900 -0.186300
v -0.113454 3.042900 -0.124650
v -0.098151 2.996595 -0.207990
v -0.105803 3.019743 -0.197145
v -0.068178 2.905902 -0.182858
v 0.098151 2.996595 -0.207990
v 0.068178 2.905902 -0.182858
v 0.113454 3.042900 -0.186300
v 0.105803 3.019743 -0.197145
v 0.113454 3.042900 -0.124650
v 0.000000 3.042900 -0.063000
v 0.000000 2.815200 -0.157725
v 0.000000 3.061800 -0.123300
v 0.000000 3.021966 -0.180959
v 0.000000 3.024000 -0.177750
v -0.104314 3.022047 -0.180919
v -0.107881 3.026034 -0.180679
v -0.104958 3.024000 -0.177750
v -0.100430 3.010293 -0.186458
v -0.103161 3.011751 -0.188104
v 0.000000 2.998629 -0.191956
v 0.000000 2.994426 -0.192314
v -0.096546 2.998548 -0.191996
v -0.095219 2.994525 -0.192343
v -0.098151 2.996595 -0.195165
v 0.096546 2.998548 -0.191996
v 0.098151 2.996595 -0.195165
v 0.095219 2.994525 -0.192343
v 0.100430 3.010293 -0.186458
v 0.103161 3.011751 -0.188104
v 0.104314 3.022047 -0.180919
v 0.104958 3.024000 -0.177750
v 0.107881 3.026034 -0.180679
v -0.104958 3.024000 -0.126000
v -0.107913 3.026133 -0.125848
v 0.104958 3.024000 -0.126000
v 0.107913 3.026133 -0.125848
v 0.104958 3.024000 -0.074250
v 0.105602 3.025944 -0.071073
v 0.107852 3.025944 -0.073323
v 0.000000 3.024000 -0.074250
v 0.000000 3.026034 -0.071033
v -0.104958 3.024000 -0.074250
v -0.107852 3.025944 -0.073323
v -0.105602 3.025944 -0.071073
v -0.106676 3.029202 -0.207832
v -0.108445 3.027744 -0.206186
v -0.116805 3.059847 -0.193513
v -0.117450 3.061800 -0.190350
v -0.119027 3.059766 -0.191921
v 0.000000 3.059757 -0.193552
v 0.000000 3.061800 -0.190350
v 0.116805 3.059847 -0.193513
v 0.119027 3.059766 -0.191921
v 0.117450 3.061800 -0.190350
v 0.106676 3.029202 -0.207832
v 0.108445 3.027744 -0.206186
v 0.000000 2.998638 -0.222113
v 0.000000 2.994426 -0.222464
v 0.096547 2.998548 -0.222152
v 0.095219 2.994525 -0.222493
v 0.098151 2.996595 -0.220815
v -0.096547 2.998548 -0.222152
v -0.098151 2.996595 -0.220815
v -0.095219 2.994525 -0.222493
v -0.065928 2.905902 -0.197932
v -0.068178 2.905902 -0.195682
v 0.065928 2.905902 -0.197932
v 0.068178 2.905902 -0.195682
v 0.000000 2.817369 -0.173401
v 0.000000 2.815200 -0.170550
v 0.036638 2.817270 -0.173372
v 0.035955 2.815200 -0.170550
v 0.038888 2.817270 -0.171122
v -0.036638 2.817270 -0.173372
v -0.038888 2.817270 -0.171122
v -0.035955 2.815200 -0.170550
v -0.117450 3.061800 -0.123300
v -0.118995 3.059667 -0.123452
v -0.117450 3.061800 -0.056250
v -0.116807 3.059856 -0.054927
v -0.119057 3.059856 -0.057177
v 0.000000 3.061800 -0.056250
v 0.000000 3.059766 -0.054967
v 0.117450 3.061800 -0.056250
v 0.119057 3.059856 -0.057177
v 0.116807 3.059856 -0.054927
v 0.117450 3.061800 -0.123300
v 0.118995 3.059667 -0.123452
v 0.065928 2.905902 -0.167782
v 0.068178 2.905902 -0.170032
v -0.065928 2.905902 -0.167782
v -0.068178 2.905902 -0.170032
v 0.000000 2.817369 -0.143251
v 0.000000 2.815200 -0.144900
v -0.036638 2.817270 -0.143222
v -0.035955 2.815200 -0.144900
v -0.038888 2.817270 -0.145472
v 0.036638 2.817270 -0.143222
v 0.038888 2.817270 -0.145472
v 0.035955 2.815200 -0.144900
v -0.113454 3.042900 -0.065250
v -0.111204 3.042900 -0.063000
v -0.038888 2.817270 -0.158297
v -0.035955 2.815200 -0.157725
v 0.035955 2.815200 -0.157725
v 0.038888 2.817270 -0.158297
v 0.113454 3.042900 -0.065250
v 0.111204 3.042900 -0.063000
v 0.000000 3.022506 -0.180624
v 0.000000 3.022992 -0.180168
v 0.000000 3.023406 -0.179622
v 0.000000 3.023721 -0.179016
v 0.000000 3.023928 -0.178383
v -0.104850 3.022542 -0.180773
v -0.105535 3.023181 -0.180700
v -0.106275 3.023901 -0.180679
v -0.106975 3.024657 -0.180683
v -0.107541 3.025386 -0.180691
v -0.107622 3.025494 -0.180418
v -0.107234 3.025008 -0.180029
v -0.106746 3.024594 -0.179540
v -0.106186 3.024279 -0.178978
v -0.105580 3.024072 -0.178373
v -0.104842 3.023928 -0.178372
v -0.104737 3.023739 -0.178997
v -0.104638 3.023442 -0.179597
v -0.104538 3.023046 -0.180138
v -0.104432 3.022578 -0.180589
v -0.101045 3.010347 -0.186516
v -0.101631 3.010500 -0.186682
v -0.102162 3.010725 -0.186940
v -0.102611 3.011022 -0.187273
v -0.102953 3.011364 -0.187666
v -0.096333 2.997954 -0.192217
v -0.096110 2.997288 -0.192378
v -0.095882 2.996559 -0.192474
v -0.095655 2.995839 -0.192503
v -0.095432 2.995146 -0.192460
v -0.095731 2.994912 -0.192570
v -0.096321 2.995245 -0.192982
v -0.096921 2.995551 -0.193513
v -0.097469 2.995866 -0.194098
v -0.097900 2.996208 -0.194670
v -0.098094 2.996667 -0.194534
v -0.097933 2.996865 -0.193904
v -0.097682 2.997162 -0.193305
v -0.097357 2.997558 -0.192767
v -0.096972 2.998026 -0.192321
v 0.000000 2.998008 -0.192190
v 0.000000 2.997306 -0.192358
v 0.000000 2.996559 -0.192458
v 0.000000 2.995803 -0.192487
v 0.000000 2.995074 -0.192440
v 0.096873 2.998089 -0.192315
v 0.097250 2.997702 -0.192773
v 0.097619 2.997369 -0.193328
v 0.097930 2.997081 -0.193940
v 0.098125 2.996829 -0.194566
v 0.098047 2.996523 -0.194547
v 0.097751 2.996316 -0.193951
v 0.097293 2.995992 -0.193406
v 0.096699 2.995569 -0.192938
v 0.095998 2.995074 -0.192575
v 0.095432 2.995146 -0.192460
v 0.095655 2.995839 -0.192503
v 0.095882 2.996559 -0.192474
v 0.096110 2.997288 -0.192378
v 0.096333 2.997954 -0.192217
v 0.101045 3.010347 -0.186516
v 0.101631 3.010500 -0.186682
v 0.102162 3.010725 -0.186940
v 0.102611 3.011022 -0.187273
v 0.102953 3.011364 -0.187666
v 0.104432 3.022578 -0.180589
v 0.104538 3.023046 -0.180138
v 0.104638 3.023442 -0.179597
v 0.104737 3.023739 -0.178997
v 0.104842 3.023928 -0.178372
v 0.105460 3.024090 -0.178211
v 0.106045 3.024342 -0.178702
v 0.106646 3.024711 -0.179211
v 0.107197 3.025143 -0.179719
v 0.107631 3.025602 -0.180214
v 0.107599 3.025422 -0.180531
v 0.107146 3.024738 -0.180462
v 0.106557 3.024027 -0.180468
v 0.105866 3.023316 -0.180548
v 0.105107 3.022641 -0.180699
v -0.105582 3.024072 -0.125995
v -0.106190 3.024288 -0.125979
v -0.106755 3.024621 -0.125955
v -0.107249 3.025053 -0.125924
v -0.107644 3.025566 -0.125888
v 0.105582 3.024072 -0.125995
v 0.106190 3.024288 -0.125979
v 0.106755 3.024621 -0.125955
v 0.107249 3.025053 -0.125924
v 0.107644 3.025566 -0.125888
v 0.105074 3.024072 -0.073628
v 0.105178 3.024261 -0.073001
v 0.105278 3.024558 -0.072401
v 0.105378 3.024954 -0.071859
v 0.105484 3.025422 -0.071405
v 0.106156 3.025764 -0.071231
v 0.106666 3.025674 -0.071487
v 0.107111 3.025647 -0.071833
v 0.107470 3.025692 -0.072260
v 0.107724 3.025791 -0.072759
v 0.107590 3.025413 -0.073503
v 0.107200 3.024945 -0.073655
v 0.106710 3.024558 -0.073793
v 0.106152 3.024252 -0.073929
v 0.105557 3.024063 -0.074077
v 0.000000 3.024072 -0.073617
v 0.000000 3.024279 -0.072982
v 0.000000 3.024594 -0.072376
v 0.000000 3.025008 -0.071828
v 0.000000 3.025494 -0.071370
v -0.105557 3.024063 -0.074077
v -0.106152 3.024252 -0.073929
v -0.106710 3.024558 -0.073793
v -0.107200 3.024945 -0.073655
v -0.107590 3.025413 -0.073503
v -0.107724 3.025791 -0.072759
v -0.107470 3.025692 -0.072260
v -0.107111 3.025647 -0.071833
v -0.106666 3.025674 -0.071487
v -0.106156 3.025764 -0.071231
v -0.105484 3.025422 -0.071405
v -0.105378 3.024954 -0.071859
v -0.105278 3.024558 -0.072401
v -0.105178 3.024261 -0.073001
v -0.105074 3.024072 -0.073628
v -0.107257 3.029148 -0.207774
v -0.107745 3.028995 -0.207608
v -0.108126 3.028770 -0.207350
v -0.108381 3.028473 -0.207017
v -0.108492 3.028131 -0.206624
v -0.116923 3.060378 -0.193184
v -0.117029 3.060846 -0.192734
v -0.117129 3.061233 -0.192195
v -0.117229 3.061539 -0.191596
v -0.117334 3.061728 -0.190971
v -0.117891 3.061701 -0.190707
v -0.118309 3.061449 -0.190943
v -0.118668 3.061080 -0.191120
v -0.118931 3.060648 -0.191301
v -0.119063 3.060189 -0.191547
v -0.119102 3.060234 -0.192134
v -0.118971 3.060522 -0.192389
v -0.118655 3.060630 -0.192668
v -0.118174 3.060558 -0.192959
v -0.117550 3.060297 -0.193245
v 0.000000 3.060306 -0.193219
v 0.000000 3.060792 -0.192765
v 0.000000 3.061206 -0.192220
v 0.000000 3.061521 -0.191615
v 0.000000 3.061728 -0.190982
v 0.117376 3.059910 -0.193428
v 0.117883 3.059856 -0.193297
v 0.118313 3.059757 -0.193100
v 0.118655 3.059658 -0.192818
v 0.118896 3.059640 -0.192432
v 0.119126 3.060306 -0.192021
v 0.119059 3.060792 -0.191956
v 0.118844 3.061206 -0.191742
v 0.118494 3.061521 -0.191393
v 0.118024 3.061728 -0.190924
v 0.117334 3.061728 -0.190971
v 0.117229 3.061539 -0.191596
v 0.117129 3.061233 -0.192195
v 0.117029 3.060846 -0.192734
v 0.116923 3.060378 -0.193184
v 0.107257 3.029148 -0.207774
v 0.107745 3.028995 -0.207608
v 0.108126 3.028770 -0.207350
v 0.108381 3.028473 -0.207017
v 0.108492 3.028131 -0.206624
v 0.096334 2.997963 -0.222372
v 0.096111 2.997288 -0.222531
v 0.095882 2.996568 -0.222626
v 0.095655 2.995839 -0.222654
v 0.095432 2.995146 -0.222611
v 0.095794 2.994804 -0.222466
v 0.096393 2.995083 -0.222265
v 0.096971 2.995389 -0.221946
v 0.097485 2.995731 -0.221562
v 0.097894 2.996127 -0.221167
v 0.098094 2.996667 -0.221380
v 0.097933 2.996865 -0.221826
v 0.097682 2.997171 -0.222139
v 0.097357 2.997558 -0.222306
v 0.096973 2.998026 -0.222314
v 0.000000 2.998017 -0.222344
v 0.000000 2.997306 -0.222512
v 0.000000 2.996559 -0.222611
v 0.000000 2.995803 -0.222638
v 0.000000 2.995074 -0.222590
v -0.097030 2.998224 -0.222224
v -0.097466 2.997927 -0.222141
v -0.097826 2.997630 -0.221930
v -0.098079 2.997324 -0.221620
v -0.098198 2.996982 -0.221240
v -0.098047 2.996523 -0.221393
v -0.097751 2.996316 -0.221872
v -0.097293 2.995992 -0.222239
v -0.096699 2.995569 -0.222475
v -0.095998 2.995074 -0.222565
v -0.095432 2.995146 -0.222611
v -0.095655 2.995839 -0.222654
v -0.095882 2.996568 -0.222626
v -0.096111 2.997288 -0.222531
v -0.096334 2.997963 -0.222372
v -0.066526 2.905902 -0.197852
v -0.067064 2.905902 -0.197626
v -0.067519 2.905902 -0.197274
v -0.067871 2.905902 -0.196818
v -0.068098 2.905902 -0.196281
v 0.066526 2.905902 -0.197852
v 0.067064 2.905902 -0.197626
v 0.067519 2.905902 -0.197274
v 0.067871 2.905902 -0.196818
v 0.068098 2.905902 -0.196281
v 0.036503 2.816712 -0.173136
v 0.036392 2.816217 -0.172766
v 0.036293 2.815794 -0.172293
v 0.036195 2.815479 -0.171747
v 0.036086 2.815272 -0.171156
v 0.036569 2.815272 -0.170658
v 0.037172 2.815479 -0.170751
v 0.037735 2.815803 -0.170834
v 0.038228 2.816217 -0.170919
v 0.038622 2.816712 -0.171013
v 0.038764 2.817126 -0.171695
v 0.038519 2.817036 -0.172214
v 0.038169 2.817018 -0.172660
v 0.037729 2.817054 -0.173014
v 0.037213 2.817135 -0.173258
v 0.000000 2.816793 -0.173161
v 0.000000 2.816271 -0.172790
v 0.000000 2.815839 -0.172317
v 0.000000 2.815497 -0.171768
v 0.000000 2.815281 -0.171169
v -0.037213 2.817135 -0.173258
v -0.037729 2.817054 -0.173014
v -0.038169 2.817018 -0.172660
v -0.038519 2.817036 -0.172214
v -0.038764 2.817126 -0.171695
v -0.038622 2.816712 -0.171013
v -0.038228 2.816217 -0.170919
v -0.037735 2.815803 -0.170834
v -0.037172 2.815479 -0.170751
v -0.036569 2.815272 -0.170658
v -0.036086 2.815272 -0.171156
v -0.036195 2.815479 -0.171747
v -0.036293 2.815794 -0.172293
v -0.036392 2.816217 -0.172766
v -0.036503 2.816712 -0.173136
v -0.118023 3.061728 -0.123305
v -0.118490 3.061512 -0.123321
v -0.118835 3.061179 -0.123345
v -0.119044 3.060747 -0.123376
v -0.119102 3.060234 -0.123412
v -0.117255 3.061728 -0.055731
v -0.117173 3.061512 -0.055306
v -0.117147 3.061197 -0.054993
v -0.117115 3.060801 -0.054813
v -0.117022 3.060342 -0.054784
v -0.117362 3.059676 -0.055085
v -0.117871 3.059577 -0.055341
v -0.118316 3.059559 -0.055686
v -0.118675 3.059595 -0.056114
v -0.118929 3.059703 -0.056613
v -0.119124 3.060333 -0.056906
v -0.119022 3.060792 -0.056761
v -0.118778 3.061188 -0.056682
v -0.118417 3.061512 -0.056610
v -0.117965 3.061719 -0.056485
v 0.000000 3.061728 -0.055686
v 0.000000 3.061521 -0.055246
v 0.000000 3.061206 -0.054942
v 0.000000 3.060792 -0.054786
v 0.000000 3.060306 -0.054791
v 0.117965 3.061719 -0.056485
v 0.118417 3.061512 -0.056610
v 0.118778 3.061188 -0.056682
v 0.119022 3.060792 -0.056761
v 0.119124 3.060333 -0.056906
v 0.118929 3.059703 -0.056613
v 0.118675 3.059595 -0.056114
v 0.118316 3.059559 -0.055686
v 0.117871 3.059577 -0.055341
v 0.117362 3.059676 -0.055085
v 0.117022 3.060342 -0.054784
v 0.117115 3.060801 -0.054813
v 0.117147 3.061197 -0.054993
v 0.117173 3.061512 -0.055306
v 0.117255 3.061728 -0.055731
v 0.118023 3.061728 -0.123305
v 0.118490 3.061512 -0.123321
v 0.118835 3.061179 -0.123345
v 0.119044 3.060747 -0.123376
v 0.119102 3.060234 -0.123412
v 0.066526 2.905902 -0.167863
v 0.067064 2.905902 -0.168089
v 0.067519 2.905902 -0.168441
v 0.067871 2.905902 -0.168897
v 0.068098 2.905902 -0.169434
v -0.066526 2.905902 -0.167863
v -0.067064 2.905902 -0.168089
v -0.067519 2.905902 -0.168441
v -0.067871 2.905902 -0.168897
v -0.068098 2.905902 -0.169434
v -0.036445 2.816730 -0.143161
v -0.036341 2.816244 -0.143266
v -0.036283 2.815821 -0.143516
v -0.036229 2.815488 -0.143886
v -0.036133 2.815281 -0.144355
v -0.036569 2.815272 -0.145008
v -0.037172 2.815479 -0.145101
v -0.037735 2.815803 -0.145184
v -0.038228 2.816217 -0.145269
v -0.038622 2.816712 -0.145363
v -0.038764 2.817162 -0.144900
v -0.038519 2.817180 -0.144382
v -0.038169 2.817252 -0.143935
v -0.037729 2.817324 -0.143581
v -0.037213 2.817351 -0.143337
v 0.000000 2.816793 -0.143171
v 0.000000 2.816271 -0.143255
v 0.000000 2.815839 -0.143485
v 0.000000 2.815497 -0.143846
v 0.000000 2.815281 -0.144323
v 0.037213 2.817351 -0.143337
v 0.037729 2.817324 -0.143581
v 0.038169 2.817252 -0.143935
v 0.038519 2.817180 -0.144382
v 0.038764 2.817162 -0.144900
v 0.038622 2.816712 -0.145363
v 0.038228 2.816217 -0.145269
v 0.037735 2.815803 -0.145184
v 0.037172 2.815479 -0.145101
v 0.036569 2.815272 -0.145008
v 0.036133 2.815281 -0.144355
v 0.036229 2.815488 -0.143886
v 0.036283 2.815821 -0.143516
v 0.036341 2.816244 -0.143266
v 0.036445 2.816730 -0.143161
v -0.113374 3.042900 -0.064652
v -0.113147 3.042900 -0.064114
v -0.112795 3.042900 -0.063659
v -0.112340 3.042900 -0.063307
v -0.111802 3.042900 -0.063080
v -0.038626 2.816721 -0.158145
v -0.038236 2.816226 -0.158008
v -0.037746 2.815803 -0.157892
v -0.037184 2.815479 -0.157803
v -0.036578 2.815272 -0.157746
v 0.036578 2.815272 -0.157746
v 0.037184 2.815479 -0.157803
v 0.037746 2.815803 -0.157892
v 0.038236 2.816226 -0.158008
v 0.038626 2.816721 -0.158145
v 0.113374 3.042900 -0.064652
v 0.113147 3.042900 -0.064114
v 0.112795 3.042900 -0.063659
v 0.112340 3.042900 -0.063307
v 0.111802 3.042900 -0.063080
v -0.106226 3.023991 -0.179950
v -0.106834 3.024396 -0.180536
v -0.107338 3.024999 -0.180443
v -0.106672 3.024306 -0.180118
v -0.107053 3.024747 -0.179996
v -0.106515 3.024333 -0.179633
v -0.106689 3.024531 -0.179496
v -0.105099 3.023784 -0.179170
v -0.105383 3.023991 -0.178770
v -0.105674 3.023964 -0.179376
v -0.106001 3.024189 -0.179111
v -0.104917 3.023496 -0.179636
v -0.105446 3.023685 -0.179753
v -0.104901 3.023172 -0.180186
v -0.104890 3.022857 -0.180554
v -0.105481 3.023379 -0.180338
v -0.105503 3.023199 -0.180637
v -0.106186 3.023739 -0.180450
v -0.106202 3.023712 -0.180693
v -0.097158 2.996469 -0.193071
v -0.095917 2.995758 -0.192616
v -0.095818 2.995236 -0.192621
v -0.096325 2.995551 -0.192866
v -0.096269 2.995155 -0.192923
v -0.096891 2.995551 -0.193204
v -0.096813 2.995245 -0.193351
v -0.097805 2.996757 -0.193669
v -0.097860 2.996316 -0.194165
v -0.097429 2.996307 -0.193413
v -0.097395 2.995812 -0.193768
v -0.097679 2.997252 -0.193199
v -0.097504 2.997018 -0.193122
v -0.097187 2.997450 -0.192738
v -0.096729 2.997648 -0.192431
v -0.096826 2.997081 -0.192718
v -0.096376 2.997162 -0.192487
v -0.096516 2.996523 -0.192740
v -0.096091 2.996550 -0.192541
v 0.097222 2.996631 -0.193043
v 0.097873 2.997099 -0.193632
v 0.098011 2.996721 -0.194096
v 0.097578 2.996658 -0.193373
v 0.097669 2.996316 -0.193692
v 0.097195 2.996073 -0.193189
v 0.097218 2.995857 -0.193310
v 0.096008 2.995956 -0.192589
v 0.096032 2.995461 -0.192618
v 0.096501 2.996028 -0.192801
v 0.096608 2.995659 -0.192886
v 0.096114 2.996568 -0.192537
v 0.096561 2.996595 -0.192727
v 0.096448 2.997288 -0.192496
v 0.096708 2.997765 -0.192423
v 0.096995 2.997396 -0.192723
v 0.097219 2.997738 -0.192721
v 0.097546 2.997351 -0.193055
v 0.097678 2.997594 -0.193150
v 0.106252 3.024045 -0.179816
v 0.105158 3.023856 -0.179077
v 0.105336 3.024036 -0.178623
v 0.105795 3.024117 -0.179162
v 0.105972 3.024297 -0.178834
v 0.106472 3.024414 -0.179367
v 0.106603 3.024639 -0.179166
v 0.106991 3.024522 -0.180304
v 0.107392 3.025107 -0.180172
v 0.106737 3.024396 -0.179940
v 0.107042 3.024855 -0.179715
v 0.106485 3.023910 -0.180450
v 0.106384 3.023919 -0.180232
v 0.105747 3.023361 -0.180419
v 0.105075 3.022956 -0.180457
v 0.105548 3.023496 -0.180106
v 0.104954 3.023217 -0.180089
v 0.105483 3.023712 -0.179694
v 0.104944 3.023505 -0.179621
v 0.106552 3.024729 -0.072512
v 0.105951 3.024945 -0.071926
v 0.106053 3.025323 -0.071524
v 0.106455 3.024990 -0.072058
v 0.106573 3.025323 -0.071724
v 0.106794 3.025035 -0.072233
v 0.106980 3.025341 -0.072006
v 0.107123 3.024918 -0.073144
v 0.107483 3.025323 -0.072953
v 0.106967 3.024936 -0.072677
v 0.107269 3.025305 -0.072454
v 0.106692 3.024576 -0.073302
v 0.106640 3.024630 -0.072875
v 0.106186 3.024315 -0.073378
v 0.105646 3.024135 -0.073492
v 0.106215 3.024459 -0.072861
v 0.105728 3.024315 -0.072929
v 0.106230 3.024630 -0.072450
v 0.105805 3.024576 -0.072413
v -0.106564 3.024720 -0.072536
v -0.107134 3.024945 -0.073102
v -0.107489 3.025341 -0.072932
v -0.106989 3.024990 -0.072596
v -0.107280 3.025332 -0.072412
v -0.106799 3.025026 -0.072243
v -0.106981 3.025341 -0.072009
v -0.105916 3.024918 -0.071941
v -0.106035 3.025314 -0.071531
v -0.106384 3.024936 -0.072091
v -0.106538 3.025296 -0.071740
v -0.105806 3.024576 -0.072416
v -0.106234 3.024630 -0.072461
v -0.105754 3.024315 -0.072956
v -0.105658 3.024135 -0.073506
v -0.106266 3.024459 -0.072917
v -0.106211 3.024315 -0.073405
v -0.106645 3.024630 -0.072886
v -0.106693 3.024576 -0.073305
v -0.118508 3.061134 -0.192114
v -0.117861 3.061458 -0.191736
v -0.117855 3.061638 -0.191259
v -0.118333 3.061278 -0.191881
v -0.118315 3.061395 -0.191477
v -0.118597 3.061107 -0.191959
v -0.118650 3.061089 -0.191628
v -0.118914 3.060603 -0.192323
v -0.119083 3.060486 -0.191913
v -0.118759 3.060765 -0.192228
v -0.118901 3.060738 -0.191802
v -0.118626 3.060648 -0.192624
v -0.118578 3.060819 -0.192439
v -0.118208 3.060693 -0.192818
v -0.117642 3.060639 -0.193000
v -0.118249 3.060909 -0.192530
v -0.117731 3.060927 -0.192643
v -0.118268 3.061188 -0.192159
v -0.117808 3.061224 -0.192186
v 0.118470 3.060954 -0.192387
v 0.118778 3.060234 -0.192573
v 0.119009 3.060225 -0.192345
v 0.118783 3.060747 -0.192244
v 0.118976 3.060765 -0.192069
v 0.118678 3.061098 -0.192006
v 0.118803 3.061179 -0.191791
v 0.117895 3.061476 -0.191748
v 0.117952 3.061656 -0.191340
v 0.118382 3.061314 -0.191883
v 0.118454 3.061467 -0.191584
v 0.117809 3.061206 -0.192216
v 0.118256 3.061116 -0.192280
v 0.117711 3.060837 -0.192698
v 0.117543 3.060414 -0.193111
v 0.118223 3.060765 -0.192646
v 0.118068 3.060360 -0.192998
v 0.118505 3.060657 -0.192609
v 0.118453 3.060261 -0.192848
v 0.097162 2.996433 -0.222396
v 0.096251 2.996019 -0.222611
v 0.096031 2.995434 -0.222582
v 0.096827 2.996280 -0.222476
v 0.096648 2.995785 -0.222413
v 0.097243 2.996415 -0.222304
v 0.097179 2.996073 -0.222153
v 0.097813 2.996748 -0.221957
v 0.097910 2.996415 -0.221621
v 0.097584 2.996667 -0.222118
v 0.097610 2.996298 -0.221872
v 0.097602 2.997018 -0.222198
v 0.097430 2.996775 -0.222284
v 0.097231 2.997288 -0.222391
v 0.096800 2.997594 -0.222463
v 0.097039 2.996928 -0.222459
v 0.096607 2.997117 -0.222544
v 0.096829 2.996505 -0.222524
v 0.096403 2.996550 -0.222601
v -0.097260 2.996694 -0.222422
v -0.097891 2.996964 -0.221926
v -0.098052 2.996784 -0.221690
v -0.097615 2.996649 -0.222175
v -0.097743 2.996505 -0.222027
v -0.097322 2.996433 -0.222358
v -0.097333 2.996199 -0.222296
v -0.096301 2.996028 -0.222642
v -0.096155 2.995542 -0.222642
v -0.096863 2.996253 -0.222537
v -0.096790 2.995893 -0.222526
v -0.096460 2.996577 -0.222603
v -0.096919 2.996622 -0.222536
v -0.096682 2.997153 -0.222520
v -0.096854 2.997702 -0.222411
v -0.097152 2.996991 -0.222431
v -0.097312 2.997432 -0.222320
v -0.097466 2.996883 -0.222303
v -0.097654 2.997198 -0.222139
v 0.037589 2.815983 -0.172120
v 0.036754 2.815542 -0.171770
v 0.036673 2.815344 -0.171231
v 0.037271 2.815695 -0.171778
v 0.037228 2.815542 -0.171291
v 0.037670 2.815884 -0.171778
v 0.037719 2.815821 -0.171348
v 0.038316 2.816640 -0.172118
v 0.038522 2.816640 -0.171591
v 0.038018 2.816262 -0.171997
v 0.038163 2.816217 -0.171488
v 0.038023 2.816658 -0.172531
v 0.037829 2.816307 -0.172351
v 0.037570 2.816613 -0.172823
v 0.037063 2.816631 -0.173036
v 0.037388 2.816208 -0.172532
v 0.036915 2.816190 -0.172691
v 0.037228 2.815884 -0.172217
v 0.036796 2.815821 -0.172274
v -0.037572 2.815983 -0.172132
v -0.038305 2.816613 -0.172081
v -0.038516 2.816622 -0.171572
v -0.037994 2.816208 -0.171925
v -0.038152 2.816181 -0.171451
v -0.037663 2.815884 -0.171783
v -0.037717 2.815821 -0.171350
v -0.036726 2.815542 -0.171796
v -0.036659 2.815344 -0.171245
v -0.037213 2.815695 -0.171833
v -0.037200 2.815542 -0.171318
v -0.036794 2.815821 -0.172275
v -0.037220 2.815884 -0.172222
v -0.036954 2.816217 -0.172700
v -0.037082 2.816649 -0.173040
v -0.037463 2.816262 -0.172552
v -0.037609 2.816649 -0.172832
v -0.037822 2.816307 -0.172356
v -0.038021 2.816658 -0.172533
v -0.118477 3.060927 -0.055384
v -0.117675 3.060711 -0.054916
v -0.117570 3.060189 -0.054926
v -0.118152 3.060594 -0.055128
v -0.118050 3.060090 -0.055173
v -0.118501 3.060513 -0.055388
v -0.118448 3.060054 -0.055488
v -0.118941 3.060747 -0.056213
v -0.119010 3.060225 -0.056358
v -0.118755 3.060666 -0.055761
v -0.118775 3.060144 -0.055891
v -0.118744 3.061161 -0.056135
v -0.118643 3.061071 -0.055702
v -0.118328 3.061449 -0.056012
v -0.117810 3.061647 -0.055904
v -0.118225 3.061287 -0.055490
v -0.117728 3.061449 -0.055381
v -0.118131 3.061080 -0.055167
v -0.117688 3.061170 -0.055037
v 0.118442 3.060918 -0.055352
v 0.118931 3.060711 -0.056195
v 0.119005 3.060207 -0.056349
v 0.118732 3.060594 -0.055720
v 0.118765 3.060099 -0.055873
v 0.118485 3.060504 -0.055374
v 0.118444 3.060045 -0.055486
v 0.117649 3.060747 -0.054902
v 0.117557 3.060207 -0.054920
v 0.118098 3.060666 -0.055097
v 0.118025 3.060126 -0.055159
v 0.117681 3.061170 -0.055033
v 0.118113 3.061071 -0.055153
v 0.117759 3.061449 -0.055416
v 0.117826 3.061647 -0.055922
v 0.118285 3.061287 -0.055557
v 0.118361 3.061449 -0.056049
v 0.118628 3.061071 -0.055691
v 0.118740 3.061161 -0.056134
v -0.037598 2.816055 -0.143846
v -0.036751 2.815551 -0.143951
v -0.036698 2.815353 -0.144446
v -0.037253 2.815713 -0.144062
v -0.037232 2.815542 -0.144539
v -0.037674 2.815911 -0.144181
v -0.037720 2.815830 -0.144626
v -0.038290 2.816694 -0.144246
v -0.038512 2.816649 -0.144775
v -0.037991 2.816280 -0.144158
v -0.038152 2.816217 -0.144675
v -0.037990 2.816766 -0.143828
v -0.037799 2.816370 -0.143798
v -0.037519 2.816775 -0.143500
v -0.037000 2.816793 -0.143267
v -0.037318 2.816271 -0.143536
v -0.036838 2.816262 -0.143346
v -0.037187 2.815929 -0.143662
v -0.036749 2.815848 -0.143553
v 0.037560 2.816028 -0.143850
v 0.038282 2.816658 -0.144271
v 0.038509 2.816640 -0.144788
v 0.037972 2.816217 -0.144209
v 0.038145 2.816190 -0.144700
v 0.037657 2.815902 -0.144184
v 0.037716 2.815821 -0.144629
v 0.036717 2.815551 -0.143919
v 0.036682 2.815353 -0.144430
v 0.037183 2.815704 -0.143998
v 0.037199 2.815542 -0.144508
v 0.036743 2.815848 -0.143553
v 0.037168 2.815911 -0.143664
v 0.036876 2.816289 -0.143355
v 0.037020 2.816802 -0.143272
v 0.037393 2.816325 -0.143554
v 0.037559 2.816811 -0.143509
v 0.037783 2.816352 -0.143800
v 0.037986 2.816766 -0.143829
v 0.055168 2.917305 -0.091433
v 0.053128 2.917305 -0.092311
v 0.053128 2.917305 -0.095578
v 0.055167 2.917305 -0.096457
v 0.065792 2.917305 -0.096457
v 0.067832 2.917305 -0.095578
v 0.067832 2.917305 -0.092311
v 0.065792 2.917305 -0.091433
v -0.065792 2.917305 -0.091433
v -0.067832 2.917305 -0.092311
v -0.067832 2.917305 -0.095578
v -0.065792 2.917305 -0.096457
v -0.055167 2.917305 -0.096457
v -0.053128 2.917305 -0.095578
v -0.053128 2.917305 -0.092311
v -0.055168 2.917305 -0.091433
v 0.067832 3.023478 -0.092311
v 0.067832 3.023478 -0.095578
v 0.065792 3.023478 -0.096457
v 0.055167 3.023478 -0.096457
v 0.053128 3.023478 -0.095578
v 0.053128 3.023478 -0.092311
v 0.055168 3.023478 -0.091433
v 0.065792 3.023478 -0.091433
v -0.053128 3.023478 -0.092311
v -0.053128 3.023478 -0.095578
v -0.055167 3.023478 -0.096457
v -0.065792 3.023478 -0.096457
v -0.067832 3.023478 -0.095578
v -0.067832 3.023478 -0.092311
v -0.055168 3.023478 -0.091433
v -0.065792 3.023478 -0.091433
f 781 780 779
f 781 779 786
f 781 786 785
f 781 785 784
f 781 784 783
f 781 783 782
f 789 788 787
f 789 787 794
f 789 794 793
f 789 793 792
f 789 792 791
f 789 791 790
f 797 799 798
f 797 800 799
f 797 801 800
f 797 802 801
f 797 795 802
f 797 796 795
f 805 807 806
f 805 808 807
f 805 810 808
f 805 809 810
f 805 803 809
f 805 804 803
f 1589 1590 1591
f 1589 1591 1592
f 1589 1592 1593
f 1589 1593 1594
f 1589 1594 1595
f 1589 1595 1596
f 1597 1598 1599
f 1597 1599 1600
f 1597 1600 1601
f 1597 1601 1602
f 1597 1602 1603
f 1597 1603 1604
f 1611 1609 1610
f 1611 1608 1609
f 1611 1607 1608
f 1611 1606 1607
f 1611 1605 1606
f 1611 1612 1605
f 1620 1617 1618
f 1620 1616 1617
f 1620 1615 1616
f 1620 1614 1615
f 1620 1613 1614
f 1620 1619 1613
f 779 801 802
f 800 801 779
f 799 800 780
f 798 799 781
f 798 782 783
f 784 796 797
f 785 795 796
f 786 802 795
f 810 809 794
f 808 810 787
f 807 808 788
f 806 807 789
f 805 806 790
f 792 804 805
f 793 803 804
f 794 809 803
f 1612 1611 1589
f 1589 1611 1610
f 1590 1610 1609
f 1591 1609 1608
f 1593 1592 1608
f 1607 1606 1594
f 1606 1605 1595
f 1605 1612 1596
f 1604 1619 1620
f 1597 1620 1618
f 1598 1618 1617
f 1599 1617 1616
f 1600 1616 1615
f 1615 1614 1602
f 1614 1613 1603
f 1613 1619 1604
f 24 21 19
f 28 24 1
f 1 34 31
f 19 36 34
f 23 39 2
f 2 41 37
f 46 43 41
f 39 48 46
f 56 53 51
f 61 58 56
f 65 61 3
f 3 51 68
f 64 70 71
f 73 66 64
f 77 73 4
f 4 71 80
f 18 83 54
f 88 85 83
f 93 90 88
f 60 93 18
f 27 33 95
f 97 29 27
f 101 97 5
f 5 95 104
f 6 7 40
f 7 107 49
f 84 87 107
f 55 84 7
f 52 55 6
f 52 9 8
f 9 25 30
f 9 6 22
f 69 8 10
f 72 10 109
f 10 98 103
f 8 30 98
f 17 111 78
f 100 106 111
f 110 102 100
f 82 110 17
f 12 11 67
f 96 32 11
f 105 96 12
f 112 12 74
f 13 59 62
f 38 13 14
f 32 35 14
f 11 14 62
f 15 94 59
f 113 91 94
f 45 113 15
f 42 15 13
f 50 108 16
f 16 114 44
f 89 92 114
f 108 86 89
f 21 134 115
f 134 133 116
f 133 132 117
f 24 135 120
f 135 136 121
f 136 137 122
f 28 154 135
f 154 153 136
f 153 152 137
f 26 155 140
f 155 156 141
f 156 157 142
f 31 174 155
f 174 173 156
f 173 172 157
f 34 175 160
f 175 176 161
f 176 177 162
f 36 194 175
f 194 193 176
f 193 192 177
f 19 115 180
f 115 116 181
f 116 117 182
f 23 129 195
f 129 128 196
f 128 127 197
f 20 119 130
f 119 118 131
f 118 117 132
f 37 184 119
f 184 183 118
f 183 182 117
f 41 200 185
f 200 201 186
f 201 202 187
f 43 219 200
f 219 218 201
f 218 217 202
f 46 220 205
f 220 221 206
f 221 222 207
f 48 239 220
f 239 238 221
f 238 237 222
f 39 195 225
f 195 196 226
f 196 197 227
f 53 259 240
f 259 258 241
f 258 257 242
f 56 260 245
f 260 261 246
f 261 262 247
f 58 279 260
f 279 278 261
f 278 277 262
f 61 280 265
f 280 281 266
f 281 282 267
f 65 299 280
f 299 298 281
f 298 297 282
f 63 300 285
f 300 301 286
f 301 302 287
f 68 319 300
f 319 318 301
f 318 317 302
f 51 240 305
f 240 241 306
f 241 242 307
f 70 314 320
f 314 313 321
f 313 312 322
f 64 304 315
f 304 303 316
f 303 302 317
f 66 289 304
f 289 288 303
f 288 287 302
f 73 325 290
f 325 326 291
f 326 327 292
f 77 344 325
f 344 343 326
f 343 342 327
f 75 345 330
f 345 346 331
f 346 347 332
f 80 364 345
f 364 363 346
f 363 362 347
f 71 320 350
f 320 321 351
f 321 322 352
f 54 249 264
f 249 248 263
f 248 247 262
f 83 365 250
f 365 366 251
f 366 367 252
f 85 384 365
f 384 383 366
f 383 382 367
f 88 385 370
f 385 386 371
f 386 387 372
f 90 404 385
f 404 403 386
f 403 402 387
f 93 405 390
f 405 406 391
f 406 407 392
f 60 274 405
f 274 273 406
f 273 272 407
f 57 264 275
f 264 263 276
f 263 262 277
f 33 169 410
f 169 168 411
f 168 167 412
f 27 159 170
f 159 158 171
f 158 157 172
f 29 144 159
f 144 143 158
f 143 142 157
f 97 415 145
f 415 416 146
f 416 417 147
f 101 434 415
f 434 433 416
f 433 432 417
f 99 435 420
f 435 436 421
f 436 437 422
f 104 454 435
f 454 453 436
f 453 452 437
f 95 410 440
f 410 411 441
f 411 412 442
f 40 199 125
f 199 198 126
f 198 197 127
f 49 229 199
f 229 228 198
f 228 227 197
f 107 455 230
f 455 456 231
f 456 457 232
f 87 379 455
f 379 378 456
f 378 377 457
f 84 369 380
f 369 368 381
f 368 367 382
f 55 254 369
f 254 253 368
f 253 252 367
f 52 244 255
f 244 243 256
f 243 242 257
f 69 309 244
f 309 308 243
f 308 307 242
f 25 139 150
f 139 138 151
f 138 137 152
f 22 124 139
f 124 123 138
f 123 122 137
f 72 324 310
f 324 323 311
f 323 322 312
f 109 460 355
f 460 461 356
f 461 462 357
f 81 354 324
f 354 353 323
f 353 352 322
f 103 429 460
f 429 428 461
f 428 427 462
f 98 419 430
f 419 418 431
f 418 417 432
f 30 149 419
f 149 148 418
f 148 147 417
f 78 334 349
f 334 333 348
f 333 332 347
f 111 465 335
f 465 466 336
f 466 467 337
f 106 449 465
f 449 448 466
f 448 447 467
f 100 439 450
f 439 438 451
f 438 437 452
f 102 424 439
f 424 423 438
f 423 422 437
f 110 464 425
f 464 463 426
f 463 462 427
f 82 359 464
f 359 358 463
f 358 357 462
f 76 349 360
f 349 348 361
f 348 347 362
f 67 294 329
f 294 293 328
f 293 292 327
f 96 414 165
f 414 413 166
f 413 412 167
f 105 444 414
f 444 443 413
f 443 442 412
f 112 469 445
f 469 468 446
f 468 467 447
f 74 329 340
f 329 328 341
f 328 327 342
f 79 339 469
f 339 338 468
f 338 337 467
f 59 269 284
f 269 268 283
f 268 267 282
f 35 179 190
f 179 178 191
f 178 177 192
f 32 164 179
f 164 163 178
f 163 162 177
f 62 284 295
f 284 283 296
f 283 282 297
f 94 409 270
f 409 408 271
f 408 407 272
f 91 394 409
f 394 393 408
f 393 392 407
f 113 470 395
f 470 471 396
f 471 472 397
f 45 214 470
f 214 213 471
f 213 212 472
f 42 204 215
f 204 203 216
f 203 202 217
f 38 189 204
f 189 188 203
f 188 187 202
f 50 234 459
f 234 233 458
f 233 232 457
f 47 224 235
f 224 223 236
f 223 222 237
f 44 209 224
f 209 208 223
f 208 207 222
f 114 474 210
f 474 473 211
f 473 472 212
f 92 399 474
f 399 398 473
f 398 397 472
f 89 389 400
f 389 388 401
f 388 387 402
f 86 374 389
f 374 373 388
f 373 372 387
f 108 459 375
f 459 458 376
f 458 457 377
f 477 124 22
f 123 124 477
f 125 126 479
f 477 479 478
f 483 129 23
f 128 129 483
f 130 131 482
f 482 484 485
f 489 134 21
f 133 134 489
f 120 121 491
f 489 491 490
f 126 127 481
f 122 123 476
f 475 492 478
f 492 493 476
f 478 479 481
f 131 132 486
f 128 485 481
f 475 480 484
f 486 487 484
f 480 481 485
f 122 493 491
f 132 133 488
f 475 487 490
f 488 490 487
f 490 491 493
f 496 144 29
f 143 144 496
f 146 498 496
f 496 498 497
f 502 149 30
f 148 149 502
f 150 151 501
f 501 503 504
f 508 154 28
f 153 154 508
f 140 141 510
f 508 510 509
f 146 147 500
f 142 143 495
f 494 511 497
f 511 512 495
f 497 498 500
f 152 505 501
f 147 148 504
f 494 499 503
f 505 506 503
f 499 500 504
f 141 142 512
f 153 507 505
f 494 506 509
f 507 509 506
f 509 510 512
f 515 164 32
f 163 164 515
f 165 166 517
f 515 517 516
f 521 169 33
f 168 169 521
f 170 171 520
f 520 522 523
f 527 174 31
f 173 174 527
f 161 529 527
f 527 529 528
f 167 519 517
f 162 163 514
f 513 530 516
f 530 531 514
f 516 517 519
f 171 172 524
f 168 523 519
f 513 518 522
f 524 525 522
f 518 519 523
f 161 162 531
f 172 173 526
f 513 525 528
f 526 528 525
f 528 529 531
f 534 184 37
f 183 184 534
f 185 186 536
f 534 536 535
f 540 189 38
f 188 189 540
f 190 191 539
f 539 541 542
f 546 194 36
f 193 194 546
f 180 181 548
f 546 548 547
f 186 187 538
f 182 183 533
f 532 549 535
f 549 550 533
f 535 536 538
f 191 192 543
f 187 188 542
f 532 537 541
f 543 544 541
f 537 538 542
f 181 182 550
f 193 545 543
f 532 544 547
f 545 547 544
f 547 548 550
f 553 209 44
f 208 209 553
f 210 211 555
f 553 555 554
f 559 214 45
f 213 214 559
f 215 216 558
f 558 560 561
f 565 219 43
f 218 219 565
f 205 206 567
f 565 567 566
f 211 212 557
f 207 208 552
f 551 568 554
f 568 569 552
f 554 555 557
f 216 217 562
f 212 213 561
f 551 556 560
f 562 563 560
f 556 557 561
f 206 207 569
f 217 218 564
f 551 563 566
f 564 566 563
f 566 567 569
f 572 229 49
f 228 229 572
f 230 231 574
f 572 574 573
f 578 234 50
f 233 234 578
f 235 236 577
f 577 579 580
f 584 239 48
f 238 239 584
f 225 226 586
f 584 586 585
f 231 232 576
f 227 228 571
f 570 587 573
f 587 588 571
f 573 574 576
f 236 237 581
f 232 233 580
f 570 575 579
f 581 582 579
f 575 576 580
f 226 227 588
f 237 238 583
f 570 582 585
f 583 585 582
f 585 586 588
f 591 249 54
f 248 249 591
f 250 251 593
f 591 593 592
f 597 254 55
f 253 254 597
f 255 256 596
f 596 598 599
f 603 259 53
f 258 259 603
f 245 246 605
f 603 605 604
f 251 252 595
f 247 248 590
f 589 606 592
f 606 607 590
f 592 593 595
f 256 257 600
f 252 253 599
f 589 594 598
f 600 601 598
f 594 595 599
f 246 247 607
f 257 258 602
f 589 601 604
f 602 604 601
f 604 605 607
f 610 269 59
f 268 269 610
f 270 271 612
f 610 612 611
f 616 274 60
f 273 274 616
f 275 276 615
f 615 617 618
f 622 279 58
f 278 279 622
f 265 266 624
f 622 624 623
f 271 272 614
f 267 268 609
f 608 625 611
f 625 626 609
f 611 612 614
f 276 277 619
f 272 273 618
f 608 613 617
f 619 620 617
f 613 614 618
f 266 267 626
f 277 278 621
f 608 620 623
f 621 623 620
f 623 624 626
f 629 289 66
f 288 289 629
f 290 291 631
f 629 631 630
f 635 294 67
f 293 294 635
f 295 296 634
f 634 636 637
f 641 299 65
f 298 299 641
f 285 286 643
f 641 643 642
f 291 292 633
f 287 288 628
f 627 644 630
f 644 645 628
f 630 631 633
f 296 297 638
f 292 293 637
f 627 632 636
f 638 639 636
f 632 633 637
f 286 287 645
f 297 298 640
f 627 639 642
f 640 642 639
f 642 643 645
f 648 309 69
f 308 309 648
f 310 311 650
f 648 650 649
f 654 314 70
f 313 314 654
f 315 316 653
f 653 655 656
f 660 319 68
f 318 319 660
f 305 306 662
f 660 662 661
f 311 312 652
f 307 308 647
f 646 663 649
f 663 664 647
f 649 650 652
f 316 317 657
f 312 313 656
f 646 651 655
f 657 658 655
f 651 652 656
f 306 307 664
f 317 318 659
f 646 658 661
f 659 661 658
f 661 662 664
f 667 334 78
f 333 334 667
f 335 336 669
f 667 669 668
f 673 339 79
f 338 339 673
f 340 341 672
f 672 674 675
f 679 344 77
f 343 344 679
f 330 331 681
f 679 681 680
f 336 337 671
f 332 333 666
f 665 682 668
f 682 683 666
f 668 669 671
f 341 342 676
f 337 338 675
f 665 670 674
f 676 677 674
f 670 671 675
f 331 332 683
f 342 343 678
f 665 677 680
f 678 680 677
f 680 681 683
f 686 354 81
f 353 354 686
f 355 356 688
f 686 688 687
f 692 359 82
f 358 359 692
f 360 361 691
f 691 693 694
f 698 364 80
f 363 364 698
f 350 351 700
f 698 700 699
f 356 357 690
f 352 353 685
f 684 701 687
f 701 702 685
f 687 688 690
f 361 362 695
f 357 358 694
f 684 689 693
f 695 696 693
f 689 690 694
f 351 352 702
f 362 363 697
f 684 696 699
f 697 699 696
f 699 700 702
f 705 374 86
f 373 374 705
f 375 376 707
f 705 707 706
f 711 379 87
f 378 379 711
f 380 381 710
f 710 712 713
f 717 384 85
f 383 384 717
f 370 371 719
f 717 719 718
f 376 377 709
f 372 373 704
f 703 720 706
f 720 721 704
f 706 707 709
f 381 382 714
f 377 378 713
f 703 708 712
f 714 715 712
f 708 709 713
f 371 372 721
f 382 383 716
f 703 715 718
f 716 718 715
f 718 719 721
f 724 394 91
f 393 394 724
f 395 396 726
f 724 726 725
f 730 399 92
f 398 399 730
f 400 401 729
f 729 731 732
f 736 404 90
f 403 404 736
f 390 391 738
f 736 738 737
f 396 397 728
f 392 393 723
f 722 739 725
f 739 740 723
f 725 726 728
f 401 402 733
f 397 398 732
f 722 727 731
f 733 734 731
f 727 728 732
f 391 392 740
f 402 403 735
f 722 734 737
f 735 737 734
f 737 738 740
f 743 424 102
f 423 424 743
f 425 426 745
f 743 745 744
f 749 429 103
f 428 429 749
f 430 431 748
f 748 750 751
f 755 434 101
f 433 434 755
f 420 421 757
f 755 757 756
f 426 427 747
f 422 423 742
f 741 758 744
f 758 759 742
f 744 745 747
f 431 432 752
f 427 428 751
f 741 746 750
f 752 753 750
f 746 747 751
f 421 422 759
f 432 433 754
f 741 753 756
f 754 756 753
f 756 757 759
f 762 444 105
f 443 444 762
f 445 446 764
f 762 764 763
f 768 449 106
f 448 449 768
f 450 451 767
f 767 769 770
f 774 454 104
f 453 454 774
f 440 441 776
f 774 776 775
f 446 447 766
f 442 443 761
f 760 777 763
f 777 778 761
f 763 764 766
f 451 452 771
f 447 448 770
f 760 765 769
f 771 772 769
f 765 766 770
f 441 442 778
f 452 453 773
f 760 772 775
f 773 775 772
f 775 776 778
f 829 831 834
f 811 834 838
f 841 844 811
f 844 846 829
f 812 849 833
f 847 851 812
f 851 853 856
f 856 858 849
f 861 863 866
f 866 868 871
f 813 871 875
f 878 861 813
f 881 880 874
f 874 876 883
f 814 883 887
f 890 881 814
f 864 893 828
f 893 895 898
f 898 900 903
f 828 903 870
f 905 843 837
f 837 839 907
f 815 907 911
f 914 905 815
f 850 817 816
f 859 917 817
f 917 897 894
f 817 894 865
f 816 865 862
f 818 819 862
f 840 835 819
f 832 816 819
f 820 818 879
f 919 820 882
f 913 908 820
f 908 840 818
f 888 921 827
f 921 916 910
f 910 912 920
f 827 920 892
f 877 821 822
f 821 842 906
f 822 906 915
f 884 822 922
f 872 869 823
f 824 823 848
f 824 845 842
f 872 824 821
f 869 904 825
f 904 901 923
f 825 923 855
f 823 825 852
f 826 918 860
f 854 924 826
f 924 902 899
f 899 896 918
f 925 944 831
f 926 943 944
f 927 942 943
f 930 945 834
f 931 946 945
f 932 947 946
f 945 964 838
f 946 963 964
f 947 962 963
f 950 965 836
f 951 966 965
f 952 967 966
f 965 984 841
f 966 983 984
f 967 982 983
f 970 985 844
f 971 986 985
f 972 987 986
f 985 1004 846
f 986 1003 1004
f 987 1002 1003
f 990 925 829
f 991 926 925
f 992 927 926
f 1005 939 833
f 1006 938 939
f 1007 937 938
f 940 929 830
f 941 928 929
f 942 927 928
f 929 994 847
f 928 993 994
f 927 992 993
f 995 1010 851
f 996 1011 1010
f 997 1012 1011
f 1010 1029 853
f 1011 1028 1029
f 1012 1027 1028
f 1015 1030 856
f 1016 1031 1030
f 1017 1032 1031
f 1030 1049 858
f 1031 1048 1049
f 1032 1047 1048
f 1035 1005 849
f 1036 1006 1005
f 1037 1007 1006
f 1050 1069 863
f 1051 1068 1069
f 1052 1067 1068
f 1055 1070 866
f 1056 1071 1070
f 1057 1072 1071
f 1070 1089 868
f 1071 1088 1089
f 1072 1087 1088
f 1075 1090 871
f 1076 1091 1090
f 1077 1092 1091
f 1090 1109 875
f 1091 1108 1109
f 1092 1107 1108
f 1095 1110 873
f 1096 1111 1110
f 1097 1112 1111
f 1110 1129 878
f 1111 1128 1129
f 1112 1127 1128
f 1115 1050 861
f 1116 1051 1050
f 1117 1052 1051
f 1130 1124 880
f 1131 1123 1124
f 1132 1122 1123
f 1125 1114 874
f 1126 1113 1114
f 1127 1112 1113
f 1114 1099 876
f 1113 1098 1099
f 1112 1097 1098
f 1100 1135 883
f 1101 1136 1135
f 1102 1137 1136
f 1135 1154 887
f 1136 1153 1154
f 1137 1152 1153
f 1140 1155 885
f 1141 1156 1155
f 1142 1157 1156
f 1155 1174 890
f 1156 1173 1174
f 1157 1172 1173
f 1160 1130 881
f 1161 1131 1130
f 1162 1132 1131
f 1074 1059 864
f 1073 1058 1059
f 1072 1057 1058
f 1060 1175 893
f 1061 1176 1175
f 1062 1177 1176
f 1175 1194 895
f 1176 1193 1194
f 1177 1192 1193
f 1180 1195 898
f 1181 1196 1195
f 1182 1197 1196
f 1195 1214 900
f 1196 1213 1214
f 1197 1212 1213
f 1200 1215 903
f 1201 1216 1215
f 1202 1217 1216
f 1215 1084 870
f 1216 1083 1084
f 1217 1082 1083
f 1085 1074 867
f 1086 1073 1074
f 1087 1072 1073
f 1220 979 843
f 1221 978 979
f 1222 977 978
f 980 969 837
f 981 968 969
f 982 967 968
f 969 954 839
f 968 953 954
f 967 952 953
f 955 1225 907
f 956 1226 1225
f 957 1227 1226
f 1225 1244 911
f 1226 1243 1244
f 1227 1242 1243
f 1230 1245 909
f 1231 1246 1245
f 1232 1247 1246
f 1245 1264 914
f 1246 1263 1264
f 1247 1262 1263
f 1250 1220 905
f 1251 1221 1220
f 1252 1222 1221
f 935 1009 850
f 936 1008 1009
f 937 1007 1008
f 1009 1039 859
f 1008 1038 1039
f 1007 1037 1038
f 1040 1265 917
f 1041 1266 1265
f 1042 1267 1266
f 1265 1189 897
f 1266 1188 1189
f 1267 1187 1188
f 1190 1179 894
f 1191 1178 1179
f 1192 1177 1178
f 1179 1064 865
f 1178 1063 1064
f 1177 1062 1063
f 1065 1054 862
f 1066 1053 1054
f 1067 1052 1053
f 1054 1119 879
f 1053 1118 1119
f 1052 1117 1118
f 960 949 835
f 961 948 949
f 962 947 948
f 949 934 832
f 948 933 934
f 947 932 933
f 1120 1134 882
f 1121 1133 1134
f 1122 1132 1133
f 1165 1270 919
f 1166 1271 1270
f 1167 1272 1271
f 1134 1164 891
f 1133 1163 1164
f 1132 1162 1163
f 1270 1239 913
f 1271 1238 1239
f 1272 1237 1238
f 1240 1229 908
f 1241 1228 1229
f 1242 1227 1228
f 1229 959 840
f 1228 958 959
f 1227 957 958
f 1159 1144 888
f 1158 1143 1144
f 1157 1142 1143
f 1145 1275 921
f 1146 1276 1275
f 1147 1277 1276
f 1275 1259 916
f 1276 1258 1259
f 1277 1257 1258
f 1260 1249 910
f 1261 1248 1249
f 1262 1247 1248
f 1249 1234 912
f 1248 1233 1234
f 1247 1232 1233
f 1235 1274 920
f 1236 1273 1274
f 1237 1272 1273
f 1274 1169 892
f 1273 1168 1169
f 1272 1167 1168
f 1170 1159 886
f 1171 1158 1159
f 1172 1157 1158
f 1139 1104 877
f 1138 1103 1104
f 1137 1102 1103
f 975 1224 906
f 976 1223 1224
f 977 1222 1223
f 1224 1254 915
f 1223 1253 1254
f 1222 1252 1253
f 1255 1279 922
f 1256 1278 1279
f 1257 1277 1278
f 1150 1139 884
f 1151 1138 1139
f 1152 1137 1138
f 1279 1149 889
f 1278 1148 1149
f 1277 1147 1148
f 1094 1079 869
f 1093 1078 1079
f 1092 1077 1078
f 1000 989 845
f 1001 988 989
f 1002 987 988
f 989 974 842
f 988 973 974
f 987 972 973
f 1105 1094 872
f 1106 1093 1094
f 1107 1092 1093
f 1080 1219 904
f 1081 1218 1219
f 1082 1217 1218
f 1219 1204 901
f 1218 1203 1204
f 1217 1202 1203
f 1205 1280 923
f 1206 1281 1280
f 1207 1282 1281
f 1280 1024 855
f 1281 1023 1024
f 1282 1022 1023
f 1025 1014 852
f 1026 1013 1014
f 1027 1012 1013
f 1014 999 848
f 1013 998 999
f 1012 997 998
f 1269 1044 860
f 1268 1043 1044
f 1267 1042 1043
f 1045 1034 857
f 1046 1033 1034
f 1047 1032 1033
f 1034 1019 854
f 1033 1018 1019
f 1032 1017 1018
f 1020 1284 924
f 1021 1283 1284
f 1022 1282 1283
f 1284 1209 902
f 1283 1208 1209
f 1282 1207 1208
f 1210 1199 899
f 1211 1198 1199
f 1212 1197 1198
f 1199 1184 896
f 1198 1183 1184
f 1197 1182 1183
f 1185 1269 918
f 1186 1268 1269
f 1187 1267 1268
f 832 934 1287
f 1287 934 933
f 1289 936 935
f 1288 1289 1287
f 833 939 1293
f 1293 939 938
f 1292 941 940
f 1295 1294 1292
f 831 944 1299
f 1299 944 943
f 1301 931 930
f 1300 1301 1299
f 1291 937 936
f 1286 933 932
f 1288 1302 1285
f 1286 1303 1302
f 1291 1289 1288
f 1296 942 941
f 938 937 1291
f 1294 1290 1285
f 1294 1297 1296
f 1295 1291 1290
f 932 931 1301
f 1298 943 942
f 1300 1297 1285
f 1297 1300 1298
f 1303 1301 1300
f 839 954 1306
f 1306 954 953
f 956 955 1306
f 1307 1308 1306
f 840 959 1312
f 1312 959 958
f 1311 961 960
f 1314 1313 1311
f 838 964 1318
f 1318 964 963
f 1320 951 950
f 1319 1320 1318
f 1310 957 956
f 1305 953 952
f 1307 1321 1304
f 1305 1322 1321
f 1310 1308 1307
f 962 961 1311
f 1314 958 957
f 1313 1309 1304
f 1313 1316 1315
f 1314 1310 1309
f 1322 952 951
f 963 962 1315
f 1319 1316 1304
f 1316 1319 1317
f 1322 1320 1319
f 842 974 1325
f 1325 974 973
f 1327 976 975
f 1326 1327 1325
f 843 979 1331
f 1331 979 978
f 1330 981 980
f 1333 1332 1330
f 841 984 1337
f 1337 984 983
f 971 970 1337
f 1338 1339 1337
f 977 976 1327
f 1324 973 972
f 1326 1340 1323
f 1324 1341 1340
f 1329 1327 1326
f 1334 982 981
f 978 977 1329
f 1332 1328 1323
f 1332 1335 1334
f 1333 1329 1328
f 1341 972 971
f 1336 983 982
f 1338 1335 1323
f 1335 1338 1336
f 1341 1339 1338
f 847 994 1344
f 1344 994 993
f 1346 996 995
f 1345 1346 1344
f 848 999 1350
f 1350 999 998
f 1349 1001 1000
f 1352 1351 1349
f 846 1004 1356
f 1356 1004 1003
f 1358 991 990
f 1357 1358 1356
f 1348 997 996
f 1343 993 992
f 1345 1359 1342
f 1343 1360 1359
f 1348 1346 1345
f 1353 1002 1001
f 1352 998 997
f 1351 1347 1342
f 1351 1354 1353
f 1352 1348 1347
f 1360 992 991
f 1003 1002 1353
f 1357 1354 1342
f 1354 1357 1355
f 1360 1358 1357
f 854 1019 1363
f 1363 1019 1018
f 1365 1021 1020
f 1364 1365 1363
f 855 1024 1369
f 1369 1024 1023
f 1368 1026 1025
f 1371 1370 1368
f 853 1029 1375
f 1375 1029 1028
f 1377 1016 1015
f 1376 1377 1375
f 1367 1022 1021
f 1362 1018 1017
f 1364 1378 1361
f 1362 1379 1378
f 1367 1365 1364
f 1372 1027 1026
f 1371 1023 1022
f 1370 1366 1361
f 1370 1373 1372
f 1371 1367 1366
f 1379 1017 1016
f 1374 1028 1027
f 1376 1373 1361
f 1373 1376 1374
f 1379 1377 1376
f 859 1039 1382
f 1382 1039 1038
f 1384 1041 1040
f 1383 1384 1382
f 860 1044 1388
f 1388 1044 1043
f 1387 1046 1045
f 1390 1389 1387
f 858 1049 1394
f 1394 1049 1048
f 1396 1036 1035
f 1395 1396 1394
f 1386 1042 1041
f 1381 1038 1037
f 1383 1397 1380
f 1381 1398 1397
f 1386 1384 1383
f 1391 1047 1046
f 1390 1043 1042
f 1389 1385 1380
f 1389 1392 1391
f 1390 1386 1385
f 1398 1037 1036
f 1393 1048 1047
f 1395 1392 1380
f 1392 1395 1393
f 1398 1396 1395
f 864 1059 1401
f 1401 1059 1058
f 1403 1061 1060
f 1402 1403 1401
f 865 1064 1407
f 1407 1064 1063
f 1406 1066 1065
f 1409 1408 1406
f 863 1069 1413
f 1413 1069 1068
f 1415 1056 1055
f 1414 1415 1413
f 1405 1062 1061
f 1400 1058 1057
f 1402 1416 1399
f 1400 1417 1416
f 1405 1403 1402
f 1410 1067 1066
f 1409 1063 1062
f 1408 1404 1399
f 1408 1411 1410
f 1409 1405 1404
f 1417 1057 1056
f 1412 1068 1067
f 1414 1411 1399
f 1411 1414 1412
f 1417 1415 1414
f 869 1079 1420
f 1420 1079 1078
f 1422 1081 1080
f 1421 1422 1420
f 870 1084 1426
f 1426 1084 1083
f 1425 1086 1085
f 1428 1427 1425
f 868 1089 1432
f 1432 1089 1088
f 1434 1076 1075
f 1433 1434 1432
f 1424 1082 1081
f 1419 1078 1077
f 1421 1435 1418
f 1419 1436 1435
f 1424 1422 1421
f 1429 1087 1086
f 1428 1083 1082
f 1427 1423 1418
f 1427 1430 1429
f 1428 1424 1423
f 1436 1077 1076
f 1431 1088 1087
f 1433 1430 1418
f 1430 1433 1431
f 1436 1434 1433
f 876 1099 1439
f 1439 1099 1098
f 1441 1101 1100
f 1440 1441 1439
f 877 1104 1445
f 1445 1104 1103
f 1444 1106 1105
f 1447 1446 1444
f 875 1109 1451
f 1451 1109 1108
f 1453 1096 1095
f 1452 1453 1451
f 1443 1102 1101
f 1438 1098 1097
f 1440 1454 1437
f 1438 1455 1454
f 1443 1441 1440
f 1448 1107 1106
f 1447 1103 1102
f 1446 1442 1437
f 1446 1449 1448
f 1447 1443 1442
f 1455 1097 1096
f 1450 1108 1107
f 1452 1449 1437
f 1449 1452 1450
f 1455 1453 1452
f 879 1119 1458
f 1458 1119 1118
f 1460 1121 1120
f 1459 1460 1458
f 880 1124 1464
f 1464 1124 1123
f 1463 1126 1125
f 1466 1465 1463
f 878 1129 1470
f 1470 1129 1128
f 1472 1116 1115
f 1471 1472 1470
f 1462 1122 1121
f 1457 1118 1117
f 1459 1473 1456
f 1457 1474 1473
f 1462 1460 1459
f 1467 1127 1126
f 1466 1123 1122
f 1465 1461 1456
f 1465 1468 1467
f 1466 1462 1461
f 1474 1117 1116
f 1469 1128 1127
f 1471 1468 1456
f 1468 1471 1469
f 1474 1472 1471
f 888 1144 1477
f 1477 1144 1143
f 1479 1146 1145
f 1478 1479 1477
f 889 1149 1483
f 1483 1149 1148
f 1482 1151 1150
f 1485 1484 1482
f 887 1154 1489
f 1489 1154 1153
f 1491 1141 1140
f 1490 1491 1489
f 1481 1147 1146
f 1476 1143 1142
f 1478 1492 1475
f 1476 1493 1492
f 1481 1479 1478
f 1486 1152 1151
f 1485 1148 1147
f 1484 1480 1475
f 1484 1487 1486
f 1485 1481 1480
f 1493 1142 1141
f 1488 1153 1152
f 1490 1487 1475
f 1487 1490 1488
f 1493 1491 1490
f 891 1164 1496
f 1496 1164 1163
f 1498 1166 1165
f 1497 1498 1496
f 892 1169 1502
f 1502 1169 1168
f 1501 1171 1170
f 1504 1503 1501
f 890 1174 1508
f 1508 1174 1173
f 1510 1161 1160
f 1509 1510 1508
f 1500 1167 1166
f 1495 1163 1162
f 1497 1511 1494
f 1495 1512 1511
f 1500 1498 1497
f 1505 1172 1171
f 1504 1168 1167
f 1503 1499 1494
f 1503 1506 1505
f 1504 1500 1499
f 1512 1162 1161
f 1507 1173 1172
f 1509 1506 1494
f 1506 1509 1507
f 1512 1510 1509
f 896 1184 1515
f 1515 1184 1183
f 1517 1186 1185
f 1516 1517 1515
f 897 1189 1521
f 1521 1189 1188
f 1520 1191 1190
f 1523 1522 1520
f 895 1194 1527
f 1527 1194 1193
f 1529 1181 1180
f 1528 1529 1527
f 1519 1187 1186
f 1514 1183 1182
f 1516 1530 1513
f 1514 1531 1530
f 1519 1517 1516
f 1524 1192 1191
f 1523 1188 1187
f 1522 1518 1513
f 1522 1525 1524
f 1523 1519 1518
f 1531 1182 1181
f 1526 1193 1192
f 1528 1525 1513
f 1525 1528 1526
f 1531 1529 1528
f 901 1204 1534
f 1534 1204 1203
f 1536 1206 1205
f 1535 1536 1534
f 902 1209 1540
f 1540 1209 1208
f 1539 1211 1210
f 1542 1541 1539
f 900 1214 1546
f 1546 1214 1213
f 1548 1201 1200
f 1547 1548 1546
f 1538 1207 1206
f 1533 1203 1202
f 1535 1549 1532
f 1533 1550 1549
f 1538 1536 1535
f 1543 1212 1211
f 1542 1208 1207
f 1541 1537 1532
f 1541 1544 1543
f 1542 1538 1537
f 1550 1202 1201
f 1545 1213 1212
f 1547 1544 1532
f 1544 1547 1545
f 1550 1548 1547
f 912 1234 1553
f 1553 1234 1233
f 1555 1236 1235
f 1554 1555 1553
f 913 1239 1559
f 1559 1239 1238
f 1558 1241 1240
f 1561 1560 1558
f 911 1244 1565
f 1565 1244 1243
f 1567 1231 1230
f 1566 1567 1565
f 1557 1237 1236
f 1552 1233 1232
f 1554 1568 1551
f 1552 1569 1568
f 1557 1555 1554
f 1562 1242 1241
f 1561 1238 1237
f 1560 1556 1551
f 1560 1563 1562
f 1561 1557 1556
f 1569 1232 1231
f 1564 1243 1242
f 1566 1563 1551
f 1563 1566 1564
f 1569 1567 1566
f 915 1254 1572
f 1572 1254 1253
f 1574 1256 1255
f 1573 1574 1572
f 916 1259 1578
f 1578 1259 1258
f 1577 1261 1260
f 1580 1579 1577
f 914 1264 1584
f 1584 1264 1263
f 1586 1251 1250
f 1585 1586 1584
f 1576 1257 1256
f 1571 1253 1252
f 1573 1587 1570
f 1571 1588 1587
f 1576 1574 1573
f 1581 1262 1261
f 1580 1258 1257
f 1579 1575 1570
f 1579 1582 1581
f 1580 1576 1575
f 1588 1252 1251
f 1583 1263 1262
f 1585 1582 1570
f 1582 1585 1583
f 1588 1586 1585
f 779 802 786
f 800 779 780
f 799 780 781
f 798 781 782
f 798 783 797
f 784 797 783
f 785 796 784
f 786 795 785
f 810 794 787
f 808 787 788
f 807 788 789
f 806 789 790
f 805 790 791
f 792 805 791
f 793 804 792
f 794 803 793
f 1612 1589 1596
f 1589 1610 1590
f 1590 1609 1591
f 1591 1608 1592
f 1593 1608 1607
f 1607 1594 1593
f 1606 1595 1594
f 1605 1596 1595
f 1604 1620 1597
f 1597 1618 1598
f 1598 1617 1599
f 1599 1616 1600
f 1600 1615 1601
f 1615 1602 1601
f 1614 1603 1602
f 1613 1604 1603
f 24 19 1
f 28 1 26
f 1 31 26
f 19 34 1
f 23 2 20
f 2 37 20
f 46 41 2
f 39 46 2
f 56 51 3
f 61 56 3
f 65 3 63
f 3 68 63
f 64 71 4
f 73 64 4
f 77 4 75
f 4 80 75
f 18 54 57
f 88 83 18
f 93 88 18
f 60 18 57
f 27 95 5
f 97 27 5
f 101 5 99
f 5 104 99
f 6 40 22
f 7 49 40
f 84 107 7
f 55 7 6
f 52 6 9
f 52 8 69
f 9 30 8
f 9 22 25
f 69 10 72
f 72 109 81
f 10 103 109
f 8 98 10
f 17 78 76
f 100 111 17
f 110 100 17
f 82 17 76
f 12 67 74
f 96 11 12
f 105 12 112
f 112 74 79
f 13 62 14
f 38 14 35
f 32 14 11
f 11 62 67
f 15 59 13
f 113 94 15
f 45 15 42
f 42 13 38
f 50 16 47
f 16 44 47
f 89 114 16
f 108 89 16
f 21 115 19
f 134 116 115
f 133 117 116
f 24 120 21
f 135 121 120
f 136 122 121
f 28 135 24
f 154 136 135
f 153 137 136
f 26 140 28
f 155 141 140
f 156 142 141
f 31 155 26
f 174 156 155
f 173 157 156
f 34 160 31
f 175 161 160
f 176 162 161
f 36 175 34
f 194 176 175
f 193 177 176
f 19 180 36
f 115 181 180
f 116 182 181
f 23 195 39
f 129 196 195
f 128 197 196
f 20 130 23
f 119 131 130
f 118 132 131
f 37 119 20
f 184 118 119
f 183 117 118
f 41 185 37
f 200 186 185
f 201 187 186
f 43 200 41
f 219 201 200
f 218 202 201
f 46 205 43
f 220 206 205
f 221 207 206
f 48 220 46
f 239 221 220
f 238 222 221
f 39 225 48
f 195 226 225
f 196 227 226
f 53 240 51
f 259 241 240
f 258 242 241
f 56 245 53
f 260 246 245
f 261 247 246
f 58 260 56
f 279 261 260
f 278 262 261
f 61 265 58
f 280 266 265
f 281 267 266
f 65 280 61
f 299 281 280
f 298 282 281
f 63 285 65
f 300 286 285
f 301 287 286
f 68 300 63
f 319 301 300
f 318 302 301
f 51 305 68
f 240 306 305
f 241 307 306
f 70 320 71
f 314 321 320
f 313 322 321
f 64 315 70
f 304 316 315
f 303 317 316
f 66 304 64
f 289 303 304
f 288 302 303
f 73 290 66
f 325 291 290
f 326 292 291
f 77 325 73
f 344 326 325
f 343 327 326
f 75 330 77
f 345 331 330
f 346 332 331
f 80 345 75
f 364 346 345
f 363 347 346
f 71 350 80
f 320 351 350
f 321 352 351
f 54 264 57
f 249 263 264
f 248 262 263
f 83 250 54
f 365 251 250
f 366 252 251
f 85 365 83
f 384 366 365
f 383 367 366
f 88 370 85
f 385 371 370
f 386 372 371
f 90 385 88
f 404 386 385
f 403 387 386
f 93 390 90
f 405 391 390
f 406 392 391
f 60 405 93
f 274 406 405
f 273 407 406
f 57 275 60
f 264 276 275
f 263 277 276
f 33 410 95
f 169 411 410
f 168 412 411
f 27 170 33
f 159 171 170
f 158 172 171
f 29 159 27
f 144 158 159
f 143 157 158
f 97 145 29
f 415 146 145
f 416 147 146
f 101 415 97
f 434 416 415
f 433 417 416
f 99 420 101
f 435 421 420
f 436 422 421
f 104 435 99
f 454 436 435
f 453 437 436
f 95 440 104
f 410 441 440
f 411 442 441
f 40 125 22
f 199 126 125
f 198 127 126
f 49 199 40
f 229 198 199
f 228 197 198
f 107 230 49
f 455 231 230
f 456 232 231
f 87 455 107
f 379 456 455
f 378 457 456
f 84 380 87
f 369 381 380
f 368 382 381
f 55 369 84
f 254 368 369
f 253 367 368
f 52 255 55
f 244 256 255
f 243 257 256
f 69 244 52
f 309 243 244
f 308 242 243
f 25 150 30
f 139 151 150
f 138 152 151
f 22 139 25
f 124 138 139
f 123 137 138
f 72 310 69
f 324 311 310
f 323 312 311
f 109 355 81
f 460 356 355
f 461 357 356
f 81 324 72
f 354 323 324
f 353 322 323
f 103 460 109
f 429 461 460
f 428 462 461
f 98 430 103
f 419 431 430
f 418 432 431
f 30 419 98
f 149 418 419
f 148 417 418
f 78 349 76
f 334 348 349
f 333 347 348
f 111 335 78
f 465 336 335
f 466 337 336
f 106 465 111
f 449 466 465
f 448 467 466
f 100 450 106
f 439 451 450
f 438 452 451
f 102 439 100
f 424 438 439
f 423 437 438
f 110 425 102
f 464 426 425
f 463 427 426
f 82 464 110
f 359 463 464
f 358 462 463
f 76 360 82
f 349 361 360
f 348 362 361
f 67 329 74
f 294 328 329
f 293 327 328
f 96 165 32
f 414 166 165
f 413 167 166
f 105 414 96
f 444 413 414
f 443 412 413
f 112 445 105
f 469 446 445
f 468 447 446
f 74 340 79
f 329 341 340
f 328 342 341
f 79 469 112
f 339 468 469
f 338 467 468
f 59 284 62
f 269 283 284
f 268 282 283
f 35 190 38
f 179 191 190
f 178 192 191
f 32 179 35
f 164 178 179
f 163 177 178
f 62 295 67
f 284 296 295
f 283 297 296
f 94 270 59
f 409 271 270
f 408 272 271
f 91 409 94
f 394 408 409
f 393 407 408
f 113 395 91
f 470 396 395
f 471 397 396
f 45 470 113
f 214 471 470
f 213 472 471
f 42 215 45
f 204 216 215
f 203 217 216
f 38 204 42
f 189 203 204
f 188 202 203
f 50 459 108
f 234 458 459
f 233 457 458
f 47 235 50
f 224 236 235
f 223 237 236
f 44 224 47
f 209 223 224
f 208 222 223
f 114 210 44
f 474 211 210
f 473 212 211
f 92 474 114
f 399 473 474
f 398 472 473
f 89 400 92
f 389 401 400
f 388 402 401
f 86 389 89
f 374 388 389
f 373 387 388
f 108 375 86
f 459 376 375
f 458 377 376
f 477 22 125
f 123 477 476
f 125 479 477
f 477 478 476
f 483 23 130
f 128 483 485
f 130 482 483
f 482 485 483
f 489 21 120
f 133 489 488
f 120 491 489
f 489 490 488
f 126 481 479
f 122 476 493
f 475 478 480
f 492 476 478
f 478 481 480
f 131 486 482
f 128 481 127
f 475 484 487
f 486 484 482
f 480 485 484
f 122 491 121
f 132 488 486
f 475 490 492
f 488 487 486
f 490 493 492
f 496 29 145
f 143 496 495
f 146 496 145
f 496 497 495
f 502 30 150
f 148 502 504
f 150 501 502
f 501 504 502
f 508 28 140
f 153 508 507
f 140 510 508
f 508 509 507
f 146 500 498
f 142 495 512
f 494 497 499
f 511 495 497
f 497 500 499
f 152 501 151
f 147 504 500
f 494 503 506
f 505 503 501
f 499 504 503
f 141 512 510
f 153 505 152
f 494 509 511
f 507 506 505
f 509 512 511
f 515 32 165
f 163 515 514
f 165 517 515
f 515 516 514
f 521 33 170
f 168 521 523
f 170 520 521
f 520 523 521
f 527 31 160
f 173 527 526
f 161 527 160
f 527 528 526
f 167 517 166
f 162 514 531
f 513 516 518
f 530 514 516
f 516 519 518
f 171 524 520
f 168 519 167
f 513 522 525
f 524 522 520
f 518 523 522
f 161 531 529
f 172 526 524
f 513 528 530
f 526 525 524
f 528 531 530
f 534 37 185
f 183 534 533
f 185 536 534
f 534 535 533
f 540 38 190
f 188 540 542
f 190 539 540
f 539 542 540
f 546 36 180
f 193 546 545
f 180 548 546
f 546 547 545
f 186 538 536
f 182 533 550
f 532 535 537
f 549 533 535
f 535 538 537
f 191 543 539
f 187 542 538
f 532 541 544
f 543 541 539
f 537 542 541
f 181 550 548
f 193 543 192
f 532 547 549
f 545 544 543
f 547 550 549
f 553 44 210
f 208 553 552
f 210 555 553
f 553 554 552
f 559 45 215
f 213 559 561
f 215 558 559
f 558 561 559
f 565 43 205
f 218 565 564
f 205 567 565
f 565 566 564
f 211 557 555
f 207 552 569
f 551 554 556
f 568 552 554
f 554 557 556
f 216 562 558
f 212 561 557
f 551 560 563
f 562 560 558
f 556 561 560
f 206 569 567
f 217 564 562
f 551 566 568
f 564 563 562
f 566 569 568
f 572 49 230
f 228 572 571
f 230 574 572
f 572 573 571
f 578 50 235
f 233 578 580
f 235 577 578
f 577 580 578
f 584 48 225
f 238 584 583
f 225 586 584
f 584 585 583
f 231 576 574
f 227 571 588
f 570 573 575
f 587 571 573
f 573 576 575
f 236 581 577
f 232 580 576
f 570 579 582
f 581 579 577
f 575 580 579
f 226 588 586
f 237 583 581
f 570 585 587
f 583 582 581
f 585 588 587
f 591 54 250
f 248 591 590
f 250 593 591
f 591 592 590
f 597 55 255
f 253 597 599
f 255 596 597
f 596 599 597
f 603 53 245
f 258 603 602
f 245 605 603
f 603 604 602
f 251 595 593
f 247 590 607
f 589 592 594
f 606 590 592
f 592 595 594
f 256 600 596
f 252 599 595
f 589 598 601
f 600 598 596
f 594 599 598
f 246 607 605
f 257 602 600
f 589 604 606
f 602 601 600
f 604 607 606
f 610 59 270
f 268 610 609
f 270 612 610
f 610 611 609
f 616 60 275
f 273 616 618
f 275 615 616
f 615 618 616
f 622 58 265
f 278 622 621
f 265 624 622
f 622 623 621
f 271 614 612
f 267 609 626
f 608 611 613
f 625 609 611
f 611 614 613
f 276 619 615
f 272 618 614
f 608 617 620
f 619 617 615
f 613 618 617
f 266 626 624
f 277 621 619
f 608 623 625
f 621 620 619
f 623 626 625
f 629 66 290
f 288 629 628
f 290 631 629
f 629 630 628
f 635 67 295
f 293 635 637
f 295 634 635
f 634 637 635
f 641 65 285
f 298 641 640
f 285 643 641
f 641 642 640
f 291 633 631
f 287 628 645
f 627 630 632
f 644 628 630
f 630 633 632
f 296 638 634
f 292 637 633
f 627 636 639
f 638 636 634
f 632 637 636
f 286 645 643
f 297 640 638
f 627 642 644
f 640 639 638
f 642 645 644
f 648 69 310
f 308 648 647
f 310 650 648
f 648 649 647
f 654 70 315
f 313 654 656
f 315 653 654
f 653 656 654
f 660 68 305
f 318 660 659
f 305 662 660
f 660 661 659
f 311 652 650
f 307 647 664
f 646 649 651
f 663 647 649
f 649 652 651
f 316 657 653
f 312 656 652
f 646 655 658
f 657 655 653
f 651 656 655
f 306 664 662
f 317 659 657
f 646 661 663
f 659 658 657
f 661 664 663
f 667 78 335
f 333 667 666
f 335 669 667
f 667 668 666
f 673 79 340
f 338 673 675
f 340 672 673
f 672 675 673
f 679 77 330
f 343 679 678
f 330 681 679
f 679 680 678
f 336 671 669
f 332 666 683
f 665 668 670
f 682 666 668
f 668 671 670
f 341 676 672
f 337 675 671
f 665 674 677
f 676 674 672
f 670 675 674
f 331 683 681
f 342 678 676
f 665 680 682
f 678 677 676
f 680 683 682
f 686 81 355
f 353 686 685
f 355 688 686
f 686 687 685
f 692 82 360
f 358 692 694
f 360 691 692
f 691 694 692
f 698 80 350
f 363 698 697
f 350 700 698
f 698 699 697
f 356 690 688
f 352 685 702
f 684 687 689
f 701 685 687
f 687 690 689
f 361 695 691
f 357 694 690
f 684 693 696
f 695 693 691
f 689 694 693
f 351 702 700
f 362 697 695
f 684 699 701
f 697 696 695
f 699 702 701
f 705 86 375
f 373 705 704
f 375 707 705
f 705 706 704
f 711 87 380
f 378 711 713
f 380 710 711
f 710 713 711
f 717 85 370
f 383 717 716
f 370 719 717
f 717 718 716
f 376 709 707
f 372 704 721
f 703 706 708
f 720 704 706
f 706 709 708
f 381 714 710
f 377 713 709
f 703 712 715
f 714 712 710
f 708 713 712
f 371 721 719
f 382 716 714
f 703 718 720
f 716 715 714
f 718 721 720
f 724 91 395
f 393 724 723
f 395 726 724
f 724 725 723
f 730 92 400
f 398 730 732
f 400 729 730
f 729 732 730
f 736 90 390
f 403 736 735
f 390 738 736
f 736 737 735
f 396 728 726
f 392 723 740
f 722 725 727
f 739 723 725
f 725 728 727
f 401 733 729
f 397 732 728
f 722 731 734
f 733 731 729
f 727 732 731
f 391 740 738
f 402 735 733
f 722 737 739
f 735 734 733
f 737 740 739
f 743 102 425
f 423 743 742
f 425 745 743
f 743 744 742
f 749 103 430
f 428 749 751
f 430 748 749
f 748 751 749
f 755 101 420
f 433 755 754
f 420 757 755
f 755 756 754
f 426 747 745
f 422 742 759
f 741 744 746
f 758 742 744
f 744 747 746
f 431 752 748
f 427 751 747
f 741 750 753
f 752 750 748
f 746 751 750
f 421 759 757
f 432 754 752
f 741 756 758
f 754 753 752
f 756 759 758
f 762 105 445
f 443 762 761
f 445 764 762
f 762 763 761
f 768 106 450
f 448 768 770
f 450 767 768
f 767 770 768
f 774 104 440
f 453 774 773
f 440 776 774
f 774 775 773
f 446 766 764
f 442 761 778
f 760 763 765
f 777 761 763
f 763 766 765
f 451 771 767
f 447 770 766
f 760 769 772
f 771 769 767
f 765 770 769
f 441 778 776
f 452 773 771
f 760 775 777
f 773 772 771
f 775 778 777
f 829 834 811
f 811 838 836
f 841 811 836
f 844 829 811
f 812 833 830
f 847 812 830
f 851 856 812
f 856 849 812
f 861 866 813
f 866 871 813
f 813 875 873
f 878 813 873
f 881 874 814
f 874 883 814
f 814 887 885
f 890 814 885
f 864 828 867
f 893 898 828
f 898 903 828
f 828 870 867
f 905 837 815
f 837 907 815
f 815 911 909
f 914 815 909
f 850 816 832
f 859 817 850
f 917 894 817
f 817 865 816
f 816 862 819
f 818 862 879
f 840 819 818
f 832 819 835
f 820 879 882
f 919 882 891
f 913 820 919
f 908 818 820
f 888 827 886
f 921 910 827
f 910 920 827
f 827 892 886
f 877 822 884
f 821 906 822
f 822 915 922
f 884 922 889
f 872 823 824
f 824 848 845
f 824 842 821
f 872 821 877
f 869 825 823
f 904 923 825
f 825 855 852
f 823 852 848
f 826 860 857
f 854 826 857
f 924 899 826
f 899 918 826
f 925 831 829
f 926 944 925
f 927 943 926
f 930 834 831
f 931 945 930
f 932 946 931
f 945 838 834
f 946 964 945
f 947 963 946
f 950 836 838
f 951 965 950
f 952 966 951
f 965 841 836
f 966 984 965
f 967 983 966
f 970 844 841
f 971 985 970
f 972 986 971
f 985 846 844
f 986 1004 985
f 987 1003 986
f 990 829 846
f 991 925 990
f 992 926 991
f 1005 833 849
f 1006 939 1005
f 1007 938 1006
f 940 830 833
f 941 929 940
f 942 928 941
f 929 847 830
f 928 994 929
f 927 993 928
f 995 851 847
f 996 1010 995
f 997 1011 996
f 1010 853 851
f 1011 1029 1010
f 1012 1028 1011
f 1015 856 853
f 1016 1030 1015
f 1017 1031 1016
f 1030 858 856
f 1031 1049 1030
f 1032 1048 1031
f 1035 849 858
f 1036 1005 1035
f 1037 1006 1036
f 1050 863 861
f 1051 1069 1050
f 1052 1068 1051
f 1055 866 863
f 1056 1070 1055
f 1057 1071 1056
f 1070 868 866
f 1071 1089 1070
f 1072 1088 1071
f 1075 871 868
f 1076 1090 1075
f 1077 1091 1076
f 1090 875 871
f 1091 1109 1090
f 1092 1108 1091
f 1095 873 875
f 1096 1110 1095
f 1097 1111 1096
f 1110 878 873
f 1111 1129 1110
f 1112 1128 1111
f 1115 861 878
f 1116 1050 1115
f 1117 1051 1116
f 1130 880 881
f 1131 1124 1130
f 1132 1123 1131
f 1125 874 880
f 1126 1114 1125
f 1127 1113 1126
f 1114 876 874
f 1113 1099 1114
f 1112 1098 1113
f 1100 883 876
f 1101 1135 1100
f 1102 1136 1101
f 1135 887 883
f 1136 1154 1135
f 1137 1153 1136
f 1140 885 887
f 1141 1155 1140
f 1142 1156 1141
f 1155 890 885
f 1156 1174 1155
f 1157 1173 1156
f 1160 881 890
f 1161 1130 1160
f 1162 1131 1161
f 1074 864 867
f 1073 1059 1074
f 1072 1058 1073
f 1060 893 864
f 1061 1175 1060
f 1062 1176 1061
f 1175 895 893
f 1176 1194 1175
f 1177 1193 1176
f 1180 898 895
f 1181 1195 1180
f 1182 1196 1181
f 1195 900 898
f 1196 1214 1195
f 1197 1213 1196
f 1200 903 900
f 1201 1215 1200
f 1202 1216 1201
f 1215 870 903
f 1216 1084 1215
f 1217 1083 1216
f 1085 867 870
f 1086 1074 1085
f 1087 1073 1086
f 1220 843 905
f 1221 979 1220
f 1222 978 1221
f 980 837 843
f 981 969 980
f 982 968 981
f 969 839 837
f 968 954 969
f 967 953 968
f 955 907 839
f 956 1225 955
f 957 1226 956
f 1225 911 907
f 1226 1244 1225
f 1227 1243 1226
f 1230 909 911
f 1231 1245 1230
f 1232 1246 1231
f 1245 914 909
f 1246 1264 1245
f 1247 1263 1246
f 1250 905 914
f 1251 1220 1250
f 1252 1221 1251
f 935 850 832
f 936 1009 935
f 937 1008 936
f 1009 859 850
f 1008 1039 1009
f 1007 1038 1008
f 1040 917 859
f 1041 1265 1040
f 1042 1266 1041
f 1265 897 917
f 1266 1189 1265
f 1267 1188 1266
f 1190 894 897
f 1191 1179 1190
f 1192 1178 1191
f 1179 865 894
f 1178 1064 1179
f 1177 1063 1178
f 1065 862 865
f 1066 1054 1065
f 1067 1053 1066
f 1054 879 862
f 1053 1119 1054
f 1052 1118 1053
f 960 835 840
f 961 949 960
f 962 948 961
f 949 832 835
f 948 934 949
f 947 933 948
f 1120 882 879
f 1121 1134 1120
f 1122 1133 1121
f 1165 919 891
f 1166 1270 1165
f 1167 1271 1166
f 1134 891 882
f 1133 1164 1134
f 1132 1163 1133
f 1270 913 919
f 1271 1239 1270
f 1272 1238 1271
f 1240 908 913
f 1241 1229 1240
f 1242 1228 1241
f 1229 840 908
f 1228 959 1229
f 1227 958 1228
f 1159 888 886
f 1158 1144 1159
f 1157 1143 1158
f 1145 921 888
f 1146 1275 1145
f 1147 1276 1146
f 1275 916 921
f 1276 1259 1275
f 1277 1258 1276
f 1260 910 916
f 1261 1249 1260
f 1262 1248 1261
f 1249 912 910
f 1248 1234 1249
f 1247 1233 1248
f 1235 920 912
f 1236 1274 1235
f 1237 1273 1236
f 1274 892 920
f 1273 1169 1274
f 1272 1168 1273
f 1170 886 892
f 1171 1159 1170
f 1172 1158 1171
f 1139 877 884
f 1138 1104 1139
f 1137 1103 1138
f 975 906 842
f 976 1224 975
f 977 1223 976
f 1224 915 906
f 1223 1254 1224
f 1222 1253 1223
f 1255 922 915
f 1256 1279 1255
f 1257 1278 1256
f 1150 884 889
f 1151 1139 1150
f 1152 1138 1151
f 1279 889 922
f 1278 1149 1279
f 1277 1148 1278
f 1094 869 872
f 1093 1079 1094
f 1092 1078 1093
f 1000 845 848
f 1001 989 1000
f 1002 988 1001
f 989 842 845
f 988 974 989
f 987 973 988
f 1105 872 877
f 1106 1094 1105
f 1107 1093 1106
f 1080 904 869
f 1081 1219 1080
f 1082 1218 1081
f 1219 901 904
f 1218 1204 1219
f 1217 1203 1218
f 1205 923 901
f 1206 1280 1205
f 1207 1281 1206
f 1280 855 923
f 1281 1024 1280
f 1282 1023 1281
f 1025 852 855
f 1026 1014 1025
f 1027 1013 1026
f 1014 848 852
f 1013 999 1014
f 1012 998 1013
f 1269 860 918
f 1268 1044 1269
f 1267 1043 1268
f 1045 857 860
f 1046 1034 1045
f 1047 1033 1046
f 1034 854 857
f 1033 1019 1034
f 1032 1018 1033
f 1020 924 854
f 1021 1284 1020
f 1022 1283 1021
f 1284 902 924
f 1283 1209 1284
f 1282 1208 1283
f 1210 899 902
f 1211 1199 1210
f 1212 1198 1211
f 1199 896 899
f 1198 1184 1199
f 1197 1183 1198
f 1185 918 896
f 1186 1269 1185
f 1187 1268 1186
f 832 1287 935
f 1287 933 1286
f 1289 935 1287
f 1288 1287 1286
f 833 1293 940
f 1293 938 1295
f 1292 940 1293
f 1295 1292 1293
f 831 1299 930
f 1299 943 1298
f 1301 930 1299
f 1300 1299 1298
f 1291 936 1289
f 1286 932 1303
f 1288 1285 1290
f 1286 1302 1288
f 1291 1288 1290
f 1296 941 1292
f 938 1291 1295
f 1294 1285 1297
f 1294 1296 1292
f 1295 1290 1294
f 932 1301 1303
f 1298 942 1296
f 1300 1285 1302
f 1297 1298 1296
f 1303 1300 1302
f 839 1306 955
f 1306 953 1305
f 956 1306 1308
f 1307 1306 1305
f 840 1312 960
f 1312 958 1314
f 1311 960 1312
f 1314 1311 1312
f 838 1318 950
f 1318 963 1317
f 1320 950 1318
f 1319 1318 1317
f 1310 956 1308
f 1305 952 1322
f 1307 1304 1309
f 1305 1321 1307
f 1310 1307 1309
f 962 1311 1315
f 1314 957 1310
f 1313 1304 1316
f 1313 1315 1311
f 1314 1309 1313
f 1322 951 1320
f 963 1315 1317
f 1319 1304 1321
f 1316 1317 1315
f 1322 1319 1321
f 842 1325 975
f 1325 973 1324
f 1327 975 1325
f 1326 1325 1324
f 843 1331 980
f 1331 978 1333
f 1330 980 1331
f 1333 1330 1331
f 841 1337 970
f 1337 983 1336
f 971 1337 1339
f 1338 1337 1336
f 977 1327 1329
f 1324 972 1341
f 1326 1323 1328
f 1324 1340 1326
f 1329 1326 1328
f 1334 981 1330
f 978 1329 1333
f 1332 1323 1335
f 1332 1334 1330
f 1333 1328 1332
f 1341 971 1339
f 1336 982 1334
f 1338 1323 1340
f 1335 1336 1334
f 1341 1338 1340
f 847 1344 995
f 1344 993 1343
f 1346 995 1344
f 1345 1344 1343
f 848 1350 1000
f 1350 998 1352
f 1349 1000 1350
f 1352 1349 1350
f 846 1356 990
f 1356 1003 1355
f 1358 990 1356
f 1357 1356 1355
f 1348 996 1346
f 1343 992 1360
f 1345 1342 1347
f 1343 1359 1345
f 1348 1345 1347
f 1353 1001 1349
f 1352 997 1348
f 1351 1342 1354
f 1351 1353 1349
f 1352 1347 1351
f 1360 991 1358
f 1003 1353 1355
f 1357 1342 1359
f 1354 1355 1353
f 1360 1357 1359
f 854 1363 1020
f 1363 1018 1362
f 1365 1020 1363
f 1364 1363 1362
f 855 1369 1025
f 1369 1023 1371
f 1368 1025 1369
f 1371 1368 1369
f 853 1375 1015
f 1375 1028 1374
f 1377 1015 1375
f 1376 1375 1374
f 1367 1021 1365
f 1362 1017 1379
f 1364 1361 1366
f 1362 1378 1364
f 1367 1364 1366
f 1372 1026 1368
f 1371 1022 1367
f 1370 1361 1373
f 1370 1372 1368
f 1371 1366 1370
f 1379 1016 1377
f 1374 1027 1372
f 1376 1361 1378
f 1373 1374 1372
f 1379 1376 1378
f 859 1382 1040
f 1382 1038 1381
f 1384 1040 1382
f 1383 1382 1381
f 860 1388 1045
f 1388 1043 1390
f 1387 1045 1388
f 1390 1387 1388
f 858 1394 1035
f 1394 1048 1393
f 1396 1035 1394
f 1395 1394 1393
f 1386 1041 1384
f 1381 1037 1398
f 1383 1380 1385
f 1381 1397 1383
f 1386 1383 1385
f 1391 1046 1387
f 1390 1042 1386
f 1389 1380 1392
f 1389 1391 1387
f 1390 1385 1389
f 1398 1036 1396
f 1393 1047 1391
f 1395 1380 1397
f 1392 1393 1391
f 1398 1395 1397
f 864 1401 1060
f 1401 1058 1400
f 1403 1060 1401
f 1402 1401 1400
f 865 1407 1065
f 1407 1063 1409
f 1406 1065 1407
f 1409 1406 1407
f 863 1413 1055
f 1413 1068 1412
f 1415 1055 1413
f 1414 1413 1412
f 1405 1061 1403
f 1400 1057 1417
f 1402 1399 1404
f 1400 1416 1402
f 1405 1402 1404
f 1410 1066 1406
f 1409 1062 1405
f 1408 1399 1411
f 1408 1410 1406
f 1409 1404 1408
f 1417 1056 1415
f 1412 1067 1410
f 1414 1399 1416
f 1411 1412 1410
f 1417 1414 1416
f 869 1420 1080
f 1420 1078 1419
f 1422 1080 1420
f 1421 1420 1419
f 870 1426 1085
f 1426 1083 1428
f 1425 1085 1426
f 1428 1425 1426
f 868 1432 1075
f 1432 1088 1431
f 1434 1075 1432
f 1433 1432 1431
f 1424 1081 1422
f 1419 1077 1436
f 1421 1418 1423
f 1419 1435 1421
f 1424 1421 1423
f 1429 1086 1425
f 1428 1082 1424
f 1427 1418 1430
f 1427 1429 1425
f 1428 1423 1427
f 1436 1076 1434
f 1431 1087 1429
f 1433 1418 1435
f 1430 1431 1429
f 1436 1433 1435
f 876 1439 1100
f 1439 1098 1438
f 1441 1100 1439
f 1440 1439 1438
f 877 1445 1105
f 1445 1103 1447
f 1444 1105 1445
f 1447 1444 1445
f 875 1451 1095
f 1451 1108 1450
f 1453 1095 1451
f 1452 1451 1450
f 1443 1101 1441
f 1438 1097 1455
f 1440 1437 1442
f 1438 1454 1440
f 1443 1440 1442
f 1448 1106 1444
f 1447 1102 1443
f 1446 1437 1449
f 1446 1448 1444
f 1447 1442 1446
f 1455 1096 1453
f 1450 1107 1448
f 1452 1437 1454
f 1449 1450 1448
f 1455 1452 1454
f 879 1458 1120
f 1458 1118 1457
f 1460 1120 1458
f 1459 1458 1457
f 880 1464 1125
f 1464 1123 1466
f 1463 1125 1464
f 1466 1463 1464
f 878 1470 1115
f 1470 1128 1469
f 1472 1115 1470
f 1471 1470 1469
f 1462 1121 1460
f 1457 1117 1474
f 1459 1456 1461
f 1457 1473 1459
f 1462 1459 1461
f 1467 1126 1463
f 1466 1122 1462
f 1465 1456 1468
f 1465 1467 1463
f 1466 1461 1465
f 1474 1116 1472
f 1469 1127 1467
f 1471 1456 1473
f 1468 1469 1467
f 1474 1471 1473
f 888 1477 1145
f 1477 1143 1476
f 1479 1145 1477
f 1478 1477 1476
f 889 1483 1150
f 1483 1148 1485
f 1482 1150 1483
f 1485 1482 1483
f 887 1489 1140
f 1489 1153 1488
f 1491 1140 1489
f 1490 1489 1488
f 1481 1146 1479
f 1476 1142 1493
f 1478 1475 1480
f 1476 1492 1478
f 1481 1478 1480
f 1486 1151 1482
f 1485 1147 1481
f 1484 1475 1487
f 1484 1486 1482
f 1485 1480 1484
f 1493 1141 1491
f 1488 1152 1486
f 1490 1475 1492
f 1487 1488 1486
f 1493 1490 1492
f 891 1496 1165
f 1496 1163 1495
f 1498 1165 1496
f 1497 1496 1495
f 892 1502 1170
f 1502 1168 1504
f 1501 1170 1502
f 1504 1501 1502
f 890 1508 1160
f 1508 1173 1507
f 1510 1160 1508
f 1509 1508 1507
f 1500 1166 1498
f 1495 1162 1512
f 1497 1494 1499
f 1495 1511 1497
f 1500 1497 1499
f 1505 1171 1501
f 1504 1167 1500
f 1503 1494 1506
f 1503 1505 1501
f 1504 1499 1503
f 1512 1161 1510
f 1507 1172 1505
f 1509 1494 1511
f 1506 1507 1505
f 1512 1509 1511
f 896 1515 1185
f 1515 1183 1514
f 1517 1185 1515
f 1516 1515 1514
f 897 1521 1190
f 1521 1188 1523
f 1520 1190 1521
f 1523 1520 1521
f 895 1527 1180
f 1527 1193 1526
f 1529 1180 1527
f 1528 1527 1526
f 1519 1186 1517
f 1514 1182 1531
f 1516 1513 1518
f 1514 1530 1516
f 1519 1516 1518
f 1524 1191 1520
f 1523 1187 1519
f 1522 1513 1525
f 1522 1524 1520
f 1523 1518 1522
f 1531 1181 1529
f 1526 1192 1524
f 1528 1513 1530
f 1525 1526 1524
f 1531 1528 1530
f 901 1534 1205
f 1534 1203 1533
f 1536 1205 1534
f 1535 1534 1533
f 902 1540 1210
f 1540 1208 1542
f 1539 1210 1540
f 1542 1539 1540
f 900 1546 1200
f 1546 1213 1545
f 1548 1200 1546
f 1547 1546 1545
f 1538 1206 1536
f 1533 1202 1550
f 1535 1532 1537
f 1533 1549 1535
f 1538 1535 1537
f 1543 1211 1539
f 1542 1207 1538
f 1541 1532 1544
f 1541 1543 1539
f 1542 1537 1541
f 1550 1201 1548
f 1545 1212 1543
f 1547 1532 1549
f 1544 1545 1543
f 1550 1547 1549
f 912 1553 1235
f 1553 1233 1552
f 1555 1235 1553
f 1554 1553 1552
f 913 1559 1240
f 1559 1238 1561
f 1558 1240 1559
f 1561 1558 1559
f 911 1565 1230
f 1565 1243 1564
f 1567 1230 1565
f 1566 1565 1564
f 1557 1236 1555
f 1552 1232 1569
f 1554 1551 1556
f 1552 1568 1554
f 1557 1554 1556
f 1562 1241 1558
f 1561 1237 1557
f 1560 1551 1563
f 1560 1562 1558
f 1561 1556 1560
f 1569 1231 1567
f 1564 1242 1562
f 1566 1551 1568
f 1563 1564 1562
f 1569 1566 1568
f 915 1572 1255
f 1572 1253 1571
f 1574 1255 1572
f 1573 1572 1571
f 916 1578 1260
f 1578 1258 1580
f 1577 1260 1578
f 1580 1577 1578
f 914 1584 1250
f 1584 1263 1583
f 1586 1250 1584
f 1585 1584 1583
f 1576 1256 1574
f 1571 1252 1588
f 1573 1570 1575
f 1571 1587 1573
f 1576 1573 1575
f 1581 1261 1577
f 1580 1257 1576
f 1579 1570 1582
f 1579 1581 1577
f 1580 1575 1579
f 1588 1251 1586
f 1583 1262 1581
f 1585 1570 1587
f 1582 1583 1581
f 1588 1585 1587
