# CC0 David Gian-Cursio 2021; original authored material surfaces.
o chevron-fixed-frame
v 0.055168 2.917305 0.091433
v 0.053128 2.917305 0.092311
v 0.053128 2.917305 0.095578
v 0.055167 2.917305 0.096457
v 0.065792 2.917305 0.096457
v 0.067832 2.917305 0.095578
v 0.067832 2.917305 0.092311
v 0.065792 2.917305 0.091433
v -0.065792 2.917305 0.091433
v -0.067832 2.917305 0.092311
v -0.067832 2.917305 0.095578
v -0.065792 2.917305 0.096457
v -0.055167 2.917305 0.096457
v -0.053128 2.917305 0.095578
v -0.053128 2.917305 0.092311
v -0.055168 2.917305 0.091433
v 0.067832 3.023478 0.092311
v 0.067832 3.023478 0.095578
v 0.065792 3.023478 0.096457
v 0.055167 3.023478 0.096457
v 0.053128 3.023478 0.095578
v 0.053128 3.023478 0.092311
v 0.055168 3.023478 0.091433
v 0.065792 3.023478 0.091433
v -0.053128 3.023478 0.092311
v -0.053128 3.023478 0.095578
v -0.055167 3.023478 0.096457
v -0.065792 3.023478 0.096457
v -0.067832 3.023478 0.095578
v -0.067832 3.023478 0.092311
v -0.055168 3.023478 0.091433
v -0.065792 3.023478 0.091433
v 0.055168 2.917305 -0.091433
v 0.053128 2.917305 -0.092311
v 0.053128 2.917305 -0.095578
v 0.055167 2.917305 -0.096457
v 0.065792 2.917305 -0.096457
v 0.067832 2.917305 -0.095578
v 0.067832 2.917305 -0.092311
v 0.065792 2.917305 -0.091433
v -0.065792 2.917305 -0.091433
v -0.067832 2.917305 -0.092311
v -0.067832 2.917305 -0.095578
v -0.065792 2.917305 -0.096457
v -0.055167 2.917305 -0.096457
v -0.053128 2.917305 -0.095578
v -0.053128 2.917305 -0.092311
v -0.055168 2.917305 -0.091433
v 0.067832 3.023478 -0.092311
v 0.067832 3.023478 -0.095578
v 0.065792 3.023478 -0.096457
v 0.055167 3.023478 -0.096457
v 0.053128 3.023478 -0.095578
v 0.053128 3.023478 -0.092311
v 0.055168 3.023478 -0.091433
v 0.065792 3.023478 -0.091433
v -0.053128 3.023478 -0.092311
v -0.053128 3.023478 -0.095578
v -0.055167 3.023478 -0.096457
v -0.065792 3.023478 -0.096457
v -0.067832 3.023478 -0.095578
v -0.067832 3.023478 -0.092311
v -0.055168 3.023478 -0.091433
v -0.065792 3.023478 -0.091433
f 3 2 1
f 3 1 8
f 3 8 7
f 3 7 6
f 3 6 5
f 3 5 4
f 11 10 9
f 11 9 16
f 11 16 15
f 11 15 14
f 11 14 13
f 11 13 12
f 19 21 20
f 19 22 21
f 19 23 22
f 19 24 23
f 19 17 24
f 19 18 17
f 27 29 28
f 27 30 29
f 27 32 30
f 27 31 32
f 27 25 31
f 27 26 25
f 33 34 35
f 33 35 36
f 33 36 37
f 33 37 38
f 33 38 39
f 33 39 40
f 41 42 43
f 41 43 44
f 41 44 45
f 41 45 46
f 41 46 47
f 41 47 48
f 55 53 54
f 55 52 53
f 55 51 52
f 55 50 51
f 55 49 50
f 55 56 49
f 64 61 62
f 64 60 61
f 64 59 60
f 64 58 59
f 64 57 58
f 64 63 57
f 1 23 24
f 22 23 1
f 21 22 2
f 20 21 3
f 20 4 5
f 6 18 19
f 7 17 18
f 8 24 17
f 32 31 16
f 30 32 9
f 29 30 10
f 28 29 11
f 27 28 12
f 14 26 27
f 15 25 26
f 16 31 25
f 56 55 33
f 33 55 54
f 34 54 53
f 35 53 52
f 37 36 52
f 51 50 38
f 50 49 39
f 49 56 40
f 48 63 64
f 41 64 62
f 42 62 61
f 43 61 60
f 44 60 59
f 59 58 46
f 58 57 47
f 57 63 48
f 1 24 8
f 22 1 2
f 21 2 3
f 20 3 4
f 20 5 19
f 6 19 5
f 7 18 6
f 8 17 7
f 32 16 9
f 30 9 10
f 29 10 11
f 28 11 12
f 27 12 13
f 14 27 13
f 15 26 14
f 16 25 15
f 56 33 40
f 33 54 34
f 34 53 35
f 35 52 36
f 37 52 51
f 51 38 37
f 50 39 38
f 49 40 39
f 48 64 41
f 41 62 42
f 42 61 43
f 43 60 44
f 44 59 45
f 59 46 45
f 58 47 46
f 57 48 47
