# CC0 David Gian-Cursio 2021; lossless split of accepted optimized preview.
o chevron-base-2
v -2.673627 3.619635 -0.131383
v -2.659398 3.700333 -0.131383
v -2.864928 3.721391 -0.176876
v -2.842538 3.848367 -0.176876
v -2.860835 3.744603 -0.176876
v -2.687573 3.648454 -0.135519
v -2.704895 3.658069 -0.139655
v -2.722227 3.667685 -0.143790
v -2.739549 3.677299 -0.147926
v -2.756872 3.686913 -0.152062
v -2.774204 3.696529 -0.156198
v -2.791526 3.706143 -0.160333
v -2.808858 3.715759 -0.164470
v -2.826180 3.725374 -0.168605
v -2.843503 3.734988 -0.172741
v -2.691023 3.628886 -0.135519
v -2.676052 3.713792 -0.135519
v -2.708410 3.638136 -0.139655
v -2.692697 3.727248 -0.139655
v -2.725806 3.647388 -0.143790
v -2.709351 3.740707 -0.143790
v -2.743193 3.656638 -0.147926
v -2.725996 3.754164 -0.147926
v -2.760580 3.665887 -0.152062
v -2.742641 3.767621 -0.152062
v -2.777975 3.675138 -0.156198
v -2.759295 3.781079 -0.156198
v -2.795362 3.684388 -0.160333
v -2.775940 3.794537 -0.160333
v -2.792594 3.807995 -0.164470
v -2.812758 3.693640 -0.164470
v -2.830145 3.702889 -0.168605
v -2.809239 3.821452 -0.168605
v -2.847532 3.712139 -0.172741
v -2.825884 3.834909 -0.172741
v -2.894254 3.447166 -0.172741
v -2.913765 3.444423 -0.176876
v -2.898283 3.424318 -0.172741
v -2.917858 3.421211 -0.176876
v -2.915901 3.324397 -0.172741
v -2.936154 3.317446 -0.176876
v -2.874752 3.449912 -0.168605
v -2.855250 3.452657 -0.164470
v -2.835739 3.455401 -0.160333
v -2.839575 3.433646 -0.160333
v -2.878716 3.427428 -0.168605
v -2.859150 3.430537 -0.164470
v -2.875414 3.338302 -0.164470
v -2.855161 3.345252 -0.160333
v -2.895658 3.331349 -0.168605
v -2.796726 3.460890 -0.152062
v -2.816237 3.458146 -0.156198
v -2.820009 3.436755 -0.156198
v -2.800434 3.439864 -0.152062
v -2.814665 3.359156 -0.152062
v -2.834917 3.352205 -0.156198
v -2.777224 3.463635 -0.147926
v -2.757722 3.466380 -0.143790
v -2.738211 3.469124 -0.139655
v -2.741726 3.449192 -0.139655
v -2.780867 3.442974 -0.147926
v -2.761301 3.446083 -0.143790
v -2.753924 3.380012 -0.139655
v -2.794421 3.366109 -0.147926
v -2.774177 3.373061 -0.143790
v -2.670241 3.638839 -0.131383
v -2.718709 3.471869 -0.135519
v -2.722160 3.452301 -0.135519
v -2.699198 3.474613 -0.131383
v -2.702585 3.455409 -0.131383
v -2.733680 3.386964 -0.135519
v -2.713428 3.393915 -0.131383
v -2.578449 3.587901 -0.109472
v -2.937395 3.418107 -0.181005
v -2.912983 3.448854 -0.176876
v -2.936935 3.313015 -0.176876
v -2.717928 3.476301 -0.135519
v -2.734462 3.382532 -0.135519
v -2.865709 3.716959 -0.176876
v -2.841757 3.852799 -0.176876
v -2.691804 3.624455 -0.135519
v -2.675270 3.718223 -0.135519
v -2.709191 3.633705 -0.139655
v -2.726587 3.642956 -0.143790
v -2.743974 3.652206 -0.147926
v -2.761361 3.661455 -0.152062
v -2.778757 3.670707 -0.156198
v -2.796144 3.679957 -0.160333
v -2.813539 3.689208 -0.164470
v -2.830926 3.698458 -0.168605
v -2.848313 3.707708 -0.172741
v -2.691916 3.731680 -0.139655
v -2.708569 3.745139 -0.143790
v -2.725215 3.758595 -0.147926
v -2.741860 3.772053 -0.152062
v -2.758514 3.785511 -0.156198
v -2.775159 3.798968 -0.160333
v -2.791813 3.812427 -0.164470
v -2.808458 3.825883 -0.168605
v -2.825103 3.839340 -0.172741
v -2.893472 3.451598 -0.172741
v -2.916683 3.319965 -0.172741
v -2.873970 3.454344 -0.168605
v -2.854468 3.457088 -0.164470
v -2.834958 3.459832 -0.160333
v -2.876195 3.333870 -0.164470
v -2.855942 3.340821 -0.160333
v -2.896439 3.326918 -0.168605
v -2.815456 3.462578 -0.156198
v -2.795945 3.465322 -0.152062
v -2.815446 3.354724 -0.152062
v -2.835699 3.347774 -0.156198
v -2.776443 3.468066 -0.147926
v -2.756941 3.470812 -0.143790
v -2.737430 3.473556 -0.139655
v -2.795202 3.361677 -0.147926
v -2.774958 3.368629 -0.143790
v -2.754706 3.375580 -0.139655
v -2.658617 3.704764 -0.131383
v -2.674409 3.615203 -0.131383
v -2.698417 3.479045 -0.131383
v -2.714209 3.389484 -0.131383
v -2.805037 3.414691 -0.124197
v -2.822940 3.417848 -0.128210
v -2.770492 3.715299 -0.128210
v -2.752588 3.712142 -0.124197
v -2.770492 3.715299 -0.156110
v -2.752588 3.712142 -0.152097
v -2.753463 3.707179 -0.152097
v -2.771367 3.710336 -0.156110
v -2.822940 3.417848 -0.156110
v -2.822065 3.422811 -0.156110
v -2.804162 3.419654 -0.152097
v -2.805037 3.414691 -0.152097
v -2.515296 3.516550 -0.101210
v -2.623997 3.490046 -0.115623
v -2.608110 3.579837 -0.129342
v -2.577853 3.587341 -0.134484
v -2.936460 3.418230 -0.210317
v -2.956290 3.306440 -0.193785
v -2.825275 3.838364 -0.186391
v -2.841929 3.851821 -0.190522
v -2.857783 3.864634 -0.194457
v -2.858539 3.865325 -0.193603
v -2.858535 3.865347 -0.181005
v -2.825898 3.834833 -0.181193
v -2.826056 3.833934 -0.181896
v -2.842552 3.848291 -0.185329
v -2.842589 3.848082 -0.185652
v -2.842644 3.847770 -0.185897
v -2.842711 3.847390 -0.186026
v -2.842538 3.848367 -0.184960
v -2.843342 3.735901 -0.201792
v -2.860831 3.744627 -0.206141
v -2.877155 3.754667 -0.210368
v -2.878209 3.753767 -0.209418
v -2.877447 3.752906 -0.210012
v -2.882838 3.727518 -0.194235
v -2.882915 3.727080 -0.181005
v -2.843342 3.735900 -0.197287
v -2.860747 3.745098 -0.201694
v -2.860829 3.744637 -0.201622
v -2.860908 3.744189 -0.201478
v -2.860975 3.743808 -0.201277
v -2.860674 3.745517 -0.201682
v -2.848167 3.708536 -0.186766
v -2.848313 3.707708 -0.185372
v -2.865563 3.717787 -0.190878
v -2.847521 3.712201 -0.181273
v -2.847393 3.712929 -0.182332
v -2.864843 3.721873 -0.186160
v -2.864887 3.721622 -0.185792
v -2.864917 3.721453 -0.185383
v -2.864789 3.722180 -0.186443
v -2.864928 3.721391 -0.184982
v -2.893618 3.450769 -0.186766
v -2.913129 3.448026 -0.190878
v -2.913765 3.444423 -0.184982
v -2.913904 3.443634 -0.186443
v -2.913776 3.444360 -0.185383
v -2.913805 3.444191 -0.185792
v -2.913850 3.443940 -0.186160
v -2.894393 3.446377 -0.182332
v -2.898444 3.423405 -0.201792
v -2.917780 3.421648 -0.206018
v -2.937543 3.417268 -0.209675
v -2.932690 3.444790 -0.194235
v -2.932613 3.445228 -0.181005
v -2.918019 3.420297 -0.201682
v -2.917717 3.422006 -0.201277
v -2.917785 3.421624 -0.201478
v -2.917864 3.421176 -0.201622
v -2.917945 3.420715 -0.201694
v -2.898443 3.423406 -0.197287
v -2.898142 3.425115 -0.196887
v -2.916683 3.319965 -0.185324
v -2.916511 3.320942 -0.186391
v -2.936935 3.313015 -0.189460
v -2.936763 3.313992 -0.190522
v -2.956043 3.307374 -0.194457
v -2.956989 3.306983 -0.193603
v -2.956993 3.306961 -0.181005
v -2.956294 3.306366 -0.180832
v -2.936154 3.317446 -0.184960
v -2.935982 3.318423 -0.186026
v -2.936049 3.318043 -0.185897
v -2.936104 3.317732 -0.185652
v -2.936141 3.317523 -0.185329
v -2.915901 3.324397 -0.180824
v -2.915729 3.325372 -0.181896
v -2.915851 3.324682 -0.181518
v -2.915796 3.324993 -0.181764
v -2.808630 3.824908 -0.182259
v -2.791984 3.811452 -0.178127
v -2.775330 3.797995 -0.173995
v -2.809411 3.820478 -0.177765
v -2.792766 3.807023 -0.173634
v -2.776111 3.793566 -0.169504
v -2.826020 3.726286 -0.197398
v -2.808697 3.716670 -0.193003
v -2.826020 3.726285 -0.192892
v -2.808697 3.716669 -0.188496
v -2.791366 3.707054 -0.188609
v -2.830780 3.699288 -0.182653
v -2.813393 3.690039 -0.178541
v -2.795997 3.680788 -0.174428
v -2.813539 3.689208 -0.177151
v -2.830006 3.703680 -0.178220
v -2.812619 3.694431 -0.174109
v -2.795223 3.685180 -0.169997
v -2.791366 3.707052 -0.184101
v -2.835104 3.459001 -0.174428
v -2.854615 3.456258 -0.178541
v -2.874117 3.453513 -0.182653
v -2.839735 3.432735 -0.188609
v -2.839735 3.432737 -0.184101
v -2.835879 3.454609 -0.169997
v -2.855389 3.451866 -0.174109
v -2.874891 3.449121 -0.178220
v -2.859002 3.431376 -0.192676
v -2.859311 3.429626 -0.193003
v -2.878877 3.426516 -0.197398
v -2.859310 3.429628 -0.188496
v -2.878877 3.426517 -0.192892
v -2.876195 3.333870 -0.177052
v -2.855771 3.341794 -0.173995
v -2.876023 3.334844 -0.178127
v -2.854990 3.346223 -0.169504
v -2.875242 3.339274 -0.173634
v -2.895486 3.332323 -0.177765
v -2.896267 3.327893 -0.182259
v -2.896425 3.326994 -0.181558
v -2.758685 3.784540 -0.169863
v -2.759466 3.780111 -0.165373
v -2.742031 3.771082 -0.165731
v -2.742812 3.766654 -0.161242
v -2.774043 3.697438 -0.184215
v -2.756712 3.687823 -0.179821
v -2.777836 3.675930 -0.165885
v -2.774044 3.697437 -0.179706
v -2.756712 3.687819 -0.175311
v -2.778610 3.671540 -0.170316
v -2.761214 3.662289 -0.166204
v -2.778757 3.670707 -0.168929
v -2.760440 3.666679 -0.161774
v -2.796092 3.464488 -0.166204
v -2.815602 3.461745 -0.170316
v -2.796866 3.460098 -0.161774
v -2.819861 3.437596 -0.183899
v -2.800594 3.438954 -0.179821
v -2.820169 3.435846 -0.184215
v -2.800593 3.438958 -0.175311
v -2.820169 3.435848 -0.179706
v -2.816376 3.457355 -0.165885
v -2.815275 3.355695 -0.165731
v -2.814494 3.360123 -0.161242
v -2.835699 3.347774 -0.168782
v -2.835527 3.348745 -0.169863
v -2.834746 3.353174 -0.165373
v -2.725386 3.757626 -0.161600
v -2.708740 3.744170 -0.157468
v -2.692086 3.730713 -0.153337
v -2.726166 3.753199 -0.157111
v -2.709521 3.739743 -0.152981
v -2.739389 3.678207 -0.175426
v -2.722067 3.668592 -0.171032
v -2.704735 3.658975 -0.166638
v -2.739390 3.678204 -0.170915
v -2.722067 3.668589 -0.166520
v -2.704736 3.658972 -0.162125
v -2.743827 3.653040 -0.162091
v -2.709044 3.634541 -0.153866
v -2.709191 3.633705 -0.152487
v -2.743053 3.657430 -0.157663
v -2.725666 3.648181 -0.153551
v -2.757088 3.469976 -0.157979
v -2.776590 3.467232 -0.162091
v -2.737441 3.473490 -0.152881
v -2.757862 3.465587 -0.153551
v -2.777364 3.462842 -0.157663
v -2.741886 3.448285 -0.166638
v -2.761461 3.445176 -0.171032
v -2.781027 3.442065 -0.175426
v -2.741885 3.448288 -0.162125
v -2.761460 3.445179 -0.166520
v -2.781027 3.442069 -0.170915
v -2.754706 3.375580 -0.152239
v -2.754535 3.376547 -0.153337
v -2.774787 3.369598 -0.157468
v -2.795031 3.362647 -0.161600
v -2.774007 3.374025 -0.152981
v -2.794250 3.367074 -0.157111
v -2.670088 3.639709 -0.157854
v -2.687413 3.649360 -0.162243
v -2.687573 3.648454 -0.157696
v -2.670315 3.638420 -0.153184
v -2.670236 3.638868 -0.153313
v -2.670155 3.639326 -0.153367
v -2.670382 3.638037 -0.152990
v -2.670082 3.639739 -0.153334
v -2.702447 3.456190 -0.157602
v -2.702738 3.454539 -0.157854
v -2.722319 3.451396 -0.162243
v -2.702743 3.454509 -0.153334
v -2.702443 3.456211 -0.152990
v -2.702670 3.454922 -0.153367
v -2.702590 3.455380 -0.153313
v -2.702511 3.455828 -0.153184
v -2.722086 3.452720 -0.157575
v -2.722319 3.451400 -0.157730
v -2.692867 3.726287 -0.148850
v -2.708270 3.638930 -0.149440
v -2.738351 3.468330 -0.149440
v -2.753755 3.380974 -0.148850
v -2.658617 3.704764 -0.143984
v -2.658770 3.703895 -0.145057
v -2.675441 3.717257 -0.149205
v -2.675270 3.718223 -0.148102
v -2.676065 3.713716 -0.143975
v -2.676221 3.712831 -0.144719
v -2.659501 3.699748 -0.140437
v -2.659447 3.700052 -0.140175
v -2.659411 3.700257 -0.139839
v -2.659567 3.699375 -0.140588
v -2.659398 3.700333 -0.139467
v -2.691804 3.624455 -0.148376
v -2.691657 3.625292 -0.149754
v -2.690982 3.629119 -0.144682
v -2.690883 3.629681 -0.145328
v -2.691023 3.628886 -0.143876
v -2.673616 3.619697 -0.140165
v -2.673586 3.619868 -0.140572
v -2.673541 3.620121 -0.140937
v -2.673487 3.620430 -0.141216
v -2.673627 3.619635 -0.139766
v -2.674271 3.615985 -0.145609
v -2.698555 3.478263 -0.145609
v -2.717928 3.476301 -0.148376
v -2.718076 3.475463 -0.149754
v -2.699198 3.474613 -0.139766
v -2.699339 3.473818 -0.141216
v -2.699284 3.474127 -0.140937
v -2.699239 3.474380 -0.140572
v -2.699209 3.474551 -0.140165
v -2.718849 3.471075 -0.145328
v -2.714056 3.390353 -0.145057
v -2.734291 3.383498 -0.149205
v -2.713428 3.393915 -0.139467
v -2.713259 3.394873 -0.140588
v -2.713414 3.393991 -0.139839
v -2.713378 3.394196 -0.140175
v -2.713324 3.394500 -0.140437
v -2.733511 3.387925 -0.144719
v -2.608870 3.580342 -0.115797
v -2.608233 3.579033 -0.115608
v -2.624466 3.488837 -0.129906
v -2.586433 3.537802 -0.134448
v -2.589273 3.521691 -0.134448
v -2.599030 3.531716 -0.132777
v -2.597933 3.472578 -0.134449
v -2.599467 3.473366 -0.134615
v -2.505499 3.580408 -0.106955
v -2.503533 3.578392 -0.105425
v -2.504104 3.579867 -0.105601
v -2.503533 3.578392 -0.092819
v -2.504081 3.579845 -0.092992
v -2.513810 3.524977 -0.106636
v -2.516645 3.508902 -0.106636
v -2.514394 3.516793 -0.100015
v -2.527666 3.454015 -0.106929
v -2.525256 3.455193 -0.105425
v -2.526268 3.454015 -0.092992
f 385 392 391
f 391 388 389
f 389 387 383
f 389 383 385
f 385 391 389
f 136 121 70
f 73 66 120
f 73 120 374
f 73 374 375
f 386 119 66
f 386 66 73
f 70 122 392
f 70 392 136
f 73 136 392
f 73 392 385
f 73 385 386
f 136 73 375
f 70 368 72
f 70 370 368
f 70 371 370
f 70 372 371
f 70 369 372
f 70 324 369
f 70 326 324
f 70 327 326
f 70 328 327
f 70 325 328
f 70 361 325
f 70 362 361
f 70 363 362
f 70 364 363
f 70 360 364
f 70 69 360
f 74 201 202
f 74 186 201
f 74 139 186
f 74 187 139
f 74 188 187
f 74 39 75
f 74 75 188
f 39 74 202
f 39 202 203
f 39 203 76
f 39 41 204
f 39 204 208
f 39 208 207
f 39 207 206
f 39 206 205
f 39 205 189
f 39 189 193
f 39 193 192
f 39 192 191
f 39 191 190
f 39 190 179
f 39 179 182
f 39 182 181
f 39 181 180
f 39 180 178
f 39 178 37
f 358 77 67
f 358 67 365
f 358 365 329
f 329 330 323
f 329 323 359
f 329 359 358
f 71 78 367
f 323 330 373
f 373 71 367
f 367 323 373
f 298 59 115
f 298 333 59
f 307 118 63
f 301 333 298
f 301 304 333
f 301 334 304
f 308 334 301
f 308 307 334
f 296 114 58
f 296 58 299
f 311 65 117
f 311 117 309
f 302 296 299
f 302 299 305
f 302 305 311
f 309 302 311
f 297 57 113
f 297 300 57
f 312 116 64
f 312 310 116
f 303 300 297
f 303 306 300
f 303 312 306
f 310 312 303
f 266 110 51
f 266 51 268
f 276 55 111
f 276 111 275
f 270 266 268
f 270 268 272
f 270 272 276
f 275 270 276
f 267 52 109
f 267 274 52
f 279 112 56
f 279 277 112
f 279 278 277
f 278 269 271
f 269 274 267
f 269 273 274
f 269 279 273
f 278 279 269
f 232 105 44
f 232 44 237
f 248 49 107
f 248 107 246
f 235 232 237
f 235 237 236
f 235 236 248
f 246 235 248
f 233 43 104
f 233 238 43
f 249 106 48
f 249 245 106
f 249 247 245
f 247 240 241
f 240 238 233
f 240 243 238
f 240 249 243
f 247 249 240
f 234 103 42
f 234 42 239
f 250 50 108
f 250 108 252
f 250 252 251
f 242 234 239
f 242 239 244
f 242 244 250
f 251 242 250
f 176 36 101
f 176 183 36
f 176 195 183
f 209 102 40
f 209 196 102
f 209 197 196
f 184 195 176
f 184 194 195
f 184 210 194
f 197 210 184
f 197 212 210
f 197 211 212
f 197 209 211
f 345 2 66
f 345 66 1
f 345 1 355
f 345 355 351
f 345 351 352
f 345 352 353
f 345 353 354
f 345 354 319
f 345 319 316
f 345 316 317
f 345 317 318
f 345 318 320
f 345 320 344
f 345 344 341
f 345 341 342
f 345 342 343
f 159 79 5
f 145 159 5
f 145 5 80
f 148 152 4
f 148 4 5
f 148 5 3
f 148 3 175
f 148 175 173
f 148 173 172
f 148 172 171
f 148 171 174
f 148 174 164
f 148 164 163
f 148 163 162
f 148 162 161
f 148 161 165
f 148 165 151
f 148 151 150
f 148 150 149
f 350 16 81
f 350 81 346
f 350 346 347
f 314 315 349
f 348 350 347
f 347 314 349
f 347 349 348
f 337 338 82
f 337 82 17
f 337 17 339
f 337 339 340
f 337 340 315
f 314 337 315
f 18 293 83
f 18 292 293
f 282 19 92
f 282 331 19
f 282 290 331
f 332 292 18
f 287 290 282
f 287 332 290
f 292 332 287
f 295 20 84
f 281 93 21
f 281 21 284
f 281 284 289
f 286 281 289
f 286 289 295
f 22 291 85
f 280 23 94
f 280 283 23
f 280 288 283
f 294 291 22
f 285 288 280
f 285 294 288
f 291 294 285
f 265 24 86
f 265 86 263
f 255 95 25
f 255 25 256
f 255 256 261
f 258 255 261
f 258 261 265
f 263 258 265
f 26 264 87
f 26 262 264
f 253 27 96
f 253 254 27
f 253 260 254
f 259 262 26
f 257 260 253
f 257 259 260
f 262 259 257
f 230 28 88
f 230 88 226
f 215 97 29
f 215 29 218
f 215 218 231
f 223 215 231
f 223 231 230
f 226 223 230
f 31 227 89
f 31 225 227
f 214 30 98
f 214 217 30
f 214 222 217
f 229 225 31
f 220 222 214
f 220 229 222
f 225 229 220
f 228 32 90
f 228 90 224
f 213 99 33
f 213 33 216
f 213 216 221
f 219 213 221
f 219 221 228
f 224 219 228
f 34 167 91
f 34 166 167
f 141 35 100
f 141 146 35
f 141 147 146
f 141 160 147
f 169 166 34
f 153 160 141
f 153 170 160
f 166 170 153
f 166 169 170
f 144 159 145
f 144 158 159
f 144 156 158
f 144 155 156
f 377 137 138
f 137 381 376
f 381 379 378
f 379 137 377
f 137 379 381
f 54 53 132
f 54 132 133
f 54 133 134
f 131 132 53
f 131 53 112
f 131 112 111
f 111 54 134
f 111 134 131
f 96 11 130
f 96 130 127
f 96 127 128
f 129 130 11
f 129 11 10
f 129 10 95
f 95 96 128
f 95 128 129
f 70 69 67
f 39 38 36
f 60 59 58
f 61 57 51
f 53 52 44
f 47 43 42
f 40 38 39
f 72 70 68
f 63 60 62
f 64 61 54
f 48 47 46
f 365 67 69
f 178 37 36
f 333 299 58
f 300 268 51
f 274 237 44
f 238 239 42
f 361 325 365
f 179 183 195
f 72 71 373
f 204 209 40
f 63 65 311
f 64 55 276
f 56 49 248
f 48 50 250
f 324 369 373
f 304 334 311
f 306 312 276
f 273 279 248
f 243 249 250
f 6 16 1
f 3 34 15
f 8 20 18
f 10 24 22
f 12 28 26
f 14 32 31
f 4 5 15
f 17 6 66
f 21 8 7
f 25 10 9
f 29 12 11
f 33 14 13
f 355 1 16
f 169 34 3
f 18 20 295
f 22 24 265
f 26 28 230
f 31 32 228
f 349 315 319
f 164 160 170
f 295 289 290
f 265 261 288
f 230 231 260
f 228 221 222
f 345 339 17
f 4 35 146
f 331 284 21
f 283 256 25
f 254 218 29
f 217 216 33
f 315 340 344
f 151 147 160
f 289 284 331
f 261 256 283
f 231 218 254
f 221 216 217
f 56 53 45
f 377 387 135
f 135 388 378
f 374 120 356
f 376 357 121
f 137 376 136
f 138 137 356
f 321 357 376
f 384 335 119
f 392 122 366
f 382 138 313
f 366 322 380
f 380 378 388
f 377 138 382
f 121 357 360
f 357 321 325
f 327 328 321
f 324 326 322
f 366 369 324
f 366 122 72
f 187 188 75
f 187 177 185
f 198 76 203
f 139 185 199
f 178 177 75
f 204 41 76
f 185 189 205
f 177 181 182
f 180 181 177
f 178 180 177
f 179 190 185
f 193 189 185
f 185 191 192
f 185 190 191
f 205 206 198
f 207 208 198
f 208 204 198
f 68 77 115
f 78 68 60
f 117 62 61
f 107 45 47
f 108 46 38
f 358 298 115
f 296 297 113
f 266 267 109
f 232 233 104
f 234 176 101
f 359 323 301
f 296 302 303
f 266 270 269
f 232 235 240
f 234 242 184
f 78 118 307
f 117 116 310
f 111 112 277
f 107 106 245
f 108 102 196
f 323 367 308
f 302 309 310
f 270 275 278
f 235 246 247
f 242 251 197
f 62 114 113
f 54 110 109
f 45 105 104
f 46 103 101
f 1 355 356
f 355 351 356
f 351 352 356
f 352 353 356
f 353 354 356
f 354 319 313
f 319 316 313
f 317 318 313
f 313 320 344
f 344 341 335
f 341 342 335
f 343 345 335
f 345 2 119
f 168 79 159
f 157 154 168
f 143 145 80
f 143 142 154
f 3 79 168
f 142 80 4
f 142 151 165
f 174 171 168
f 168 171 172
f 168 154 164
f 154 162 163
f 154 163 164
f 7 83 81
f 92 7 6
f 94 9 8
f 98 13 12
f 100 15 14
f 81 83 293
f 84 85 291
f 86 87 264
f 88 89 227
f 90 91 167
f 292 287 314
f 291 285 286
f 262 257 258
f 225 220 223
f 166 153 219
f 338 282 92
f 281 280 94
f 255 253 96
f 215 214 98
f 213 141 100
f 287 282 337
f 285 280 281
f 257 253 255
f 220 214 215
f 153 141 213
f 9 85 84
f 11 87 86
f 13 89 88
f 15 91 90
f 133 132 124
f 123 134 133
f 124 131 134
f 132 131 124
f 129 128 126
f 125 130 129
f 125 127 130
f 128 127 125
f 132 131 134
f 128 127 130
f 326 324 330
f 327 326 330
f 300 306 272
f 274 273 236
f 238 243 244
f 329 365 325
f 191 190 195
f 328 327 330
f 191 195 194
f 333 304 305
f 360 364 365
f 364 363 365
f 179 182 183
f 363 362 365
f 204 208 209
f 208 207 211
f 369 372 373
f 205 210 212
f 334 307 311
f 372 371 373
f 206 212 211
f 161 165 160
f 162 161 160
f 316 319 315
f 350 348 351
f 170 169 171
f 353 348 349
f 172 171 169
f 340 339 341
f 150 146 147
f 389 135 387
f 381 380 322
f 336 335 382
f 380 381 378
f 375 374 137
f 390 391 392
f 384 383 382
f 201 140 202
f 203 202 140
f 200 201 186
f 200 199 198
f 358 359 298
f 270 271 269
f 235 241 240
f 251 252 196
f 144 143 155
f 156 157 158
f 346 293 292
f 263 264 262
f 226 227 225
f 224 167 166
f 189 194 210
f 70 67 68
f 39 36 37
f 60 58 62
f 61 51 54
f 53 44 45
f 47 42 46
f 40 39 41
f 72 68 71
f 63 62 65
f 64 54 55
f 48 46 50
f 365 69 360
f 178 36 183
f 333 58 59
f 300 51 57
f 274 44 52
f 238 42 43
f 179 195 190
f 72 373 368
f 204 40 41
f 63 311 307
f 64 276 312
f 56 248 279
f 48 250 249
f 324 373 330
f 304 311 305
f 306 276 272
f 273 248 236
f 243 250 244
f 6 1 66
f 3 15 5
f 8 18 7
f 10 22 9
f 12 26 11
f 14 31 13
f 4 15 35
f 17 66 2
f 21 7 19
f 25 9 23
f 29 11 27
f 33 13 30
f 355 16 350
f 169 3 175
f 18 295 332
f 22 265 294
f 26 230 259
f 31 228 229
f 349 319 354
f 164 170 174
f 295 290 332
f 265 288 294
f 230 260 259
f 228 222 229
f 345 17 2
f 4 146 152
f 331 21 19
f 283 25 23
f 254 29 27
f 217 33 30
f 315 344 320
f 151 160 165
f 289 331 290
f 261 283 288
f 231 254 260
f 221 217 222
f 56 45 49
f 377 135 379
f 135 378 379
f 374 356 137
f 376 121 136
f 137 136 375
f 138 356 313
f 321 376 381
f 384 119 386
f 392 366 390
f 382 313 336
f 366 380 390
f 380 388 390
f 377 382 387
f 121 360 69
f 357 364 360
f 357 363 364
f 357 362 363
f 357 361 362
f 357 325 361
f 321 328 325
f 327 321 322
f 322 326 327
f 366 324 322
f 366 372 369
f 366 371 372
f 371 366 370
f 366 368 370
f 366 72 368
f 187 75 177
f 187 185 139
f 198 203 140
f 139 199 200
f 178 75 37
f 204 76 198
f 185 205 199
f 177 182 179
f 179 185 177
f 193 185 192
f 205 198 199
f 207 198 206
f 68 115 60
f 78 60 118
f 117 61 116
f 107 47 106
f 108 38 102
f 358 115 77
f 296 113 114
f 266 109 110
f 232 104 105
f 234 101 103
f 359 301 298
f 296 303 297
f 266 269 267
f 232 240 233
f 234 184 176
f 78 307 367
f 117 310 309
f 111 277 275
f 107 245 246
f 108 196 252
f 323 308 301
f 302 310 303
f 270 278 271
f 235 247 241
f 242 197 184
f 62 113 61
f 54 109 53
f 45 104 47
f 46 101 38
f 1 356 120
f 354 313 356
f 313 316 317
f 313 318 320
f 313 344 336
f 344 335 336
f 343 335 342
f 345 119 335
f 168 159 158
f 157 168 158
f 143 80 142
f 143 154 155
f 3 168 175
f 142 4 152
f 142 165 154
f 168 172 173
f 168 173 175
f 168 164 174
f 154 165 161
f 162 154 161
f 142 150 151
f 150 142 149
f 142 148 149
f 142 152 148
f 7 81 6
f 92 6 82
f 94 8 93
f 98 12 97
f 100 14 99
f 81 293 346
f 84 291 295
f 86 264 263
f 88 227 226
f 90 167 224
f 292 314 347
f 291 286 295
f 262 258 263
f 225 223 226
f 166 219 224
f 338 92 82
f 281 94 93
f 255 96 95
f 215 98 97
f 213 100 99
f 287 337 314
f 285 281 286
f 257 255 258
f 220 215 223
f 153 213 219
f 9 84 8
f 11 86 10
f 13 88 12
f 15 90 14
f 133 124 123
f 124 134 123
f 125 129 126
f 128 125 126
f 132 134 133
f 128 130 129
f 194 189 193
f 194 193 192
f 329 325 328
f 328 330 329
f 191 194 192
f 333 305 299
f 300 272 268
f 274 236 237
f 238 244 239
f 178 183 180
f 180 183 181
f 361 365 362
f 183 182 181
f 368 373 370
f 208 211 209
f 370 373 371
f 205 212 206
f 206 211 207
f 315 320 318
f 315 318 317
f 160 164 163
f 315 317 316
f 162 160 163
f 350 351 355
f 173 169 175
f 348 352 351
f 172 169 173
f 170 171 174
f 353 349 354
f 348 353 352
f 146 148 152
f 343 339 345
f 146 149 148
f 342 339 343
f 340 341 344
f 150 147 151
f 339 342 341
f 149 146 150
f 388 135 389
f 381 322 321
f 335 384 382
f 387 382 383
f 388 391 390
f 386 383 384
f 383 386 385
f 200 186 139
f 200 198 140
f 367 307 308
f 275 277 278
f 246 245 247
f 251 196 197
f 145 143 144
f 155 157 156
f 155 154 157
f 346 292 347
f 337 282 338
f 140 201 200
f 189 210 205
