# CC0 David Gian-Cursio 2021; original authored material surfaces.
o chevron-v-strips
v 0.073630 2.727855 -0.131383
v 0.155572 2.727855 -0.131383
v 0.140620 2.933919 -0.176876
v 0.269555 2.933919 -0.176876
v 0.164191 2.933919 -0.176876
v 0.099590 2.746593 -0.135519
v 0.106050 2.765322 -0.139655
v 0.112510 2.784060 -0.143790
v 0.118970 2.802789 -0.147926
v 0.125430 2.821518 -0.152062
v 0.131891 2.840256 -0.156198
v 0.138351 2.858985 -0.160333
v 0.144811 2.877723 -0.164470
v 0.151271 2.896452 -0.168605
v 0.157731 2.915181 -0.172741
v 0.079720 2.746593 -0.135519
v 0.165935 2.746593 -0.135519
v 0.085810 2.765322 -0.139655
v 0.176296 2.765322 -0.139655
v 0.091900 2.784060 -0.143790
v 0.186659 2.784060 -0.143790
v 0.097990 2.802789 -0.147926
v 0.197021 2.802789 -0.147926
v 0.104080 2.821518 -0.152062
v 0.207383 2.821518 -0.152062
v 0.110170 2.840256 -0.156198
v 0.217745 2.840256 -0.156198
v 0.116260 2.858985 -0.160333
v 0.228108 2.858985 -0.160333
v 0.238469 2.877723 -0.164470
v 0.122351 2.877723 -0.164470
v 0.128440 2.896452 -0.168605
v 0.248832 2.896452 -0.168605
v 0.134530 2.915181 -0.172741
v 0.259194 2.915181 -0.172741
v -0.134530 2.915181 -0.172741
v -0.140620 2.933919 -0.176876
v -0.157731 2.915181 -0.172741
v -0.164191 2.933919 -0.176876
v -0.259194 2.915181 -0.172741
v -0.269555 2.933919 -0.176876
v -0.128440 2.896452 -0.168605
v -0.122351 2.877723 -0.164470
v -0.116260 2.858985 -0.160333
v -0.138351 2.858985 -0.160333
v -0.151271 2.896452 -0.168605
v -0.144811 2.877723 -0.164470
v -0.238469 2.877723 -0.164470
v -0.228108 2.858985 -0.160333
v -0.248832 2.896452 -0.168605
v -0.104080 2.821518 -0.152062
v -0.110170 2.840256 -0.156198
v -0.131891 2.840256 -0.156198
v -0.125430 2.821518 -0.152062
v -0.207383 2.821518 -0.152062
v -0.217745 2.840256 -0.156198
v -0.097990 2.802789 -0.147926
v -0.091900 2.784060 -0.143790
v -0.085810 2.765322 -0.139655
v -0.106050 2.765322 -0.139655
v -0.118970 2.802789 -0.147926
v -0.112510 2.784060 -0.143790
v -0.176296 2.765322 -0.139655
v -0.197021 2.802789 -0.147926
v -0.186659 2.784060 -0.143790
v 0.093130 2.727855 -0.131383
v -0.079720 2.746593 -0.135519
v -0.099590 2.746593 -0.135519
v -0.073630 2.727855 -0.131383
v -0.093130 2.727855 -0.131383
v -0.165935 2.746593 -0.135519
v -0.155572 2.727855 -0.131383
v 0.258589 2.915181 -0.181764
v 0.258904 2.915181 -0.181518
v 0.259116 2.915181 -0.181193
v 0.258204 2.915181 -0.181896
v 0.259194 2.915181 -0.180824
v 0.269478 2.933919 -0.185329
v 0.269266 2.933919 -0.185652
v 0.268950 2.933919 -0.185897
v 0.268564 2.933919 -0.186026
v 0.269555 2.933919 -0.184960
v 0.156922 2.915181 -0.196887
v 0.157310 2.915181 -0.197087
v 0.157766 2.915181 -0.197230
v 0.158657 2.915181 -0.197287
v 0.158234 2.915181 -0.197301
v 0.164694 2.933919 -0.201694
v 0.164226 2.933919 -0.201622
v 0.163770 2.933919 -0.201478
v 0.163383 2.933919 -0.201277
v 0.165118 2.933919 -0.201682
v 0.135020 2.915181 -0.182049
v 0.134765 2.915181 -0.181680
v 0.134593 2.915181 -0.181273
v 0.135332 2.915181 -0.182332
v 0.134530 2.915181 -0.180872
v 0.141110 2.933919 -0.186160
v 0.140855 2.933919 -0.185792
v 0.140684 2.933919 -0.185383
v 0.141422 2.933919 -0.186443
v 0.140620 2.933919 -0.184982
v -0.140620 2.933919 -0.184982
v -0.141422 2.933919 -0.186443
v -0.140684 2.933919 -0.185383
v -0.140855 2.933919 -0.185792
v -0.141110 2.933919 -0.186160
v -0.134530 2.915181 -0.180872
v -0.135332 2.915181 -0.182332
v -0.134593 2.915181 -0.181273
v -0.134765 2.915181 -0.181680
v -0.135020 2.915181 -0.182049
v -0.165118 2.933919 -0.201682
v -0.163383 2.933919 -0.201277
v -0.163770 2.933919 -0.201478
v -0.164226 2.933919 -0.201622
v -0.164694 2.933919 -0.201694
v -0.158234 2.915181 -0.197301
v -0.158657 2.915181 -0.197287
v -0.157766 2.915181 -0.197230
v -0.157310 2.915181 -0.197087
v -0.156922 2.915181 -0.196887
v -0.269555 2.933919 -0.184960
v -0.268564 2.933919 -0.186026
v -0.268950 2.933919 -0.185897
v -0.269266 2.933919 -0.185652
v -0.269478 2.933919 -0.185329
v -0.259194 2.915181 -0.180824
v -0.258204 2.915181 -0.181896
v -0.259116 2.915181 -0.181193
v -0.258904 2.915181 -0.181518
v -0.258589 2.915181 -0.181764
v 0.248754 2.896452 -0.177058
v 0.248832 2.896452 -0.176689
v 0.248228 2.896452 -0.177631
v 0.248542 2.896452 -0.177384
v 0.247843 2.896452 -0.177765
v 0.237866 2.877723 -0.173498
v 0.238181 2.877723 -0.173249
v 0.238392 2.877723 -0.172922
v 0.237482 2.877723 -0.173634
v 0.238469 2.877723 -0.172552
v 0.227506 2.858985 -0.169366
v 0.227819 2.858985 -0.169115
v 0.228030 2.858985 -0.168787
v 0.227122 2.858985 -0.169504
v 0.228108 2.858985 -0.168417
v 0.150462 2.896452 -0.192497
v 0.150849 2.896452 -0.192697
v 0.151304 2.896452 -0.192839
v 0.152196 2.896452 -0.192892
v 0.151772 2.896452 -0.192907
v 0.144001 2.877723 -0.188107
v 0.144389 2.877723 -0.188307
v 0.144844 2.877723 -0.188446
v 0.145734 2.877723 -0.188496
v 0.145311 2.877723 -0.188514
v 0.128930 2.896452 -0.177938
v 0.128675 2.896452 -0.177569
v 0.128503 2.896452 -0.177161
v 0.129243 2.896452 -0.178220
v 0.128440 2.896452 -0.176761
v 0.122840 2.877723 -0.173827
v 0.122585 2.877723 -0.173459
v 0.122414 2.877723 -0.173051
v 0.123153 2.877723 -0.174109
v 0.122351 2.877723 -0.172651
v 0.116751 2.858985 -0.169716
v 0.116495 2.858985 -0.169348
v 0.116323 2.858985 -0.168940
v 0.117064 2.858985 -0.169997
v 0.116260 2.858985 -0.168540
v 0.137541 2.858985 -0.183718
v 0.137929 2.858985 -0.183917
v 0.138383 2.858985 -0.184054
v 0.139273 2.858985 -0.184101
v 0.138850 2.858985 -0.184120
v -0.138850 2.858985 -0.184120
v -0.139273 2.858985 -0.184101
v -0.138383 2.858985 -0.184054
v -0.137929 2.858985 -0.183917
v -0.137541 2.858985 -0.183718
v -0.116260 2.858985 -0.168540
v -0.117064 2.858985 -0.169997
v -0.116323 2.858985 -0.168940
v -0.116495 2.858985 -0.169348
v -0.116751 2.858985 -0.169716
v -0.122351 2.877723 -0.172651
v -0.123153 2.877723 -0.174109
v -0.122414 2.877723 -0.173051
v -0.122585 2.877723 -0.173459
v -0.122840 2.877723 -0.173827
v -0.128440 2.896452 -0.176761
v -0.129243 2.896452 -0.178220
v -0.128503 2.896452 -0.177161
v -0.128675 2.896452 -0.177569
v -0.128930 2.896452 -0.177938
v -0.145311 2.877723 -0.188514
v -0.145734 2.877723 -0.188496
v -0.144844 2.877723 -0.188446
v -0.144389 2.877723 -0.188307
v -0.144001 2.877723 -0.188107
v -0.151772 2.896452 -0.192907
v -0.152196 2.896452 -0.192892
v -0.151304 2.896452 -0.192839
v -0.150849 2.896452 -0.192697
v -0.150462 2.896452 -0.192497
v -0.228108 2.858985 -0.168417
v -0.227122 2.858985 -0.169504
v -0.228030 2.858985 -0.168787
v -0.227819 2.858985 -0.169115
v -0.227506 2.858985 -0.169366
v -0.238469 2.877723 -0.172552
v -0.237482 2.877723 -0.173634
v -0.238392 2.877723 -0.172922
v -0.238181 2.877723 -0.173249
v -0.237866 2.877723 -0.173498
v -0.247843 2.896452 -0.177765
v -0.248542 2.896452 -0.177384
v -0.248228 2.896452 -0.177631
v -0.248832 2.896452 -0.176689
v -0.248754 2.896452 -0.177058
v 0.217145 2.840256 -0.165233
v 0.217457 2.840256 -0.164981
v 0.217668 2.840256 -0.164652
v 0.216761 2.840256 -0.165373
v 0.217745 2.840256 -0.164282
v 0.206783 2.821518 -0.161100
v 0.207095 2.821518 -0.160846
v 0.207306 2.821518 -0.160517
v 0.206402 2.821518 -0.161242
v 0.207383 2.821518 -0.160146
v 0.110661 2.840256 -0.165605
v 0.110406 2.840256 -0.165236
v 0.110233 2.840256 -0.164830
v 0.110974 2.840256 -0.165885
v 0.110170 2.840256 -0.164429
v 0.131080 2.840256 -0.179329
v 0.131468 2.840256 -0.179527
v 0.131923 2.840256 -0.179663
v 0.132812 2.840256 -0.179706
v 0.132389 2.840256 -0.179727
v 0.124618 2.821518 -0.174938
v 0.125007 2.821518 -0.175136
v 0.125462 2.821518 -0.175271
v 0.126350 2.821518 -0.175311
v 0.125929 2.821518 -0.175334
v 0.104571 2.821518 -0.161493
v 0.104315 2.821518 -0.161126
v 0.104144 2.821518 -0.160718
v 0.104884 2.821518 -0.161774
v 0.104080 2.821518 -0.160319
v -0.104080 2.821518 -0.160319
v -0.104884 2.821518 -0.161774
v -0.104144 2.821518 -0.160718
v -0.104315 2.821518 -0.161126
v -0.104571 2.821518 -0.161493
v -0.125929 2.821518 -0.175334
v -0.126350 2.821518 -0.175311
v -0.125462 2.821518 -0.175271
v -0.125007 2.821518 -0.175136
v -0.124618 2.821518 -0.174938
v -0.132389 2.840256 -0.179727
v -0.132812 2.840256 -0.179706
v -0.131923 2.840256 -0.179663
v -0.131468 2.840256 -0.179527
v -0.131080 2.840256 -0.179329
v -0.110170 2.840256 -0.164429
v -0.110974 2.840256 -0.165885
v -0.110233 2.840256 -0.164830
v -0.110406 2.840256 -0.165236
v -0.110661 2.840256 -0.165605
v -0.207383 2.821518 -0.160146
v -0.206402 2.821518 -0.161242
v -0.207306 2.821518 -0.160517
v -0.207095 2.821518 -0.160846
v -0.206783 2.821518 -0.161100
v -0.217745 2.840256 -0.164282
v -0.216761 2.840256 -0.165373
v -0.217668 2.840256 -0.164652
v -0.217457 2.840256 -0.164981
v -0.217145 2.840256 -0.165233
v 0.196422 2.802789 -0.156967
v 0.196734 2.802789 -0.156712
v 0.196944 2.802789 -0.156381
v 0.196041 2.802789 -0.157111
v 0.197021 2.802789 -0.156010
v 0.186062 2.784060 -0.152834
v 0.186372 2.784060 -0.152578
v 0.186582 2.784060 -0.152246
v 0.185680 2.784060 -0.152981
v 0.186659 2.784060 -0.151874
v 0.118158 2.802789 -0.170549
v 0.118546 2.802789 -0.170745
v 0.119002 2.802789 -0.170880
v 0.119889 2.802789 -0.170915
v 0.119468 2.802789 -0.170941
v 0.111697 2.784060 -0.166160
v 0.112086 2.784060 -0.166355
v 0.112540 2.784060 -0.166488
v 0.113428 2.784060 -0.166520
v 0.113007 2.784060 -0.166547
v 0.106967 2.765322 -0.162125
v 0.106546 2.765322 -0.162154
v 0.098482 2.802789 -0.157382
v 0.098226 2.802789 -0.157015
v 0.098053 2.802789 -0.156608
v 0.098795 2.802789 -0.157663
v 0.097990 2.802789 -0.156208
v 0.092392 2.784060 -0.153271
v 0.092136 2.784060 -0.152904
v 0.091963 2.784060 -0.152498
v 0.092705 2.784060 -0.153551
v 0.091900 2.784060 -0.152097
v 0.105237 2.765322 -0.161770
v 0.105626 2.765322 -0.161965
v 0.106080 2.765322 -0.162096
v -0.106080 2.765322 -0.162096
v -0.105626 2.765322 -0.161965
v -0.105237 2.765322 -0.161770
v -0.091900 2.784060 -0.152097
v -0.092705 2.784060 -0.153551
v -0.091963 2.784060 -0.152498
v -0.092136 2.784060 -0.152904
v -0.092392 2.784060 -0.153271
v -0.097990 2.802789 -0.156208
v -0.098795 2.802789 -0.157663
v -0.098053 2.802789 -0.156608
v -0.098226 2.802789 -0.157015
v -0.098482 2.802789 -0.157382
v -0.106546 2.765322 -0.162154
v -0.106967 2.765322 -0.162125
v -0.113007 2.784060 -0.166547
v -0.113428 2.784060 -0.166520
v -0.112540 2.784060 -0.166488
v -0.112086 2.784060 -0.166355
v -0.111697 2.784060 -0.166160
v -0.119468 2.802789 -0.170941
v -0.119889 2.802789 -0.170915
v -0.119002 2.802789 -0.170880
v -0.118546 2.802789 -0.170745
v -0.118158 2.802789 -0.170549
v -0.186659 2.784060 -0.151874
v -0.185680 2.784060 -0.152981
v -0.186582 2.784060 -0.152246
v -0.186372 2.784060 -0.152578
v -0.186062 2.784060 -0.152834
v -0.197021 2.802789 -0.156010
v -0.196041 2.802789 -0.157111
v -0.196944 2.802789 -0.156381
v -0.196734 2.802789 -0.156712
v -0.196422 2.802789 -0.156967
v 0.099590 2.746593 -0.157696
v 0.100505 2.746593 -0.157730
v 0.100084 2.746593 -0.157760
v 0.098776 2.746593 -0.157380
v 0.099165 2.746593 -0.157575
v 0.092704 2.727855 -0.153184
v 0.093159 2.727855 -0.153313
v 0.093624 2.727855 -0.153367
v 0.092316 2.727855 -0.152990
v 0.094044 2.727855 -0.153334
v -0.099590 2.746593 -0.157696
v -0.094044 2.727855 -0.153334
v -0.092316 2.727855 -0.152990
v -0.093624 2.727855 -0.153367
v -0.093159 2.727855 -0.153313
v -0.092704 2.727855 -0.153184
v -0.099165 2.746593 -0.157575
v -0.098776 2.746593 -0.157380
v -0.100084 2.746593 -0.157760
v -0.100505 2.746593 -0.157730
v 0.175700 2.765322 -0.148702
v 0.176010 2.765322 -0.148443
v 0.176220 2.765322 -0.148110
v 0.175320 2.765322 -0.148850
v 0.176296 2.765322 -0.147739
v 0.086302 2.765322 -0.149160
v 0.086046 2.765322 -0.148793
v 0.085873 2.765322 -0.148387
v 0.086616 2.765322 -0.149440
v 0.085810 2.765322 -0.147987
v -0.085810 2.765322 -0.147987
v -0.086616 2.765322 -0.149440
v -0.085873 2.765322 -0.148387
v -0.086046 2.765322 -0.148793
v -0.086302 2.765322 -0.149160
v -0.176296 2.765322 -0.147739
v -0.175320 2.765322 -0.148850
v -0.176220 2.765322 -0.148110
v -0.176010 2.765322 -0.148443
v -0.175700 2.765322 -0.148702
v 0.165339 2.746593 -0.144570
v 0.165649 2.746593 -0.144310
v 0.165857 2.746593 -0.143975
v 0.164959 2.746593 -0.144719
v 0.165935 2.746593 -0.143602
v 0.154978 2.727855 -0.140437
v 0.155287 2.727855 -0.140175
v 0.155496 2.727855 -0.139839
v 0.154599 2.727855 -0.140588
v 0.155572 2.727855 -0.139467
v 0.080212 2.746593 -0.145048
v 0.079956 2.746593 -0.144682
v 0.079783 2.746593 -0.144276
v 0.080526 2.746593 -0.145328
v 0.079720 2.746593 -0.143876
v 0.073693 2.727855 -0.140165
v 0.073866 2.727855 -0.140572
v 0.074123 2.727855 -0.140937
v 0.074437 2.727855 -0.141216
v 0.073630 2.727855 -0.139766
v -0.073630 2.727855 -0.139766
v -0.074437 2.727855 -0.141216
v -0.074123 2.727855 -0.140937
v -0.073866 2.727855 -0.140572
v -0.073693 2.727855 -0.140165
v -0.079720 2.746593 -0.143876
v -0.080526 2.746593 -0.145328
v -0.079783 2.746593 -0.144276
v -0.079956 2.746593 -0.144682
v -0.080212 2.746593 -0.145048
v -0.155572 2.727855 -0.139467
v -0.154599 2.727855 -0.140588
v -0.155496 2.727855 -0.139839
v -0.155287 2.727855 -0.140175
v -0.154978 2.727855 -0.140437
v -0.165935 2.746593 -0.143602
v -0.164959 2.746593 -0.144719
v -0.165857 2.746593 -0.143975
v -0.165649 2.746593 -0.144310
v -0.165339 2.746593 -0.144570
f 70 69 67
f 39 38 36
f 60 59 58
f 61 57 51
f 53 52 44
f 47 43 42
f 40 38 39
f 72 70 68
f 63 60 62
f 64 61 54
f 48 47 46
f 418 67 69
f 103 37 36
f 383 321 58
f 326 253 51
f 268 183 44
f 188 193 42
f 414 365 370
f 104 109 122
f 384 320 337
f 327 342 262
f 269 267 182
f 189 202 207
f 72 71 428
f 123 128 40
f 63 65 343
f 64 55 273
f 56 49 208
f 48 50 221
f 364 424 429
f 332 389 344
f 339 349 274
f 264 279 209
f 199 214 218
f 6 16 1
f 3 34 15
f 8 20 18
f 10 24 22
f 12 28 26
f 14 32 31
f 4 5 15
f 17 6 66
f 21 8 7
f 25 10 9
f 29 12 11
f 33 14 13
f 412 1 16
f 97 34 3
f 18 20 314
f 22 24 252
f 26 28 172
f 31 32 162
f 406 356 361
f 91 83 96
f 313 298 315
f 251 243 293
f 171 173 238
f 161 148 153
f 402 397 17
f 4 35 77
f 377 292 21
f 287 232 25
f 227 147 29
f 142 134 33
f 354 396 401
f 81 76 86
f 301 291 376
f 246 231 286
f 176 146 226
f 151 137 141
f 56 53 45
f 118 119 113
f 366 364 372
f 331 332 334
f 338 339 259
f 263 264 179
f 198 199 204
f 120 118 117
f 367 366 371
f 318 331 333
f 340 338 258
f 265 263 178
f 200 198 203
f 369 370 365
f 115 114 122
f 319 336 337
f 341 261 262
f 266 181 182
f 201 206 207
f 368 367 363
f 115 121 120
f 319 318 335
f 341 340 260
f 266 265 180
f 201 200 205
f 413 417 420
f 103 108 110
f 383 385 323
f 326 328 255
f 268 270 185
f 188 190 195
f 417 416 421
f 105 110 111
f 385 386 324
f 328 329 256
f 270 271 186
f 190 191 196
f 104 107 112
f 414 419 422
f 384 322 325
f 327 254 257
f 269 184 187
f 189 194 197
f 111 112 107
f 416 415 422
f 386 387 325
f 329 330 257
f 271 272 187
f 191 192 197
f 123 127 130
f 423 428 430
f 388 343 345
f 348 273 275
f 278 208 210
f 213 221 222
f 127 126 131
f 425 430 431
f 390 345 346
f 350 275 276
f 280 210 211
f 215 222 219
f 424 427 432
f 124 129 132
f 389 392 347
f 349 352 277
f 279 282 212
f 214 217 220
f 427 426 431
f 125 132 131
f 392 391 346
f 352 351 276
f 282 281 211
f 217 216 219
f 88 92 86
f 355 354 362
f 302 301 303
f 247 246 296
f 177 176 241
f 152 151 156
f 89 88 87
f 353 355 360
f 300 302 304
f 245 247 297
f 175 177 242
f 150 152 157
f 358 361 356
f 84 83 91
f 315 298 299
f 293 243 244
f 238 173 174
f 153 148 149
f 357 353 359
f 89 85 84
f 299 300 317
f 244 245 295
f 174 175 240
f 149 150 155
f 407 405 408
f 100 95 97
f 314 312 380
f 252 250 307
f 172 170 235
f 162 160 165
f 405 404 409
f 99 94 95
f 312 311 379
f 250 249 306
f 170 169 234
f 160 159 164
f 96 93 98
f 410 403 406
f 378 310 313
f 305 248 251
f 233 168 171
f 163 158 161
f 99 98 93
f 404 403 410
f 311 310 378
f 249 248 305
f 169 168 233
f 159 158 163
f 77 75 78
f 400 395 397
f 375 290 292
f 285 230 232
f 225 145 147
f 140 133 134
f 75 74 79
f 399 394 395
f 374 289 290
f 284 229 230
f 224 144 145
f 139 136 133
f 396 393 398
f 80 73 76
f 291 288 373
f 231 228 283
f 146 143 223
f 137 135 138
f 393 394 399
f 79 74 73
f 288 289 374
f 228 229 284
f 143 144 224
f 135 136 139
f 113 119 129
f 70 67 68
f 39 36 37
f 60 58 62
f 61 51 54
f 53 44 45
f 47 42 46
f 40 39 41
f 72 68 71
f 63 62 65
f 64 54 55
f 48 46 50
f 418 69 413
f 103 36 108
f 383 58 59
f 326 51 57
f 268 44 52
f 188 42 43
f 414 370 419
f 104 122 114
f 384 337 322
f 327 262 254
f 269 182 184
f 189 207 194
f 72 428 423
f 123 40 41
f 63 343 388
f 64 273 348
f 56 208 278
f 48 221 213
f 364 429 372
f 332 344 334
f 339 274 259
f 264 209 179
f 199 218 204
f 6 1 66
f 3 15 5
f 8 18 7
f 10 22 9
f 12 26 11
f 14 31 13
f 4 15 35
f 17 66 2
f 21 7 19
f 25 9 23
f 29 11 27
f 33 13 30
f 412 16 407
f 97 3 102
f 18 314 382
f 22 252 309
f 26 172 237
f 31 162 167
f 406 361 411
f 91 96 101
f 313 315 381
f 251 293 308
f 171 238 236
f 161 153 166
f 402 17 2
f 4 77 82
f 377 21 19
f 287 25 23
f 227 29 27
f 142 33 30
f 354 401 362
f 81 86 92
f 301 376 303
f 246 286 296
f 176 226 241
f 151 141 156
f 56 45 49
f 118 113 117
f 366 372 371
f 331 334 333
f 338 259 258
f 263 179 178
f 198 204 203
f 120 117 116
f 367 371 363
f 318 333 335
f 340 258 260
f 265 178 180
f 200 203 205
f 369 365 368
f 115 122 121
f 319 337 320
f 341 262 342
f 266 182 267
f 201 207 202
f 368 363 369
f 115 120 116
f 319 335 336
f 341 260 261
f 266 180 181
f 201 205 206
f 413 420 418
f 103 110 105
f 383 323 321
f 326 255 253
f 268 185 183
f 188 195 193
f 417 421 420
f 105 111 106
f 385 324 323
f 328 256 255
f 270 186 185
f 190 196 195
f 104 112 109
f 414 422 415
f 384 325 387
f 327 257 330
f 269 187 272
f 189 197 192
f 111 107 106
f 416 422 421
f 386 325 324
f 329 257 256
f 271 187 186
f 191 197 196
f 123 130 128
f 423 430 425
f 388 345 390
f 348 275 350
f 278 210 280
f 213 222 215
f 127 131 130
f 425 431 426
f 390 346 391
f 350 276 351
f 280 211 281
f 215 219 216
f 424 432 429
f 124 132 125
f 389 347 344
f 349 277 274
f 279 212 209
f 214 220 218
f 427 431 432
f 125 131 126
f 392 346 347
f 352 276 277
f 282 211 212
f 217 219 220
f 88 86 87
f 355 362 360
f 302 303 304
f 247 296 297
f 177 241 242
f 152 156 157
f 89 87 85
f 353 360 359
f 300 304 317
f 245 297 295
f 175 242 240
f 150 157 155
f 358 356 357
f 84 91 90
f 315 299 316
f 293 244 294
f 238 174 239
f 153 149 154
f 357 359 358
f 89 84 90
f 299 317 316
f 244 295 294
f 174 240 239
f 149 155 154
f 407 408 412
f 100 97 102
f 314 380 382
f 252 307 309
f 172 235 237
f 162 165 167
f 405 409 408
f 99 95 100
f 312 379 380
f 250 306 307
f 170 234 235
f 160 164 165
f 96 98 101
f 410 406 411
f 378 313 381
f 305 251 308
f 233 171 236
f 163 161 166
f 99 93 94
f 404 410 409
f 311 378 379
f 249 305 306
f 169 233 234
f 159 163 164
f 77 78 82
f 400 397 402
f 375 292 377
f 285 232 287
f 225 147 227
f 140 134 142
f 75 79 78
f 399 395 400
f 374 290 375
f 284 230 285
f 224 145 225
f 139 133 140
f 396 398 401
f 80 76 81
f 291 373 376
f 231 283 286
f 146 223 226
f 137 138 141
f 393 399 398
f 79 73 80
f 288 374 373
f 228 284 283
f 143 224 223
f 135 139 138
f 113 129 124
