# CC0 David Gian-Cursio 2021; lossless split of accepted optimized preview.
o chevron-4
v -1.002170 0.535275 -0.131383
v -1.079171 0.563301 -0.131383
v -1.135599 0.364550 -0.176876
v -1.256759 0.408648 -0.176876
v -1.157748 0.372611 -0.176876
v -1.032974 0.526545 -0.135519
v -1.045450 0.511155 -0.139655
v -1.057929 0.495757 -0.143790
v -1.070406 0.480367 -0.147926
v -1.082882 0.464977 -0.152062
v -1.095361 0.449579 -0.156198
v -1.107838 0.434189 -0.160333
v -1.120317 0.418790 -0.164470
v -1.132793 0.403400 -0.168605
v -1.145270 0.388010 -0.172741
v -1.014302 0.519750 -0.135519
v -1.095318 0.549237 -0.135519
v -1.026431 0.504233 -0.139655
v -1.111460 0.535181 -0.139655
v -1.038562 0.488708 -0.143790
v -1.127607 0.521118 -0.143790
v -1.050691 0.473191 -0.147926
v -1.143749 0.507062 -0.147926
v -1.062819 0.457675 -0.152062
v -1.159893 0.493007 -0.152062
v -1.074951 0.442150 -0.156198
v -1.176038 0.478943 -0.156198
v -1.087079 0.426633 -0.160333
v -1.192182 0.464887 -0.160333
v -1.208327 0.450823 -0.164470
v -1.099211 0.411108 -0.164470
v -1.111339 0.395591 -0.168605
v -1.224471 0.436768 -0.168605
v -1.123468 0.380075 -0.172741
v -1.240613 0.422712 -0.172741
v -0.870634 0.288051 -0.172741
v -0.871319 0.268360 -0.176876
v -0.848832 0.280116 -0.172741
v -0.849171 0.260298 -0.176876
v -0.753488 0.245413 -0.172741
v -0.750160 0.224262 -0.176876
v -0.869951 0.307733 -0.168605
v -0.869267 0.327416 -0.164470
v -0.868582 0.347107 -0.160333
v -0.847823 0.339551 -0.160333
v -0.848497 0.299925 -0.168605
v -0.848161 0.319734 -0.164470
v -0.760151 0.287701 -0.164470
v -0.763479 0.308852 -0.160333
v -0.756819 0.266557 -0.168605
v -0.867213 0.386480 -0.152062
v -0.867899 0.366789 -0.156198
v -0.847488 0.359360 -0.156198
v -0.847150 0.379178 -0.152062
v -0.770139 0.351148 -0.152062
v -0.766811 0.329996 -0.156198
v -0.866530 0.406162 -0.147926
v -0.865847 0.425845 -0.143790
v -0.865161 0.445536 -0.139655
v -0.846142 0.438613 -0.139655
v -0.846815 0.398987 -0.147926
v -0.846480 0.418796 -0.143790
v -0.780131 0.414587 -0.139655
v -0.773471 0.372292 -0.147926
v -0.776802 0.393435 -0.143790
v -1.020495 0.541944 -0.131383
v -0.864478 0.465218 -0.135519
v -0.845807 0.458422 -0.135519
v -0.863792 0.484909 -0.131383
v -0.845468 0.478239 -0.131383
v -0.783462 0.435731 -0.135519
v -0.786791 0.456883 -0.131383
v -0.954391 0.623496 -0.109472
v -0.849507 0.240519 -0.181005
v -0.875548 0.269899 -0.176876
v -0.745932 0.222722 -0.176876
v -0.868707 0.466757 -0.135519
v -0.779234 0.434192 -0.135519
v -1.131371 0.363011 -0.176876
v -1.260987 0.410187 -0.176876
v -1.010073 0.518210 -0.135519
v -1.099546 0.550776 -0.135519
v -1.022202 0.502694 -0.139655
v -1.034334 0.487169 -0.143790
v -1.046462 0.471652 -0.147926
v -1.058590 0.456136 -0.152062
v -1.070722 0.440611 -0.156198
v -1.082851 0.425094 -0.160333
v -1.094982 0.409569 -0.164470
v -1.107110 0.394052 -0.168605
v -1.119239 0.378536 -0.172741
v -1.115689 0.536720 -0.139655
v -1.131835 0.522657 -0.143790
v -1.147978 0.508601 -0.147926
v -1.164121 0.494546 -0.152062
v -1.180267 0.480482 -0.156198
v -1.196410 0.466426 -0.160333
v -1.212556 0.452362 -0.164470
v -1.228698 0.438307 -0.168605
v -1.244842 0.424251 -0.172741
v -0.874862 0.289590 -0.172741
v -0.749260 0.243874 -0.172741
v -0.874180 0.309272 -0.168605
v -0.873496 0.328955 -0.164470
v -0.872810 0.348646 -0.160333
v -0.755923 0.286162 -0.164470
v -0.759251 0.307313 -0.160333
v -0.752592 0.265018 -0.168605
v -0.872128 0.368328 -0.156198
v -0.871442 0.388019 -0.152062
v -0.765911 0.349609 -0.152062
v -0.762583 0.328457 -0.156198
v -0.870758 0.407701 -0.147926
v -0.870076 0.427384 -0.143790
v -0.869390 0.447075 -0.139655
v -0.769243 0.370753 -0.147926
v -0.772574 0.391896 -0.143790
v -0.775903 0.413048 -0.139655
v -1.083400 0.564840 -0.131383
v -0.997942 0.533735 -0.131383
v -0.868021 0.486448 -0.131383
v -0.782563 0.455344 -0.131383
v -0.823159 0.370273 -0.124197
v -0.829377 0.353190 -0.128210
v -1.113202 0.456493 -0.128210
v -1.106984 0.473577 -0.124197
v -1.113202 0.456493 -0.156110
v -1.106984 0.473577 -0.152097
v -1.102248 0.471853 -0.152097
v -1.108466 0.454770 -0.156110
v -0.829377 0.353190 -0.156110
v -0.834113 0.354913 -0.156110
v -0.827895 0.371997 -0.152097
v -0.823159 0.370273 -0.152097
v -0.873158 0.673299 -0.101210
v -0.865932 0.561648 -0.115623
v -0.951600 0.592886 -0.129342
v -0.953736 0.623986 -0.134484
v -0.849465 0.241461 -0.210317
v -0.742817 0.202520 -0.193785
v -1.243910 0.423912 -0.186391
v -1.260054 0.409848 -0.190522
v -1.275426 0.396460 -0.194457
v -1.276238 0.395836 -0.193603
v -1.276259 0.395844 -0.181005
v -1.240540 0.422686 -0.181193
v -1.239683 0.422374 -0.181896
v -1.256686 0.408622 -0.185329
v -1.256486 0.408549 -0.185652
v -1.256189 0.408441 -0.185897
v -1.255827 0.408309 -0.186026
v -1.256759 0.408648 -0.184960
v -1.146141 0.388327 -0.201792
v -1.157771 0.372620 -0.206141
v -1.170494 0.358287 -0.210368
v -1.169790 0.357092 -0.209418
v -1.168810 0.357693 -0.210012
v -1.144744 0.347976 -0.194235
v -1.144326 0.347824 -0.181005
v -1.146140 0.388327 -0.197287
v -1.158221 0.372784 -0.201694
v -1.157781 0.372623 -0.201622
v -1.157353 0.372468 -0.201478
v -1.156989 0.372335 -0.201277
v -1.158620 0.372929 -0.201682
v -1.120030 0.378824 -0.186766
v -1.119239 0.378536 -0.185372
v -1.132161 0.363298 -0.190878
v -1.123527 0.380097 -0.181273
v -1.124221 0.380349 -0.182332
v -1.136060 0.364717 -0.186160
v -1.135820 0.364630 -0.185792
v -1.135659 0.364572 -0.185383
v -1.136352 0.364824 -0.186443
v -1.135599 0.364550 -0.184982
v -0.874071 0.289302 -0.186766
v -0.874758 0.269612 -0.190878
v -0.871319 0.268360 -0.184982
v -0.870567 0.268086 -0.186443
v -0.871260 0.268338 -0.185383
v -0.871099 0.268280 -0.185792
v -0.870859 0.268192 -0.186160
v -0.869880 0.287777 -0.182332
v -0.847961 0.279799 -0.201792
v -0.849588 0.260451 -0.206018
v -0.848707 0.240227 -0.209675
v -0.874968 0.249786 -0.194235
v -0.875386 0.249938 -0.181005
v -0.848299 0.259981 -0.201682
v -0.849929 0.260575 -0.201277
v -0.849566 0.260442 -0.201478
v -0.849138 0.260286 -0.201622
v -0.848698 0.260126 -0.201694
v -0.847961 0.279799 -0.197287
v -0.849592 0.280392 -0.196887
v -0.749260 0.243874 -0.185324
v -0.750192 0.244214 -0.186391
v -0.745932 0.222722 -0.189460
v -0.746864 0.223062 -0.190522
v -0.743695 0.202925 -0.194457
v -0.743474 0.201926 -0.193603
v -0.743453 0.201918 -0.181005
v -0.742746 0.202504 -0.180832
v -0.750160 0.224262 -0.184960
v -0.751092 0.224601 -0.186026
v -0.750729 0.224469 -0.185897
v -0.750432 0.224361 -0.185652
v -0.750233 0.224288 -0.185329
v -0.753488 0.245413 -0.180824
v -0.754419 0.245752 -0.181896
v -0.753761 0.245513 -0.181518
v -0.754057 0.245620 -0.181764
v -1.227768 0.437968 -0.182259
v -1.211626 0.452024 -0.178127
v -1.195482 0.466088 -0.173995
v -1.223541 0.436430 -0.177765
v -1.207399 0.450486 -0.173634
v -1.191256 0.464550 -0.169504
v -1.133664 0.403717 -0.197398
v -1.121186 0.419107 -0.193003
v -1.133663 0.403717 -0.192892
v -1.121185 0.419106 -0.188496
v -1.108706 0.434505 -0.188609
v -1.107903 0.394341 -0.182653
v -1.095775 0.409858 -0.178541
v -1.083644 0.425383 -0.174428
v -1.094982 0.409569 -0.177151
v -1.112093 0.395866 -0.178220
v -1.099965 0.411383 -0.174109
v -1.087835 0.426908 -0.169997
v -1.108704 0.434504 -0.184101
v -0.872017 0.348357 -0.174428
v -0.872704 0.328666 -0.178541
v -0.873387 0.308984 -0.182653
v -0.846955 0.339235 -0.188609
v -0.846956 0.339236 -0.184101
v -0.867826 0.346832 -0.169997
v -0.868513 0.327141 -0.174109
v -0.869197 0.307459 -0.178220
v -0.848962 0.320025 -0.192676
v -0.847292 0.319417 -0.193003
v -0.847626 0.299608 -0.197398
v -0.847294 0.319418 -0.188496
v -0.847627 0.299608 -0.192892
v -0.755923 0.286162 -0.177052
v -0.760179 0.307651 -0.173995
v -0.756852 0.286500 -0.178127
v -0.764405 0.309190 -0.169504
v -0.761079 0.288038 -0.173634
v -0.757749 0.266895 -0.177765
v -0.753522 0.265357 -0.182259
v -0.752664 0.265045 -0.181558
v -1.179340 0.480144 -0.169863
v -1.175114 0.478606 -0.165373
v -1.163195 0.494209 -0.165731
v -1.158970 0.492671 -0.161242
v -1.096229 0.449894 -0.184215
v -1.083750 0.465293 -0.179821
v -1.075706 0.442425 -0.165885
v -1.096227 0.449894 -0.179706
v -1.083746 0.465292 -0.175311
v -1.071517 0.440900 -0.170316
v -1.059386 0.456425 -0.166204
v -1.070722 0.440611 -0.168929
v -1.063575 0.457950 -0.161774
v -0.870646 0.387729 -0.166204
v -0.871333 0.368039 -0.170316
v -0.866457 0.386205 -0.161774
v -0.848290 0.359652 -0.183899
v -0.846282 0.378862 -0.179821
v -0.846621 0.359044 -0.184215
v -0.846286 0.378863 -0.175311
v -0.846622 0.359045 -0.179706
v -0.867144 0.366514 -0.165885
v -0.766837 0.349946 -0.165731
v -0.771062 0.351484 -0.161242
v -0.762583 0.328457 -0.168782
v -0.763510 0.328794 -0.169863
v -0.767736 0.330333 -0.165373
v -1.147053 0.508264 -0.161600
v -1.130911 0.522320 -0.157468
v -1.114766 0.536385 -0.153337
v -1.142828 0.506727 -0.157111
v -1.126687 0.520783 -0.152981
v -1.071272 0.480683 -0.175426
v -1.058795 0.496072 -0.171032
v -1.046315 0.511470 -0.166638
v -1.071269 0.480681 -0.170915
v -1.058792 0.496071 -0.166520
v -1.046312 0.511469 -0.162125
v -1.047258 0.471942 -0.162091
v -1.023000 0.502984 -0.153866
v -1.022202 0.502694 -0.152487
v -1.051447 0.473467 -0.157663
v -1.039319 0.488983 -0.153551
v -0.869278 0.427094 -0.157979
v -0.869962 0.407412 -0.162091
v -0.869327 0.447052 -0.152881
v -0.865090 0.425569 -0.153551
v -0.865774 0.405887 -0.157663
v -0.845277 0.438298 -0.166638
v -0.845614 0.418481 -0.171032
v -0.845948 0.398671 -0.175426
v -0.845280 0.438300 -0.162125
v -0.845617 0.418482 -0.166520
v -0.845951 0.398672 -0.170915
v -0.775903 0.413048 -0.152239
v -0.776825 0.413384 -0.153337
v -0.773498 0.392233 -0.157468
v -0.770168 0.371089 -0.161600
v -0.777723 0.393770 -0.152981
v -0.774392 0.372627 -0.157111
v -1.021325 0.542246 -0.157854
v -1.033838 0.526860 -0.162243
v -1.032974 0.526545 -0.157696
v -1.020095 0.541799 -0.153184
v -1.020522 0.541954 -0.153313
v -1.020959 0.542113 -0.153367
v -1.019730 0.541666 -0.152990
v -1.021354 0.542257 -0.153334
v -0.846214 0.478511 -0.157602
v -0.844638 0.477937 -0.157854
v -0.844942 0.458108 -0.162243
v -0.844609 0.477927 -0.153334
v -0.846233 0.478518 -0.152990
v -0.845003 0.478070 -0.153367
v -0.845441 0.478230 -0.153313
v -0.845868 0.478385 -0.153184
v -0.846206 0.458568 -0.157575
v -0.844947 0.458109 -0.157730
v -1.110543 0.534847 -0.148850
v -1.027188 0.504509 -0.149440
v -0.864403 0.445260 -0.149440
v -0.781049 0.414921 -0.148850
v -1.083400 0.564840 -0.143984
v -1.082570 0.564538 -0.145057
v -1.098625 0.550440 -0.149205
v -1.099546 0.550776 -0.148102
v -1.095245 0.549210 -0.143975
v -1.094401 0.548903 -0.144719
v -1.078613 0.563097 -0.140437
v -1.078903 0.563203 -0.140175
v -1.079100 0.563274 -0.139839
v -1.078257 0.562968 -0.140588
v -1.079171 0.563301 -0.139467
v -1.010073 0.518210 -0.148376
v -1.010873 0.518501 -0.149754
v -1.014524 0.519830 -0.144682
v -1.015060 0.520025 -0.145328
v -1.014302 0.519750 -0.143876
v -1.002230 0.535296 -0.140165
v -1.002393 0.535355 -0.140572
v -1.002634 0.535443 -0.140937
v -1.002929 0.535551 -0.141216
v -1.002170 0.535275 -0.139766
v -0.998688 0.534007 -0.145609
v -0.867275 0.486177 -0.145609
v -0.868707 0.466757 -0.148376
v -0.867908 0.466466 -0.149754
v -0.863792 0.484909 -0.139766
v -0.863034 0.484633 -0.141216
v -0.863329 0.484740 -0.140937
v -0.863570 0.484828 -0.140572
v -0.863733 0.484887 -0.140165
v -0.863720 0.464942 -0.145328
v -0.783392 0.455646 -0.145057
v -0.780156 0.434527 -0.149205
v -0.786791 0.456883 -0.139467
v -0.787706 0.457216 -0.140588
v -0.786863 0.456909 -0.139839
v -0.787059 0.456981 -0.140175
v -0.787349 0.457086 -0.140437
v -0.784379 0.436064 -0.144719
v -0.952229 0.592224 -0.115797
v -0.950830 0.592625 -0.115608
v -0.864823 0.560976 -0.129906
v -0.906440 0.606934 -0.134448
v -0.891066 0.601339 -0.134448
v -0.902634 0.593472 -0.132777
v -0.844204 0.584282 -0.134449
v -0.845246 0.582909 -0.134615
v -0.934344 0.694037 -0.106955
v -0.932018 0.695623 -0.105425
v -0.933570 0.695316 -0.105601
v -0.932018 0.695623 -0.092819
v -0.933544 0.695336 -0.092992
v -0.881198 0.676226 -0.106636
v -0.865860 0.670643 -0.106636
v -0.873240 0.674230 -0.100015
v -0.813721 0.650259 -0.106929
v -0.814462 0.652836 -0.105425
v -0.813478 0.651635 -0.092992
v -1.029581 0.244687 0.186458
v -1.034269 0.231807 0.126000
v -1.036048 0.226918 0.207832
v -0.993877 0.342782 0.197932
v -0.993877 0.342782 0.167782
v -0.934121 0.175243 0.186300
v -0.934121 0.175243 0.124650
v -0.932664 0.223989 0.207990
v -0.933391 0.199620 0.197145
v -0.929810 0.319464 0.182858
v -1.117128 0.291129 0.207990
v -1.057944 0.366101 0.182858
v -1.147345 0.252850 0.186300
v -1.132235 0.271994 0.197145
v -1.147345 0.252850 0.124650
v -1.040733 0.214046 0.063000
v -0.962855 0.428014 0.157725
v -1.047197 0.196286 0.123300
v -1.033573 0.233718 0.180959
v -1.034269 0.231807 0.177750
v -0.935578 0.197964 0.180919
v -0.933589 0.192998 0.180679
v -0.935641 0.195909 0.177750
v -0.935207 0.210338 0.186458
v -1.025592 0.255647 0.191956
v -1.024154 0.259597 0.192314
v -0.934711 0.226937 0.192343
v -0.932664 0.223989 0.195165
v -1.113665 0.292071 0.192343
v -1.123954 0.279036 0.186458
v -1.131624 0.269319 0.180919
v -1.132897 0.267704 0.177750
v -1.136340 0.266793 0.180679
v -0.935641 0.195909 0.126000
v -0.933594 0.192894 0.125848
v -1.132897 0.267704 0.126000
v -1.136403 0.266710 0.125848
v -1.132897 0.267704 0.074250
v -1.134167 0.266098 0.071073
v -1.136281 0.266867 0.073323
v -1.034269 0.231807 0.074250
v -1.034965 0.229895 0.071033
v -0.935641 0.195909 0.074250
v -0.933587 0.193092 0.073323
v -0.935701 0.193862 0.071073
v -0.935805 0.190433 0.207832
v -0.933645 0.191198 0.206186
v -0.936769 0.158172 0.193513
v -0.936830 0.156116 0.190350
v -0.934653 0.157488 0.191921
v -1.046499 0.198206 0.193552
v -1.047197 0.196286 0.190350
v -1.156290 0.238071 0.193513
v -1.158350 0.238907 0.191921
v -1.157564 0.236456 0.190350
v -1.136291 0.263404 0.207832
v -1.137454 0.265379 0.206186
v -1.025595 0.255639 0.222113
v -1.024154 0.259597 0.222464
v -1.116288 0.288744 0.222152
v -1.113665 0.292071 0.222493
v -1.117128 0.291129 0.220815
v -0.934840 0.222703 0.222152
v -0.932664 0.223989 0.220815
v -0.934711 0.226937 0.222493
v -0.931925 0.320234 0.197932
v -0.929810 0.319464 0.195682
v -1.055829 0.365331 0.197932
v -1.057944 0.366101 0.195682
v -0.963597 0.425976 0.173401
v -0.997991 0.438600 0.173372
v -1.000106 0.439370 0.171122
v -0.929135 0.413538 0.173372
v -0.927021 0.412769 0.171122
v -0.936830 0.156116 0.123300
v -0.934649 0.157592 0.123452
v -0.936830 0.156116 0.056250
v -0.936770 0.158163 0.054927
v -0.934656 0.157393 0.057177
v -1.047197 0.196286 0.056250
v -1.046502 0.198197 0.054967
v -1.157564 0.236456 0.056250
v -1.158409 0.238833 0.057177
v -1.157564 0.236456 0.123300
v -1.158287 0.238989 0.123452
v -1.055829 0.365331 0.167782
v -1.057944 0.366101 0.170032
v -0.931925 0.320234 0.167782
v -0.929810 0.319464 0.170032
v -0.963597 0.425976 0.143251
v -0.929135 0.413538 0.143222
v -0.927021 0.412769 0.145472
v -0.997991 0.438600 0.143222
v -1.000106 0.439370 0.145472
v -0.934121 0.175243 0.065250
v -0.936236 0.176012 0.063000
v -0.927021 0.412769 0.158297
v -0.929068 0.415717 0.157725
v -0.996642 0.440312 0.157725
v -1.000106 0.439370 0.158297
v -1.147345 0.252850 0.065250
v -1.145231 0.252080 0.063000
v -1.034066 0.232365 0.179622
v -1.034244 0.231874 0.178383
v -0.934583 0.195227 0.178978
v -0.935709 0.196949 0.180138
v -0.933408 0.208907 0.187273
v -0.934837 0.223334 0.192217
v -0.933922 0.225884 0.192982
v -1.024625 0.258303 0.192487
v -1.117005 0.291160 0.194547
v -1.116115 0.291401 0.193406
v -1.115447 0.289779 0.192378
v -1.126691 0.278892 0.187666
v -1.132600 0.267874 0.178997
v -1.134036 0.267755 0.178702
v -1.135411 0.267498 0.125924
v -1.133194 0.267534 0.073001
v -1.134106 0.267876 0.073929
v -1.034364 0.231544 0.072982
v -0.934605 0.195263 0.073929
v -0.935523 0.195588 0.073001
v -0.933954 0.190535 0.207017
v -0.936949 0.156437 0.191596
v -0.935904 0.156152 0.190943
v -1.046686 0.197690 0.193219
v -1.047102 0.196548 0.191615
v -1.157267 0.236626 0.191596
v -1.137225 0.263964 0.207608
v -1.114523 0.290985 0.222654
v -1.025139 0.256891 0.222512
v -0.933678 0.225450 0.222475
v -0.934818 0.224036 0.222531
v -0.930099 0.319569 0.196818
v -1.056896 0.365720 0.197626
v -0.996963 0.440132 0.171747
v -0.998943 0.439176 0.173014
v -0.962957 0.427735 0.171768
v -0.927287 0.413115 0.172214
v -0.935755 0.156031 0.123321
v -0.936989 0.156250 0.055731
v -0.936803 0.157169 0.054813
v -0.935824 0.156056 0.056610
v -1.046994 0.196844 0.054942
v -1.046686 0.197690 0.054791
v -1.158374 0.237058 0.056610
v -1.156663 0.237680 0.054784
v -1.157073 0.236919 0.054993
v -1.158653 0.237514 0.123345
v -1.057324 0.365875 0.168441
v -0.930099 0.319569 0.168897
v -0.928910 0.415353 0.143886
v -0.928128 0.413114 0.143581
v -0.962883 0.427938 0.144323
v -0.999035 0.438922 0.143581
v -0.996837 0.440297 0.144355
v -0.934937 0.196313 0.180338
v -0.934075 0.223985 0.192718
v -1.116611 0.290873 0.193373
v -1.134129 0.268105 0.179816
v -1.134236 0.267703 0.072861
v -0.934378 0.194683 0.072536
v -0.935246 0.156641 0.192228
v -1.158457 0.237902 0.192244
v -1.157177 0.237791 0.193111
v -1.116196 0.290435 0.222459
v -0.933186 0.224122 0.222175
v -0.998047 0.440296 0.171778
v -0.927497 0.414072 0.171925
v -0.928456 0.415341 0.171245
v -0.935019 0.157219 0.055891
v -1.157532 0.238226 0.055159
v -0.928154 0.414244 0.143536
v -0.998433 0.440082 0.143850
v -1.049618 0.350935 0.091433
v -1.047701 0.350238 0.092311
v -1.047701 0.350238 0.095578
v -1.049618 0.350935 0.096457
v -1.059602 0.354569 0.096457
v -1.061519 0.355267 0.095578
v -1.061519 0.355267 0.092311
v -1.059602 0.354569 0.091433
v -0.935952 0.309565 0.091433
v -0.934035 0.308867 0.092311
v -0.934035 0.308867 0.095578
v -0.935952 0.309565 0.096457
v -0.945937 0.313199 0.096457
v -0.947854 0.313896 0.095578
v -0.947854 0.313896 0.092311
v -0.945937 0.313199 0.091433
v -1.097832 0.255497 0.092311
v -1.097832 0.255497 0.095578
v -1.095915 0.254799 0.096457
v -1.085931 0.251165 0.096457
v -1.084014 0.250468 0.095578
v -1.084014 0.250468 0.092311
v -1.085931 0.251165 0.091433
v -1.095915 0.254799 0.091433
v -0.984167 0.214126 0.092311
v -0.984167 0.214126 0.095578
v -0.982250 0.213429 0.096457
v -0.972266 0.209795 0.096457
v -0.970349 0.209097 0.095578
v -0.970349 0.209097 0.092311
v -0.982250 0.213429 0.091433
v -0.972266 0.209795 0.091433
v -1.029581 0.244687 -0.186458
v -1.034269 0.231807 -0.126000
v -1.036048 0.226918 -0.207832
v -0.993877 0.342782 -0.197932
v -0.993877 0.342782 -0.167782
v -0.934121 0.175243 -0.186300
v -0.934121 0.175243 -0.124650
v -0.932664 0.223989 -0.207990
v -0.933391 0.199620 -0.197145
v -0.929810 0.319464 -0.182858
v -1.117128 0.291129 -0.207990
v -1.057944 0.366101 -0.182858
v -1.147345 0.252850 -0.186300
v -1.132235 0.271994 -0.197145
v -1.147345 0.252850 -0.124650
v -1.040733 0.214046 -0.063000
v -0.962855 0.428014 -0.157725
v -1.047197 0.196286 -0.123300
v -1.033573 0.233718 -0.180959
v -1.034269 0.231807 -0.177750
v -0.935578 0.197964 -0.180919
v -0.933589 0.192998 -0.180679
v -0.935641 0.195909 -0.177750
v -0.935207 0.210338 -0.186458
v -1.025592 0.255647 -0.191956
v -1.024154 0.259597 -0.192314
v -0.934711 0.226937 -0.192343
v -0.932664 0.223989 -0.195165
v -1.113665 0.292071 -0.192343
v -1.123954 0.279036 -0.186458
v -1.131624 0.269319 -0.180919
v -1.132897 0.267704 -0.177750
v -1.136340 0.266793 -0.180679
v -0.935641 0.195909 -0.126000
v -0.933594 0.192894 -0.125848
v -1.132897 0.267704 -0.126000
v -1.136403 0.266710 -0.125848
v -1.132897 0.267704 -0.074250
v -1.134167 0.266098 -0.071073
v -1.136281 0.266867 -0.073323
v -1.034269 0.231807 -0.074250
v -1.034965 0.229895 -0.071033
v -0.935641 0.195909 -0.074250
v -0.933587 0.193092 -0.073323
v -0.935701 0.193862 -0.071073
v -0.935805 0.190433 -0.207832
v -0.933645 0.191198 -0.206186
v -0.936769 0.158172 -0.193513
v -0.936830 0.156116 -0.190350
v -0.934653 0.157488 -0.191921
v -1.046499 0.198206 -0.193552
v -1.047197 0.196286 -0.190350
v -1.156290 0.238071 -0.193513
v -1.158350 0.238907 -0.191921
v -1.157564 0.236456 -0.190350
v -1.136291 0.263404 -0.207832
v -1.137454 0.265379 -0.206186
v -1.025595 0.255639 -0.222113
v -1.024154 0.259597 -0.222464
v -1.116288 0.288744 -0.222152
v -1.113665 0.292071 -0.222493
v -1.117128 0.291129 -0.220815
v -0.934840 0.222703 -0.222152
v -0.932664 0.223989 -0.220815
v -0.934711 0.226937 -0.222493
v -0.931925 0.320234 -0.197932
v -0.929810 0.319464 -0.195682
v -1.055829 0.365331 -0.197932
v -1.057944 0.366101 -0.195682
v -0.963597 0.425976 -0.173401
v -0.997991 0.438600 -0.173372
v -1.000106 0.439370 -0.171122
v -0.929135 0.413538 -0.173372
v -0.927021 0.412769 -0.171122
v -0.936830 0.156116 -0.123300
v -0.934649 0.157592 -0.123452
v -0.936830 0.156116 -0.056250
v -0.936770 0.158163 -0.054927
v -0.934656 0.157393 -0.057177
v -1.047197 0.196286 -0.056250
v -1.046502 0.198197 -0.054967
v -1.157564 0.236456 -0.056250
v -1.158409 0.238833 -0.057177
v -1.157564 0.236456 -0.123300
v -1.158287 0.238989 -0.123452
v -1.055829 0.365331 -0.167782
v -1.057944 0.366101 -0.170032
v -0.931925 0.320234 -0.167782
v -0.929810 0.319464 -0.170032
v -0.963597 0.425976 -0.143251
v -0.929135 0.413538 -0.143222
v -0.927021 0.412769 -0.145472
v -0.997991 0.438600 -0.143222
v -1.000106 0.439370 -0.145472
v -0.934121 0.175243 -0.065250
v -0.936236 0.176012 -0.063000
v -0.927021 0.412769 -0.158297
v -0.929068 0.415717 -0.157725
v -0.996642 0.440312 -0.157725
v -1.000106 0.439370 -0.158297
v -1.147345 0.252850 -0.065250
v -1.145231 0.252080 -0.063000
v -1.034066 0.232365 -0.179622
v -1.034244 0.231874 -0.178383
v -0.934583 0.195227 -0.178978
v -0.935709 0.196949 -0.180138
v -0.933408 0.208907 -0.187273
v -0.934837 0.223334 -0.192217
v -0.933922 0.225884 -0.192982
v -1.024625 0.258303 -0.192487
v -1.117005 0.291160 -0.194547
v -1.116115 0.291401 -0.193406
v -1.115447 0.289779 -0.192378
v -1.126691 0.278892 -0.187666
v -1.132600 0.267874 -0.178997
v -1.134036 0.267755 -0.178702
v -1.135411 0.267498 -0.125924
v -1.133194 0.267534 -0.073001
v -1.134106 0.267876 -0.073929
v -1.034364 0.231544 -0.072982
v -0.934605 0.195263 -0.073929
v -0.935523 0.195588 -0.073001
v -0.933954 0.190535 -0.207017
v -0.936949 0.156437 -0.191596
v -0.935904 0.156152 -0.190943
v -1.046686 0.197690 -0.193219
v -1.047102 0.196548 -0.191615
v -1.157267 0.236626 -0.191596
v -1.137225 0.263964 -0.207608
v -1.114523 0.290985 -0.222654
v -1.025139 0.256891 -0.222512
v -0.933678 0.225450 -0.222475
v -0.934818 0.224036 -0.222531
v -0.930099 0.319569 -0.196818
v -1.056896 0.365720 -0.197626
v -0.996963 0.440132 -0.171747
v -0.998943 0.439176 -0.173014
v -0.962957 0.427735 -0.171768
v -0.927287 0.413115 -0.172214
v -0.935755 0.156031 -0.123321
v -0.936989 0.156250 -0.055731
v -0.936803 0.157169 -0.054813
v -0.935824 0.156056 -0.056610
v -1.046994 0.196844 -0.054942
v -1.046686 0.197690 -0.054791
v -1.158374 0.237058 -0.056610
v -1.156663 0.237680 -0.054784
v -1.157073 0.236919 -0.054993
v -1.158653 0.237514 -0.123345
v -1.057324 0.365875 -0.168441
v -0.930099 0.319569 -0.168897
v -0.928910 0.415353 -0.143886
v -0.928128 0.413114 -0.143581
v -0.962883 0.427938 -0.144323
v -0.999035 0.438922 -0.143581
v -0.996837 0.440297 -0.144355
v -0.934937 0.196313 -0.180338
v -0.934075 0.223985 -0.192718
v -1.116611 0.290873 -0.193373
v -1.134129 0.268105 -0.179816
v -1.134236 0.267703 -0.072861
v -0.934378 0.194683 -0.072536
v -0.935246 0.156641 -0.192228
v -1.158457 0.237902 -0.192244
v -1.157177 0.237791 -0.193111
v -1.116196 0.290435 -0.222459
v -0.933186 0.224122 -0.222175
v -0.998047 0.440296 -0.171778
v -0.927497 0.414072 -0.171925
v -0.928456 0.415341 -0.171245
v -0.935019 0.157219 -0.055891
v -1.157532 0.238226 -0.055159
v -0.928154 0.414244 -0.143536
v -0.998433 0.440082 -0.143850
v -1.049618 0.350935 -0.091433
v -1.047701 0.350238 -0.092311
v -1.047701 0.350238 -0.095578
v -1.049618 0.350935 -0.096457
v -1.059602 0.354569 -0.096457
v -1.061519 0.355267 -0.095578
v -1.061519 0.355267 -0.092311
v -1.059602 0.354569 -0.091433
v -0.935952 0.309565 -0.091433
v -0.934035 0.308867 -0.092311
v -0.934035 0.308867 -0.095578
v -0.935952 0.309565 -0.096457
v -0.945937 0.313199 -0.096457
v -0.947854 0.313896 -0.095578
v -0.947854 0.313896 -0.092311
v -0.945937 0.313199 -0.091433
v -1.097832 0.255497 -0.092311
v -1.097832 0.255497 -0.095578
v -1.095915 0.254799 -0.096457
v -1.085931 0.251165 -0.096457
v -1.084014 0.250468 -0.095578
v -1.084014 0.250468 -0.092311
v -1.085931 0.251165 -0.091433
v -1.095915 0.254799 -0.091433
v -0.984167 0.214126 -0.092311
v -0.984167 0.214126 -0.095578
v -0.982250 0.213429 -0.096457
v -0.972266 0.209795 -0.096457
v -0.970349 0.209097 -0.095578
v -0.970349 0.209097 -0.092311
v -0.982250 0.213429 -0.091433
v -0.972266 0.209795 -0.091433
f 385 392 391
f 391 388 389
f 389 387 383
f 389 383 385
f 385 391 389
f 136 121 70
f 73 66 120
f 73 120 374
f 73 374 375
f 386 119 66
f 386 66 73
f 70 122 392
f 70 392 136
f 73 136 392
f 73 392 385
f 73 385 386
f 136 73 375
f 70 368 72
f 70 370 368
f 70 371 370
f 70 372 371
f 70 369 372
f 70 324 369
f 70 326 324
f 70 327 326
f 70 328 327
f 70 325 328
f 70 361 325
f 70 362 361
f 70 363 362
f 70 364 363
f 70 360 364
f 70 69 360
f 74 201 202
f 74 186 201
f 74 139 186
f 74 187 139
f 74 188 187
f 74 39 75
f 74 75 188
f 39 74 202
f 39 202 203
f 39 203 76
f 39 41 204
f 39 204 208
f 39 208 207
f 39 207 206
f 39 206 205
f 39 205 189
f 39 189 193
f 39 193 192
f 39 192 191
f 39 191 190
f 39 190 179
f 39 179 182
f 39 182 181
f 39 181 180
f 39 180 178
f 39 178 37
f 358 77 67
f 358 67 365
f 358 365 329
f 329 330 323
f 329 323 359
f 329 359 358
f 71 78 367
f 323 330 373
f 373 71 367
f 367 323 373
f 298 59 115
f 298 333 59
f 307 118 63
f 301 333 298
f 301 304 333
f 301 334 304
f 308 334 301
f 308 307 334
f 296 114 58
f 296 58 299
f 311 65 117
f 311 117 309
f 302 296 299
f 302 299 305
f 302 305 311
f 309 302 311
f 297 57 113
f 297 300 57
f 312 116 64
f 312 310 116
f 303 300 297
f 303 306 300
f 303 312 306
f 310 312 303
f 266 110 51
f 266 51 268
f 276 55 111
f 276 111 275
f 270 266 268
f 270 268 272
f 270 272 276
f 275 270 276
f 267 52 109
f 267 274 52
f 279 112 56
f 279 277 112
f 279 278 277
f 278 269 271
f 269 274 267
f 269 273 274
f 269 279 273
f 278 279 269
f 232 105 44
f 232 44 237
f 248 49 107
f 248 107 246
f 235 232 237
f 235 237 236
f 235 236 248
f 246 235 248
f 233 43 104
f 233 238 43
f 249 106 48
f 249 245 106
f 249 247 245
f 247 240 241
f 240 238 233
f 240 243 238
f 240 249 243
f 247 249 240
f 234 103 42
f 234 42 239
f 250 50 108
f 250 108 252
f 250 252 251
f 242 234 239
f 242 239 244
f 242 244 250
f 251 242 250
f 176 36 101
f 176 183 36
f 176 195 183
f 209 102 40
f 209 196 102
f 209 197 196
f 184 195 176
f 184 194 195
f 184 210 194
f 197 210 184
f 197 212 210
f 197 211 212
f 197 209 211
f 345 2 66
f 345 66 1
f 345 1 355
f 345 355 351
f 345 351 352
f 345 352 353
f 345 353 354
f 345 354 319
f 345 319 316
f 345 316 317
f 345 317 318
f 345 318 320
f 345 320 344
f 345 344 341
f 345 341 342
f 345 342 343
f 159 79 5
f 145 159 5
f 145 5 80
f 148 152 4
f 148 4 5
f 148 5 3
f 148 3 175
f 148 175 173
f 148 173 172
f 148 172 171
f 148 171 174
f 148 174 164
f 148 164 163
f 148 163 162
f 148 162 161
f 148 161 165
f 148 165 151
f 148 151 150
f 148 150 149
f 350 16 81
f 350 81 346
f 350 346 347
f 314 315 349
f 348 350 347
f 347 314 349
f 347 349 348
f 337 338 82
f 337 82 17
f 337 17 339
f 337 339 340
f 337 340 315
f 314 337 315
f 18 293 83
f 18 292 293
f 282 19 92
f 282 331 19
f 282 290 331
f 332 292 18
f 287 290 282
f 287 332 290
f 292 332 287
f 295 20 84
f 281 93 21
f 281 21 284
f 281 284 289
f 286 281 289
f 286 289 295
f 22 291 85
f 280 23 94
f 280 283 23
f 280 288 283
f 294 291 22
f 285 288 280
f 285 294 288
f 291 294 285
f 265 24 86
f 265 86 263
f 255 95 25
f 255 25 256
f 255 256 261
f 258 255 261
f 258 261 265
f 263 258 265
f 26 264 87
f 26 262 264
f 253 27 96
f 253 254 27
f 253 260 254
f 259 262 26
f 257 260 253
f 257 259 260
f 262 259 257
f 230 28 88
f 230 88 226
f 215 97 29
f 215 29 218
f 215 218 231
f 223 215 231
f 223 231 230
f 226 223 230
f 31 227 89
f 31 225 227
f 214 30 98
f 214 217 30
f 214 222 217
f 229 225 31
f 220 222 214
f 220 229 222
f 225 229 220
f 228 32 90
f 228 90 224
f 213 99 33
f 213 33 216
f 213 216 221
f 219 213 221
f 219 221 228
f 224 219 228
f 34 167 91
f 34 166 167
f 141 35 100
f 141 146 35
f 141 147 146
f 141 160 147
f 169 166 34
f 153 160 141
f 153 170 160
f 166 170 153
f 166 169 170
f 144 159 145
f 144 158 159
f 144 156 158
f 144 155 156
f 377 137 138
f 137 381 376
f 381 379 378
f 379 137 377
f 137 379 381
f 54 53 132
f 54 132 133
f 54 133 134
f 131 132 53
f 131 53 112
f 131 112 111
f 111 54 134
f 111 134 131
f 96 11 130
f 96 130 127
f 96 127 128
f 129 130 11
f 129 11 10
f 129 10 95
f 95 96 128
f 95 128 129
f 70 69 67
f 39 38 36
f 60 59 58
f 61 57 51
f 53 52 44
f 47 43 42
f 40 38 39
f 72 70 68
f 63 60 62
f 64 61 54
f 48 47 46
f 365 67 69
f 178 37 36
f 333 299 58
f 300 268 51
f 274 237 44
f 238 239 42
f 361 325 365
f 179 183 195
f 72 71 373
f 204 209 40
f 63 65 311
f 64 55 276
f 56 49 248
f 48 50 250
f 324 369 373
f 304 334 311
f 306 312 276
f 273 279 248
f 243 249 250
f 6 16 1
f 3 34 15
f 8 20 18
f 10 24 22
f 12 28 26
f 14 32 31
f 4 5 15
f 17 6 66
f 21 8 7
f 25 10 9
f 29 12 11
f 33 14 13
f 355 1 16
f 169 34 3
f 18 20 295
f 22 24 265
f 26 28 230
f 31 32 228
f 349 315 319
f 164 160 170
f 295 289 290
f 265 261 288
f 230 231 260
f 228 221 222
f 345 339 17
f 4 35 146
f 331 284 21
f 283 256 25
f 254 218 29
f 217 216 33
f 315 340 344
f 151 147 160
f 289 284 331
f 261 256 283
f 231 218 254
f 221 216 217
f 56 53 45
f 377 387 135
f 135 388 378
f 374 120 356
f 376 357 121
f 137 376 136
f 138 137 356
f 321 357 376
f 384 335 119
f 392 122 366
f 382 138 313
f 366 322 380
f 380 378 388
f 377 138 382
f 121 357 360
f 357 321 325
f 327 328 321
f 324 326 322
f 366 369 324
f 366 122 72
f 187 188 75
f 187 177 185
f 198 76 203
f 139 185 199
f 178 177 75
f 204 41 76
f 185 189 205
f 177 181 182
f 180 181 177
f 178 180 177
f 179 190 185
f 193 189 185
f 185 191 192
f 185 190 191
f 205 206 198
f 207 208 198
f 208 204 198
f 68 77 115
f 78 68 60
f 117 62 61
f 107 45 47
f 108 46 38
f 358 298 115
f 296 297 113
f 266 267 109
f 232 233 104
f 234 176 101
f 359 323 301
f 296 302 303
f 266 270 269
f 232 235 240
f 234 242 184
f 78 118 307
f 117 116 310
f 111 112 277
f 107 106 245
f 108 102 196
f 323 367 308
f 302 309 310
f 270 275 278
f 235 246 247
f 242 251 197
f 62 114 113
f 54 110 109
f 45 105 104
f 46 103 101
f 1 355 356
f 355 351 356
f 351 352 356
f 352 353 356
f 353 354 356
f 354 319 313
f 319 316 313
f 317 318 313
f 313 320 344
f 344 341 335
f 341 342 335
f 343 345 335
f 345 2 119
f 168 79 159
f 157 154 168
f 143 145 80
f 143 142 154
f 3 79 168
f 142 80 4
f 142 151 165
f 174 171 168
f 168 171 172
f 168 154 164
f 154 162 163
f 154 163 164
f 7 83 81
f 92 7 6
f 94 9 8
f 98 13 12
f 100 15 14
f 81 83 293
f 84 85 291
f 86 87 264
f 88 89 227
f 90 91 167
f 292 287 314
f 291 285 286
f 262 257 258
f 225 220 223
f 166 153 219
f 338 282 92
f 281 280 94
f 255 253 96
f 215 214 98
f 213 141 100
f 287 282 337
f 285 280 281
f 257 253 255
f 220 214 215
f 153 141 213
f 9 85 84
f 11 87 86
f 13 89 88
f 15 91 90
f 133 132 124
f 123 134 133
f 124 131 134
f 132 131 124
f 129 128 126
f 125 130 129
f 125 127 130
f 128 127 125
f 132 131 134
f 128 127 130
f 326 324 330
f 327 326 330
f 300 306 272
f 274 273 236
f 238 243 244
f 329 365 325
f 191 190 195
f 328 327 330
f 191 195 194
f 333 304 305
f 360 364 365
f 364 363 365
f 179 182 183
f 363 362 365
f 204 208 209
f 208 207 211
f 369 372 373
f 205 210 212
f 334 307 311
f 372 371 373
f 206 212 211
f 161 165 160
f 162 161 160
f 316 319 315
f 350 348 351
f 170 169 171
f 353 348 349
f 172 171 169
f 340 339 341
f 150 146 147
f 389 135 387
f 381 380 322
f 336 335 382
f 380 381 378
f 375 374 137
f 390 391 392
f 384 383 382
f 201 140 202
f 203 202 140
f 200 201 186
f 200 199 198
f 358 359 298
f 270 271 269
f 235 241 240
f 251 252 196
f 144 143 155
f 156 157 158
f 346 293 292
f 263 264 262
f 226 227 225
f 224 167 166
f 189 194 210
f 70 67 68
f 39 36 37
f 60 58 62
f 61 51 54
f 53 44 45
f 47 42 46
f 40 39 41
f 72 68 71
f 63 62 65
f 64 54 55
f 48 46 50
f 365 69 360
f 178 36 183
f 333 58 59
f 300 51 57
f 274 44 52
f 238 42 43
f 179 195 190
f 72 373 368
f 204 40 41
f 63 311 307
f 64 276 312
f 56 248 279
f 48 250 249
f 324 373 330
f 304 311 305
f 306 276 272
f 273 248 236
f 243 250 244
f 6 1 66
f 3 15 5
f 8 18 7
f 10 22 9
f 12 26 11
f 14 31 13
f 4 15 35
f 17 66 2
f 21 7 19
f 25 9 23
f 29 11 27
f 33 13 30
f 355 16 350
f 169 3 175
f 18 295 332
f 22 265 294
f 26 230 259
f 31 228 229
f 349 319 354
f 164 170 174
f 295 290 332
f 265 288 294
f 230 260 259
f 228 222 229
f 345 17 2
f 4 146 152
f 331 21 19
f 283 25 23
f 254 29 27
f 217 33 30
f 315 344 320
f 151 160 165
f 289 331 290
f 261 283 288
f 231 254 260
f 221 217 222
f 56 45 49
f 377 135 379
f 135 378 379
f 374 356 137
f 376 121 136
f 137 136 375
f 138 356 313
f 321 376 381
f 384 119 386
f 392 366 390
f 382 313 336
f 366 380 390
f 380 388 390
f 377 382 387
f 121 360 69
f 357 364 360
f 357 363 364
f 357 362 363
f 357 361 362
f 357 325 361
f 321 328 325
f 327 321 322
f 322 326 327
f 366 324 322
f 366 372 369
f 366 371 372
f 371 366 370
f 366 368 370
f 366 72 368
f 187 75 177
f 187 185 139
f 198 203 140
f 139 199 200
f 178 75 37
f 204 76 198
f 185 205 199
f 177 182 179
f 179 185 177
f 193 185 192
f 205 198 199
f 207 198 206
f 68 115 60
f 78 60 118
f 117 61 116
f 107 47 106
f 108 38 102
f 358 115 77
f 296 113 114
f 266 109 110
f 232 104 105
f 234 101 103
f 359 301 298
f 296 303 297
f 266 269 267
f 232 240 233
f 234 184 176
f 78 307 367
f 117 310 309
f 111 277 275
f 107 245 246
f 108 196 252
f 323 308 301
f 302 310 303
f 270 278 271
f 235 247 241
f 242 197 184
f 62 113 61
f 54 109 53
f 45 104 47
f 46 101 38
f 1 356 120
f 354 313 356
f 313 316 317
f 313 318 320
f 313 344 336
f 344 335 336
f 343 335 342
f 345 119 335
f 168 159 158
f 157 168 158
f 143 80 142
f 143 154 155
f 3 168 175
f 142 4 152
f 142 165 154
f 168 172 173
f 168 173 175
f 168 164 174
f 154 165 161
f 162 154 161
f 142 150 151
f 150 142 149
f 142 148 149
f 142 152 148
f 7 81 6
f 92 6 82
f 94 8 93
f 98 12 97
f 100 14 99
f 81 293 346
f 84 291 295
f 86 264 263
f 88 227 226
f 90 167 224
f 292 314 347
f 291 286 295
f 262 258 263
f 225 223 226
f 166 219 224
f 338 92 82
f 281 94 93
f 255 96 95
f 215 98 97
f 213 100 99
f 287 337 314
f 285 281 286
f 257 255 258
f 220 215 223
f 153 213 219
f 9 84 8
f 11 86 10
f 13 88 12
f 15 90 14
f 133 124 123
f 124 134 123
f 125 129 126
f 128 125 126
f 132 134 133
f 128 130 129
f 194 189 193
f 194 193 192
f 329 325 328
f 328 330 329
f 191 194 192
f 333 305 299
f 300 272 268
f 274 236 237
f 238 244 239
f 178 183 180
f 180 183 181
f 361 365 362
f 183 182 181
f 368 373 370
f 208 211 209
f 370 373 371
f 205 212 206
f 206 211 207
f 315 320 318
f 315 318 317
f 160 164 163
f 315 317 316
f 162 160 163
f 350 351 355
f 173 169 175
f 348 352 351
f 172 169 173
f 170 171 174
f 353 349 354
f 348 353 352
f 146 148 152
f 343 339 345
f 146 149 148
f 342 339 343
f 340 341 344
f 150 147 151
f 339 342 341
f 149 146 150
f 388 135 389
f 381 322 321
f 335 384 382
f 387 382 383
f 388 391 390
f 386 383 384
f 383 386 385
f 200 186 139
f 200 198 140
f 367 307 308
f 275 277 278
f 246 245 247
f 251 196 197
f 145 143 144
f 155 157 156
f 155 154 157
f 346 292 347
f 337 282 338
f 140 201 200
f 189 210 205
f 569 568 567
f 569 567 574
f 569 574 573
f 569 573 572
f 569 572 571
f 569 571 570
f 577 576 575
f 577 575 582
f 577 582 581
f 577 581 580
f 577 580 579
f 577 579 578
f 585 587 586
f 585 588 587
f 585 589 588
f 585 590 589
f 585 583 590
f 585 584 583
f 593 595 594
f 593 596 595
f 593 598 596
f 593 597 598
f 593 591 597
f 593 592 591
f 773 774 775
f 773 775 776
f 773 776 777
f 773 777 778
f 773 778 779
f 773 779 780
f 781 782 783
f 781 783 784
f 781 784 785
f 781 785 786
f 781 786 787
f 781 787 788
f 795 793 794
f 795 792 793
f 795 791 792
f 795 790 791
f 795 789 790
f 795 796 789
f 804 801 802
f 804 800 801
f 804 799 800
f 804 798 799
f 804 797 798
f 804 803 797
f 416 413 411
f 500 416 393
f 393 422 505
f 411 423 422
f 415 426 394
f 394 428 424
f 433 430 428
f 426 435 433
f 443 440 438
f 448 445 443
f 452 448 395
f 395 438 455
f 451 457 458
f 460 453 451
f 463 460 396
f 396 458 465
f 410 467 441
f 472 469 467
f 476 474 472
f 447 476 410
f 418 421 478
f 480 419 418
f 483 480 397
f 397 478 485
f 398 399 427
f 399 487 436
f 468 471 487
f 442 468 399
f 439 442 398
f 439 401 400
f 401 499 420
f 401 398 414
f 456 400 402
f 459 402 489
f 402 481 484
f 400 420 481
f 409 491 528
f 546 548 491
f 490 544 546
f 562 490 409
f 404 403 454
f 479 503 403
f 486 479 404
f 492 404 461
f 405 446 449
f 425 405 406
f 503 506 406
f 403 406 449
f 407 477 446
f 493 475 477
f 432 493 407
f 429 407 405
f 437 488 408
f 408 494 431
f 473 539 494
f 488 470 473
f 413 498 495
f 416 499 549
f 500 550 416
f 417 502 500
f 422 506 551
f 423 552 422
f 411 495 423
f 415 497 426
f 497 414 427
f 412 496 415
f 496 495 498
f 424 507 496
f 428 509 508
f 430 511 428
f 433 512 510
f 435 514 433
f 426 427 513
f 440 555 515
f 443 518 440
f 518 519 516
f 445 557 518
f 557 520 519
f 448 521 445
f 452 558 448
f 558 454 521
f 450 523 452
f 455 525 523
f 438 515 559
f 457 524 526
f 451 523 525
f 453 522 451
f 460 527 453
f 463 529 460
f 462 530 528
f 465 562 462
f 458 526 465
f 441 516 444
f 467 532 517
f 469 535 532
f 472 536 533
f 474 540 536
f 476 541 538
f 447 556 541
f 444 519 520
f 421 504 478
f 418 502 421
f 419 500 502
f 480 543 501
f 483 545 480
f 478 542 547
f 436 513 427
f 471 563 487
f 468 532 535
f 442 517 468
f 439 515 555
f 456 559 515
f 414 549 499
f 459 526 456
f 489 490 561
f 466 531 526
f 484 565 489
f 481 543 484
f 420 501 543
f 548 566 491
f 546 482 485
f 562 561 490
f 454 453 527
f 479 542 503
f 486 547 542
f 492 491 566
f 461 527 529
f 464 560 492
f 446 556 449
f 503 551 506
f 449 521 454
f 477 541 446
f 475 538 541
f 493 494 564
f 432 553 493
f 429 509 432
f 425 508 509
f 437 554 488
f 434 512 514
f 431 510 512
f 539 564 494
f 473 537 539
f 537 536 540
f 470 534 537
f 488 487 563
f 549 497 415
f 415 498 549
f 549 498 413
f 497 549 414
f 419 501 550
f 501 420 550
f 551 504 421
f 421 505 551
f 552 507 424
f 508 425 552
f 423 507 552
f 553 511 430
f 430 510 553
f 510 431 553
f 432 511 553
f 554 514 435
f 513 436 554
f 437 514 554
f 517 516 441
f 517 442 555
f 440 516 555
f 447 520 556
f 520 557 556
f 453 454 558
f 452 522 558
f 456 524 559
f 559 525 455
f 464 529 560
f 560 529 463
f 463 528 560
f 561 531 466
f 561 562 465
f 465 531 561
f 563 534 470
f 563 535 469
f 471 535 563
f 533 534 563
f 540 474 564
f 474 538 564
f 538 475 564
f 539 540 564
f 565 545 483
f 484 545 565
f 483 544 565
f 485 547 566
f 547 486 566
f 548 485 566
f 567 589 590
f 588 589 567
f 587 588 568
f 586 587 569
f 586 570 571
f 572 584 585
f 573 583 584
f 574 590 583
f 598 597 582
f 596 598 575
f 595 596 576
f 594 595 577
f 593 594 578
f 580 592 593
f 581 591 592
f 582 597 591
f 617 619 622
f 599 622 706
f 711 628 599
f 628 629 617
f 600 632 621
f 630 634 600
f 634 636 639
f 639 641 632
f 644 646 649
f 649 651 654
f 601 654 658
f 661 644 601
f 664 663 657
f 657 659 666
f 602 666 669
f 671 664 602
f 647 673 616
f 673 675 678
f 678 680 682
f 616 682 653
f 684 627 624
f 624 625 686
f 603 686 689
f 691 684 603
f 633 605 604
f 642 693 605
f 693 677 674
f 605 674 648
f 604 648 645
f 606 607 645
f 626 705 607
f 620 604 607
f 608 606 662
f 695 608 665
f 690 687 608
f 687 626 606
f 734 697 615
f 697 754 752
f 752 750 696
f 615 696 768
f 660 609 610
f 609 709 685
f 610 685 692
f 667 610 698
f 655 652 611
f 612 611 631
f 612 712 709
f 655 612 609
f 652 683 613
f 683 681 699
f 613 699 638
f 611 613 635
f 614 694 643
f 637 700 614
f 700 745 679
f 679 676 694
f 701 704 619
f 755 705 622
f 622 756 706
f 706 708 623
f 757 712 628
f 628 758 629
f 629 701 617
f 632 703 621
f 633 620 703
f 621 702 618
f 704 701 702
f 702 713 630
f 714 715 634
f 634 717 636
f 716 718 639
f 639 720 641
f 719 633 632
f 721 761 646
f 646 724 649
f 722 725 724
f 724 763 651
f 725 726 763
f 651 727 654
f 654 764 658
f 727 660 764
f 658 729 656
f 729 731 661
f 765 721 644
f 732 730 663
f 731 729 657
f 657 728 659
f 659 733 666
f 666 735 669
f 734 736 668
f 668 768 671
f 671 732 664
f 650 722 647
f 723 738 673
f 738 741 675
f 739 742 678
f 742 746 680
f 744 747 682
f 747 762 653
f 726 725 650
f 684 710 627
f 627 708 624
f 708 706 625
f 707 749 686
f 686 751 689
f 753 748 684
f 633 719 642
f 693 769 677
f 741 738 674
f 674 723 648
f 761 721 645
f 721 765 662
f 705 755 620
f 662 732 665
f 767 696 695
f 732 737 672
f 695 771 690
f 690 749 687
f 749 707 626
f 697 772 754
f 691 688 752
f 696 767 768
f 733 659 660
f 709 748 685
f 748 753 692
f 772 697 698
f 735 733 667
f 698 766 670
f 655 762 652
f 712 757 709
f 660 727 655
f 652 747 683
f 747 744 681
f 770 700 699
f 699 759 638
f 638 715 635
f 715 714 631
f 694 760 643
f 720 718 640
f 718 716 637
f 700 770 745
f 745 743 679
f 746 742 743
f 743 740 676
f 769 693 694
f 621 703 755
f 755 704 621
f 619 704 755
f 756 707 625
f 756 626 707
f 627 710 757
f 757 711 627
f 710 709 757
f 630 713 758
f 758 631 714
f 758 713 629
f 636 717 759
f 759 716 636
f 759 637 716
f 759 717 638
f 641 720 760
f 760 642 719
f 760 720 643
f 647 722 723
f 761 648 723
f 761 722 646
f 762 726 653
f 762 763 726
f 764 660 659
f 764 728 658
f 765 730 662
f 661 731 765
f 766 735 670
f 669 735 766
f 766 734 669
f 672 737 767
f 671 768 767
f 767 737 671
f 676 740 769
f 675 741 769
f 769 741 677
f 769 740 739
f 770 680 746
f 770 744 680
f 770 681 744
f 770 746 745
f 689 751 771
f 771 751 690
f 771 750 689
f 772 753 691
f 772 692 753
f 772 691 754
f 796 795 773
f 773 795 794
f 774 794 793
f 775 793 792
f 777 776 792
f 791 790 778
f 790 789 779
f 789 796 780
f 788 803 804
f 781 804 802
f 782 802 801
f 783 801 800
f 784 800 799
f 799 798 786
f 798 797 787
f 797 803 788
f 416 411 393
f 500 393 417
f 393 505 417
f 411 422 393
f 415 394 412
f 394 424 412
f 433 428 394
f 426 433 394
f 443 438 395
f 448 443 395
f 452 395 450
f 395 455 450
f 451 458 396
f 460 451 396
f 463 396 462
f 396 465 462
f 410 441 444
f 472 467 410
f 476 472 410
f 447 410 444
f 418 478 397
f 480 418 397
f 483 397 482
f 397 485 482
f 398 427 414
f 399 436 427
f 468 487 399
f 442 399 398
f 439 398 401
f 439 400 456
f 401 420 400
f 401 414 499
f 456 402 459
f 459 489 466
f 402 484 489
f 400 481 402
f 409 528 530
f 546 491 409
f 490 546 409
f 562 409 530
f 404 454 461
f 479 403 404
f 486 404 492
f 492 461 464
f 405 449 406
f 425 406 506
f 503 406 403
f 403 449 454
f 407 446 405
f 493 477 407
f 432 407 429
f 429 405 425
f 437 408 434
f 408 431 434
f 473 494 408
f 488 473 408
f 413 495 411
f 416 549 413
f 550 499 416
f 505 502 417
f 422 551 505
f 552 506 422
f 495 507 423
f 497 427 426
f 496 498 415
f 424 496 412
f 507 495 496
f 428 508 424
f 511 509 428
f 433 510 430
f 514 512 433
f 426 513 435
f 440 515 438
f 518 516 440
f 445 518 443
f 557 519 518
f 521 556 445
f 558 521 448
f 523 522 452
f 455 523 450
f 438 559 455
f 457 526 458
f 451 525 457
f 522 523 451
f 529 527 460
f 462 528 463
f 562 530 462
f 526 531 465
f 516 519 444
f 467 517 441
f 469 532 467
f 472 533 469
f 536 534 533
f 474 536 472
f 476 538 474
f 447 541 476
f 444 520 447
f 504 542 478
f 502 505 421
f 419 502 418
f 480 501 419
f 545 543 480
f 482 544 483
f 478 547 485
f 487 554 436
f 468 535 471
f 517 532 468
f 439 555 442
f 456 515 439
f 499 550 420
f 526 524 456
f 489 561 466
f 466 526 459
f 565 490 489
f 543 545 484
f 420 543 481
f 491 560 528
f 546 485 548
f 544 482 546
f 490 565 544
f 454 527 461
f 542 504 503
f 486 542 479
f 492 566 486
f 461 529 464
f 560 491 492
f 556 521 449
f 506 552 425
f 541 556 446
f 475 541 477
f 493 564 475
f 553 494 493
f 509 511 432
f 425 509 429
f 554 487 488
f 434 514 437
f 431 512 434
f 494 553 431
f 537 540 539
f 470 537 473
f 534 536 537
f 488 563 470
f 500 419 550
f 504 551 503
f 424 508 552
f 554 435 513
f 516 517 555
f 445 556 557
f 522 453 558
f 524 457 559
f 525 559 457
f 563 469 533
f 567 590 574
f 588 567 568
f 587 568 569
f 586 569 570
f 586 571 585
f 572 585 571
f 573 584 572
f 574 583 573
f 598 582 575
f 596 575 576
f 595 576 577
f 594 577 578
f 593 578 579
f 580 593 579
f 581 592 580
f 582 591 581
f 617 622 599
f 599 706 623
f 711 599 623
f 628 617 599
f 600 621 618
f 630 600 618
f 634 639 600
f 639 632 600
f 644 649 601
f 649 654 601
f 601 658 656
f 661 601 656
f 664 657 602
f 657 666 602
f 602 669 668
f 671 602 668
f 647 616 650
f 673 678 616
f 678 682 616
f 616 653 650
f 684 624 603
f 624 686 603
f 603 689 688
f 691 603 688
f 633 604 620
f 642 605 633
f 693 674 605
f 605 648 604
f 604 645 607
f 606 645 662
f 626 607 606
f 620 607 705
f 608 662 665
f 695 665 672
f 690 608 695
f 687 606 608
f 734 615 736
f 697 752 615
f 752 696 615
f 615 768 736
f 660 610 667
f 609 685 610
f 610 692 698
f 667 698 670
f 655 611 612
f 612 631 712
f 612 709 609
f 655 609 660
f 652 613 611
f 683 699 613
f 613 638 635
f 611 635 631
f 614 643 640
f 637 614 640
f 700 679 614
f 679 694 614
f 701 619 617
f 755 622 619
f 705 756 622
f 708 711 623
f 757 628 711
f 712 758 628
f 713 701 629
f 633 703 632
f 704 702 621
f 702 630 618
f 701 713 702
f 714 634 630
f 715 717 634
f 716 639 636
f 718 720 639
f 719 632 641
f 721 646 644
f 722 724 646
f 724 651 649
f 725 763 724
f 762 727 651
f 727 764 654
f 728 729 658
f 729 661 656
f 765 644 661
f 732 663 664
f 731 657 663
f 729 728 657
f 733 735 666
f 734 668 669
f 736 768 668
f 737 732 671
f 725 722 650
f 723 673 647
f 738 675 673
f 739 678 675
f 740 742 739
f 742 680 678
f 744 682 680
f 747 653 682
f 726 650 653
f 748 710 684
f 711 708 627
f 708 625 624
f 707 686 625
f 749 751 686
f 750 688 689
f 753 684 691
f 760 693 642
f 741 674 677
f 738 723 674
f 761 645 648
f 721 662 645
f 756 705 626
f 730 732 662
f 767 695 672
f 732 672 665
f 696 771 695
f 751 749 690
f 749 626 687
f 766 697 734
f 691 752 754
f 688 750 752
f 771 696 750
f 733 660 667
f 710 748 709
f 748 692 685
f 772 698 692
f 735 667 670
f 697 766 698
f 727 762 655
f 758 712 631
f 762 747 652
f 747 681 683
f 770 699 681
f 700 759 699
f 717 715 638
f 715 631 635
f 693 760 694
f 720 640 643
f 718 637 640
f 759 700 637
f 746 743 745
f 743 676 679
f 742 740 743
f 769 694 676
f 703 620 755
f 625 706 756
f 714 630 758
f 641 760 719
f 723 722 761
f 762 651 763
f 659 728 764
f 663 730 765
f 765 731 663
f 675 769 739
f 796 773 780
f 773 794 774
f 774 793 775
f 775 792 776
f 777 792 791
f 791 778 777
f 790 779 778
f 789 780 779
f 788 804 781
f 781 802 782
f 782 801 783
f 783 800 784
f 784 799 785
f 799 786 785
f 798 787 786
f 797 788 787
