# CC0 David Gian-Cursio 2021; lossless split of accepted optimized preview.
o chevron-base-3
v -2.399206 1.773275 -0.131383
v -2.440178 1.844239 -0.131383
v -2.611159 1.728258 -0.176876
v -2.675626 1.839919 -0.176876
v -2.622944 1.748671 -0.176876
v -2.428414 1.786388 -0.135519
v -2.447864 1.782618 -0.139655
v -2.467322 1.778843 -0.143790
v -2.486772 1.775074 -0.147926
v -2.506221 1.771304 -0.152062
v -2.525679 1.767530 -0.156198
v -2.545129 1.763760 -0.160333
v -2.564587 1.759985 -0.164470
v -2.584037 1.756216 -0.168605
v -2.603486 1.752446 -0.172741
v -2.418479 1.769180 -0.135519
v -2.461587 1.843844 -0.135519
v -2.437744 1.765089 -0.139655
v -2.482987 1.843453 -0.139655
v -2.457017 1.760995 -0.143790
v -2.504396 1.843059 -0.143790
v -2.476282 1.756905 -0.147926
v -2.525797 1.842668 -0.147926
v -2.495546 1.752814 -0.152062
v -2.547198 1.842277 -0.152062
v -2.514819 1.748719 -0.156198
v -2.568606 1.841882 -0.156198
v -2.534084 1.744629 -0.160333
v -2.590007 1.841492 -0.160333
v -2.611416 1.841096 -0.164470
v -2.553356 1.740534 -0.164470
v -2.572621 1.736443 -0.168605
v -2.632817 1.840706 -0.168605
v -2.591886 1.732353 -0.172741
v -2.654218 1.840315 -0.172741
v -2.457356 1.499340 -0.172741
v -2.470538 1.484697 -0.176876
v -2.445755 1.479247 -0.172741
v -2.458753 1.464284 -0.176876
v -2.395024 1.391378 -0.172741
v -2.406071 1.373036 -0.176876
v -2.444181 1.513979 -0.168605
v -2.431006 1.528617 -0.164470
v -2.417824 1.543260 -0.160333
v -2.406778 1.524129 -0.160333
v -2.432765 1.494206 -0.168605
v -2.419776 1.509166 -0.164470
v -2.372947 1.428055 -0.164470
v -2.361900 1.446397 -0.160333
v -2.383985 1.409716 -0.168605
v -2.391466 1.572542 -0.152062
v -2.404649 1.557899 -0.156198
v -2.393789 1.539088 -0.156198
v -2.380791 1.554052 -0.152062
v -2.339815 1.483079 -0.152062
v -2.350861 1.464736 -0.156198
v -2.378291 1.587180 -0.147926
v -2.365117 1.601819 -0.143790
v -2.351934 1.616463 -0.139655
v -2.341814 1.598934 -0.139655
v -2.367801 1.569011 -0.147926
v -2.354812 1.583971 -0.143790
v -2.306691 1.538099 -0.139655
v -2.328776 1.501417 -0.147926
v -2.317737 1.519755 -0.143790
v -2.408957 1.790163 -0.131383
v -2.338760 1.631101 -0.135519
v -2.328825 1.613893 -0.135519
v -2.325577 1.645744 -0.131383
v -2.315827 1.628856 -0.131383
v -2.295652 1.556437 -0.135519
v -2.284606 1.574780 -0.131383
v -2.305897 1.810144 -0.109472
v -2.471725 1.449348 -0.181005
v -2.472788 1.488594 -0.176876
v -2.403821 1.369139 -0.176876
v -2.341010 1.634998 -0.135519
v -2.293402 1.552540 -0.135519
v -2.608909 1.724361 -0.176876
v -2.677876 1.843816 -0.176876
v -2.416229 1.765283 -0.135519
v -2.463837 1.847741 -0.135519
v -2.435494 1.761192 -0.139655
v -2.454767 1.757097 -0.143790
v -2.474032 1.753007 -0.147926
v -2.493296 1.748916 -0.152062
v -2.512569 1.744822 -0.156198
v -2.531834 1.740732 -0.160333
v -2.551106 1.736637 -0.164470
v -2.570371 1.732546 -0.168605
v -2.589636 1.728456 -0.172741
v -2.485237 1.847350 -0.139655
v -2.506646 1.846956 -0.143790
v -2.528047 1.846565 -0.147926
v -2.549448 1.846174 -0.152062
v -2.570856 1.845779 -0.156198
v -2.592257 1.845389 -0.160333
v -2.613666 1.844993 -0.164470
v -2.635067 1.844602 -0.168605
v -2.656468 1.844212 -0.172741
v -2.459606 1.503237 -0.172741
v -2.392774 1.387481 -0.172741
v -2.446431 1.517876 -0.168605
v -2.433256 1.532514 -0.164470
v -2.420074 1.547157 -0.160333
v -2.370697 1.424158 -0.164470
v -2.359650 1.442500 -0.160333
v -2.381735 1.405820 -0.168605
v -2.406899 1.561796 -0.156198
v -2.393716 1.576440 -0.152062
v -2.337565 1.479182 -0.152062
v -2.348611 1.460839 -0.156198
v -2.380541 1.591078 -0.147926
v -2.367367 1.605717 -0.143790
v -2.354184 1.620360 -0.139655
v -2.326526 1.497520 -0.147926
v -2.315487 1.515858 -0.143790
v -2.304441 1.534202 -0.139655
v -2.442428 1.848136 -0.131383
v -2.396956 1.769377 -0.131383
v -2.327827 1.649642 -0.131383
v -2.282356 1.570883 -0.131383
v -2.368137 1.531810 -0.124197
v -2.383881 1.522720 -0.128210
v -2.534901 1.784294 -0.128210
v -2.519157 1.793384 -0.124197
v -2.534901 1.784294 -0.156110
v -2.519157 1.793384 -0.152097
v -2.516637 1.789019 -0.152097
v -2.532381 1.779929 -0.156110
v -2.383881 1.522720 -0.156110
v -2.386401 1.527085 -0.156110
v -2.370657 1.536175 -0.152097
v -2.368137 1.531810 -0.152097
v -2.211656 1.796080 -0.101210
v -2.277890 1.705905 -0.115623
v -2.323436 1.784901 -0.129342
v -2.305081 1.810099 -0.134484
v -2.471087 1.450043 -0.210317
v -2.414421 1.351661 -0.193785
v -2.655972 1.843353 -0.186391
v -2.677380 1.842957 -0.190522
v -2.697761 1.842582 -0.194457
v -2.698784 1.842625 -0.193603
v -2.698795 1.842645 -0.181005
v -2.654179 1.840248 -0.181193
v -2.653723 1.839457 -0.181896
v -2.675587 1.839852 -0.185329
v -2.675481 1.839668 -0.185652
v -2.675323 1.839395 -0.185897
v -2.675130 1.839060 -0.186026
v -2.675626 1.839919 -0.184960
v -2.603950 1.753249 -0.201792
v -2.622956 1.748692 -0.206141
v -2.641915 1.745890 -0.210368
v -2.642144 1.744522 -0.209418
v -2.641007 1.744353 -0.210012
v -2.628817 1.721440 -0.194235
v -2.628595 1.721055 -0.181005
v -2.603950 1.753248 -0.197287
v -2.623195 1.749106 -0.201694
v -2.622961 1.748701 -0.201622
v -2.622734 1.748307 -0.201478
v -2.622540 1.747972 -0.201277
v -2.623408 1.749474 -0.201682
v -2.590057 1.729185 -0.186766
v -2.589636 1.728456 -0.185372
v -2.609329 1.725089 -0.190878
v -2.591917 1.732408 -0.181273
v -2.592287 1.733048 -0.182332
v -2.611403 1.728682 -0.186160
v -2.611276 1.728462 -0.185792
v -2.611190 1.728313 -0.185383
v -2.611559 1.728952 -0.186443
v -2.611159 1.728258 -0.184982
v -2.459185 1.502508 -0.186766
v -2.472368 1.487866 -0.190878
v -2.470538 1.484697 -0.184982
v -2.470138 1.484003 -0.186443
v -2.470507 1.484642 -0.185383
v -2.470421 1.484493 -0.185792
v -2.470293 1.484273 -0.186160
v -2.456955 1.498645 -0.182332
v -2.445292 1.478444 -0.201792
v -2.458975 1.464669 -0.206018
v -2.471299 1.448611 -0.209675
v -2.485272 1.472813 -0.194235
v -2.485495 1.473198 -0.181005
v -2.458289 1.463481 -0.201682
v -2.459157 1.464983 -0.201277
v -2.458963 1.464648 -0.201478
v -2.458736 1.464254 -0.201622
v -2.458502 1.463849 -0.201694
v -2.445292 1.478445 -0.197287
v -2.446160 1.479948 -0.196887
v -2.392774 1.387481 -0.185324
v -2.393270 1.388340 -0.186391
v -2.403821 1.369139 -0.189460
v -2.404317 1.369998 -0.190522
v -2.414832 1.352535 -0.194457
v -2.415306 1.351628 -0.193603
v -2.415295 1.351608 -0.181005
v -2.414377 1.351602 -0.180832
v -2.406071 1.373036 -0.184960
v -2.406567 1.373895 -0.186026
v -2.406374 1.373560 -0.185897
v -2.406216 1.373287 -0.185652
v -2.406109 1.373103 -0.185329
v -2.395024 1.391378 -0.180824
v -2.395519 1.392236 -0.181896
v -2.395169 1.391629 -0.181518
v -2.395326 1.391902 -0.181764
v -2.634572 1.843745 -0.182259
v -2.613171 1.844137 -0.178127
v -2.591763 1.844533 -0.173995
v -2.632322 1.839849 -0.177765
v -2.610922 1.840241 -0.173634
v -2.589515 1.840638 -0.169504
v -2.584500 1.757018 -0.197398
v -2.565049 1.760787 -0.193003
v -2.584499 1.757017 -0.192892
v -2.565048 1.760785 -0.188496
v -2.545591 1.764560 -0.188609
v -2.570793 1.733276 -0.182653
v -2.551528 1.737367 -0.178541
v -2.532256 1.741463 -0.174428
v -2.551106 1.736637 -0.177151
v -2.573022 1.737138 -0.178220
v -2.553758 1.741229 -0.174109
v -2.534486 1.745325 -0.169997
v -2.545590 1.764559 -0.184101
v -2.419651 1.546426 -0.174428
v -2.432834 1.531784 -0.178541
v -2.446009 1.517146 -0.182653
v -2.406316 1.523329 -0.188609
v -2.406317 1.523330 -0.184101
v -2.417422 1.542564 -0.169997
v -2.430605 1.527922 -0.174109
v -2.443780 1.513284 -0.178220
v -2.420201 1.509903 -0.192676
v -2.419313 1.508364 -0.193003
v -2.432302 1.493404 -0.197398
v -2.419314 1.508366 -0.188496
v -2.432303 1.493405 -0.192892
v -2.370697 1.424158 -0.177052
v -2.360144 1.443356 -0.173995
v -2.371191 1.425014 -0.178127
v -2.362393 1.447251 -0.169504
v -2.373440 1.428910 -0.173634
v -2.384480 1.410573 -0.177765
v -2.382230 1.406677 -0.182259
v -2.381774 1.405887 -0.181558
v -2.570363 1.844925 -0.169863
v -2.568115 1.841030 -0.165373
v -2.548955 1.845321 -0.165731
v -2.546707 1.841427 -0.161242
v -2.526141 1.768329 -0.184215
v -2.506683 1.772104 -0.179821
v -2.515221 1.749415 -0.165885
v -2.526140 1.768328 -0.179706
v -2.506681 1.772100 -0.175311
v -2.512992 1.745554 -0.170316
v -2.493720 1.749650 -0.166204
v -2.512569 1.744822 -0.168929
v -2.495948 1.753510 -0.161774
v -2.393293 1.575706 -0.166204
v -2.406476 1.561064 -0.170316
v -2.391064 1.571846 -0.161774
v -2.394215 1.539827 -0.183899
v -2.380329 1.553252 -0.179821
v -2.393327 1.538289 -0.184215
v -2.380331 1.553256 -0.175311
v -2.393328 1.538290 -0.179706
v -2.404247 1.557203 -0.165885
v -2.338057 1.480035 -0.165731
v -2.340306 1.483929 -0.161242
v -2.348611 1.460839 -0.168782
v -2.349104 1.461693 -0.169863
v -2.351353 1.465588 -0.165373
v -2.527555 1.845712 -0.161600
v -2.506154 1.846104 -0.157468
v -2.484746 1.846500 -0.153337
v -2.525307 1.841819 -0.157111
v -2.503907 1.842211 -0.152981
v -2.487233 1.775873 -0.175426
v -2.467782 1.779642 -0.171032
v -2.448324 1.783415 -0.166638
v -2.487231 1.775869 -0.170915
v -2.467781 1.779638 -0.166520
v -2.448323 1.783412 -0.162125
v -2.474455 1.753741 -0.162091
v -2.435919 1.761928 -0.153866
v -2.435494 1.761192 -0.152487
v -2.476684 1.757601 -0.157663
v -2.457419 1.761692 -0.153551
v -2.366943 1.604982 -0.157979
v -2.380118 1.590344 -0.162091
v -2.354151 1.620302 -0.152881
v -2.364714 1.601122 -0.153551
v -2.377889 1.586484 -0.157663
v -2.341354 1.598137 -0.166638
v -2.354351 1.583172 -0.171032
v -2.367340 1.568212 -0.175426
v -2.341356 1.598140 -0.162125
v -2.354353 1.583176 -0.166520
v -2.367342 1.568216 -0.170915
v -2.304441 1.534202 -0.152239
v -2.304932 1.535052 -0.153337
v -2.315979 1.516710 -0.157468
v -2.327018 1.498373 -0.161600
v -2.318227 1.520603 -0.152981
v -2.329266 1.502266 -0.157111
v -2.409398 1.790927 -0.157854
v -2.428874 1.787184 -0.162243
v -2.428414 1.786388 -0.157696
v -2.408744 1.789794 -0.153184
v -2.408971 1.790188 -0.153313
v -2.409204 1.790591 -0.153367
v -2.408550 1.789457 -0.152990
v -2.409414 1.790954 -0.153334
v -2.316224 1.629544 -0.157602
v -2.315385 1.628092 -0.157854
v -2.328365 1.613097 -0.162243
v -2.315370 1.628065 -0.153334
v -2.316234 1.629562 -0.152990
v -2.315580 1.628428 -0.153367
v -2.315812 1.628831 -0.153313
v -2.316039 1.629225 -0.153184
v -2.329037 1.614261 -0.157575
v -2.328367 1.613101 -0.157730
v -2.482499 1.842608 -0.148850
v -2.438147 1.765788 -0.149440
v -2.351531 1.615764 -0.149440
v -2.307179 1.538944 -0.148850
v -2.442428 1.848136 -0.143984
v -2.441986 1.847371 -0.145057
v -2.463346 1.846892 -0.149205
v -2.463837 1.847741 -0.148102
v -2.461548 1.843777 -0.143975
v -2.461099 1.842999 -0.144719
v -2.439881 1.843725 -0.140437
v -2.440035 1.843992 -0.140175
v -2.440140 1.844173 -0.139839
v -2.439691 1.843396 -0.140588
v -2.440178 1.844239 -0.139467
v -2.416229 1.765283 -0.148376
v -2.416654 1.766019 -0.149754
v -2.418597 1.769384 -0.144682
v -2.418883 1.769878 -0.145328
v -2.418479 1.769180 -0.143876
v -2.399238 1.773330 -0.140165
v -2.399325 1.773479 -0.140572
v -2.399453 1.773702 -0.140937
v -2.399610 1.773974 -0.141216
v -2.399206 1.773275 -0.139766
v -2.397353 1.770065 -0.145609
v -2.327430 1.648954 -0.145609
v -2.341010 1.634998 -0.148376
v -2.340584 1.634262 -0.149754
v -2.325577 1.645744 -0.139766
v -2.325173 1.645045 -0.141216
v -2.325330 1.645317 -0.140937
v -2.325459 1.645540 -0.140572
v -2.325545 1.645689 -0.140165
v -2.338356 1.630403 -0.145328
v -2.282797 1.571648 -0.145057
v -2.293892 1.553389 -0.149205
v -2.284606 1.574780 -0.139467
v -2.285092 1.575623 -0.140588
v -2.284644 1.574846 -0.139839
v -2.284748 1.575027 -0.140175
v -2.284903 1.575294 -0.140437
v -2.296140 1.557282 -0.144719
v -2.324343 1.784799 -0.115797
v -2.323013 1.784206 -0.115608
v -2.277472 1.704678 -0.129906
v -2.279811 1.766635 -0.134448
v -2.271630 1.752466 -0.134448
v -2.285548 1.753875 -0.132777
v -2.246695 1.709278 -0.134449
v -2.248377 1.708896 -0.134615
v -2.245198 1.851296 -0.106955
v -2.242396 1.851015 -0.105425
v -2.243782 1.851778 -0.105601
v -2.242396 1.851015 -0.092819
v -2.243750 1.851776 -0.092992
v -2.215935 1.803490 -0.106636
v -2.207773 1.789354 -0.106636
v -2.211121 1.796845 -0.100015
v -2.180936 1.740225 -0.106929
v -2.179846 1.742676 -0.105425
v -2.179864 1.741123 -0.092992
f 385 392 391
f 391 388 389
f 389 387 383
f 389 383 385
f 385 391 389
f 136 121 70
f 73 66 120
f 73 120 374
f 73 374 375
f 386 119 66
f 386 66 73
f 70 122 392
f 70 392 136
f 73 136 392
f 73 392 385
f 73 385 386
f 136 73 375
f 70 368 72
f 70 370 368
f 70 371 370
f 70 372 371
f 70 369 372
f 70 324 369
f 70 326 324
f 70 327 326
f 70 328 327
f 70 325 328
f 70 361 325
f 70 362 361
f 70 363 362
f 70 364 363
f 70 360 364
f 70 69 360
f 74 201 202
f 74 186 201
f 74 139 186
f 74 187 139
f 74 188 187
f 74 39 75
f 74 75 188
f 39 74 202
f 39 202 203
f 39 203 76
f 39 41 204
f 39 204 208
f 39 208 207
f 39 207 206
f 39 206 205
f 39 205 189
f 39 189 193
f 39 193 192
f 39 192 191
f 39 191 190
f 39 190 179
f 39 179 182
f 39 182 181
f 39 181 180
f 39 180 178
f 39 178 37
f 358 77 67
f 358 67 365
f 358 365 329
f 329 330 323
f 329 323 359
f 329 359 358
f 71 78 367
f 323 330 373
f 373 71 367
f 367 323 373
f 298 59 115
f 298 333 59
f 307 118 63
f 301 333 298
f 301 304 333
f 301 334 304
f 308 334 301
f 308 307 334
f 296 114 58
f 296 58 299
f 311 65 117
f 311 117 309
f 302 296 299
f 302 299 305
f 302 305 311
f 309 302 311
f 297 57 113
f 297 300 57
f 312 116 64
f 312 310 116
f 303 300 297
f 303 306 300
f 303 312 306
f 310 312 303
f 266 110 51
f 266 51 268
f 276 55 111
f 276 111 275
f 270 266 268
f 270 268 272
f 270 272 276
f 275 270 276
f 267 52 109
f 267 274 52
f 279 112 56
f 279 277 112
f 279 278 277
f 278 269 271
f 269 274 267
f 269 273 274
f 269 279 273
f 278 279 269
f 232 105 44
f 232 44 237
f 248 49 107
f 248 107 246
f 235 232 237
f 235 237 236
f 235 236 248
f 246 235 248
f 233 43 104
f 233 238 43
f 249 106 48
f 249 245 106
f 249 247 245
f 247 240 241
f 240 238 233
f 240 243 238
f 240 249 243
f 247 249 240
f 234 103 42
f 234 42 239
f 250 50 108
f 250 108 252
f 250 252 251
f 242 234 239
f 242 239 244
f 242 244 250
f 251 242 250
f 176 36 101
f 176 183 36
f 176 195 183
f 209 102 40
f 209 196 102
f 209 197 196
f 184 195 176
f 184 194 195
f 184 210 194
f 197 210 184
f 197 212 210
f 197 211 212
f 197 209 211
f 345 2 66
f 345 66 1
f 345 1 355
f 345 355 351
f 345 351 352
f 345 352 353
f 345 353 354
f 345 354 319
f 345 319 316
f 345 316 317
f 345 317 318
f 345 318 320
f 345 320 344
f 345 344 341
f 345 341 342
f 345 342 343
f 159 79 5
f 145 159 5
f 145 5 80
f 148 152 4
f 148 4 5
f 148 5 3
f 148 3 175
f 148 175 173
f 148 173 172
f 148 172 171
f 148 171 174
f 148 174 164
f 148 164 163
f 148 163 162
f 148 162 161
f 148 161 165
f 148 165 151
f 148 151 150
f 148 150 149
f 350 16 81
f 350 81 346
f 350 346 347
f 314 315 349
f 348 350 347
f 347 314 349
f 347 349 348
f 337 338 82
f 337 82 17
f 337 17 339
f 337 339 340
f 337 340 315
f 314 337 315
f 18 293 83
f 18 292 293
f 282 19 92
f 282 331 19
f 282 290 331
f 332 292 18
f 287 290 282
f 287 332 290
f 292 332 287
f 295 20 84
f 281 93 21
f 281 21 284
f 281 284 289
f 286 281 289
f 286 289 295
f 22 291 85
f 280 23 94
f 280 283 23
f 280 288 283
f 294 291 22
f 285 288 280
f 285 294 288
f 291 294 285
f 265 24 86
f 265 86 263
f 255 95 25
f 255 25 256
f 255 256 261
f 258 255 261
f 258 261 265
f 263 258 265
f 26 264 87
f 26 262 264
f 253 27 96
f 253 254 27
f 253 260 254
f 259 262 26
f 257 260 253
f 257 259 260
f 262 259 257
f 230 28 88
f 230 88 226
f 215 97 29
f 215 29 218
f 215 218 231
f 223 215 231
f 223 231 230
f 226 223 230
f 31 227 89
f 31 225 227
f 214 30 98
f 214 217 30
f 214 222 217
f 229 225 31
f 220 222 214
f 220 229 222
f 225 229 220
f 228 32 90
f 228 90 224
f 213 99 33
f 213 33 216
f 213 216 221
f 219 213 221
f 219 221 228
f 224 219 228
f 34 167 91
f 34 166 167
f 141 35 100
f 141 146 35
f 141 147 146
f 141 160 147
f 169 166 34
f 153 160 141
f 153 170 160
f 166 170 153
f 166 169 170
f 144 159 145
f 144 158 159
f 144 156 158
f 144 155 156
f 377 137 138
f 137 381 376
f 381 379 378
f 379 137 377
f 137 379 381
f 54 53 132
f 54 132 133
f 54 133 134
f 131 132 53
f 131 53 112
f 131 112 111
f 111 54 134
f 111 134 131
f 96 11 130
f 96 130 127
f 96 127 128
f 129 130 11
f 129 11 10
f 129 10 95
f 95 96 128
f 95 128 129
f 70 69 67
f 39 38 36
f 60 59 58
f 61 57 51
f 53 52 44
f 47 43 42
f 40 38 39
f 72 70 68
f 63 60 62
f 64 61 54
f 48 47 46
f 365 67 69
f 178 37 36
f 333 299 58
f 300 268 51
f 274 237 44
f 238 239 42
f 361 325 365
f 179 183 195
f 72 71 373
f 204 209 40
f 63 65 311
f 64 55 276
f 56 49 248
f 48 50 250
f 324 369 373
f 304 334 311
f 306 312 276
f 273 279 248
f 243 249 250
f 6 16 1
f 3 34 15
f 8 20 18
f 10 24 22
f 12 28 26
f 14 32 31
f 4 5 15
f 17 6 66
f 21 8 7
f 25 10 9
f 29 12 11
f 33 14 13
f 355 1 16
f 169 34 3
f 18 20 295
f 22 24 265
f 26 28 230
f 31 32 228
f 349 315 319
f 164 160 170
f 295 289 290
f 265 261 288
f 230 231 260
f 228 221 222
f 345 339 17
f 4 35 146
f 331 284 21
f 283 256 25
f 254 218 29
f 217 216 33
f 315 340 344
f 151 147 160
f 289 284 331
f 261 256 283
f 231 218 254
f 221 216 217
f 56 53 45
f 377 387 135
f 135 388 378
f 374 120 356
f 376 357 121
f 137 376 136
f 138 137 356
f 321 357 376
f 384 335 119
f 392 122 366
f 382 138 313
f 366 322 380
f 380 378 388
f 377 138 382
f 121 357 360
f 357 321 325
f 327 328 321
f 324 326 322
f 366 369 324
f 366 122 72
f 187 188 75
f 187 177 185
f 198 76 203
f 139 185 199
f 178 177 75
f 204 41 76
f 185 189 205
f 177 181 182
f 180 181 177
f 178 180 177
f 179 190 185
f 193 189 185
f 185 191 192
f 185 190 191
f 205 206 198
f 207 208 198
f 208 204 198
f 68 77 115
f 78 68 60
f 117 62 61
f 107 45 47
f 108 46 38
f 358 298 115
f 296 297 113
f 266 267 109
f 232 233 104
f 234 176 101
f 359 323 301
f 296 302 303
f 266 270 269
f 232 235 240
f 234 242 184
f 78 118 307
f 117 116 310
f 111 112 277
f 107 106 245
f 108 102 196
f 323 367 308
f 302 309 310
f 270 275 278
f 235 246 247
f 242 251 197
f 62 114 113
f 54 110 109
f 45 105 104
f 46 103 101
f 1 355 356
f 355 351 356
f 351 352 356
f 352 353 356
f 353 354 356
f 354 319 313
f 319 316 313
f 317 318 313
f 313 320 344
f 344 341 335
f 341 342 335
f 343 345 335
f 345 2 119
f 168 79 159
f 157 154 168
f 143 145 80
f 143 142 154
f 3 79 168
f 142 80 4
f 142 151 165
f 174 171 168
f 168 171 172
f 168 154 164
f 154 162 163
f 154 163 164
f 7 83 81
f 92 7 6
f 94 9 8
f 98 13 12
f 100 15 14
f 81 83 293
f 84 85 291
f 86 87 264
f 88 89 227
f 90 91 167
f 292 287 314
f 291 285 286
f 262 257 258
f 225 220 223
f 166 153 219
f 338 282 92
f 281 280 94
f 255 253 96
f 215 214 98
f 213 141 100
f 287 282 337
f 285 280 281
f 257 253 255
f 220 214 215
f 153 141 213
f 9 85 84
f 11 87 86
f 13 89 88
f 15 91 90
f 133 132 124
f 123 134 133
f 124 131 134
f 132 131 124
f 129 128 126
f 125 130 129
f 125 127 130
f 128 127 125
f 132 131 134
f 128 127 130
f 326 324 330
f 327 326 330
f 300 306 272
f 274 273 236
f 238 243 244
f 329 365 325
f 191 190 195
f 328 327 330
f 191 195 194
f 333 304 305
f 360 364 365
f 364 363 365
f 179 182 183
f 363 362 365
f 204 208 209
f 208 207 211
f 369 372 373
f 205 210 212
f 334 307 311
f 372 371 373
f 206 212 211
f 161 165 160
f 162 161 160
f 316 319 315
f 350 348 351
f 170 169 171
f 353 348 349
f 172 171 169
f 340 339 341
f 150 146 147
f 389 135 387
f 381 380 322
f 336 335 382
f 380 381 378
f 375 374 137
f 390 391 392
f 384 383 382
f 201 140 202
f 203 202 140
f 200 201 186
f 200 199 198
f 358 359 298
f 270 271 269
f 235 241 240
f 251 252 196
f 144 143 155
f 156 157 158
f 346 293 292
f 263 264 262
f 226 227 225
f 224 167 166
f 189 194 210
f 70 67 68
f 39 36 37
f 60 58 62
f 61 51 54
f 53 44 45
f 47 42 46
f 40 39 41
f 72 68 71
f 63 62 65
f 64 54 55
f 48 46 50
f 365 69 360
f 178 36 183
f 333 58 59
f 300 51 57
f 274 44 52
f 238 42 43
f 179 195 190
f 72 373 368
f 204 40 41
f 63 311 307
f 64 276 312
f 56 248 279
f 48 250 249
f 324 373 330
f 304 311 305
f 306 276 272
f 273 248 236
f 243 250 244
f 6 1 66
f 3 15 5
f 8 18 7
f 10 22 9
f 12 26 11
f 14 31 13
f 4 15 35
f 17 66 2
f 21 7 19
f 25 9 23
f 29 11 27
f 33 13 30
f 355 16 350
f 169 3 175
f 18 295 332
f 22 265 294
f 26 230 259
f 31 228 229
f 349 319 354
f 164 170 174
f 295 290 332
f 265 288 294
f 230 260 259
f 228 222 229
f 345 17 2
f 4 146 152
f 331 21 19
f 283 25 23
f 254 29 27
f 217 33 30
f 315 344 320
f 151 160 165
f 289 331 290
f 261 283 288
f 231 254 260
f 221 217 222
f 56 45 49
f 377 135 379
f 135 378 379
f 374 356 137
f 376 121 136
f 137 136 375
f 138 356 313
f 321 376 381
f 384 119 386
f 392 366 390
f 382 313 336
f 366 380 390
f 380 388 390
f 377 382 387
f 121 360 69
f 357 364 360
f 357 363 364
f 357 362 363
f 357 361 362
f 357 325 361
f 321 328 325
f 327 321 322
f 322 326 327
f 366 324 322
f 366 372 369
f 366 371 372
f 371 366 370
f 366 368 370
f 366 72 368
f 187 75 177
f 187 185 139
f 198 203 140
f 139 199 200
f 178 75 37
f 204 76 198
f 185 205 199
f 177 182 179
f 179 185 177
f 193 185 192
f 205 198 199
f 207 198 206
f 68 115 60
f 78 60 118
f 117 61 116
f 107 47 106
f 108 38 102
f 358 115 77
f 296 113 114
f 266 109 110
f 232 104 105
f 234 101 103
f 359 301 298
f 296 303 297
f 266 269 267
f 232 240 233
f 234 184 176
f 78 307 367
f 117 310 309
f 111 277 275
f 107 245 246
f 108 196 252
f 323 308 301
f 302 310 303
f 270 278 271
f 235 247 241
f 242 197 184
f 62 113 61
f 54 109 53
f 45 104 47
f 46 101 38
f 1 356 120
f 354 313 356
f 313 316 317
f 313 318 320
f 313 344 336
f 344 335 336
f 343 335 342
f 345 119 335
f 168 159 158
f 157 168 158
f 143 80 142
f 143 154 155
f 3 168 175
f 142 4 152
f 142 165 154
f 168 172 173
f 168 173 175
f 168 164 174
f 154 165 161
f 162 154 161
f 142 150 151
f 150 142 149
f 142 148 149
f 142 152 148
f 7 81 6
f 92 6 82
f 94 8 93
f 98 12 97
f 100 14 99
f 81 293 346
f 84 291 295
f 86 264 263
f 88 227 226
f 90 167 224
f 292 314 347
f 291 286 295
f 262 258 263
f 225 223 226
f 166 219 224
f 338 92 82
f 281 94 93
f 255 96 95
f 215 98 97
f 213 100 99
f 287 337 314
f 285 281 286
f 257 255 258
f 220 215 223
f 153 213 219
f 9 84 8
f 11 86 10
f 13 88 12
f 15 90 14
f 133 124 123
f 124 134 123
f 125 129 126
f 128 125 126
f 132 134 133
f 128 130 129
f 194 189 193
f 194 193 192
f 329 325 328
f 328 330 329
f 191 194 192
f 333 305 299
f 300 272 268
f 274 236 237
f 238 244 239
f 178 183 180
f 180 183 181
f 361 365 362
f 183 182 181
f 368 373 370
f 208 211 209
f 370 373 371
f 205 212 206
f 206 211 207
f 315 320 318
f 315 318 317
f 160 164 163
f 315 317 316
f 162 160 163
f 350 351 355
f 173 169 175
f 348 352 351
f 172 169 173
f 170 171 174
f 353 349 354
f 348 353 352
f 146 148 152
f 343 339 345
f 146 149 148
f 342 339 343
f 340 341 344
f 150 147 151
f 339 342 341
f 149 146 150
f 388 135 389
f 381 322 321
f 335 384 382
f 387 382 383
f 388 391 390
f 386 383 384
f 383 386 385
f 200 186 139
f 200 198 140
f 367 307 308
f 275 277 278
f 246 245 247
f 251 196 197
f 145 143 144
f 155 157 156
f 155 154 157
f 346 292 347
f 337 282 338
f 140 201 200
f 189 210 205
