# CC0 David Gian-Cursio 2021; lossless split of accepted optimized preview.
o chevron-block-5
v 1.029581 0.244687 0.186458
v 1.034269 0.231807 0.126000
v 1.036048 0.226918 0.207832
v 0.993877 0.342782 0.197932
v 0.993877 0.342782 0.167782
v 1.147345 0.252850 0.186300
v 1.147345 0.252850 0.124650
v 1.117128 0.291129 0.207990
v 1.132235 0.271994 0.197145
v 1.057944 0.366101 0.182858
v 0.932664 0.223989 0.207990
v 0.929810 0.319464 0.182858
v 0.934121 0.175243 0.186300
v 0.933391 0.199620 0.197145
v 0.934121 0.175243 0.124650
v 1.040733 0.214046 0.063000
v 0.962855 0.428014 0.157725
v 1.047197 0.196286 0.123300
v 1.033573 0.233718 0.180959
v 1.034269 0.231807 0.177750
v 1.131624 0.269319 0.180919
v 1.136340 0.266793 0.180679
v 1.132897 0.267704 0.177750
v 1.123954 0.279036 0.186458
v 1.025592 0.255647 0.191956
v 1.024154 0.259597 0.192314
v 1.113665 0.292071 0.192343
v 1.117128 0.291129 0.195165
v 0.934711 0.226937 0.192343
v 0.935207 0.210338 0.186458
v 0.935578 0.197964 0.180919
v 0.935641 0.195909 0.177750
v 0.933589 0.192998 0.180679
v 1.132897 0.267704 0.126000
v 1.136403 0.266710 0.125848
v 0.935641 0.195909 0.126000
v 0.933594 0.192894 0.125848
v 0.935641 0.195909 0.074250
v 0.935701 0.193862 0.071073
v 0.933587 0.193092 0.073323
v 1.034269 0.231807 0.074250
v 1.034965 0.229895 0.071033
v 1.132897 0.267704 0.074250
v 1.136281 0.266867 0.073323
v 1.134167 0.266098 0.071073
v 1.136291 0.263404 0.207832
v 1.137454 0.265379 0.206186
v 1.156290 0.238071 0.193513
v 1.157564 0.236456 0.190350
v 1.158350 0.238907 0.191921
v 1.046499 0.198206 0.193552
v 1.047197 0.196286 0.190350
v 0.936769 0.158172 0.193513
v 0.934653 0.157488 0.191921
v 0.936830 0.156116 0.190350
v 0.935805 0.190433 0.207832
v 0.933645 0.191198 0.206186
v 1.025595 0.255639 0.222113
v 1.024154 0.259597 0.222464
v 0.934840 0.222703 0.222152
v 0.934711 0.226937 0.222493
v 0.932664 0.223989 0.220815
v 1.116288 0.288744 0.222152
v 1.117128 0.291129 0.220815
v 1.113665 0.292071 0.222493
v 1.055829 0.365331 0.197932
v 1.057944 0.366101 0.195682
v 0.931925 0.320234 0.197932
v 0.929810 0.319464 0.195682
v 0.963597 0.425976 0.173401
v 0.929135 0.413538 0.173372
v 0.927021 0.412769 0.171122
v 0.997991 0.438600 0.173372
v 1.000106 0.439370 0.171122
v 1.157564 0.236456 0.123300
v 1.158287 0.238989 0.123452
v 1.157564 0.236456 0.056250
v 1.156295 0.238063 0.054927
v 1.158409 0.238833 0.057177
v 1.047197 0.196286 0.056250
v 1.046502 0.198197 0.054967
v 0.936830 0.156116 0.056250
v 0.934656 0.157393 0.057177
v 0.936830 0.156116 0.123300
v 0.934649 0.157592 0.123452
v 0.931925 0.320234 0.167782
v 0.929810 0.319464 0.170032
v 1.055829 0.365331 0.167782
v 1.057944 0.366101 0.170032
v 0.963597 0.425976 0.143251
v 0.997991 0.438600 0.143222
v 1.000106 0.439370 0.145472
v 0.929135 0.413538 0.143222
v 0.927021 0.412769 0.145472
v 1.147345 0.252850 0.065250
v 1.145231 0.252080 0.063000
v 1.000106 0.439370 0.158297
v 0.996642 0.440312 0.157725
v 0.929068 0.415717 0.157725
v 0.927021 0.412769 0.158297
v 0.934121 0.175243 0.065250
v 0.936236 0.176012 0.063000
v 1.034066 0.232365 0.179622
v 1.034244 0.231874 0.178383
v 1.134146 0.267862 0.178978
v 1.132176 0.268457 0.180138
v 1.126253 0.279097 0.187273
v 1.115884 0.289230 0.192217
v 1.114946 0.291771 0.192982
v 1.024625 0.258303 0.192487
v 0.932737 0.224092 0.194547
v 0.933264 0.224849 0.193406
v 0.934819 0.224036 0.192378
v 0.933203 0.208469 0.187666
v 0.935759 0.196230 0.178997
v 0.934736 0.195216 0.178702
v 0.933848 0.194136 0.125924
v 0.935523 0.195588 0.073001
v 0.934605 0.195263 0.073929
v 1.034364 0.231544 0.072982
v 1.134106 0.267876 0.073929
v 1.133194 0.267534 0.073001
v 1.137643 0.264672 0.207017
v 1.157267 0.236626 0.191596
v 1.158251 0.237080 0.190943
v 1.046686 0.197690 0.193219
v 1.047102 0.196548 0.191615
v 0.936949 0.156437 0.191596
v 0.934730 0.190262 0.207608
v 0.934751 0.225553 0.222654
v 1.025139 0.256891 0.222512
v 1.115412 0.291596 0.222475
v 1.115448 0.289779 0.222531
v 1.057655 0.365996 0.196818
v 0.930858 0.319845 0.197626
v 0.928938 0.415373 0.171747
v 0.928036 0.413368 0.173014
v 0.962957 0.427735 0.171768
v 0.999679 0.439463 0.172214
v 1.158442 0.237083 0.123321
v 1.157356 0.236457 0.055731
v 1.156908 0.237281 0.054813
v 1.158374 0.237058 0.056610
v 1.046994 0.196844 0.054942
v 1.046686 0.197690 0.054791
v 0.935824 0.156056 0.056610
v 0.936734 0.157632 0.054784
v 0.936909 0.156786 0.054993
v 0.935316 0.156226 0.123345
v 0.930430 0.319689 0.168441
v 1.057655 0.365996 0.168897
v 0.996997 0.440135 0.143886
v 0.999035 0.438922 0.143581
v 0.962883 0.427938 0.144323
v 0.928128 0.413114 0.143581
v 0.928929 0.415580 0.144355
v 1.133176 0.268467 0.180338
v 1.116049 0.290219 0.192718
v 0.933224 0.224126 0.193373
v 0.934440 0.195424 0.179816
v 0.934616 0.195047 0.072861
v 1.134652 0.267577 0.072536
v 1.158441 0.237877 0.192228
v 0.935218 0.156649 0.192244
v 0.936269 0.157387 0.193111
v 0.933823 0.224057 0.222459
v 1.116642 0.290894 0.222175
v 0.928002 0.414802 0.171778
v 0.998903 0.440062 0.171925
v 0.997352 0.440417 0.171245
v 1.158243 0.238466 0.055891
v 0.935717 0.157492 0.055159
v 0.998289 0.439772 0.143536
v 0.927844 0.414390 0.143850
v 0.945937 0.313199 0.091433
v 0.947854 0.313896 0.092311
v 0.947854 0.313896 0.095578
v 0.945937 0.313199 0.096457
v 0.935952 0.309565 0.096457
v 0.934035 0.308867 0.095578
v 0.934035 0.308867 0.092311
v 0.935952 0.309565 0.091433
v 1.059602 0.354569 0.091433
v 1.061519 0.355267 0.092311
v 1.061519 0.355267 0.095578
v 1.059602 0.354569 0.096457
v 1.049618 0.350935 0.096457
v 1.047701 0.350238 0.095578
v 1.047701 0.350238 0.092311
v 1.049618 0.350935 0.091433
v 0.970349 0.209097 0.092311
v 0.970349 0.209097 0.095578
v 0.972266 0.209795 0.096457
v 0.982250 0.213429 0.096457
v 0.984167 0.214126 0.095578
v 0.984167 0.214126 0.092311
v 0.982250 0.213429 0.091433
v 0.972266 0.209795 0.091433
v 1.084014 0.250468 0.092311
v 1.084014 0.250468 0.095578
v 1.085931 0.251165 0.096457
v 1.095915 0.254799 0.096457
v 1.097832 0.255497 0.095578
v 1.097832 0.255497 0.092311
v 1.085931 0.251165 0.091433
v 1.095915 0.254799 0.091433
v 1.029581 0.244687 -0.186458
v 1.034269 0.231807 -0.126000
v 1.036048 0.226918 -0.207832
v 0.993877 0.342782 -0.197932
v 0.993877 0.342782 -0.167782
v 1.147345 0.252850 -0.186300
v 1.147345 0.252850 -0.124650
v 1.117128 0.291129 -0.207990
v 1.132235 0.271994 -0.197145
v 1.057944 0.366101 -0.182858
v 0.932664 0.223989 -0.207990
v 0.929810 0.319464 -0.182858
v 0.934121 0.175243 -0.186300
v 0.933391 0.199620 -0.197145
v 0.934121 0.175243 -0.124650
v 1.040733 0.214046 -0.063000
v 0.962855 0.428014 -0.157725
v 1.047197 0.196286 -0.123300
v 1.033573 0.233718 -0.180959
v 1.034269 0.231807 -0.177750
v 1.131624 0.269319 -0.180919
v 1.136340 0.266793 -0.180679
v 1.132897 0.267704 -0.177750
v 1.123954 0.279036 -0.186458
v 1.025592 0.255647 -0.191956
v 1.024154 0.259597 -0.192314
v 1.113665 0.292071 -0.192343
v 1.117128 0.291129 -0.195165
v 0.934711 0.226937 -0.192343
v 0.935207 0.210338 -0.186458
v 0.935578 0.197964 -0.180919
v 0.935641 0.195909 -0.177750
v 0.933589 0.192998 -0.180679
v 1.132897 0.267704 -0.126000
v 1.136403 0.266710 -0.125848
v 0.935641 0.195909 -0.126000
v 0.933594 0.192894 -0.125848
v 0.935641 0.195909 -0.074250
v 0.935701 0.193862 -0.071073
v 0.933587 0.193092 -0.073323
v 1.034269 0.231807 -0.074250
v 1.034965 0.229895 -0.071033
v 1.132897 0.267704 -0.074250
v 1.136281 0.266867 -0.073323
v 1.134167 0.266098 -0.071073
v 1.136291 0.263404 -0.207832
v 1.137454 0.265379 -0.206186
v 1.156290 0.238071 -0.193513
v 1.157564 0.236456 -0.190350
v 1.158350 0.238907 -0.191921
v 1.046499 0.198206 -0.193552
v 1.047197 0.196286 -0.190350
v 0.936769 0.158172 -0.193513
v 0.934653 0.157488 -0.191921
v 0.936830 0.156116 -0.190350
v 0.935805 0.190433 -0.207832
v 0.933645 0.191198 -0.206186
v 1.025595 0.255639 -0.222113
v 1.024154 0.259597 -0.222464
v 0.934840 0.222703 -0.222152
v 0.934711 0.226937 -0.222493
v 0.932664 0.223989 -0.220815
v 1.116288 0.288744 -0.222152
v 1.117128 0.291129 -0.220815
v 1.113665 0.292071 -0.222493
v 1.055829 0.365331 -0.197932
v 1.057944 0.366101 -0.195682
v 0.931925 0.320234 -0.197932
v 0.929810 0.319464 -0.195682
v 0.963597 0.425976 -0.173401
v 0.929135 0.413538 -0.173372
v 0.927021 0.412769 -0.171122
v 0.997991 0.438600 -0.173372
v 1.000106 0.439370 -0.171122
v 1.157564 0.236456 -0.123300
v 1.158287 0.238989 -0.123452
v 1.157564 0.236456 -0.056250
v 1.156295 0.238063 -0.054927
v 1.158409 0.238833 -0.057177
v 1.047197 0.196286 -0.056250
v 1.046502 0.198197 -0.054967
v 0.936830 0.156116 -0.056250
v 0.934656 0.157393 -0.057177
v 0.936830 0.156116 -0.123300
v 0.934649 0.157592 -0.123452
v 0.931925 0.320234 -0.167782
v 0.929810 0.319464 -0.170032
v 1.055829 0.365331 -0.167782
v 1.057944 0.366101 -0.170032
v 0.963597 0.425976 -0.143251
v 0.997991 0.438600 -0.143222
v 1.000106 0.439370 -0.145472
v 0.929135 0.413538 -0.143222
v 0.927021 0.412769 -0.145472
v 1.147345 0.252850 -0.065250
v 1.145231 0.252080 -0.063000
v 1.000106 0.439370 -0.158297
v 0.996642 0.440312 -0.157725
v 0.929068 0.415717 -0.157725
v 0.927021 0.412769 -0.158297
v 0.934121 0.175243 -0.065250
v 0.936236 0.176012 -0.063000
v 1.034066 0.232365 -0.179622
v 1.034244 0.231874 -0.178383
v 1.134146 0.267862 -0.178978
v 1.132176 0.268457 -0.180138
v 1.126253 0.279097 -0.187273
v 1.115884 0.289230 -0.192217
v 1.114946 0.291771 -0.192982
v 1.024625 0.258303 -0.192487
v 0.932737 0.224092 -0.194547
v 0.933264 0.224849 -0.193406
v 0.934819 0.224036 -0.192378
v 0.933203 0.208469 -0.187666
v 0.935759 0.196230 -0.178997
v 0.934736 0.195216 -0.178702
v 0.933848 0.194136 -0.125924
v 0.935523 0.195588 -0.073001
v 0.934605 0.195263 -0.073929
v 1.034364 0.231544 -0.072982
v 1.134106 0.267876 -0.073929
v 1.133194 0.267534 -0.073001
v 1.137643 0.264672 -0.207017
v 1.157267 0.236626 -0.191596
v 1.158251 0.237080 -0.190943
v 1.046686 0.197690 -0.193219
v 1.047102 0.196548 -0.191615
v 0.936949 0.156437 -0.191596
v 0.934730 0.190262 -0.207608
v 0.934751 0.225553 -0.222654
v 1.025139 0.256891 -0.222512
v 1.115412 0.291596 -0.222475
v 1.115448 0.289779 -0.222531
v 1.057655 0.365996 -0.196818
v 0.930858 0.319845 -0.197626
v 0.928938 0.415373 -0.171747
v 0.928036 0.413368 -0.173014
v 0.962957 0.427735 -0.171768
v 0.999679 0.439463 -0.172214
v 1.158442 0.237083 -0.123321
v 1.157356 0.236457 -0.055731
v 1.156908 0.237281 -0.054813
v 1.158374 0.237058 -0.056610
v 1.046994 0.196844 -0.054942
v 1.046686 0.197690 -0.054791
v 0.935824 0.156056 -0.056610
v 0.936734 0.157632 -0.054784
v 0.936909 0.156786 -0.054993
v 0.935316 0.156226 -0.123345
v 0.930430 0.319689 -0.168441
v 1.057655 0.365996 -0.168897
v 0.996997 0.440135 -0.143886
v 0.999035 0.438922 -0.143581
v 0.962883 0.427938 -0.144323
v 0.928128 0.413114 -0.143581
v 0.928929 0.415580 -0.144355
v 1.133176 0.268467 -0.180338
v 1.116049 0.290219 -0.192718
v 0.933224 0.224126 -0.193373
v 0.934440 0.195424 -0.179816
v 0.934616 0.195047 -0.072861
v 1.134652 0.267577 -0.072536
v 1.158441 0.237877 -0.192228
v 0.935218 0.156649 -0.192244
v 0.936269 0.157387 -0.193111
v 0.933823 0.224057 -0.222459
v 1.116642 0.290894 -0.222175
v 0.928002 0.414802 -0.171778
v 0.998903 0.440062 -0.171925
v 0.997352 0.440417 -0.171245
v 1.158243 0.238466 -0.055891
v 0.935717 0.157492 -0.055159
v 0.998289 0.439772 -0.143536
v 0.927844 0.414390 -0.143850
v 0.945937 0.313199 -0.091433
v 0.947854 0.313896 -0.092311
v 0.947854 0.313896 -0.095578
v 0.945937 0.313199 -0.096457
v 0.935952 0.309565 -0.096457
v 0.934035 0.308867 -0.095578
v 0.934035 0.308867 -0.092311
v 0.935952 0.309565 -0.091433
v 1.059602 0.354569 -0.091433
v 1.061519 0.355267 -0.092311
v 1.061519 0.355267 -0.095578
v 1.059602 0.354569 -0.096457
v 1.049618 0.350935 -0.096457
v 1.047701 0.350238 -0.095578
v 1.047701 0.350238 -0.092311
v 1.049618 0.350935 -0.091433
v 0.970349 0.209097 -0.092311
v 0.970349 0.209097 -0.095578
v 0.972266 0.209795 -0.096457
v 0.982250 0.213429 -0.096457
v 0.984167 0.214126 -0.095578
v 0.984167 0.214126 -0.092311
v 0.982250 0.213429 -0.091433
v 0.972266 0.209795 -0.091433
v 1.084014 0.250468 -0.092311
v 1.084014 0.250468 -0.095578
v 1.085931 0.251165 -0.096457
v 1.095915 0.254799 -0.096457
v 1.097832 0.255497 -0.095578
v 1.097832 0.255497 -0.092311
v 1.085931 0.251165 -0.091433
v 1.095915 0.254799 -0.091433
f 177 176 175
f 177 175 182
f 177 182 181
f 177 181 180
f 177 180 179
f 177 179 178
f 185 184 183
f 185 183 190
f 185 190 189
f 185 189 188
f 185 188 187
f 185 187 186
f 193 195 194
f 193 196 195
f 193 197 196
f 193 198 197
f 193 191 198
f 193 192 191
f 201 203 202
f 201 204 203
f 201 206 204
f 201 205 206
f 201 199 205
f 201 200 199
f 381 382 383
f 381 383 384
f 381 384 385
f 381 385 386
f 381 386 387
f 381 387 388
f 389 390 391
f 389 391 392
f 389 392 393
f 389 393 394
f 389 394 395
f 389 395 396
f 403 401 402
f 403 400 401
f 403 399 400
f 403 398 399
f 403 397 398
f 403 404 397
f 412 409 410
f 412 408 409
f 412 407 408
f 412 406 407
f 412 405 406
f 412 411 405
f 24 21 19
f 108 24 1
f 1 30 113
f 19 31 30
f 23 34 2
f 2 36 32
f 41 38 36
f 34 43 41
f 51 48 46
f 56 53 51
f 60 56 3
f 3 46 63
f 59 65 66
f 68 61 59
f 71 68 4
f 4 66 73
f 18 75 49
f 80 77 75
f 84 82 80
f 55 84 18
f 26 29 86
f 88 27 26
f 91 88 5
f 5 86 93
f 6 7 35
f 7 95 44
f 76 79 95
f 50 76 7
f 47 50 6
f 47 9 8
f 9 107 28
f 9 6 22
f 64 8 10
f 67 10 97
f 10 89 92
f 8 28 89
f 17 99 136
f 154 156 99
f 98 152 154
f 170 98 17
f 12 11 62
f 87 111 11
f 94 87 12
f 100 12 69
f 13 54 57
f 33 13 14
f 111 114 14
f 11 14 57
f 15 85 54
f 101 83 85
f 40 101 15
f 37 15 13
f 45 96 16
f 16 102 39
f 81 147 102
f 96 78 81
f 21 106 103
f 24 107 157
f 108 158 24
f 25 110 108
f 30 114 159
f 31 160 30
f 19 103 31
f 23 105 34
f 105 22 35
f 20 104 23
f 104 103 106
f 32 115 104
f 36 117 116
f 38 119 36
f 41 120 118
f 43 122 41
f 34 35 121
f 48 163 123
f 51 126 48
f 126 127 124
f 53 165 126
f 165 128 127
f 56 129 53
f 60 166 56
f 166 62 129
f 58 131 60
f 63 133 131
f 46 123 167
f 65 132 134
f 59 131 133
f 61 130 59
f 68 135 61
f 71 137 68
f 70 138 136
f 73 170 70
f 66 134 73
f 49 124 52
f 75 140 125
f 77 143 140
f 80 144 141
f 82 148 144
f 84 149 146
f 55 164 149
f 52 127 128
f 29 112 86
f 26 110 29
f 27 108 110
f 88 151 109
f 91 153 88
f 86 150 155
f 44 121 35
f 79 171 95
f 76 140 143
f 50 125 76
f 47 123 163
f 64 167 123
f 22 157 107
f 67 134 64
f 97 98 169
f 74 139 134
f 92 173 97
f 89 151 92
f 28 109 151
f 156 174 99
f 154 90 93
f 170 169 98
f 62 61 135
f 87 150 111
f 94 155 150
f 100 99 174
f 69 135 137
f 72 168 100
f 54 164 57
f 111 159 114
f 57 129 62
f 85 149 54
f 83 146 149
f 101 102 172
f 40 161 101
f 37 117 40
f 33 116 117
f 45 162 96
f 42 120 122
f 39 118 120
f 147 172 102
f 81 145 147
f 145 144 148
f 78 142 145
f 96 95 171
f 157 105 23
f 23 106 157
f 157 106 21
f 105 157 22
f 27 109 158
f 109 28 158
f 159 112 29
f 29 113 159
f 160 115 32
f 116 33 160
f 31 115 160
f 161 119 38
f 38 118 161
f 118 39 161
f 40 119 161
f 162 122 43
f 121 44 162
f 45 122 162
f 125 124 49
f 125 50 163
f 48 124 163
f 55 128 164
f 128 165 164
f 61 62 166
f 60 130 166
f 64 132 167
f 167 133 63
f 72 137 168
f 168 137 71
f 71 136 168
f 169 139 74
f 169 170 73
f 73 139 169
f 171 142 78
f 171 143 77
f 79 143 171
f 141 142 171
f 148 82 172
f 82 146 172
f 146 83 172
f 147 148 172
f 173 153 91
f 92 153 173
f 91 152 173
f 93 155 174
f 155 94 174
f 156 93 174
f 175 197 198
f 196 197 175
f 195 196 176
f 194 195 177
f 194 178 179
f 180 192 193
f 181 191 192
f 182 198 191
f 206 205 190
f 204 206 183
f 203 204 184
f 202 203 185
f 201 202 186
f 188 200 201
f 189 199 200
f 190 205 199
f 225 227 230
f 207 230 314
f 319 236 207
f 236 237 225
f 208 240 229
f 238 242 208
f 242 244 247
f 247 249 240
f 252 254 257
f 257 259 262
f 209 262 266
f 269 252 209
f 272 271 265
f 265 267 274
f 210 274 277
f 279 272 210
f 255 281 224
f 281 283 286
f 286 288 290
f 224 290 261
f 292 235 232
f 232 233 294
f 211 294 297
f 299 292 211
f 241 213 212
f 250 301 213
f 301 285 282
f 213 282 256
f 212 256 253
f 214 215 253
f 234 313 215
f 228 212 215
f 216 214 270
f 303 216 273
f 298 295 216
f 295 234 214
f 342 305 223
f 305 362 360
f 360 358 304
f 223 304 376
f 268 217 218
f 217 317 293
f 218 293 300
f 275 218 306
f 263 260 219
f 220 219 239
f 220 320 317
f 263 220 217
f 260 291 221
f 291 289 307
f 221 307 246
f 219 221 243
f 222 302 251
f 245 308 222
f 308 353 287
f 287 284 302
f 309 312 227
f 363 313 230
f 230 364 314
f 314 316 231
f 365 320 236
f 236 366 237
f 237 309 225
f 240 311 229
f 241 228 311
f 229 310 226
f 312 309 310
f 310 321 238
f 322 323 242
f 242 325 244
f 324 326 247
f 247 328 249
f 327 241 240
f 329 369 254
f 254 332 257
f 330 333 332
f 332 371 259
f 333 334 371
f 259 335 262
f 262 372 266
f 335 268 372
f 266 337 264
f 337 339 269
f 373 329 252
f 340 338 271
f 339 337 265
f 265 336 267
f 267 341 274
f 274 343 277
f 342 344 276
f 276 376 279
f 279 340 272
f 258 330 255
f 331 346 281
f 346 349 283
f 347 350 286
f 350 354 288
f 352 355 290
f 355 370 261
f 334 333 258
f 292 318 235
f 235 316 232
f 316 314 233
f 315 357 294
f 294 359 297
f 361 356 292
f 241 327 250
f 301 377 285
f 349 346 282
f 282 331 256
f 369 329 253
f 329 373 270
f 313 363 228
f 270 340 273
f 375 304 303
f 340 345 280
f 303 379 298
f 298 357 295
f 357 315 234
f 305 380 362
f 299 296 360
f 304 375 376
f 341 267 268
f 317 356 293
f 356 361 300
f 380 305 306
f 343 341 275
f 306 374 278
f 263 370 260
f 320 365 317
f 268 335 263
f 260 355 291
f 355 352 289
f 378 308 307
f 307 367 246
f 246 323 243
f 323 322 239
f 302 368 251
f 328 326 248
f 326 324 245
f 308 378 353
f 353 351 287
f 354 350 351
f 351 348 284
f 377 301 302
f 229 311 363
f 363 312 229
f 227 312 363
f 364 315 233
f 364 234 315
f 235 318 365
f 365 319 235
f 318 317 365
f 238 321 366
f 366 239 322
f 366 321 237
f 244 325 367
f 367 324 244
f 367 245 324
f 367 325 246
f 249 328 368
f 368 250 327
f 368 328 251
f 255 330 331
f 369 256 331
f 369 330 254
f 370 334 261
f 370 371 334
f 372 268 267
f 372 336 266
f 373 338 270
f 269 339 373
f 374 343 278
f 277 343 374
f 374 342 277
f 280 345 375
f 279 376 375
f 375 345 279
f 284 348 377
f 283 349 377
f 377 349 285
f 377 348 347
f 378 288 354
f 378 352 288
f 378 289 352
f 378 354 353
f 297 359 379
f 379 359 298
f 379 358 297
f 380 361 299
f 380 300 361
f 380 299 362
f 404 403 381
f 381 403 402
f 382 402 401
f 383 401 400
f 385 384 400
f 399 398 386
f 398 397 387
f 397 404 388
f 396 411 412
f 389 412 410
f 390 410 409
f 391 409 408
f 392 408 407
f 407 406 394
f 406 405 395
f 405 411 396
f 24 19 1
f 108 1 25
f 1 113 25
f 19 30 1
f 23 2 20
f 2 32 20
f 41 36 2
f 34 41 2
f 51 46 3
f 56 51 3
f 60 3 58
f 3 63 58
f 59 66 4
f 68 59 4
f 71 4 70
f 4 73 70
f 18 49 52
f 80 75 18
f 84 80 18
f 55 18 52
f 26 86 5
f 88 26 5
f 91 5 90
f 5 93 90
f 6 35 22
f 7 44 35
f 76 95 7
f 50 7 6
f 47 6 9
f 47 8 64
f 9 28 8
f 9 22 107
f 64 10 67
f 67 97 74
f 10 92 97
f 8 89 10
f 17 136 138
f 154 99 17
f 98 154 17
f 170 17 138
f 12 62 69
f 87 11 12
f 94 12 100
f 100 69 72
f 13 57 14
f 33 14 114
f 111 14 11
f 11 57 62
f 15 54 13
f 101 85 15
f 40 15 37
f 37 13 33
f 45 16 42
f 16 39 42
f 81 102 16
f 96 81 16
f 21 103 19
f 24 157 21
f 158 107 24
f 113 110 25
f 30 159 113
f 160 114 30
f 103 115 31
f 105 35 34
f 104 106 23
f 32 104 20
f 115 103 104
f 36 116 32
f 119 117 36
f 41 118 38
f 122 120 41
f 34 121 43
f 48 123 46
f 126 124 48
f 53 126 51
f 165 127 126
f 129 164 53
f 166 129 56
f 131 130 60
f 63 131 58
f 46 167 63
f 65 134 66
f 59 133 65
f 130 131 59
f 137 135 68
f 70 136 71
f 170 138 70
f 134 139 73
f 124 127 52
f 75 125 49
f 77 140 75
f 80 141 77
f 144 142 141
f 82 144 80
f 84 146 82
f 55 149 84
f 52 128 55
f 112 150 86
f 110 113 29
f 27 110 26
f 88 109 27
f 153 151 88
f 90 152 91
f 86 155 93
f 95 162 44
f 76 143 79
f 125 140 76
f 47 163 50
f 64 123 47
f 107 158 28
f 134 132 64
f 97 169 74
f 74 134 67
f 173 98 97
f 151 153 92
f 28 151 89
f 99 168 136
f 154 93 156
f 152 90 154
f 98 173 152
f 62 135 69
f 150 112 111
f 94 150 87
f 100 174 94
f 69 137 72
f 168 99 100
f 164 129 57
f 114 160 33
f 149 164 54
f 83 149 85
f 101 172 83
f 161 102 101
f 117 119 40
f 33 117 37
f 162 95 96
f 42 122 45
f 39 120 42
f 102 161 39
f 145 148 147
f 78 145 81
f 142 144 145
f 96 171 78
f 108 27 158
f 112 159 111
f 32 116 160
f 162 43 121
f 124 125 163
f 53 164 165
f 130 61 166
f 132 65 167
f 133 167 65
f 171 77 141
f 175 198 182
f 196 175 176
f 195 176 177
f 194 177 178
f 194 179 193
f 180 193 179
f 181 192 180
f 182 191 181
f 206 190 183
f 204 183 184
f 203 184 185
f 202 185 186
f 201 186 187
f 188 201 187
f 189 200 188
f 190 199 189
f 225 230 207
f 207 314 231
f 319 207 231
f 236 225 207
f 208 229 226
f 238 208 226
f 242 247 208
f 247 240 208
f 252 257 209
f 257 262 209
f 209 266 264
f 269 209 264
f 272 265 210
f 265 274 210
f 210 277 276
f 279 210 276
f 255 224 258
f 281 286 224
f 286 290 224
f 224 261 258
f 292 232 211
f 232 294 211
f 211 297 296
f 299 211 296
f 241 212 228
f 250 213 241
f 301 282 213
f 213 256 212
f 212 253 215
f 214 253 270
f 234 215 214
f 228 215 313
f 216 270 273
f 303 273 280
f 298 216 303
f 295 214 216
f 342 223 344
f 305 360 223
f 360 304 223
f 223 376 344
f 268 218 275
f 217 293 218
f 218 300 306
f 275 306 278
f 263 219 220
f 220 239 320
f 220 317 217
f 263 217 268
f 260 221 219
f 291 307 221
f 221 246 243
f 219 243 239
f 222 251 248
f 245 222 248
f 308 287 222
f 287 302 222
f 309 227 225
f 363 230 227
f 313 364 230
f 316 319 231
f 365 236 319
f 320 366 236
f 321 309 237
f 241 311 240
f 312 310 229
f 310 238 226
f 309 321 310
f 322 242 238
f 323 325 242
f 324 247 244
f 326 328 247
f 327 240 249
f 329 254 252
f 330 332 254
f 332 259 257
f 333 371 332
f 370 335 259
f 335 372 262
f 336 337 266
f 337 269 264
f 373 252 269
f 340 271 272
f 339 265 271
f 337 336 265
f 341 343 274
f 342 276 277
f 344 376 276
f 345 340 279
f 333 330 258
f 331 281 255
f 346 283 281
f 347 286 283
f 348 350 347
f 350 288 286
f 352 290 288
f 355 261 290
f 334 258 261
f 356 318 292
f 319 316 235
f 316 233 232
f 315 294 233
f 357 359 294
f 358 296 297
f 361 292 299
f 368 301 250
f 349 282 285
f 346 331 282
f 369 253 256
f 329 270 253
f 364 313 234
f 338 340 270
f 375 303 280
f 340 280 273
f 304 379 303
f 359 357 298
f 357 234 295
f 374 305 342
f 299 360 362
f 296 358 360
f 379 304 358
f 341 268 275
f 318 356 317
f 356 300 293
f 380 306 300
f 343 275 278
f 305 374 306
f 335 370 263
f 366 320 239
f 370 355 260
f 355 289 291
f 378 307 289
f 308 367 307
f 325 323 246
f 323 239 243
f 301 368 302
f 328 248 251
f 326 245 248
f 367 308 245
f 354 351 353
f 351 284 287
f 350 348 351
f 377 302 284
f 311 228 363
f 233 314 364
f 322 238 366
f 249 368 327
f 331 330 369
f 370 259 371
f 267 336 372
f 271 338 373
f 373 339 271
f 283 377 347
f 404 381 388
f 381 402 382
f 382 401 383
f 383 400 384
f 385 400 399
f 399 386 385
f 398 387 386
f 397 388 387
f 396 412 389
f 389 410 390
f 390 409 391
f 391 408 392
f 392 407 393
f 407 394 393
f 406 395 394
f 405 396 395
