# CC0 David Gian-Cursio 2021; original authored material surfaces.
o chevron-v-frame
v 0.073630 2.727855 -0.131383
v 0.155572 2.727855 -0.131383
v 0.140620 2.933919 -0.176876
v 0.269555 2.933919 -0.176876
v 0.164191 2.933919 -0.176876
v 0.099590 2.746593 -0.135519
v 0.106050 2.765322 -0.139655
v 0.112510 2.784060 -0.143790
v 0.118970 2.802789 -0.147926
v 0.125430 2.821518 -0.152062
v 0.131891 2.840256 -0.156198
v 0.138351 2.858985 -0.160333
v 0.144811 2.877723 -0.164470
v 0.151271 2.896452 -0.168605
v 0.157731 2.915181 -0.172741
v 0.079720 2.746593 -0.135519
v 0.165935 2.746593 -0.135519
v 0.085810 2.765322 -0.139655
v 0.176296 2.765322 -0.139655
v 0.091900 2.784060 -0.143790
v 0.186659 2.784060 -0.143790
v 0.097990 2.802789 -0.147926
v 0.197021 2.802789 -0.147926
v 0.104080 2.821518 -0.152062
v 0.207383 2.821518 -0.152062
v 0.110170 2.840256 -0.156198
v 0.217745 2.840256 -0.156198
v 0.116260 2.858985 -0.160333
v 0.228108 2.858985 -0.160333
v 0.238469 2.877723 -0.164470
v 0.122351 2.877723 -0.164470
v 0.128440 2.896452 -0.168605
v 0.248832 2.896452 -0.168605
v 0.134530 2.915181 -0.172741
v 0.259194 2.915181 -0.172741
v -0.134530 2.915181 -0.172741
v -0.140620 2.933919 -0.176876
v -0.157731 2.915181 -0.172741
v -0.164191 2.933919 -0.176876
v -0.259194 2.915181 -0.172741
v -0.269555 2.933919 -0.176876
v -0.128440 2.896452 -0.168605
v -0.122351 2.877723 -0.164470
v -0.116260 2.858985 -0.160333
v -0.138351 2.858985 -0.160333
v -0.151271 2.896452 -0.168605
v -0.144811 2.877723 -0.164470
v -0.238469 2.877723 -0.164470
v -0.228108 2.858985 -0.160333
v -0.248832 2.896452 -0.168605
v -0.104080 2.821518 -0.152062
v -0.110170 2.840256 -0.156198
v -0.131891 2.840256 -0.156198
v -0.125430 2.821518 -0.152062
v -0.207383 2.821518 -0.152062
v -0.217745 2.840256 -0.156198
v -0.097990 2.802789 -0.147926
v -0.091900 2.784060 -0.143790
v -0.085810 2.765322 -0.139655
v -0.106050 2.765322 -0.139655
v -0.118970 2.802789 -0.147926
v -0.112510 2.784060 -0.143790
v -0.176296 2.765322 -0.139655
v -0.197021 2.802789 -0.147926
v -0.186659 2.784060 -0.143790
v 0.093130 2.727855 -0.131383
v -0.079720 2.746593 -0.135519
v -0.099590 2.746593 -0.135519
v -0.073630 2.727855 -0.131383
v -0.093130 2.727855 -0.131383
v -0.165935 2.746593 -0.135519
v -0.155572 2.727855 -0.131383
v 0.058905 2.628612 -0.109472
v -0.058905 2.628612 -0.109472
v -0.170640 2.952621 -0.181005
v -0.136120 2.933919 -0.176876
v -0.274055 2.933919 -0.176876
v -0.075220 2.746593 -0.135519
v -0.170435 2.746593 -0.135519
v -0.099590 2.746593 -0.161518
v -0.099066 2.746593 -0.162065
v -0.099338 2.746593 -0.162018
v -0.099523 2.746593 -0.161832
v -0.099662 2.746593 -0.161854
v -0.099860 2.746593 -0.162103
v -0.100151 2.746593 -0.162240
v 0.170640 2.952621 -0.181005
v 0.136120 2.933919 -0.176876
v 0.274055 2.933919 -0.176876
v 0.075220 2.746593 -0.135519
v 0.170435 2.746593 -0.135519
v 0.099590 2.746593 -0.161518
v 0.099066 2.746593 -0.162065
v 0.099338 2.746593 -0.162018
v 0.099523 2.746593 -0.161832
v 0.099662 2.746593 -0.161854
v 0.099860 2.746593 -0.162103
v 0.100151 2.746593 -0.162240
v 0.081310 2.765322 -0.139655
v 0.087400 2.784060 -0.143790
v 0.093490 2.802789 -0.147926
v 0.099580 2.821518 -0.152062
v 0.105670 2.840256 -0.156198
v 0.111760 2.858985 -0.160333
v 0.117851 2.877723 -0.164470
v 0.123940 2.896452 -0.168605
v 0.130030 2.915181 -0.172741
v 0.180796 2.765322 -0.139655
v 0.191159 2.784060 -0.143790
v 0.201521 2.802789 -0.147926
v 0.211883 2.821518 -0.152062
v 0.222245 2.840256 -0.156198
v 0.232608 2.858985 -0.160333
v 0.242969 2.877723 -0.164470
v 0.253331 2.896452 -0.168605
v 0.263694 2.915181 -0.172741
v -0.130030 2.915181 -0.172741
v -0.263694 2.915181 -0.172741
v -0.123940 2.896452 -0.168605
v -0.117851 2.877723 -0.164470
v -0.111760 2.858985 -0.160333
v -0.242969 2.877723 -0.164470
v -0.232608 2.858985 -0.160333
v -0.253331 2.896452 -0.168605
v -0.105670 2.840256 -0.156198
v -0.099580 2.821518 -0.152062
v -0.211883 2.821518 -0.152062
v -0.222245 2.840256 -0.156198
v -0.093490 2.802789 -0.147926
v -0.087400 2.784060 -0.143790
v -0.081310 2.765322 -0.139655
v -0.201521 2.802789 -0.147926
v -0.191159 2.784060 -0.143790
v -0.180796 2.765322 -0.139655
v 0.160072 2.727855 -0.131383
v 0.069130 2.727855 -0.131383
v -0.069130 2.727855 -0.131383
v -0.160072 2.727855 -0.131383
v -0.145980 2.821680 -0.124197
v -0.151020 2.821680 -0.124197
v -0.151020 2.839860 -0.128210
v -0.145980 2.839860 -0.128210
v 0.145980 2.821680 -0.124197
v 0.145980 2.839860 -0.128210
v 0.151020 2.839860 -0.128210
v 0.151020 2.821680 -0.124197
v 0.151020 2.839860 -0.156110
v 0.151020 2.821680 -0.152097
v 0.145980 2.821680 -0.152097
v 0.145980 2.839860 -0.156110
v -0.151020 2.839860 -0.156110
v -0.145980 2.839860 -0.156110
v -0.145980 2.821680 -0.152097
v -0.151020 2.821680 -0.152097
v 0.007614 2.629260 -0.134608
v 0.063793 2.554506 -0.106620
v -0.063713 2.554362 -0.106588
v 0.000816 2.637360 -0.132820
v -0.000759 2.637441 -0.132805
v 0.000859 2.637765 -0.132895
v -0.000817 2.637819 -0.132884
v 0.000893 2.638188 -0.132917
v -0.000860 2.638233 -0.132908
v 0.000844 2.553255 -0.100649
v -0.000891 2.553255 -0.100688
v 0.000790 2.553435 -0.100953
v -0.000845 2.553435 -0.100998
v 0.000740 2.553696 -0.101202
v -0.000791 2.553696 -0.101244
v 0.000439 2.637720 -0.132751
v 0.000017 2.637864 -0.132726
v -0.000399 2.637765 -0.132743
v 0.000461 2.638143 -0.132823
v 0.000012 2.638278 -0.132798
v -0.000432 2.638170 -0.132818
v -0.000380 2.637405 -0.132626
v 0.000011 2.637504 -0.132608
v 0.000407 2.637378 -0.132631
v 0.000478 2.638584 -0.132843
v 0.000010 2.638719 -0.132817
v -0.000455 2.638602 -0.132838
v -0.000396 2.554029 -0.101210
v -0.000006 2.554029 -0.101145
v 0.000381 2.554029 -0.101200
v 0.000445 2.553255 -0.100437
v -0.000014 2.553255 -0.100374
v -0.000478 2.553255 -0.100458
v 0.000416 2.553435 -0.100758
v -0.000016 2.553435 -0.100701
v -0.000454 2.553435 -0.100781
v 0.000390 2.553696 -0.101020
v -0.000015 2.553696 -0.100967
v -0.000425 2.553696 -0.101043
v -0.008212 2.628162 -0.134562
v -0.006636 2.629116 -0.134381
v -0.008309 2.628585 -0.134633
v -0.006750 2.629485 -0.134462
v 0.008226 2.628162 -0.134562
v 0.006604 2.629161 -0.134373
v 0.008332 2.628585 -0.134633
v 0.006717 2.629530 -0.134454
v 0.008496 2.628999 -0.134657
v 0.006870 2.629890 -0.134488
v -0.008456 2.628999 -0.134657
v -0.006909 2.629836 -0.134498
v 0.008302 2.553255 -0.105997
v 0.006636 2.553255 -0.105389
v 0.008226 2.553435 -0.106246
v 0.006575 2.553435 -0.105644
v -0.008324 2.553255 -0.105997
v -0.006640 2.553255 -0.105393
v -0.008238 2.553435 -0.106246
v -0.006585 2.553435 -0.105652
v -0.008183 2.553696 -0.106468
v -0.006552 2.553696 -0.105885
v 0.008177 2.553696 -0.106468
v 0.006541 2.553696 -0.105877
v -0.007773 2.627856 -0.134434
v -0.007336 2.628063 -0.134393
v -0.006919 2.628387 -0.134333
v -0.007808 2.628234 -0.134547
v -0.007376 2.628441 -0.134509
v -0.006969 2.628738 -0.134451
v 0.007814 2.628234 -0.134546
v 0.007371 2.628450 -0.134506
v 0.006951 2.628765 -0.134446
v 0.007913 2.628657 -0.134618
v 0.007470 2.628864 -0.134581
v 0.007054 2.629161 -0.134523
v 0.008064 2.629062 -0.134644
v 0.007199 2.629539 -0.134554
v -0.008042 2.629062 -0.134644
v -0.007613 2.629242 -0.134610
v -0.007219 2.629512 -0.134560
v -0.007902 2.628657 -0.134619
v -0.007473 2.628846 -0.134582
v -0.007072 2.629134 -0.134528
v -0.007755 2.554029 -0.106592
v -0.007314 2.554029 -0.106467
v -0.006893 2.554029 -0.106284
v 0.007774 2.627856 -0.134434
v 0.007333 2.628072 -0.134393
v 0.006911 2.628396 -0.134330
v 0.007885 2.553255 -0.105950
v 0.007433 2.553255 -0.105820
v 0.006999 2.553255 -0.105627
v 0.007814 2.553435 -0.106199
v 0.007367 2.553435 -0.106070
v 0.006936 2.553435 -0.105879
v -0.007899 2.553255 -0.105950
v -0.007441 2.553255 -0.105821
v -0.007003 2.553255 -0.105628
v -0.007773 2.553696 -0.106423
v -0.007330 2.553696 -0.106298
v -0.006905 2.553696 -0.106113
v -0.007823 2.553435 -0.106199
v -0.007373 2.553435 -0.106072
v -0.006943 2.553435 -0.105883
v 0.007754 2.554029 -0.106592
v 0.007312 2.554029 -0.106466
v 0.006889 2.554029 -0.106281
v 0.007769 2.553696 -0.106422
v 0.007325 2.553696 -0.106295
v 0.006898 2.553696 -0.106107
v 0.059092 2.630241 -0.134928
v 0.057740 2.629044 -0.134649
v 0.059290 2.629989 -0.134953
v 0.057889 2.628603 -0.134629
v -0.059158 2.630430 -0.134974
v -0.057712 2.629044 -0.134649
v -0.059365 2.630205 -0.135004
v -0.057870 2.628603 -0.134629
v 0.059463 2.629764 -0.134934
v 0.058000 2.628162 -0.134561
v -0.059570 2.630070 -0.135007
v -0.057985 2.628162 -0.134561
v 0.046203 2.657187 -0.129153
v 0.045008 2.656341 -0.128968
v 0.046288 2.657025 -0.129474
v 0.045060 2.656170 -0.129287
v -0.046207 2.657196 -0.129155
v -0.045027 2.656341 -0.128968
v -0.046309 2.657088 -0.129488
v -0.045088 2.656170 -0.129287
v 0.046429 2.656836 -0.129730
v 0.045150 2.655918 -0.129528
v -0.046470 2.656962 -0.129758
v -0.045179 2.655918 -0.129528
v 0.063956 2.554173 -0.105998
v 0.062546 2.553255 -0.105798
v 0.064033 2.554515 -0.106387
v 0.062535 2.553435 -0.106150
v -0.063899 2.554074 -0.105976
v -0.062546 2.553255 -0.105798
v -0.063945 2.554353 -0.106352
v -0.062534 2.553435 -0.106150
v 0.064148 2.555019 -0.106734
v 0.062518 2.553696 -0.106443
v -0.064016 2.554785 -0.106682
v -0.062518 2.553696 -0.106443
v -0.045372 2.656476 -0.115623
v -0.045718 2.656656 -0.115663
v -0.045999 2.656926 -0.115724
v 0.045999 2.656926 -0.115724
v 0.045718 2.656656 -0.115663
v 0.045372 2.656476 -0.115623
v 0.058684 2.630088 -0.134771
v 0.058356 2.629737 -0.134690
v 0.057968 2.629503 -0.134635
v 0.058857 2.629773 -0.134819
v 0.058525 2.629395 -0.134731
v 0.058138 2.629134 -0.134671
v -0.058896 2.629890 -0.134847
v -0.058536 2.629449 -0.134744
v -0.058126 2.629152 -0.134674
v -0.059075 2.629584 -0.134858
v -0.058697 2.629071 -0.134739
v -0.058280 2.628729 -0.134658
v 0.059175 2.629143 -0.134789
v 0.058804 2.628630 -0.134671
v 0.058396 2.628288 -0.134590
v 0.059031 2.629449 -0.134827
v 0.058681 2.629008 -0.134724
v 0.058285 2.628711 -0.134654
v -0.059334 2.629062 -0.134749
v -0.058906 2.628387 -0.134593
v -0.058460 2.627937 -0.134488
v -0.059240 2.629332 -0.134834
v -0.058831 2.628720 -0.134691
v -0.058396 2.628315 -0.134596
v -0.045996 2.656917 -0.128718
v -0.045716 2.656656 -0.128660
v -0.045372 2.656476 -0.128620
v 0.045370 2.656476 -0.128621
v 0.045717 2.656656 -0.128660
v 0.045999 2.656926 -0.128721
v 0.046406 2.656242 -0.129798
v 0.046086 2.655909 -0.129725
v 0.045698 2.655684 -0.129676
v -0.058703 2.630151 -0.134785
v -0.058360 2.629773 -0.134696
v -0.057957 2.629512 -0.134636
v 0.046024 2.656854 -0.129081
v 0.045740 2.656593 -0.129022
v 0.045388 2.656413 -0.128983
v -0.046028 2.656863 -0.129082
v -0.045746 2.656593 -0.129023
v -0.045400 2.656413 -0.128983
v -0.046120 2.656728 -0.129410
v -0.045828 2.656440 -0.129346
v -0.045471 2.656242 -0.129303
v 0.045451 2.656242 -0.129301
v 0.045813 2.656422 -0.129342
v 0.046105 2.656692 -0.129401
v 0.046236 2.656476 -0.129651
v 0.045930 2.656188 -0.129587
v 0.045555 2.655990 -0.129544
v -0.046424 2.656287 -0.129810
v -0.046097 2.655936 -0.129730
v -0.045707 2.655693 -0.129677
v -0.046263 2.656557 -0.129668
v -0.045951 2.656224 -0.129596
v -0.045576 2.655999 -0.129546
v 0.063656 2.553687 -0.105530
v 0.063319 2.553426 -0.105474
v 0.062936 2.553246 -0.105437
v 0.059291 2.628936 -0.134720
v 0.058886 2.628333 -0.134579
v 0.058457 2.627928 -0.134484
v -0.063773 2.554830 -0.106815
v -0.063349 2.554416 -0.106722
v -0.062906 2.554128 -0.106659
v 0.063687 2.553813 -0.105919
v 0.063332 2.553525 -0.105855
v 0.062936 2.553327 -0.105813
v 0.063729 2.554092 -0.106294
v 0.063346 2.553750 -0.106219
v 0.062932 2.553516 -0.106168
v -0.063645 2.553669 -0.105526
v -0.063314 2.553417 -0.105472
v -0.062934 2.553246 -0.105436
v -0.063652 2.553750 -0.105906
v -0.063315 2.553489 -0.105848
v -0.062932 2.553318 -0.105811
v 0.063814 2.554911 -0.106831
v 0.063368 2.554452 -0.106730
v 0.062911 2.554137 -0.106662
v 0.063369 2.554083 -0.106528
v 0.062926 2.553804 -0.106466
v -0.063330 2.554020 -0.106512
v -0.062916 2.553786 -0.106461
v -0.063676 2.553993 -0.106273
v -0.063321 2.553705 -0.106209
v -0.062925 2.553507 -0.106166
v -0.142422 2.951721 -0.194530
v -0.142160 2.951739 -0.194183
v -0.141985 2.951748 -0.193792
v -0.170836 2.951730 -0.210380
v -0.170357 2.951721 -0.210317
v -0.169887 2.951721 -0.210190
v -0.283892 2.951838 -0.193785
v -0.283666 2.951811 -0.194101
v -0.283328 2.951775 -0.194334
v -0.142586 2.952072 -0.194556
v -0.142817 2.952351 -0.194482
v -0.143085 2.952549 -0.194322
v -0.142332 2.952081 -0.194222
v -0.142590 2.952360 -0.194183
v -0.142898 2.952549 -0.194077
v -0.142101 2.952090 -0.193466
v -0.142382 2.952369 -0.193509
v -0.142727 2.952549 -0.193526
v -0.142162 2.952090 -0.193845
v -0.142438 2.952360 -0.193848
v -0.142774 2.952549 -0.193804
v -0.142901 2.952063 -0.194804
v -0.143102 2.952351 -0.194707
v -0.143325 2.952549 -0.194512
v -0.170959 2.952081 -0.210389
v -0.171065 2.952360 -0.210262
v -0.171144 2.952549 -0.210020
v -0.170490 2.952072 -0.210328
v -0.170626 2.952360 -0.210205
v -0.170746 2.952549 -0.209968
v -0.169636 2.952063 -0.210031
v -0.169821 2.952351 -0.209926
v -0.170016 2.952549 -0.209715
v -0.170031 2.952072 -0.210205
v -0.170193 2.952351 -0.210090
v -0.170355 2.952549 -0.209864
v -0.283817 2.952558 -0.193518
v -0.284010 2.952387 -0.193511
v -0.284067 2.952144 -0.193477
v -0.283772 2.952558 -0.193727
v -0.283948 2.952387 -0.193802
v -0.283993 2.952144 -0.193824
v -0.283666 2.952558 -0.193884
v -0.283784 2.952378 -0.194044
v -0.283785 2.952126 -0.194121
v -0.283496 2.952549 -0.194012
v -0.283532 2.952369 -0.194229
v -0.283476 2.952099 -0.194343
v -0.283243 2.952549 -0.194095
v -0.283206 2.952360 -0.194333
v -0.283098 2.952090 -0.194461
v -0.171499 2.952549 -0.210009
v -0.171458 2.952360 -0.210250
v -0.171379 2.952081 -0.210378
v 0.142422 2.951721 -0.194530
v 0.142160 2.951739 -0.194183
v 0.141985 2.951748 -0.193792
v 0.170836 2.951730 -0.210380
v 0.170357 2.951721 -0.210317
v 0.169887 2.951721 -0.210190
v 0.283892 2.951838 -0.193785
v 0.283666 2.951811 -0.194101
v 0.283328 2.951775 -0.194334
v 0.142586 2.952072 -0.194556
v 0.142817 2.952351 -0.194482
v 0.143085 2.952549 -0.194322
v 0.142332 2.952081 -0.194222
v 0.142590 2.952360 -0.194183
v 0.142898 2.952549 -0.194077
v 0.142101 2.952090 -0.193466
v 0.142382 2.952369 -0.193509
v 0.142727 2.952549 -0.193526
v 0.142162 2.952090 -0.193845
v 0.142438 2.952360 -0.193848
v 0.142774 2.952549 -0.193804
v 0.142901 2.952063 -0.194804
v 0.143102 2.952351 -0.194707
v 0.143325 2.952549 -0.194512
v 0.170959 2.952081 -0.210389
v 0.171065 2.952360 -0.210262
v 0.171144 2.952549 -0.210020
v 0.170490 2.952072 -0.210328
v 0.170626 2.952360 -0.210205
v 0.170746 2.952549 -0.209968
v 0.169636 2.952063 -0.210031
v 0.169821 2.952351 -0.209926
v 0.170016 2.952549 -0.209715
v 0.170031 2.952072 -0.210205
v 0.170193 2.952351 -0.210090
v 0.170355 2.952549 -0.209864
v 0.283817 2.952558 -0.193518
v 0.284010 2.952387 -0.193511
v 0.284067 2.952144 -0.193477
v 0.283772 2.952558 -0.193727
v 0.283948 2.952387 -0.193802
v 0.283993 2.952144 -0.193824
v 0.283666 2.952558 -0.193884
v 0.283784 2.952378 -0.194044
v 0.283785 2.952126 -0.194121
v 0.283496 2.952549 -0.194012
v 0.283532 2.952369 -0.194229
v 0.283476 2.952099 -0.194343
v 0.283243 2.952549 -0.194095
v 0.283206 2.952360 -0.194333
v 0.283098 2.952090 -0.194461
v 0.171499 2.952549 -0.210009
v 0.171458 2.952360 -0.210250
v 0.171379 2.952081 -0.210378
v 0.263088 2.915181 -0.186260
v 0.263403 2.915181 -0.186016
v 0.263615 2.915181 -0.185693
v 0.262702 2.915181 -0.186391
v 0.263694 2.915181 -0.185324
v 0.274055 2.933919 -0.189460
v 0.273063 2.933919 -0.190522
v 0.273978 2.933919 -0.189828
v 0.273765 2.933919 -0.190151
v 0.273450 2.933919 -0.190393
v 0.283816 2.952558 -0.180992
v 0.284008 2.952387 -0.180954
v 0.284063 2.952135 -0.180899
v 0.282928 2.951757 -0.194457
v 0.283200 2.952621 -0.193767
v 0.283368 2.952621 -0.193712
v 0.283442 2.952621 -0.193655
v 0.283478 2.952621 -0.193603
v 0.283971 2.951838 -0.193417
v 0.283500 2.952621 -0.193495
v 0.283500 2.952621 -0.181005
v 0.283964 2.951829 -0.180832
v 0.258589 2.915181 -0.181764
v 0.258904 2.915181 -0.181518
v 0.259116 2.915181 -0.181193
v 0.258204 2.915181 -0.181896
v 0.259194 2.915181 -0.180824
v 0.269478 2.933919 -0.185329
v 0.269266 2.933919 -0.185652
v 0.268950 2.933919 -0.185897
v 0.268564 2.933919 -0.186026
v 0.269555 2.933919 -0.184960
v 0.157286 2.915181 -0.201629
v 0.157754 2.915181 -0.201751
v 0.158658 2.915181 -0.201792
v 0.158231 2.915181 -0.201809
v 0.156882 2.915181 -0.201453
v 0.163343 2.933919 -0.205842
v 0.164692 2.933919 -0.206202
v 0.165119 2.933919 -0.206186
v 0.164215 2.933919 -0.206141
v 0.163746 2.933919 -0.206018
v 0.142101 2.952090 -0.180890
v 0.142382 2.952369 -0.180950
v 0.142727 2.952549 -0.180990
v 0.170495 2.952621 -0.209549
v 0.170838 2.952621 -0.209641
v 0.171491 2.952621 -0.209675
v 0.171268 2.951739 -0.210368
v 0.171185 2.952621 -0.209685
v 0.170198 2.952621 -0.209418
v 0.169483 2.951721 -0.210012
v 0.143134 2.952621 -0.193716
v 0.143222 2.952621 -0.193910
v 0.143545 2.952621 -0.194235
v 0.142747 2.951721 -0.194786
v 0.143359 2.952621 -0.194090
v 0.143100 2.952621 -0.193512
v 0.143100 2.952621 -0.181005
v 0.156922 2.915181 -0.196887
v 0.157310 2.915181 -0.197087
v 0.157766 2.915181 -0.197230
v 0.158657 2.915181 -0.197287
v 0.158234 2.915181 -0.197301
v 0.164694 2.933919 -0.201694
v 0.164226 2.933919 -0.201622
v 0.163770 2.933919 -0.201478
v 0.163383 2.933919 -0.201277
v 0.165118 2.933919 -0.201682
v 0.130097 2.915181 -0.185767
v 0.130277 2.915181 -0.186161
v 0.130872 2.915181 -0.186766
v 0.130544 2.915181 -0.186509
v 0.130030 2.915181 -0.185372
v 0.136120 2.933919 -0.189482
v 0.136634 2.933919 -0.190621
v 0.136961 2.933919 -0.190878
v 0.136366 2.933919 -0.190272
v 0.136186 2.933919 -0.189878
v 0.141922 2.951757 -0.193398
v 0.141922 2.951757 -0.180816
v 0.135020 2.915181 -0.182049
v 0.134765 2.915181 -0.181680
v 0.134593 2.915181 -0.181273
v 0.135332 2.915181 -0.182332
v 0.134530 2.915181 -0.180872
v 0.141110 2.933919 -0.186160
v 0.140855 2.933919 -0.185792
v 0.140684 2.933919 -0.185383
v 0.141422 2.933919 -0.186443
v 0.140620 2.933919 -0.184982
v -0.130030 2.915181 -0.185372
v -0.130544 2.915181 -0.186509
v -0.130872 2.915181 -0.186766
v -0.130277 2.915181 -0.186161
v -0.130097 2.915181 -0.185767
v -0.136120 2.933919 -0.189482
v -0.136634 2.933919 -0.190621
v -0.136961 2.933919 -0.190878
v -0.136366 2.933919 -0.190272
v -0.136186 2.933919 -0.189878
v -0.141922 2.951757 -0.193398
v -0.141922 2.951757 -0.180816
v -0.140620 2.933919 -0.184982
v -0.141422 2.933919 -0.186443
v -0.140684 2.933919 -0.185383
v -0.140855 2.933919 -0.185792
v -0.141110 2.933919 -0.186160
v -0.134530 2.915181 -0.180872
v -0.135332 2.915181 -0.182332
v -0.134593 2.915181 -0.181273
v -0.134765 2.915181 -0.181680
v -0.135020 2.915181 -0.182049
v -0.156882 2.915181 -0.201453
v -0.158231 2.915181 -0.201809
v -0.158658 2.915181 -0.201792
v -0.157754 2.915181 -0.201751
v -0.157286 2.915181 -0.201629
v -0.163343 2.933919 -0.205842
v -0.164692 2.933919 -0.206202
v -0.165119 2.933919 -0.206186
v -0.164215 2.933919 -0.206141
v -0.163746 2.933919 -0.206018
v -0.142101 2.952090 -0.180890
v -0.142382 2.952369 -0.180950
v -0.142727 2.952549 -0.180990
v -0.170495 2.952621 -0.209549
v -0.170838 2.952621 -0.209641
v -0.171491 2.952621 -0.209675
v -0.171268 2.951739 -0.210368
v -0.171185 2.952621 -0.209685
v -0.170198 2.952621 -0.209418
v -0.169483 2.951721 -0.210012
v -0.143134 2.952621 -0.193716
v -0.143222 2.952621 -0.193910
v -0.143545 2.952621 -0.194235
v -0.142747 2.951721 -0.194786
v -0.143359 2.952621 -0.194090
v -0.143100 2.952621 -0.193512
v -0.143100 2.952621 -0.181005
v -0.165118 2.933919 -0.201682
v -0.163383 2.933919 -0.201277
v -0.163770 2.933919 -0.201478
v -0.164226 2.933919 -0.201622
v -0.164694 2.933919 -0.201694
v -0.158234 2.915181 -0.197301
v -0.158657 2.915181 -0.197287
v -0.157766 2.915181 -0.197230
v -0.157310 2.915181 -0.197087
v -0.156922 2.915181 -0.196887
v -0.263694 2.915181 -0.185324
v -0.262702 2.915181 -0.186391
v -0.263615 2.915181 -0.185693
v -0.263403 2.915181 -0.186016
v -0.263088 2.915181 -0.186260
v -0.274055 2.933919 -0.189460
v -0.273063 2.933919 -0.190522
v -0.273978 2.933919 -0.189828
v -0.273765 2.933919 -0.190151
v -0.273450 2.933919 -0.190393
v -0.283816 2.952558 -0.180992
v -0.284008 2.952387 -0.180954
v -0.284063 2.952135 -0.180899
v -0.282928 2.951757 -0.194457
v -0.283200 2.952621 -0.193767
v -0.283368 2.952621 -0.193712
v -0.283442 2.952621 -0.193655
v -0.283478 2.952621 -0.193603
v -0.283971 2.951838 -0.193417
v -0.283500 2.952621 -0.193495
v -0.283500 2.952621 -0.181005
v -0.283964 2.951829 -0.180832
v -0.269555 2.933919 -0.184960
v -0.268564 2.933919 -0.186026
v -0.268950 2.933919 -0.185897
v -0.269266 2.933919 -0.185652
v -0.269478 2.933919 -0.185329
v -0.259194 2.915181 -0.180824
v -0.258204 2.915181 -0.181896
v -0.259116 2.915181 -0.181193
v -0.258904 2.915181 -0.181518
v -0.258589 2.915181 -0.181764
v 0.252726 2.896452 -0.182127
v 0.253041 2.896452 -0.181882
v 0.253254 2.896452 -0.181558
v 0.252341 2.896452 -0.182259
v 0.253331 2.896452 -0.181189
v 0.248754 2.896452 -0.177058
v 0.248832 2.896452 -0.176689
v 0.242366 2.877723 -0.177994
v 0.232004 2.858985 -0.173860
v 0.242680 2.877723 -0.177747
v 0.232318 2.858985 -0.173613
v 0.242891 2.877723 -0.177422
v 0.232529 2.858985 -0.173287
v 0.241980 2.877723 -0.178127
v 0.231620 2.858985 -0.173995
v 0.242969 2.877723 -0.177052
v 0.232608 2.858985 -0.172917
v 0.248228 2.896452 -0.177631
v 0.248542 2.896452 -0.177384
v 0.247843 2.896452 -0.177765
v 0.237866 2.877723 -0.173498
v 0.238181 2.877723 -0.173249
v 0.238392 2.877723 -0.172922
v 0.237482 2.877723 -0.173634
v 0.238469 2.877723 -0.172552
v 0.227506 2.858985 -0.169366
v 0.227819 2.858985 -0.169115
v 0.228030 2.858985 -0.168787
v 0.227122 2.858985 -0.169504
v 0.228108 2.858985 -0.168417
v 0.150825 2.896452 -0.197239
v 0.144364 2.877723 -0.192849
v 0.151294 2.896452 -0.197360
v 0.144832 2.877723 -0.192969
v 0.152197 2.896452 -0.197398
v 0.151770 2.896452 -0.197416
v 0.145736 2.877723 -0.193003
v 0.145309 2.877723 -0.193024
v 0.150421 2.896452 -0.197065
v 0.143960 2.877723 -0.192676
v 0.150462 2.896452 -0.192497
v 0.150849 2.896452 -0.192697
v 0.151304 2.896452 -0.192839
v 0.152196 2.896452 -0.192892
v 0.151772 2.896452 -0.192907
v 0.144001 2.877723 -0.188107
v 0.144389 2.877723 -0.188307
v 0.144844 2.877723 -0.188446
v 0.145734 2.877723 -0.188496
v 0.145311 2.877723 -0.188514
v 0.137903 2.858985 -0.188460
v 0.138372 2.858985 -0.188578
v 0.139275 2.858985 -0.188609
v 0.138848 2.858985 -0.188631
v 0.137498 2.858985 -0.188287
v 0.124006 2.896452 -0.181656
v 0.117916 2.877723 -0.177546
v 0.111827 2.858985 -0.173434
v 0.124187 2.896452 -0.182050
v 0.118097 2.877723 -0.177939
v 0.112008 2.858985 -0.173828
v 0.124783 2.896452 -0.182653
v 0.124455 2.896452 -0.182397
v 0.118694 2.877723 -0.178541
v 0.118365 2.877723 -0.178286
v 0.112604 2.858985 -0.174428
v 0.112276 2.858985 -0.174173
v 0.123940 2.896452 -0.181261
v 0.117851 2.877723 -0.177151
v 0.111760 2.858985 -0.173040
v 0.128930 2.896452 -0.177938
v 0.128675 2.896452 -0.177569
v 0.128503 2.896452 -0.177161
v 0.129243 2.896452 -0.178220
v 0.128440 2.896452 -0.176761
v 0.122840 2.877723 -0.173827
v 0.122585 2.877723 -0.173459
v 0.122414 2.877723 -0.173051
v 0.123153 2.877723 -0.174109
v 0.122351 2.877723 -0.172651
v 0.116751 2.858985 -0.169716
v 0.116495 2.858985 -0.169348
v 0.116323 2.858985 -0.168940
v 0.117064 2.858985 -0.169997
v 0.116260 2.858985 -0.168540
v 0.137541 2.858985 -0.183718
v 0.137929 2.858985 -0.183917
v 0.138383 2.858985 -0.184054
v 0.139273 2.858985 -0.184101
v 0.138850 2.858985 -0.184120
v -0.111760 2.858985 -0.173040
v -0.117851 2.877723 -0.177151
v -0.123940 2.896452 -0.181261
v -0.112276 2.858985 -0.174173
v -0.112604 2.858985 -0.174428
v -0.118365 2.877723 -0.178286
v -0.118694 2.877723 -0.178541
v -0.124455 2.896452 -0.182397
v -0.124783 2.896452 -0.182653
v -0.112008 2.858985 -0.173828
v -0.118097 2.877723 -0.177939
v -0.124187 2.896452 -0.182050
v -0.111827 2.858985 -0.173434
v -0.117916 2.877723 -0.177546
v -0.124006 2.896452 -0.181656
v -0.137498 2.858985 -0.188287
v -0.138848 2.858985 -0.188631
v -0.139275 2.858985 -0.188609
v -0.138372 2.858985 -0.188578
v -0.137903 2.858985 -0.188460
v -0.138850 2.858985 -0.184120
v -0.139273 2.858985 -0.184101
v -0.138383 2.858985 -0.184054
v -0.137929 2.858985 -0.183917
v -0.137541 2.858985 -0.183718
v -0.116260 2.858985 -0.168540
v -0.117064 2.858985 -0.169997
v -0.116323 2.858985 -0.168940
v -0.116495 2.858985 -0.169348
v -0.116751 2.858985 -0.169716
v -0.122351 2.877723 -0.172651
v -0.123153 2.877723 -0.174109
v -0.122414 2.877723 -0.173051
v -0.122585 2.877723 -0.173459
v -0.122840 2.877723 -0.173827
v -0.128440 2.896452 -0.176761
v -0.129243 2.896452 -0.178220
v -0.128503 2.896452 -0.177161
v -0.128675 2.896452 -0.177569
v -0.128930 2.896452 -0.177938
v -0.143960 2.877723 -0.192676
v -0.150421 2.896452 -0.197065
v -0.145309 2.877723 -0.193024
v -0.145736 2.877723 -0.193003
v -0.151770 2.896452 -0.197416
v -0.152197 2.896452 -0.197398
v -0.144832 2.877723 -0.192969
v -0.151294 2.896452 -0.197360
v -0.144364 2.877723 -0.192849
v -0.150825 2.896452 -0.197239
v -0.145311 2.877723 -0.188514
v -0.145734 2.877723 -0.188496
v -0.144844 2.877723 -0.188446
v -0.144389 2.877723 -0.188307
v -0.144001 2.877723 -0.188107
v -0.151772 2.896452 -0.192907
v -0.152196 2.896452 -0.192892
v -0.151304 2.896452 -0.192839
v -0.150849 2.896452 -0.192697
v -0.150462 2.896452 -0.192497
v -0.232608 2.858985 -0.172917
v -0.242969 2.877723 -0.177052
v -0.231620 2.858985 -0.173995
v -0.241980 2.877723 -0.178127
v -0.232529 2.858985 -0.173287
v -0.242891 2.877723 -0.177422
v -0.232318 2.858985 -0.173613
v -0.242680 2.877723 -0.177747
v -0.232004 2.858985 -0.173860
v -0.242366 2.877723 -0.177994
v -0.228108 2.858985 -0.168417
v -0.227122 2.858985 -0.169504
v -0.228030 2.858985 -0.168787
v -0.227819 2.858985 -0.169115
v -0.227506 2.858985 -0.169366
v -0.238469 2.877723 -0.172552
v -0.237482 2.877723 -0.173634
v -0.238392 2.877723 -0.172922
v -0.238181 2.877723 -0.173249
v -0.237866 2.877723 -0.173498
v -0.247843 2.896452 -0.177765
v -0.248542 2.896452 -0.177384
v -0.248228 2.896452 -0.177631
v -0.253331 2.896452 -0.181189
v -0.252341 2.896452 -0.182259
v -0.253254 2.896452 -0.181558
v -0.253041 2.896452 -0.181882
v -0.252726 2.896452 -0.182127
v -0.248832 2.896452 -0.176689
v -0.248754 2.896452 -0.177058
v 0.221642 2.840256 -0.169727
v 0.221956 2.840256 -0.169478
v 0.222168 2.840256 -0.169151
v 0.221259 2.840256 -0.169863
v 0.222245 2.840256 -0.168782
v 0.217145 2.840256 -0.165233
v 0.217457 2.840256 -0.164981
v 0.217668 2.840256 -0.164652
v 0.216761 2.840256 -0.165373
v 0.217745 2.840256 -0.164282
v 0.211281 2.821518 -0.165594
v 0.211595 2.821518 -0.165344
v 0.211805 2.821518 -0.165016
v 0.210898 2.821518 -0.165731
v 0.211883 2.821518 -0.164646
v 0.206783 2.821518 -0.161100
v 0.207095 2.821518 -0.160846
v 0.207306 2.821518 -0.160517
v 0.206402 2.821518 -0.161242
v 0.207383 2.821518 -0.160146
v 0.131442 2.840256 -0.184070
v 0.124981 2.821518 -0.179680
v 0.131911 2.840256 -0.184187
v 0.125451 2.821518 -0.179796
v 0.132814 2.840256 -0.184215
v 0.132387 2.840256 -0.184238
v 0.126354 2.821518 -0.179821
v 0.125927 2.821518 -0.179845
v 0.131037 2.840256 -0.183899
v 0.124576 2.821518 -0.179510
v 0.110661 2.840256 -0.165605
v 0.110406 2.840256 -0.165236
v 0.110233 2.840256 -0.164830
v 0.110974 2.840256 -0.165885
v 0.110170 2.840256 -0.164429
v 0.131080 2.840256 -0.179329
v 0.131468 2.840256 -0.179527
v 0.131923 2.840256 -0.179663
v 0.132812 2.840256 -0.179706
v 0.132389 2.840256 -0.179727
v 0.124618 2.821518 -0.174938
v 0.125007 2.821518 -0.175136
v 0.125462 2.821518 -0.175271
v 0.126350 2.821518 -0.175311
v 0.125929 2.821518 -0.175334
v 0.105737 2.840256 -0.169324
v 0.099646 2.821518 -0.165213
v 0.105917 2.840256 -0.169717
v 0.099828 2.821518 -0.165605
v 0.106516 2.840256 -0.170316
v 0.106186 2.840256 -0.170062
v 0.100426 2.821518 -0.166204
v 0.100097 2.821518 -0.165950
v 0.105670 2.840256 -0.168929
v 0.099580 2.821518 -0.164819
v 0.104571 2.821518 -0.161493
v 0.104315 2.821518 -0.161126
v 0.104144 2.821518 -0.160718
v 0.104884 2.821518 -0.161774
v 0.104080 2.821518 -0.160319
v -0.099580 2.821518 -0.164819
v -0.105670 2.840256 -0.168929
v -0.100097 2.821518 -0.165950
v -0.100426 2.821518 -0.166204
v -0.106186 2.840256 -0.170062
v -0.106516 2.840256 -0.170316
v -0.099828 2.821518 -0.165605
v -0.105917 2.840256 -0.169717
v -0.099646 2.821518 -0.165213
v -0.105737 2.840256 -0.169324
v -0.104080 2.821518 -0.160319
v -0.104884 2.821518 -0.161774
v -0.104144 2.821518 -0.160718
v -0.104315 2.821518 -0.161126
v -0.104571 2.821518 -0.161493
v -0.124576 2.821518 -0.179510
v -0.131037 2.840256 -0.183899
v -0.125927 2.821518 -0.179845
v -0.126354 2.821518 -0.179821
v -0.132387 2.840256 -0.184238
v -0.132814 2.840256 -0.184215
v -0.125451 2.821518 -0.179796
v -0.131911 2.840256 -0.184187
v -0.124981 2.821518 -0.179680
v -0.131442 2.840256 -0.184070
v -0.125929 2.821518 -0.175334
v -0.126350 2.821518 -0.175311
v -0.125462 2.821518 -0.175271
v -0.125007 2.821518 -0.175136
v -0.124618 2.821518 -0.174938
v -0.132389 2.840256 -0.179727
v -0.132812 2.840256 -0.179706
v -0.131923 2.840256 -0.179663
v -0.131468 2.840256 -0.179527
v -0.131080 2.840256 -0.179329
v -0.110170 2.840256 -0.164429
v -0.110974 2.840256 -0.165885
v -0.110233 2.840256 -0.164830
v -0.110406 2.840256 -0.165236
v -0.110661 2.840256 -0.165605
v -0.211883 2.821518 -0.164646
v -0.210898 2.821518 -0.165731
v -0.211805 2.821518 -0.165016
v -0.211595 2.821518 -0.165344
v -0.211281 2.821518 -0.165594
v -0.207383 2.821518 -0.160146
v -0.206402 2.821518 -0.161242
v -0.207306 2.821518 -0.160517
v -0.207095 2.821518 -0.160846
v -0.206783 2.821518 -0.161100
v -0.222245 2.840256 -0.168782
v -0.221259 2.840256 -0.169863
v -0.222168 2.840256 -0.169151
v -0.221956 2.840256 -0.169478
v -0.221642 2.840256 -0.169727
v -0.217745 2.840256 -0.164282
v -0.216761 2.840256 -0.165373
v -0.217668 2.840256 -0.164652
v -0.217457 2.840256 -0.164981
v -0.217145 2.840256 -0.165233
v 0.200920 2.802789 -0.161460
v 0.190559 2.784060 -0.157327
v 0.180197 2.765322 -0.153194
v 0.201233 2.802789 -0.161209
v 0.190871 2.784060 -0.157074
v 0.180509 2.765322 -0.152940
v 0.201443 2.802789 -0.160880
v 0.191082 2.784060 -0.156745
v 0.180719 2.765322 -0.152609
v 0.200536 2.802789 -0.161600
v 0.190175 2.784060 -0.157468
v 0.179815 2.765322 -0.153337
v 0.201521 2.802789 -0.160510
v 0.191159 2.784060 -0.156374
v 0.180796 2.765322 -0.152239
v 0.196422 2.802789 -0.156967
v 0.196734 2.802789 -0.156712
v 0.196944 2.802789 -0.156381
v 0.196041 2.802789 -0.157111
v 0.197021 2.802789 -0.156010
v 0.186062 2.784060 -0.152834
v 0.186372 2.784060 -0.152578
v 0.186582 2.784060 -0.152246
v 0.185680 2.784060 -0.152981
v 0.186659 2.784060 -0.151874
v 0.118521 2.802789 -0.175290
v 0.112060 2.784060 -0.170901
v 0.118990 2.802789 -0.175405
v 0.112530 2.784060 -0.171013
v 0.119893 2.802789 -0.175426
v 0.119466 2.802789 -0.175453
v 0.113432 2.784060 -0.171032
v 0.113006 2.784060 -0.171060
v 0.106545 2.765322 -0.166667
v 0.106970 2.765322 -0.166638
v 0.118115 2.802789 -0.175121
v 0.111654 2.784060 -0.170733
v 0.118158 2.802789 -0.170549
v 0.118546 2.802789 -0.170745
v 0.119002 2.802789 -0.170880
v 0.119889 2.802789 -0.170915
v 0.119468 2.802789 -0.170941
v 0.111697 2.784060 -0.166160
v 0.112086 2.784060 -0.166355
v 0.112540 2.784060 -0.166488
v 0.113428 2.784060 -0.166520
v 0.113007 2.784060 -0.166547
v 0.106967 2.765322 -0.162125
v 0.106546 2.765322 -0.162154
v 0.105599 2.765322 -0.166511
v 0.106069 2.765322 -0.166622
v 0.105193 2.765322 -0.166344
v 0.093557 2.802789 -0.161103
v 0.087466 2.784060 -0.156992
v 0.081376 2.765322 -0.152881
v 0.093738 2.802789 -0.161494
v 0.087648 2.784060 -0.157383
v 0.081559 2.765322 -0.153272
v 0.094337 2.802789 -0.162091
v 0.094008 2.802789 -0.161838
v 0.088248 2.784060 -0.157979
v 0.087918 2.784060 -0.157727
v 0.081829 2.765322 -0.153615
v 0.082159 2.765322 -0.153866
v 0.093490 2.802789 -0.160708
v 0.087400 2.784060 -0.156597
v 0.081310 2.765322 -0.152487
v 0.098482 2.802789 -0.157382
v 0.098226 2.802789 -0.157015
v 0.098053 2.802789 -0.156608
v 0.098795 2.802789 -0.157663
v 0.097990 2.802789 -0.156208
v 0.092392 2.784060 -0.153271
v 0.092136 2.784060 -0.152904
v 0.091963 2.784060 -0.152498
v 0.092705 2.784060 -0.153551
v 0.091900 2.784060 -0.152097
v 0.105237 2.765322 -0.161770
v 0.105626 2.765322 -0.161965
v 0.106080 2.765322 -0.162096
v -0.081310 2.765322 -0.152487
v -0.087400 2.784060 -0.156597
v -0.093490 2.802789 -0.160708
v -0.082159 2.765322 -0.153866
v -0.081829 2.765322 -0.153615
v -0.087918 2.784060 -0.157727
v -0.088248 2.784060 -0.157979
v -0.094008 2.802789 -0.161838
v -0.094337 2.802789 -0.162091
v -0.081559 2.765322 -0.153272
v -0.087648 2.784060 -0.157383
v -0.093738 2.802789 -0.161494
v -0.081376 2.765322 -0.152881
v -0.087466 2.784060 -0.156992
v -0.093557 2.802789 -0.161103
v -0.105193 2.765322 -0.166344
v -0.106069 2.765322 -0.166622
v -0.105599 2.765322 -0.166511
v -0.106080 2.765322 -0.162096
v -0.105626 2.765322 -0.161965
v -0.105237 2.765322 -0.161770
v -0.091900 2.784060 -0.152097
v -0.092705 2.784060 -0.153551
v -0.091963 2.784060 -0.152498
v -0.092136 2.784060 -0.152904
v -0.092392 2.784060 -0.153271
v -0.097990 2.802789 -0.156208
v -0.098795 2.802789 -0.157663
v -0.098053 2.802789 -0.156608
v -0.098226 2.802789 -0.157015
v -0.098482 2.802789 -0.157382
v -0.111654 2.784060 -0.170733
v -0.118115 2.802789 -0.175121
v -0.106970 2.765322 -0.166638
v -0.106545 2.765322 -0.166667
v -0.113006 2.784060 -0.171060
v -0.113432 2.784060 -0.171032
v -0.119466 2.802789 -0.175453
v -0.119893 2.802789 -0.175426
v -0.112530 2.784060 -0.171013
v -0.118990 2.802789 -0.175405
v -0.112060 2.784060 -0.170901
v -0.118521 2.802789 -0.175290
v -0.106546 2.765322 -0.162154
v -0.106967 2.765322 -0.162125
v -0.113007 2.784060 -0.166547
v -0.113428 2.784060 -0.166520
v -0.112540 2.784060 -0.166488
v -0.112086 2.784060 -0.166355
v -0.111697 2.784060 -0.166160
v -0.119468 2.802789 -0.170941
v -0.119889 2.802789 -0.170915
v -0.119002 2.802789 -0.170880
v -0.118546 2.802789 -0.170745
v -0.118158 2.802789 -0.170549
v -0.180796 2.765322 -0.152239
v -0.191159 2.784060 -0.156374
v -0.201521 2.802789 -0.160510
v -0.179815 2.765322 -0.153337
v -0.190175 2.784060 -0.157468
v -0.200536 2.802789 -0.161600
v -0.180719 2.765322 -0.152609
v -0.191082 2.784060 -0.156745
v -0.201443 2.802789 -0.160880
v -0.180509 2.765322 -0.152940
v -0.190871 2.784060 -0.157074
v -0.201233 2.802789 -0.161209
v -0.180197 2.765322 -0.153194
v -0.190559 2.784060 -0.157327
v -0.200920 2.802789 -0.161460
v -0.186659 2.784060 -0.151874
v -0.185680 2.784060 -0.152981
v -0.186582 2.784060 -0.152246
v -0.186372 2.784060 -0.152578
v -0.186062 2.784060 -0.152834
v -0.197021 2.802789 -0.156010
v -0.196041 2.802789 -0.157111
v -0.196944 2.802789 -0.156381
v -0.196734 2.802789 -0.156712
v -0.196422 2.802789 -0.156967
v 0.092336 2.727855 -0.157602
v 0.094013 2.727855 -0.157854
v 0.093607 2.727855 -0.157887
v 0.093156 2.727855 -0.157852
v 0.092714 2.727855 -0.157754
v 0.099139 2.746593 -0.162122
v 0.099608 2.746593 -0.162231
v 0.100084 2.746593 -0.162274
v 0.098732 2.746593 -0.161955
v 0.100509 2.746593 -0.162243
v 0.099590 2.746593 -0.157696
v 0.100505 2.746593 -0.157730
v 0.100084 2.746593 -0.157760
v 0.098776 2.746593 -0.157380
v 0.099165 2.746593 -0.157575
v 0.092704 2.727855 -0.153184
v 0.093159 2.727855 -0.153313
v 0.093624 2.727855 -0.153367
v 0.092316 2.727855 -0.152990
v 0.094044 2.727855 -0.153334
v -0.092336 2.727855 -0.157602
v -0.094013 2.727855 -0.157854
v -0.092714 2.727855 -0.157754
v -0.093156 2.727855 -0.157852
v -0.093607 2.727855 -0.157887
v -0.099139 2.746593 -0.162122
v -0.099608 2.746593 -0.162231
v -0.100084 2.746593 -0.162274
v -0.098732 2.746593 -0.161955
v -0.100509 2.746593 -0.162243
v -0.099590 2.746593 -0.157696
v -0.094044 2.727855 -0.153334
v -0.092316 2.727855 -0.152990
v -0.093624 2.727855 -0.153367
v -0.093159 2.727855 -0.153313
v -0.092704 2.727855 -0.153184
v -0.099165 2.746593 -0.157575
v -0.098776 2.746593 -0.157380
v -0.100084 2.746593 -0.157760
v -0.100505 2.746593 -0.157730
v 0.175700 2.765322 -0.148702
v 0.176010 2.765322 -0.148443
v 0.176220 2.765322 -0.148110
v 0.175320 2.765322 -0.148850
v 0.176296 2.765322 -0.147739
v 0.086302 2.765322 -0.149160
v 0.086046 2.765322 -0.148793
v 0.085873 2.765322 -0.148387
v 0.086616 2.765322 -0.149440
v 0.085810 2.765322 -0.147987
v -0.085810 2.765322 -0.147987
v -0.086616 2.765322 -0.149440
v -0.085873 2.765322 -0.148387
v -0.086046 2.765322 -0.148793
v -0.086302 2.765322 -0.149160
v -0.176296 2.765322 -0.147739
v -0.175320 2.765322 -0.148850
v -0.176220 2.765322 -0.148110
v -0.176010 2.765322 -0.148443
v -0.175700 2.765322 -0.148702
v 0.160072 2.727855 -0.143984
v 0.159189 2.727855 -0.145057
v 0.160003 2.727855 -0.144347
v 0.159814 2.727855 -0.144670
v 0.159533 2.727855 -0.144919
v 0.169835 2.746593 -0.149061
v 0.170148 2.746593 -0.148805
v 0.170357 2.746593 -0.148474
v 0.169454 2.746593 -0.149205
v 0.170435 2.746593 -0.148102
v 0.165339 2.746593 -0.144570
v 0.165649 2.746593 -0.144310
v 0.165857 2.746593 -0.143975
v 0.164959 2.746593 -0.144719
v 0.165935 2.746593 -0.143602
v 0.154978 2.727855 -0.140437
v 0.155287 2.727855 -0.140175
v 0.155496 2.727855 -0.139839
v 0.154599 2.727855 -0.140588
v 0.155572 2.727855 -0.139467
v 0.075286 2.746593 -0.148770
v 0.075469 2.746593 -0.149161
v 0.075739 2.746593 -0.149504
v 0.075220 2.746593 -0.148376
v 0.076070 2.746593 -0.149754
v 0.080212 2.746593 -0.145048
v 0.079956 2.746593 -0.144682
v 0.079783 2.746593 -0.144276
v 0.080526 2.746593 -0.145328
v 0.079720 2.746593 -0.143876
v 0.073693 2.727855 -0.140165
v 0.073866 2.727855 -0.140572
v 0.074123 2.727855 -0.140937
v 0.074437 2.727855 -0.141216
v 0.073630 2.727855 -0.139766
v 0.069130 2.727855 -0.144285
v 0.069923 2.727855 -0.145609
v 0.069614 2.727855 -0.145373
v 0.069362 2.727855 -0.145046
v 0.069192 2.727855 -0.144669
v -0.069130 2.727855 -0.144285
v -0.069923 2.727855 -0.145609
v -0.069192 2.727855 -0.144669
v -0.069362 2.727855 -0.145046
v -0.069614 2.727855 -0.145373
v -0.075286 2.746593 -0.148770
v -0.075469 2.746593 -0.149161
v -0.075739 2.746593 -0.149504
v -0.075220 2.746593 -0.148376
v -0.076070 2.746593 -0.149754
v -0.073630 2.727855 -0.139766
v -0.074437 2.727855 -0.141216
v -0.074123 2.727855 -0.140937
v -0.073866 2.727855 -0.140572
v -0.073693 2.727855 -0.140165
v -0.079720 2.746593 -0.143876
v -0.080526 2.746593 -0.145328
v -0.079783 2.746593 -0.144276
v -0.079956 2.746593 -0.144682
v -0.080212 2.746593 -0.145048
v -0.160072 2.727855 -0.143984
v -0.159189 2.727855 -0.145057
v -0.159533 2.727855 -0.144919
v -0.159814 2.727855 -0.144670
v -0.160003 2.727855 -0.144347
v -0.169835 2.746593 -0.149061
v -0.170148 2.746593 -0.148805
v -0.170357 2.746593 -0.148474
v -0.169454 2.746593 -0.149205
v -0.170435 2.746593 -0.148102
v -0.155572 2.727855 -0.139467
v -0.154599 2.727855 -0.140588
v -0.155496 2.727855 -0.139839
v -0.155287 2.727855 -0.140175
v -0.154978 2.727855 -0.140437
v -0.165935 2.746593 -0.143602
v -0.164959 2.746593 -0.144719
v -0.165857 2.746593 -0.143975
v -0.165649 2.746593 -0.144310
v -0.165339 2.746593 -0.144570
v 0.046058 2.655918 -0.115501
v 0.045746 2.656170 -0.115556
v 0.045380 2.656341 -0.115594
v 0.046099 2.656863 -0.115709
v 0.046091 2.656422 -0.115611
v 0.046150 2.655990 -0.115515
v 0.045286 2.655603 -0.129659
v 0.046617 2.656647 -0.129888
v 0.044997 2.656404 -0.128606
v 0.046178 2.657259 -0.128794
v 0.046178 2.657259 -0.115797
v 0.046274 2.655603 -0.115431
v 0.045000 2.656404 -0.115608
v -0.045380 2.656341 -0.115594
v -0.045746 2.656170 -0.115556
v -0.046058 2.655918 -0.115501
v -0.046150 2.655990 -0.115515
v -0.046091 2.656422 -0.115611
v -0.046099 2.656863 -0.115709
v -0.045296 2.655603 -0.129659
v -0.046644 2.656728 -0.129906
v -0.045000 2.656404 -0.128606
v -0.046173 2.657250 -0.128790
v -0.046274 2.655603 -0.115431
v -0.046178 2.657259 -0.115797
v -0.045000 2.656404 -0.115608
v 0.058054 2.627775 -0.134449
v 0.059621 2.629674 -0.134893
v 0.057562 2.629422 -0.134615
v 0.058907 2.630520 -0.134871
v 0.007371 2.629854 -0.134532
v 0.007776 2.629593 -0.134582
v 0.008218 2.629413 -0.134616
v 0.008648 2.629341 -0.134628
v 0.006560 2.628792 -0.134256
v 0.008181 2.627775 -0.134448
v 0.000475 2.638998 -0.132800
v 0.000893 2.638620 -0.132872
v 0.000758 2.637036 -0.132695
v 0.007057 2.630178 -0.134470
v -0.008218 2.629413 -0.134616
v -0.007776 2.629593 -0.134582
v -0.007371 2.629854 -0.134532
v -0.007057 2.630178 -0.134470
v -0.008648 2.629341 -0.134628
v -0.006574 2.628774 -0.134259
v -0.008179 2.627775 -0.134448
v -0.000475 2.638998 -0.132800
v -0.000000 2.639124 -0.132777
v -0.000893 2.638620 -0.132872
v -0.000719 2.637090 -0.132684
v -0.058049 2.627775 -0.134449
v -0.059691 2.629872 -0.134941
v -0.057539 2.629422 -0.134615
v -0.058941 2.630619 -0.134894
v 0.063645 2.553669 -0.092925
v 0.063314 2.553417 -0.092870
v 0.062896 2.553255 -0.092834
v 0.063171 2.553444 -0.092876
v 0.063347 2.553723 -0.092938
v 0.063452 2.553786 -0.092951
v 0.063562 2.553669 -0.092927
v 0.063712 2.553732 -0.092940
v 0.062498 2.554029 -0.106636
v 0.064193 2.555469 -0.106955
v 0.062550 2.553183 -0.105425
v 0.063903 2.554002 -0.105601
v 0.062550 2.553183 -0.092819
v 0.063397 2.554065 -0.093012
v 0.063886 2.553975 -0.092992
v 0.007079 2.553183 -0.105379
v 0.007517 2.553183 -0.105574
v 0.006715 2.553183 -0.105140
v 0.008402 2.553183 -0.105750
v 0.006536 2.554029 -0.106054
v 0.008161 2.554029 -0.106636
v 0.000474 2.553183 -0.100092
v 0.000891 2.553183 -0.100320
v 0.007977 2.553183 -0.105704
v 0.000719 2.554029 -0.101379
v -0.007079 2.553183 -0.105379
v -0.007517 2.553183 -0.105574
v -0.006715 2.553183 -0.105140
v -0.008402 2.553183 -0.105750
v -0.006542 2.554029 -0.106059
v -0.008162 2.554029 -0.106636
v -0.000000 2.553183 -0.100015
v -0.000474 2.553183 -0.100092
v -0.000740 2.554029 -0.101396
v -0.000891 2.553183 -0.100320
v -0.007977 2.553183 -0.105704
v -0.063314 2.553417 -0.092870
v -0.063645 2.553669 -0.092925
v -0.062935 2.553246 -0.092832
v -0.063347 2.553723 -0.092938
v -0.063171 2.553444 -0.092876
v -0.063712 2.553732 -0.092940
v -0.063562 2.553669 -0.092927
v -0.063452 2.553786 -0.092951
v -0.062498 2.554029 -0.106636
v -0.064128 2.555352 -0.106929
v -0.062550 2.553183 -0.105425
v -0.063886 2.553975 -0.105593
v -0.062550 2.553183 -0.092819
v -0.063886 2.553975 -0.092992
v -0.063397 2.554065 -0.093012
f 1352 1388 1386
f 1386 1368 1375
f 1386 1375 1366
f 1386 1366 1365
f 1386 1365 1367
f 1386 1367 1374
f 1386 1374 1372
f 1386 1372 1371
f 1362 1357 1355
f 1362 1355 1356
f 1362 1356 1363
f 1362 1363 1358
f 1362 1358 1350
f 1362 1350 1352
f 1352 1386 1371
f 1352 1371 1361
f 1352 1361 1362
f 1309 137 70
f 1309 70 74
f 1309 74 1308
f 1309 1308 1301
f 1309 1301 1302
f 1309 1302 1303
f 73 66 136
f 73 136 1295
f 73 1295 1288
f 73 1288 1289
f 73 1289 1290
f 73 1290 1296
f 1354 135 66
f 1354 66 73
f 1354 73 1353
f 1354 1353 1345
f 1354 1345 1346
f 1354 1346 1347
f 70 138 1389
f 70 1389 1381
f 70 1381 1382
f 70 1382 1383
f 70 1383 1390
f 70 1390 74
f 73 74 1390
f 73 1390 1379
f 73 1379 1380
f 73 1380 1378
f 73 1378 1388
f 73 1388 1352
f 73 1352 1342
f 73 1342 1343
f 73 1343 1344
f 73 1344 1353
f 1308 74 73
f 1308 73 1296
f 1308 1296 1285
f 1308 1285 1286
f 1308 1286 1287
f 1308 1287 1297
f 1308 1297 1310
f 1308 1310 1298
f 1308 1298 1299
f 1308 1299 1300
f 70 1275 72
f 70 1277 1275
f 70 1278 1277
f 70 1279 1278
f 70 1276 1279
f 70 1176 1276
f 70 1178 1176
f 70 1179 1178
f 70 1180 1179
f 70 1177 1180
f 70 1256 1177
f 70 1257 1256
f 70 1258 1257
f 70 1259 1258
f 70 1255 1259
f 70 69 1255
f 75 672 673
f 75 670 672
f 75 669 670
f 75 668 669
f 75 667 668
f 75 631 667
f 75 633 631
f 75 630 633
f 75 629 630
f 75 634 629
f 75 638 634
f 75 640 638
f 75 637 640
f 75 636 637
f 75 641 636
f 75 642 641
f 75 39 76
f 75 76 605
f 75 605 626
f 75 626 627
f 75 627 628
f 75 628 642
f 39 75 673
f 39 673 663
f 39 663 664
f 39 664 665
f 39 665 674
f 39 674 77
f 39 41 675
f 39 675 679
f 39 679 678
f 39 678 677
f 39 677 676
f 39 676 643
f 39 643 647
f 39 647 646
f 39 646 645
f 39 645 644
f 39 644 607
f 39 607 610
f 39 610 609
f 39 609 608
f 39 608 606
f 39 606 37
f 1170 1173 81
f 83 80 84
f 86 1174 1172
f 1171 82 85
f 1253 78 67
f 1253 67 1260
f 1253 1260 1262
f 1253 1262 1263
f 1253 1263 1264
f 1253 1264 1261
f 1253 1261 1182
f 1253 1182 1181
f 1181 1175 80
f 1181 80 83
f 1181 83 82
f 1181 82 81
f 1181 81 1173
f 1181 1173 1254
f 1181 1254 1252
f 1181 1252 1251
f 1181 1251 1250
f 1181 1250 1253
f 71 79 1274
f 71 1274 1272
f 71 1272 1271
f 71 1271 1270
f 71 1270 1273
f 1273 1174 86
f 1273 86 85
f 1273 85 84
f 1273 84 80
f 80 1175 1183
f 80 1183 1184
f 80 1184 1281
f 1280 71 1273
f 1273 80 1281
f 1273 1281 1284
f 1273 1284 1283
f 1273 1283 1282
f 1273 1282 1280
f 1077 131 1065
f 1077 59 131
f 1077 1195 59
f 1077 1197 1195
f 1077 1198 1197
f 1077 1199 1198
f 1077 1196 1199
f 1077 1085 1196
f 1077 1084 1085
f 1200 134 63
f 1200 1120 134
f 1200 1126 1120
f 1200 1129 1126
f 1200 1132 1129
f 1200 1123 1132
f 1123 1099 1098
f 1123 1081 1099
f 1123 1082 1081
f 1123 1080 1082
f 1080 1069 1068
f 1080 1074 1069
f 1080 1077 1074
f 1080 1084 1077
f 1080 1083 1084
f 1080 1108 1083
f 1080 1109 1108
f 1080 1201 1109
f 1202 1123 1200
f 1123 1201 1080
f 1123 1204 1201
f 1123 1203 1204
f 1123 1202 1203
f 1066 130 58
f 1066 58 1086
f 1066 1086 1088
f 1066 1088 1089
f 1066 1089 1090
f 1066 1090 1087
f 1066 1087 1114
f 1066 1114 1113
f 1135 65 133
f 1135 133 1121
f 1135 1121 1127
f 1135 1127 1130
f 1135 1130 1133
f 1135 1133 1124
f 1124 1101 1100
f 1124 1100 1104
f 1124 1104 1106
f 1124 1106 1096
f 1096 1071 1070
f 1096 1070 1075
f 1096 1075 1078
f 1096 1078 1066
f 1096 1066 1113
f 1096 1113 1112
f 1096 1112 1110
f 1096 1110 1111
f 1096 1111 1136
f 1137 1135 1124
f 1124 1096 1136
f 1124 1136 1139
f 1124 1139 1138
f 1124 1138 1137
f 1079 129 1067
f 1079 57 129
f 1079 1091 57
f 1079 1093 1091
f 1079 1094 1093
f 1079 1095 1094
f 1079 1092 1095
f 1079 1119 1092
f 1079 1118 1119
f 1140 132 64
f 1140 1122 132
f 1140 1128 1122
f 1140 1131 1128
f 1140 1134 1131
f 1140 1125 1134
f 1125 1102 1103
f 1125 1105 1102
f 1125 1107 1105
f 1125 1097 1107
f 1097 1072 1073
f 1097 1076 1072
f 1097 1079 1076
f 1097 1118 1079
f 1097 1117 1118
f 1097 1115 1117
f 1097 1116 1115
f 1097 1141 1116
f 1142 1125 1140
f 1125 1141 1097
f 1125 1144 1141
f 1125 1143 1144
f 1125 1142 1143
f 925 126 51
f 925 51 935
f 925 935 937
f 925 937 938
f 925 938 939
f 925 939 936
f 925 936 954
f 925 954 953
f 970 55 127
f 970 127 965
f 970 965 967
f 970 967 968
f 970 968 969
f 970 969 966
f 966 943 942
f 966 942 946
f 966 946 948
f 966 948 940
f 940 928 927
f 940 927 931
f 940 931 933
f 940 933 925
f 940 925 953
f 940 953 952
f 940 952 950
f 940 950 951
f 940 951 971
f 972 970 966
f 966 940 971
f 966 971 974
f 966 974 973
f 966 973 972
f 934 125 926
f 934 52 125
f 934 960 52
f 934 962 960
f 934 963 962
f 934 964 963
f 934 961 964
f 934 959 961
f 934 958 959
f 980 128 56
f 980 975 128
f 980 977 975
f 980 978 977
f 980 979 978
f 980 976 979
f 976 944 945
f 976 947 944
f 976 949 947
f 976 941 949
f 941 929 930
f 941 932 929
f 941 934 932
f 941 958 934
f 941 957 958
f 941 955 957
f 941 956 955
f 941 981 956
f 982 976 980
f 976 981 941
f 976 984 981
f 976 983 984
f 976 982 983
f 775 121 44
f 775 44 800
f 775 800 802
f 775 802 803
f 775 803 804
f 775 804 801
f 775 801 799
f 775 799 798
f 845 49 123
f 845 123 835
f 845 835 839
f 845 839 841
f 845 841 843
f 845 843 837
f 837 792 791
f 837 791 793
f 837 793 794
f 837 794 790
f 790 779 778
f 790 778 784
f 790 784 787
f 790 787 775
f 790 775 798
f 790 798 797
f 790 797 795
f 790 795 796
f 790 796 846
f 847 845 837
f 837 790 846
f 837 846 849
f 837 849 848
f 837 848 847
f 788 120 776
f 788 43 120
f 788 805 43
f 788 807 805
f 788 808 807
f 788 809 808
f 788 806 809
f 788 829 806
f 788 828 829
f 850 122 48
f 850 836 122
f 850 840 836
f 850 842 840
f 850 844 842
f 850 838 844
f 838 817 818
f 838 821 817
f 838 823 821
f 838 815 823
f 815 780 781
f 815 785 780
f 815 788 785
f 815 828 788
f 815 827 828
f 815 825 827
f 815 826 825
f 815 851 826
f 852 838 850
f 838 851 815
f 838 854 851
f 838 853 854
f 838 852 853
f 777 119 42
f 777 42 810
f 777 810 812
f 777 812 813
f 777 813 814
f 777 814 811
f 777 811 834
f 777 834 833
f 863 50 124
f 863 124 858
f 863 858 860
f 863 860 861
f 863 861 862
f 863 862 859
f 859 820 819
f 859 819 822
f 859 822 824
f 859 824 816
f 816 783 782
f 816 782 786
f 816 786 789
f 816 789 777
f 816 777 833
f 816 833 832
f 816 832 830
f 816 830 831
f 816 831 855
f 864 863 859
f 859 816 855
f 859 855 857
f 859 857 856
f 859 856 864
f 598 117 594
f 598 36 117
f 598 611 36
f 598 613 611
f 598 614 613
f 598 615 614
f 598 612 615
f 598 652 612
f 598 651 652
f 680 118 40
f 680 653 118
f 680 655 653
f 680 656 655
f 680 657 656
f 680 654 657
f 654 617 618
f 654 619 617
f 654 620 619
f 654 616 620
f 616 595 596
f 616 597 595
f 616 598 597
f 616 651 598
f 616 650 651
f 616 648 650
f 616 649 648
f 616 681 649
f 682 654 680
f 654 681 616
f 654 684 681
f 654 683 684
f 654 682 683
f 1224 2 66
f 1224 66 1
f 1224 1 1239
f 1224 1239 1235
f 1224 1235 1236
f 1224 1236 1237
f 1224 1237 1238
f 1224 1238 1163
f 1224 1163 1160
f 1224 1160 1161
f 1224 1161 1162
f 1224 1162 1164
f 1224 1164 1223
f 1224 1223 1220
f 1224 1220 1221
f 1224 1221 1222
f 583 88 5
f 583 5 87
f 583 87 561
f 583 561 547
f 583 547 546
f 583 546 545
f 513 523 87
f 513 87 5
f 513 5 89
f 513 89 524
f 513 524 515
f 513 515 514
f 530 534 4
f 530 4 5
f 530 5 3
f 530 3 593
f 530 593 591
f 530 591 590
f 530 590 589
f 530 589 592
f 530 592 570
f 530 570 569
f 530 569 568
f 530 568 567
f 530 567 571
f 530 571 533
f 530 533 532
f 530 532 531
f 93 1153 1150
f 96 92 95
f 1152 1154 98
f 97 94 1151
f 1234 16 90
f 1234 90 1228
f 1234 1228 1225
f 1234 1225 1226
f 1234 1226 1227
f 1234 1227 1229
f 1229 1153 93
f 1229 93 94
f 1229 94 95
f 1229 95 92
f 92 1155 1159
f 92 1159 1158
f 92 1158 1233
f 1232 1234 1229
f 1229 92 1233
f 1229 1233 1230
f 1229 1230 1231
f 1229 1231 1232
f 1212 1214 91
f 1212 91 17
f 1212 17 1219
f 1212 1219 1217
f 1212 1217 1216
f 1212 1216 1215
f 1212 1215 1218
f 1212 1218 1156
f 1157 1155 92
f 1157 92 96
f 1157 96 97
f 1157 97 98
f 1157 98 1154
f 1154 1213 1210
f 1154 1210 1211
f 1154 1211 1212
f 1154 1212 1156
f 1154 1156 1157
f 18 1051 99
f 18 1039 1051
f 18 1042 1039
f 18 1047 1042
f 18 1048 1047
f 1048 1034 1036
f 1048 1035 1034
f 1048 1018 1035
f 1048 1019 1018
f 1019 987 996
f 1019 990 987
f 1019 993 990
f 1019 999 993
f 999 19 108
f 999 1189 19
f 999 1187 1189
f 999 1186 1187
f 999 1185 1186
f 999 1188 1185
f 999 1032 1188
f 1194 1048 18
f 1019 1032 999
f 1019 1033 1032
f 1019 1064 1033
f 1019 1063 1064
f 1019 1062 1063
f 1019 1193 1062
f 1192 1048 1194
f 1048 1193 1019
f 1048 1190 1193
f 1048 1191 1190
f 1048 1192 1191
f 1061 20 100
f 1061 100 1050
f 1061 1050 1038
f 1061 1038 1041
f 1061 1041 1046
f 1061 1046 1045
f 1045 1021 1011
f 1045 1011 1013
f 1045 1013 1017
f 1045 1017 1016
f 1016 995 986
f 1016 986 989
f 1016 989 992
f 1016 992 998
f 998 109 21
f 998 21 1009
f 998 1009 1007
f 998 1007 1006
f 998 1006 1005
f 998 1005 1008
f 998 1008 1030
f 1059 1061 1045
f 1016 998 1030
f 1016 1030 1031
f 1016 1031 1029
f 1016 1029 1028
f 1016 1028 1027
f 1016 1027 1060
f 1058 1059 1045
f 1045 1016 1060
f 1045 1060 1057
f 1045 1057 1058
f 22 1049 101
f 22 1037 1049
f 22 1040 1037
f 22 1044 1040
f 22 1043 1044
f 1043 1010 1020
f 1043 1012 1010
f 1043 1015 1012
f 1043 1014 1015
f 1014 985 994
f 1014 988 985
f 1014 991 988
f 1014 997 991
f 997 23 110
f 997 1004 23
f 997 1002 1004
f 997 1001 1002
f 997 1000 1001
f 997 1003 1000
f 997 1025 1003
f 1056 1043 22
f 1014 1025 997
f 1014 1026 1025
f 1014 1024 1026
f 1014 1023 1024
f 1014 1022 1023
f 1014 1055 1022
f 1054 1043 1056
f 1043 1055 1014
f 1043 1052 1055
f 1043 1053 1052
f 1043 1054 1053
f 924 24 102
f 924 102 919
f 924 919 911
f 924 911 913
f 924 913 917
f 924 917 916
f 916 894 886
f 916 886 888
f 916 888 892
f 916 892 891
f 891 878 875
f 891 875 876
f 891 876 877
f 891 877 879
f 879 111 25
f 879 25 884
f 879 884 882
f 879 882 881
f 879 881 880
f 879 880 883
f 879 883 908
f 922 924 916
f 891 879 908
f 891 908 909
f 891 909 907
f 891 907 906
f 891 906 905
f 891 905 923
f 921 922 916
f 916 891 923
f 916 923 920
f 916 920 921
f 26 918 103
f 26 910 918
f 26 912 910
f 26 915 912
f 26 914 915
f 914 885 893
f 914 887 885
f 914 890 887
f 914 889 890
f 889 865 868
f 889 866 865
f 889 867 866
f 889 869 867
f 869 27 112
f 869 874 27
f 869 872 874
f 869 871 872
f 869 870 871
f 869 873 870
f 869 903 873
f 899 914 26
f 889 903 869
f 889 904 903
f 889 902 904
f 889 901 902
f 889 900 901
f 889 898 900
f 897 914 899
f 914 898 889
f 914 895 898
f 914 896 895
f 914 897 896
f 769 28 104
f 769 104 754
f 769 754 742
f 769 742 745
f 769 745 751
f 769 751 750
f 750 739 735
f 750 735 736
f 750 736 738
f 750 738 737
f 737 699 693
f 737 693 695
f 737 695 697
f 737 697 701
f 701 113 29
f 701 29 714
f 701 714 712
f 701 712 711
f 701 711 710
f 701 710 713
f 701 713 773
f 767 769 750
f 737 701 773
f 737 773 774
f 737 774 772
f 737 772 771
f 737 771 770
f 737 770 768
f 766 767 750
f 750 737 768
f 750 768 765
f 750 765 766
f 31 753 105
f 31 741 753
f 31 744 741
f 31 749 744
f 31 748 749
f 748 716 724
f 748 718 716
f 748 722 718
f 748 721 722
f 721 692 698
f 721 694 692
f 721 696 694
f 721 700 696
f 700 30 114
f 700 709 30
f 700 707 709
f 700 706 707
f 700 705 706
f 700 708 705
f 700 733 708
f 764 748 31
f 721 733 700
f 721 734 733
f 721 732 734
f 721 731 732
f 721 730 731
f 721 763 730
f 762 748 764
f 748 763 721
f 748 760 763
f 748 761 760
f 748 762 761
f 759 32 106
f 759 106 752
f 759 752 740
f 759 740 743
f 759 743 747
f 759 747 746
f 746 723 715
f 746 715 717
f 746 717 720
f 746 720 719
f 719 688 685
f 719 685 686
f 719 686 687
f 719 687 689
f 689 115 33
f 689 33 691
f 689 691 690
f 689 690 703
f 689 703 702
f 689 702 704
f 689 704 728
f 757 759 746
f 719 689 728
f 719 728 729
f 719 729 727
f 719 727 726
f 719 726 725
f 719 725 758
f 756 757 746
f 746 719 758
f 746 758 755
f 746 755 756
f 34 576 107
f 34 572 576
f 34 573 572
f 34 575 573
f 34 574 575
f 574 535 539
f 574 536 535
f 574 538 536
f 574 537 538
f 537 503 506
f 537 504 503
f 537 505 504
f 537 507 505
f 507 35 116
f 507 529 35
f 507 527 529
f 507 526 527
f 507 525 526
f 507 528 525
f 507 565 528
f 588 574 34
f 537 565 507
f 537 566 565
f 537 564 566
f 537 563 564
f 537 562 563
f 537 587 562
f 586 574 588
f 574 587 537
f 574 584 587
f 574 585 584
f 574 586 585
f 520 523 522
f 520 87 523
f 520 561 87
f 520 560 561
f 520 555 560
f 520 556 555
f 520 559 556
f 520 557 559
f 520 553 557
f 520 548 553
f 520 549 548
f 520 552 549
f 520 550 552
f 520 517 550
f 520 518 517
f 520 519 518
f 1318 1291 1313
f 1291 1338 1304
f 1338 1325 1329
f 1338 1326 1325
f 1338 1327 1326
f 1338 1328 1327
f 1338 1334 1328
f 1338 1332 1334
f 1338 1333 1332
f 1322 1315 1324
f 1322 1316 1315
f 1322 1317 1316
f 1322 1318 1317
f 1322 1291 1318
f 1291 1333 1338
f 1291 1321 1333
f 1291 1322 1321
f 54 53 152
f 54 152 153
f 54 153 154
f 151 152 53
f 151 53 128
f 151 128 127
f 127 54 154
f 127 154 151
f 112 11 150
f 112 150 147
f 112 147 148
f 149 150 11
f 149 11 10
f 149 10 111
f 111 112 148
f 111 148 149
f 1345 1353 1344
f 1342 1341 1343
f 1340 1354 1347
f 1346 1343 1341
f 1381 1389 1377
f 1378 1380 1376
f 1379 1390 1383
f 1382 1376 1380
f 1301 1308 1300
f 1298 1310 301
f 303 1309 1303
f 1302 1299 302
f 1288 1295 304
f 306 1297 1287
f 1285 1296 1290
f 1289 305 1286
f 1319 1359 1364
f 1373 1369 1330
f 1295 136 1240
f 1307 1245 137
f 1293 1306 1310
f 1314 1292 1241
f 1165 1246 1305
f 1351 1205 135
f 1389 138 1265
f 1349 1312 1146
f 1266 1166 1337
f 1336 1331 1370
f 1320 1311 1348
f 137 1245 1255
f 1245 1247 1259
f 1247 1248 1258
f 1248 1249 1257
f 1249 1246 1256
f 1246 1165 1177
f 1165 1167 1180
f 1179 1180 1167
f 1168 1169 1178
f 1176 1178 1169
f 1266 1276 1176
f 1266 1267 1279
f 1267 1268 1278
f 1278 1268 1269
f 1269 1265 1275
f 1265 138 72
f 604 605 76
f 639 601 621
f 658 77 674
f 632 623 659
f 606 599 76
f 675 41 77
f 623 643 676
f 601 600 610
f 602 609 610
f 608 609 602
f 606 608 603
f 607 644 621
f 647 643 623
f 647 622 624
f 625 645 646
f 621 644 645
f 676 677 662
f 678 661 662
f 678 679 660
f 679 675 658
f 81 82 1171
f 84 85 82
f 1172 1171 85
f 68 78 131
f 79 68 60
f 133 62 61
f 123 45 47
f 124 46 38
f 1253 1065 131
f 1066 1067 129
f 925 926 125
f 775 776 120
f 777 594 117
f 1254 1173 1080
f 1071 1096 1097
f 928 940 941
f 779 790 815
f 783 816 616
f 79 134 1120
f 133 132 1122
f 127 128 975
f 123 122 836
f 124 118 653
f 1174 1273 1123
f 1101 1124 1125
f 943 966 976
f 792 837 838
f 820 859 654
f 62 130 129
f 54 126 125
f 45 121 120
f 46 119 117
f 1 1239 1240
f 1239 1235 1244
f 1235 1236 1243
f 1236 1237 1242
f 1237 1238 1241
f 1238 1163 1145
f 1163 1160 1149
f 1148 1149 1160
f 1161 1162 1147
f 1146 1147 1162
f 1146 1164 1223
f 1223 1220 1209
f 1220 1221 1208
f 1222 1207 1208
f 1222 1224 1205
f 1224 2 135
f 577 88 583
f 554 540 579
f 521 524 89
f 516 509 542
f 3 88 577
f 508 89 4
f 509 533 571
f 592 589 578
f 578 589 590
f 581 580 590
f 577 581 591
f 579 540 570
f 541 542 571
f 568 543 541
f 543 568 569
f 544 569 570
f 509 512 532
f 532 512 511
f 511 510 530
f 510 508 534
f 1150 1151 94
f 95 94 97
f 98 97 1151
f 7 99 90
f 108 7 6
f 110 9 8
f 114 13 12
f 116 15 14
f 90 99 1051
f 100 101 1049
f 102 103 918
f 104 105 753
f 106 107 576
f 1048 1036 1153
f 1043 1020 1021
f 914 893 894
f 748 724 739
f 574 539 723
f 1214 999 108
f 998 997 110
f 879 869 112
f 701 700 114
f 689 507 116
f 1019 996 1213
f 1014 994 995
f 889 868 878
f 721 698 699
f 537 506 688
f 9 101 100
f 11 103 102
f 13 105 104
f 15 107 106
f 153 152 142
f 140 154 153
f 141 151 154
f 152 151 141
f 149 148 146
f 144 150 149
f 145 147 150
f 148 147 145
f 142 141 140
f 146 145 144
f 152 151 154
f 148 147 150
f 1344 1343 1346
f 1347 1346 1341
f 1377 1376 1382
f 1383 1382 1380
f 1323 178 170
f 178 177 171
f 158 170 173
f 170 171 174
f 159 172 176
f 172 171 177
f 161 175 172
f 175 174 171
f 162 179 1321
f 179 180 1333
f 160 173 179
f 173 174 180
f 1334 1332 181
f 1332 1333 180
f 163 181 175
f 181 180 174
f 1364 184 178
f 184 183 177
f 1335 176 182
f 176 177 183
f 1362 1361 185
f 1361 1371 186
f 164 185 188
f 185 186 189
f 165 187 1372
f 187 186 1371
f 167 190 187
f 190 189 186
f 168 191 184
f 191 192 183
f 166 188 191
f 188 189 192
f 1373 182 193
f 182 183 192
f 169 193 190
f 193 192 189
f 1323 158 199
f 158 160 201
f 1330 195 159
f 195 197 161
f 1324 203 162
f 203 201 160
f 1334 163 205
f 163 161 197
f 1362 164 207
f 164 166 209
f 1367 211 165
f 211 213 167
f 1359 217 168
f 217 209 166
f 1373 169 215
f 169 167 213
f 194 221 218
f 221 222 219
f 196 235 221
f 235 236 222
f 1320 241 224
f 241 242 225
f 198 224 227
f 224 225 228
f 202 230 1317
f 230 155 1316
f 200 227 230
f 227 228 155
f 1329 1325 232
f 1325 1326 233
f 204 232 235
f 232 233 236
f 1331 218 238
f 218 219 239
f 1360 259 241
f 259 260 242
f 1358 1363 244
f 1363 1356 245
f 206 244 247
f 244 245 248
f 210 250 1375
f 250 251 1366
f 212 256 250
f 256 257 251
f 1370 238 253
f 238 239 254
f 214 253 256
f 253 254 257
f 216 262 259
f 262 263 260
f 208 247 262
f 247 248 263
f 199 226 243
f 226 225 242
f 201 229 226
f 229 228 225
f 1330 220 223
f 220 219 222
f 195 223 237
f 223 222 236
f 1324 1315 231
f 1315 1316 155
f 203 231 229
f 231 155 228
f 205 234 1327
f 234 233 1326
f 197 237 234
f 237 236 233
f 1319 243 261
f 243 242 260
f 1369 240 220
f 240 239 219
f 207 246 1355
f 246 245 1356
f 209 249 246
f 249 248 245
f 1367 1365 252
f 1365 1366 251
f 211 252 258
f 252 251 257
f 1359 261 264
f 261 260 263
f 217 264 249
f 264 263 248
f 215 255 240
f 255 254 239
f 213 258 255
f 258 257 254
f 1145 1149 265
f 1149 1148 267
f 1339 269 1167
f 269 271 1168
f 1312 273 1147
f 273 267 1148
f 1166 1169 275
f 1169 1168 271
f 1240 1244 277
f 1244 1243 279
f 1307 281 1247
f 281 283 1248
f 1306 1293 278
f 282 278 280
f 1292 285 1242
f 285 279 1243
f 1246 1249 287
f 1249 1248 283
f 288 286 1291
f 284 280 286
f 1351 289 1207
f 289 291 1208
f 1265 1269 293
f 1269 1268 295
f 1206 1209 297
f 1209 1208 291
f 1385 299 1267
f 299 295 1268
f 1336 276 194
f 276 272 196
f 1320 198 274
f 198 200 268
f 1313 266 202
f 266 268 200
f 1329 204 270
f 204 196 272
f 1358 206 290
f 206 208 292
f 1386 294 210
f 294 296 212
f 1370 214 300
f 214 212 296
f 1348 298 216
f 298 292 208
f 265 310 307
f 310 311 308
f 267 322 310
f 322 323 311
f 1339 340 313
f 340 341 314
f 269 313 316
f 313 314 317
f 1312 367 319
f 367 368 320
f 273 319 322
f 319 320 323
f 275 328 325
f 328 329 326
f 271 316 328
f 316 317 329
f 1294 336 304
f 336 335 305
f 1309 303 331
f 303 302 332
f 1297 306 334
f 306 305 335
f 1306 333 301
f 333 332 302
f 1314 307 337
f 307 308 338
f 1305 358 340
f 358 359 341
f 277 343 336
f 343 344 335
f 279 354 343
f 354 353 344
f 1307 331 346
f 331 332 347
f 281 346 349
f 346 347 350
f 1293 334 345
f 334 335 344
f 278 345 352
f 345 344 353
f 282 348 333
f 348 347 332
f 284 351 348
f 351 350 347
f 1292 337 355
f 337 338 356
f 285 355 354
f 355 356 353
f 287 361 358
f 361 362 359
f 283 349 361
f 349 350 362
f 286 357 339
f 357 356 338
f 280 352 357
f 352 353 356
f 1304 360 363
f 360 359 362
f 288 363 351
f 363 362 350
f 1354 1340 364
f 1340 1341 365
f 1387 379 1377
f 379 380 1376
f 1349 385 367
f 385 386 368
f 1337 325 370
f 325 326 371
f 1351 364 373
f 364 365 374
f 289 373 376
f 373 374 377
f 293 382 379
f 382 383 380
f 295 392 382
f 392 393 383
f 297 156 385
f 156 388 386
f 291 376 156
f 376 377 388
f 1385 370 157
f 370 371 390
f 299 157 392
f 157 390 393
f 1336 327 330
f 327 326 329
f 276 330 318
f 330 329 317
f 274 321 369
f 321 320 368
f 268 324 321
f 324 323 320
f 1313 309 312
f 309 308 311
f 266 312 324
f 312 311 323
f 270 315 342
f 315 314 341
f 272 318 315
f 318 317 314
f 1384 372 327
f 372 371 326
f 1311 369 387
f 369 368 386
f 290 375 366
f 375 374 365
f 292 378 375
f 378 377 374
f 1386 381 384
f 381 380 383
f 294 384 394
f 384 383 393
f 300 391 372
f 391 390 371
f 296 394 391
f 394 393 390
f 1348 387 389
f 387 386 388
f 298 389 378
f 389 388 377
f 1291 339 309
f 339 338 308
f 1338 342 360
f 342 341 359
f 1350 366 1342
f 366 365 1341
f 1388 1378 381
f 1378 1376 380
f 1300 1299 1302
f 301 302 1299
f 1303 1302 302
f 304 305 1289
f 1287 1286 305
f 1290 1289 1286
f 604 410 626
f 410 411 627
f 639 416 404
f 416 417 405
f 395 404 407
f 404 405 408
f 397 413 410
f 413 414 411
f 396 407 413
f 407 408 414
f 635 425 416
f 425 426 417
f 632 448 419
f 448 447 420
f 398 419 422
f 419 420 423
f 400 428 425
f 428 429 426
f 399 422 428
f 422 423 429
f 672 431 663
f 431 432 664
f 670 434 431
f 434 435 432
f 667 443 440
f 631 446 443
f 446 447 444
f 633 421 446
f 421 420 447
f 630 424 421
f 424 423 420
f 629 430 424
f 430 429 423
f 634 427 430
f 427 426 429
f 638 418 427
f 418 417 426
f 640 406 418
f 406 405 417
f 637 409 406
f 409 408 405
f 636 415 409
f 415 414 408
f 641 412 415
f 412 411 414
f 642 628 412
f 628 627 411
f 674 665 433
f 665 664 432
f 666 445 448
f 445 444 447
f 671 433 436
f 433 432 435
f 401 436 439
f 436 435 438
f 403 442 445
f 402 439 442
f 439 438 441
f 601 639 395
f 602 600 395
f 599 603 397
f 603 602 396
f 398 622 623
f 399 624 622
f 400 635 621
f 399 400 625
f 671 401 660
f 401 402 661
f 666 659 662
f 403 662 661
f 1254 1068 1069
f 1071 1073 1072
f 928 930 929
f 779 781 780
f 783 596 595
f 1251 1252 1069
f 1075 1070 1072
f 931 927 929
f 784 778 780
f 786 782 595
f 1253 1250 1077
f 1066 1078 1079
f 925 933 934
f 775 787 788
f 777 789 598
f 1250 1251 1074
f 1078 1075 1076
f 933 931 932
f 787 784 785
f 789 786 597
f 1172 1174 1098
f 1100 1101 1103
f 942 943 945
f 791 792 818
f 819 820 618
f 1171 1172 1099
f 1104 1100 1102
f 946 942 944
f 793 791 817
f 822 819 617
f 1082 1080 1173
f 1106 1107 1097
f 948 949 941
f 794 823 815
f 824 620 616
f 1081 1082 1170
f 1104 1105 1107
f 946 947 949
f 793 821 823
f 822 619 620
f 1274 1120 1126
f 1121 1122 1128
f 965 975 977
f 835 836 840
f 858 653 655
f 1272 1126 1129
f 1127 1128 1131
f 967 977 978
f 839 840 842
f 860 655 656
f 1273 1270 1132
f 1124 1133 1134
f 966 969 979
f 837 843 844
f 859 862 657
f 1270 1271 1129
f 1133 1130 1131
f 969 968 978
f 843 841 842
f 862 861 656
f 583 545 464
f 545 546 465
f 449 458 470
f 458 459 471
f 450 461 458
f 461 462 459
f 582 464 467
f 464 465 468
f 451 467 461
f 467 468 462
f 558 470 479
f 470 471 480
f 452 473 502
f 473 474 501
f 453 476 473
f 476 477 474
f 554 479 482
f 479 480 483
f 454 482 476
f 482 483 477
f 523 513 485
f 513 514 486
f 522 485 488
f 485 486 489
f 518 494 497
f 517 497 500
f 497 498 501
f 550 500 475
f 500 501 474
f 552 475 478
f 475 474 477
f 549 478 484
f 478 477 483
f 548 484 481
f 484 483 480
f 553 481 472
f 481 480 471
f 557 472 460
f 472 471 459
f 559 460 463
f 460 459 462
f 556 463 469
f 463 462 468
f 555 469 466
f 469 468 465
f 560 466 547
f 466 465 546
f 521 487 515
f 487 486 514
f 551 502 499
f 502 501 498
f 455 490 487
f 490 489 486
f 456 493 490
f 493 492 489
f 516 499 496
f 457 496 493
f 496 495 492
f 578 449 558
f 450 449 578
f 582 451 581
f 451 450 580
f 551 542 541
f 452 541 543
f 544 540 554
f 543 544 454
f 508 510 455
f 510 511 456
f 457 512 509
f 456 511 512
f 1227 1047 1048
f 1046 1044 1043
f 917 915 914
f 751 749 748
f 747 575 574
f 1042 1047 1227
f 1040 1044 1046
f 912 915 917
f 744 749 751
f 573 575 747
f 1051 1039 1225
f 1049 1037 1038
f 918 910 911
f 753 741 742
f 576 572 740
f 1039 1042 1226
f 1037 1040 1041
f 910 912 913
f 741 744 745
f 572 573 743
f 1018 1019 1154
f 1015 1014 1016
f 890 889 891
f 722 721 737
f 538 537 719
f 1035 1018 1152
f 1012 1015 1017
f 887 890 892
f 718 722 738
f 536 538 720
f 1150 1153 1036
f 1021 1020 1010
f 894 893 885
f 739 724 716
f 723 539 535
f 1151 1150 1034
f 1011 1010 1012
f 886 885 887
f 735 716 718
f 715 535 536
f 1212 993 999
f 992 991 997
f 877 867 869
f 697 696 700
f 687 505 507
f 1211 990 993
f 989 988 991
f 876 866 867
f 695 694 696
f 686 504 505
f 996 987 1210
f 994 985 986
f 868 865 875
f 698 692 693
f 506 503 685
f 987 990 1211
f 985 988 989
f 865 866 876
f 692 694 695
f 503 504 686
f 669 437 434
f 437 438 435
f 668 440 437
f 440 441 438
f 443 444 441
f 442 441 444
f 520 488 491
f 488 489 492
f 519 491 494
f 491 492 495
f 494 495 498
f 499 498 495
f 1319 1364 1323
f 1373 1330 1335
f 1295 1240 1294
f 1307 137 1309
f 1293 1310 1297
f 1314 1241 1145
f 1165 1305 1339
f 1351 135 1354
f 1389 1265 1387
f 1349 1146 1206
f 1266 1337 1385
f 1336 1370 1384
f 1320 1348 1360
f 137 1255 69
f 1245 1259 1255
f 1247 1258 1259
f 1248 1257 1258
f 1249 1256 1257
f 1246 1177 1256
f 1165 1180 1177
f 1179 1167 1168
f 1168 1178 1179
f 1176 1169 1166
f 1266 1176 1166
f 1266 1279 1276
f 1267 1278 1279
f 1278 1269 1277
f 1269 1275 1277
f 1265 72 1275
f 604 76 599
f 639 621 635
f 658 674 671
f 632 659 666
f 606 76 37
f 675 77 658
f 623 676 659
f 601 610 607
f 602 610 600
f 608 602 603
f 606 603 599
f 607 621 601
f 647 623 622
f 647 624 646
f 625 646 624
f 621 645 625
f 676 662 659
f 678 662 677
f 678 660 661
f 679 658 660
f 81 1171 1170
f 84 82 83
f 1172 85 86
f 68 131 60
f 79 60 134
f 133 61 132
f 123 47 122
f 124 38 118
f 1253 131 78
f 1066 129 130
f 925 125 126
f 775 120 121
f 777 117 119
f 1254 1080 1068
f 1071 1097 1073
f 928 941 930
f 779 815 781
f 783 616 596
f 79 1120 1274
f 133 1122 1121
f 127 975 965
f 123 836 835
f 124 653 858
f 1174 1123 1098
f 1101 1125 1103
f 943 976 945
f 792 838 818
f 820 654 618
f 62 129 61
f 54 125 53
f 45 120 47
f 46 117 38
f 1 1240 136
f 1239 1244 1240
f 1235 1243 1244
f 1236 1242 1243
f 1237 1241 1242
f 1238 1145 1241
f 1163 1149 1145
f 1148 1160 1161
f 1161 1147 1148
f 1146 1162 1164
f 1146 1223 1206
f 1223 1209 1206
f 1220 1208 1209
f 1222 1208 1221
f 1222 1205 1207
f 1224 135 1205
f 577 583 582
f 554 579 558
f 521 89 508
f 516 542 551
f 3 577 593
f 508 4 534
f 509 571 542
f 592 578 579
f 578 590 580
f 581 590 591
f 577 591 593
f 579 570 592
f 541 571 567
f 568 541 567
f 543 569 544
f 544 570 540
f 509 532 533
f 532 511 531
f 511 530 531
f 510 534 530
f 1150 94 93
f 95 97 96
f 98 1151 1152
f 7 90 6
f 108 6 91
f 110 8 109
f 114 12 113
f 116 14 115
f 90 1051 1228
f 100 1049 1050
f 102 918 919
f 104 753 754
f 106 576 752
f 1048 1153 1229
f 1043 1021 1045
f 914 894 916
f 748 739 750
f 574 723 746
f 1214 108 91
f 998 110 109
f 879 112 111
f 701 114 113
f 689 116 115
f 1019 1213 1154
f 1014 995 1016
f 889 878 891
f 721 699 737
f 537 688 719
f 9 100 8
f 11 102 10
f 13 104 12
f 15 106 14
f 153 142 139
f 140 153 139
f 141 154 140
f 152 141 142
f 149 146 143
f 144 149 143
f 145 150 144
f 148 145 146
f 142 140 139
f 146 144 143
f 152 154 153
f 148 150 149
f 1344 1346 1345
f 1347 1341 1340
f 1377 1382 1381
f 1383 1380 1379
f 1323 170 158
f 178 171 170
f 158 173 160
f 170 174 173
f 159 176 1335
f 172 177 176
f 161 172 159
f 175 171 172
f 162 1321 1322
f 179 1333 1321
f 160 179 162
f 173 180 179
f 1334 181 163
f 1332 180 181
f 163 175 161
f 181 174 175
f 1364 178 1323
f 184 177 178
f 1335 182 1373
f 176 183 182
f 1362 185 164
f 1361 186 185
f 164 188 166
f 185 189 188
f 165 1372 1374
f 187 1371 1372
f 167 187 165
f 190 186 187
f 168 184 1364
f 191 183 184
f 166 191 168
f 188 192 191
f 1373 193 169
f 182 192 193
f 169 190 167
f 193 189 190
f 1323 199 1319
f 158 201 199
f 1330 159 1335
f 195 161 159
f 1324 162 1322
f 203 160 162
f 1334 205 1328
f 163 197 205
f 1362 207 1357
f 164 209 207
f 1367 165 1374
f 211 167 165
f 1359 168 1364
f 217 166 168
f 1373 215 1369
f 169 213 215
f 194 218 1331
f 221 219 218
f 196 221 194
f 235 222 221
f 1320 224 198
f 241 225 224
f 198 227 200
f 224 228 227
f 202 1317 1318
f 230 1316 1317
f 200 230 202
f 227 155 230
f 1329 232 204
f 1325 233 232
f 204 235 196
f 232 236 235
f 1331 238 1370
f 218 239 238
f 1360 241 1320
f 259 242 241
f 1358 244 206
f 1363 245 244
f 206 247 208
f 244 248 247
f 210 1375 1368
f 250 1366 1375
f 212 250 210
f 256 251 250
f 1370 253 214
f 238 254 253
f 214 256 212
f 253 257 256
f 216 259 1360
f 262 260 259
f 208 262 216
f 247 263 262
f 199 243 1319
f 226 242 243
f 201 226 199
f 229 225 226
f 1330 223 195
f 220 222 223
f 195 237 197
f 223 236 237
f 1324 231 203
f 1315 155 231
f 203 229 201
f 231 228 229
f 205 1327 1328
f 234 1326 1327
f 197 234 205
f 237 233 234
f 1319 261 1359
f 243 260 261
f 1369 220 1330
f 240 219 220
f 207 1355 1357
f 246 1356 1355
f 209 246 207
f 249 245 246
f 1367 252 211
f 1365 251 252
f 211 258 213
f 252 257 258
f 1359 264 217
f 261 263 264
f 217 249 209
f 264 248 249
f 215 240 1369
f 255 239 240
f 213 255 215
f 258 254 255
f 1145 265 1314
f 1149 267 265
f 1339 1167 1165
f 269 1168 1167
f 1312 1147 1146
f 273 1148 1147
f 1166 275 1337
f 1169 271 275
f 1240 277 1294
f 1244 279 277
f 1307 1247 1245
f 281 1248 1247
f 1306 278 282
f 282 280 284
f 1292 1242 1241
f 285 1243 1242
f 1246 287 1305
f 1249 283 287
f 288 1291 1304
f 284 286 288
f 1351 1207 1205
f 289 1208 1207
f 1265 293 1387
f 1269 295 293
f 1206 297 1349
f 1209 291 297
f 1385 1267 1266
f 299 1268 1267
f 1336 194 1331
f 276 196 194
f 1320 274 1311
f 198 268 274
f 1313 202 1318
f 266 200 202
f 1329 270 1338
f 204 272 270
f 1358 290 1350
f 206 292 290
f 1386 210 1368
f 294 212 210
f 1370 300 1384
f 214 296 300
f 1348 216 1360
f 298 208 216
f 265 307 1314
f 310 308 307
f 267 310 265
f 322 311 310
f 1339 313 269
f 340 314 313
f 269 316 271
f 313 317 316
f 1312 319 273
f 367 320 319
f 273 322 267
f 319 323 322
f 275 325 1337
f 328 326 325
f 271 328 275
f 316 329 328
f 1294 304 1295
f 336 305 304
f 1309 331 1307
f 303 332 331
f 1297 334 1293
f 306 335 334
f 1306 301 1310
f 333 302 301
f 1314 337 1292
f 307 338 337
f 1305 340 1339
f 358 341 340
f 277 336 1294
f 343 335 336
f 279 343 277
f 354 344 343
f 1307 346 281
f 331 347 346
f 281 349 283
f 346 350 349
f 1293 345 278
f 334 344 345
f 278 352 280
f 345 353 352
f 282 333 1306
f 348 332 333
f 284 348 282
f 351 347 348
f 1292 355 285
f 337 356 355
f 285 354 279
f 355 353 354
f 287 358 1305
f 361 359 358
f 283 361 287
f 349 362 361
f 286 339 1291
f 357 338 339
f 280 357 286
f 352 356 357
f 1304 363 288
f 360 362 363
f 288 351 284
f 363 350 351
f 1354 364 1351
f 1340 365 364
f 1387 1377 1389
f 379 1376 1377
f 1349 367 1312
f 385 368 367
f 1337 370 1385
f 325 371 370
f 1351 373 289
f 364 374 373
f 289 376 291
f 373 377 376
f 293 379 1387
f 382 380 379
f 295 382 293
f 392 383 382
f 297 385 1349
f 156 386 385
f 291 156 297
f 376 388 156
f 1385 157 299
f 370 390 157
f 299 392 295
f 157 393 392
f 1336 330 276
f 327 329 330
f 276 318 272
f 330 317 318
f 274 369 1311
f 321 368 369
f 268 321 274
f 324 320 321
f 1313 312 266
f 309 311 312
f 266 324 268
f 312 323 324
f 270 342 1338
f 315 341 342
f 272 315 270
f 318 314 315
f 1384 327 1336
f 372 326 327
f 1311 387 1348
f 369 386 387
f 290 366 1350
f 375 365 366
f 292 375 290
f 378 374 375
f 1386 384 294
f 381 383 384
f 294 394 296
f 384 393 394
f 300 372 1384
f 391 371 372
f 296 391 300
f 394 390 391
f 1348 389 298
f 387 388 389
f 298 378 292
f 389 377 378
f 1291 309 1313
f 339 308 309
f 1338 360 1304
f 342 359 360
f 1350 1342 1352
f 366 1341 1342
f 1388 381 1386
f 1378 380 381
f 1300 1302 1301
f 301 1299 1298
f 1303 302 303
f 304 1289 1288
f 1287 305 306
f 1290 1286 1285
f 604 626 605
f 410 627 626
f 639 404 395
f 416 405 404
f 395 407 396
f 404 408 407
f 397 410 604
f 413 411 410
f 396 413 397
f 407 414 413
f 635 416 639
f 425 417 416
f 632 419 398
f 448 420 419
f 398 422 399
f 419 423 422
f 400 425 635
f 428 426 425
f 399 428 400
f 422 429 428
f 672 663 673
f 431 664 663
f 670 431 672
f 434 432 431
f 667 440 668
f 631 443 667
f 446 444 443
f 633 446 631
f 421 447 446
f 630 421 633
f 424 420 421
f 629 424 630
f 430 423 424
f 634 430 629
f 427 429 430
f 638 427 634
f 418 426 427
f 640 418 638
f 406 417 418
f 637 406 640
f 409 405 406
f 636 409 637
f 415 408 409
f 641 415 636
f 412 414 415
f 642 412 641
f 628 411 412
f 674 433 671
f 665 432 433
f 666 448 632
f 445 447 448
f 671 436 401
f 433 435 436
f 401 439 402
f 436 438 439
f 403 445 666
f 402 442 403
f 439 441 442
f 601 395 600
f 602 395 396
f 599 397 604
f 603 396 397
f 398 623 632
f 399 622 398
f 400 621 625
f 399 625 624
f 671 660 658
f 401 661 660
f 666 662 403
f 403 661 402
f 1254 1069 1252
f 1071 1072 1070
f 928 929 927
f 779 780 778
f 783 595 782
f 1251 1069 1074
f 1075 1072 1076
f 931 929 932
f 784 780 785
f 786 595 597
f 1253 1077 1065
f 1066 1079 1067
f 925 934 926
f 775 788 776
f 777 598 594
f 1250 1074 1077
f 1078 1076 1079
f 933 932 934
f 787 785 788
f 789 597 598
f 1172 1098 1099
f 1100 1103 1102
f 942 945 944
f 791 818 817
f 819 618 617
f 1171 1099 1081
f 1104 1102 1105
f 946 944 947
f 793 817 821
f 822 617 619
f 1082 1173 1170
f 1106 1097 1096
f 948 941 940
f 794 815 790
f 824 616 816
f 1081 1170 1171
f 1104 1107 1106
f 946 949 948
f 793 823 794
f 822 620 824
f 1274 1126 1272
f 1121 1128 1127
f 965 977 967
f 835 840 839
f 858 655 860
f 1272 1129 1271
f 1127 1131 1130
f 967 978 968
f 839 842 841
f 860 656 861
f 1273 1132 1123
f 1124 1134 1125
f 966 979 976
f 837 844 838
f 859 657 654
f 1270 1129 1132
f 1133 1131 1134
f 969 978 979
f 843 842 844
f 862 656 657
f 583 464 582
f 545 465 464
f 449 470 558
f 458 471 470
f 450 458 449
f 461 459 458
f 582 467 451
f 464 468 467
f 451 461 450
f 467 462 461
f 558 479 554
f 470 480 479
f 452 502 551
f 473 501 502
f 453 473 452
f 476 474 473
f 554 482 454
f 479 483 482
f 454 476 453
f 482 477 476
f 523 485 522
f 513 486 485
f 522 488 520
f 485 489 488
f 518 497 517
f 517 500 550
f 497 501 500
f 550 475 552
f 500 474 475
f 552 478 549
f 475 477 478
f 549 484 548
f 478 483 484
f 548 481 553
f 484 480 481
f 553 472 557
f 481 471 472
f 557 460 559
f 472 459 460
f 559 463 556
f 460 462 463
f 556 469 555
f 463 468 469
f 555 466 560
f 469 465 466
f 560 547 561
f 466 546 547
f 521 515 524
f 487 514 515
f 551 499 516
f 502 498 499
f 455 487 521
f 490 486 487
f 456 490 455
f 493 489 490
f 516 496 457
f 457 493 456
f 496 492 493
f 578 558 579
f 450 578 580
f 582 581 577
f 451 580 581
f 551 541 452
f 452 543 453
f 544 554 454
f 543 454 453
f 508 455 521
f 510 456 455
f 457 509 516
f 456 512 457
f 1227 1048 1229
f 1046 1043 1045
f 917 914 916
f 751 748 750
f 747 574 746
f 1042 1227 1226
f 1040 1046 1041
f 912 917 913
f 744 751 745
f 573 747 743
f 1051 1225 1228
f 1049 1038 1050
f 918 911 919
f 753 742 754
f 576 740 752
f 1039 1226 1225
f 1037 1041 1038
f 910 913 911
f 741 745 742
f 572 743 740
f 1018 1154 1152
f 1015 1016 1017
f 890 891 892
f 722 737 738
f 538 719 720
f 1035 1152 1151
f 1012 1017 1013
f 887 892 888
f 718 738 736
f 536 720 717
f 1150 1036 1034
f 1021 1010 1011
f 894 885 886
f 739 716 735
f 723 535 715
f 1151 1034 1035
f 1011 1012 1013
f 886 887 888
f 735 718 736
f 715 536 717
f 1212 999 1214
f 992 997 998
f 877 869 879
f 697 700 701
f 687 507 689
f 1211 993 1212
f 989 991 992
f 876 867 877
f 695 696 697
f 686 505 687
f 996 1210 1213
f 994 986 995
f 868 875 878
f 698 693 699
f 506 685 688
f 987 1211 1210
f 985 989 986
f 865 876 875
f 692 695 693
f 503 686 685
f 669 434 670
f 437 435 434
f 668 437 669
f 440 438 437
f 443 441 440
f 442 444 445
f 520 491 519
f 488 492 491
f 519 494 518
f 491 495 494
f 494 498 497
f 499 495 496
