# CC0 David Gian-Cursio 2021; lossless split of accepted optimized preview.
o chevron-8
v 1.809835 5.115767 -0.131383
v 1.872607 5.063095 -0.131383
v 1.993608 5.230560 -0.176876
v 2.092378 5.147682 -0.176876
v 2.011664 5.215410 -0.176876
v 1.841766 5.113434 -0.135519
v 1.858754 5.123629 -0.139655
v 1.875747 5.133831 -0.143790
v 1.892734 5.144025 -0.147926
v 1.909722 5.154220 -0.152062
v 1.926715 5.164422 -0.156198
v 1.943703 5.174616 -0.160333
v 1.960696 5.184818 -0.164470
v 1.977684 5.195013 -0.168605
v 1.994671 5.205207 -0.172741
v 1.826545 5.126207 -0.135519
v 1.892589 5.070788 -0.135519
v 1.843249 5.136639 -0.139655
v 1.912566 5.078475 -0.139655
v 1.859959 5.147079 -0.143790
v 1.932548 5.086169 -0.143790
v 1.876663 5.157511 -0.147926
v 1.952525 5.093855 -0.147926
v 1.893366 5.167944 -0.152062
v 1.972502 5.101542 -0.152062
v 1.910076 5.178383 -0.156198
v 1.992484 5.109235 -0.156198
v 1.926781 5.188816 -0.160333
v 2.012461 5.116922 -0.160333
v 2.032443 5.124616 -0.164470
v 1.943491 5.199255 -0.164470
v 1.960194 5.209688 -0.168605
v 2.052420 5.132302 -0.168605
v 1.976898 5.220121 -0.172741
v 2.072396 5.139989 -0.172741
v 1.770786 5.393070 -0.172741
v 1.778165 5.411338 -0.176876
v 1.753013 5.407983 -0.172741
v 1.760109 5.426489 -0.176876
v 1.675288 5.473202 -0.172741
v 1.679395 5.494216 -0.176876
v 1.763413 5.374808 -0.168605
v 1.756039 5.356546 -0.164470
v 1.748660 5.338277 -0.160333
v 1.731737 5.352477 -0.160333
v 1.745923 5.389483 -0.168605
v 1.738833 5.370983 -0.164470
v 1.667087 5.431186 -0.164470
v 1.662979 5.410171 -0.160333
v 1.671187 5.452194 -0.168605
v 1.733907 5.301746 -0.152062
v 1.741286 5.320015 -0.156198
v 1.724647 5.333977 -0.156198
v 1.717552 5.315470 -0.152062
v 1.654772 5.368149 -0.152062
v 1.658879 5.389163 -0.156198
v 1.726533 5.283485 -0.147926
v 1.719160 5.265223 -0.143790
v 1.711781 5.246954 -0.139655
v 1.696276 5.259964 -0.139655
v 1.710462 5.296970 -0.147926
v 1.703372 5.278471 -0.143790
v 1.642464 5.305118 -0.139655
v 1.650671 5.347140 -0.147926
v 1.646570 5.326133 -0.143790
v 1.824773 5.103232 -0.131383
v 1.704407 5.228692 -0.135519
v 1.689186 5.241464 -0.135519
v 1.697028 5.210423 -0.131383
v 1.682090 5.222958 -0.131383
v 1.638363 5.284110 -0.135519
v 1.634256 5.263095 -0.131383
v 1.734763 5.049207 -0.109472
v 1.767190 5.444961 -0.181005
v 1.781612 5.408446 -0.176876
v 1.675948 5.497109 -0.176876
v 1.707854 5.225800 -0.135519
v 1.634915 5.287003 -0.135519
v 1.990161 5.233453 -0.176876
v 2.095825 5.144790 -0.176876
v 1.823097 5.129099 -0.135519
v 1.896037 5.067896 -0.135519
v 1.839802 5.139532 -0.139655
v 1.856511 5.149971 -0.143790
v 1.873216 5.160404 -0.147926
v 1.889919 5.170837 -0.152062
v 1.906629 5.181276 -0.156198
v 1.923333 5.191709 -0.160333
v 1.940043 5.202148 -0.164470
v 1.956747 5.212581 -0.168605
v 1.973451 5.223013 -0.172741
v 1.916013 5.075583 -0.139655
v 1.935996 5.083276 -0.143790
v 1.955972 5.090963 -0.147926
v 1.975949 5.098649 -0.152062
v 1.995931 5.106343 -0.156198
v 2.015908 5.114029 -0.160333
v 2.035890 5.121723 -0.164470
v 2.055866 5.129410 -0.168605
v 2.075843 5.137096 -0.172741
v 1.774233 5.390177 -0.172741
v 1.671841 5.476094 -0.172741
v 1.766860 5.371915 -0.168605
v 1.759486 5.353654 -0.164470
v 1.752107 5.335385 -0.160333
v 1.663639 5.434078 -0.164470
v 1.659532 5.413064 -0.160333
v 1.667741 5.455086 -0.168605
v 1.744734 5.317123 -0.156198
v 1.737354 5.298854 -0.152062
v 1.651325 5.371041 -0.152062
v 1.655432 5.392056 -0.156198
v 1.729980 5.280592 -0.147926
v 1.722607 5.262330 -0.143790
v 1.715228 5.244061 -0.139655
v 1.647224 5.350033 -0.147926
v 1.643123 5.329025 -0.143790
v 1.639017 5.308010 -0.139655
v 1.876054 5.060203 -0.131383
v 1.806388 5.118660 -0.131383
v 1.700475 5.207531 -0.131383
v 1.630809 5.265988 -0.131383
v 1.698053 5.332043 -0.124197
v 1.709739 5.345970 -0.128210
v 1.941115 5.151822 -0.128210
v 1.929429 5.137895 -0.124197
v 1.941115 5.151822 -0.156110
v 1.929429 5.137895 -0.152097
v 1.925568 5.141135 -0.152097
v 1.937254 5.155062 -0.156110
v 1.709739 5.345970 -0.156110
v 1.713600 5.342730 -0.156110
v 1.701914 5.328803 -0.152097
v 1.698053 5.332043 -0.152097
v 1.641395 5.030191 -0.101210
v 1.672793 5.137580 -0.115623
v 1.742610 5.078926 -0.129342
v 1.733981 5.048971 -0.134484
v 1.766829 5.444090 -0.210317
v 1.679931 5.517158 -0.193785
v 2.075084 5.137734 -0.186391
v 2.095065 5.145428 -0.190522
v 2.114089 5.152751 -0.194457
v 2.115065 5.153060 -0.193603
v 2.115082 5.153046 -0.181005
v 2.072337 5.140038 -0.181193
v 2.071638 5.140625 -0.181896
v 2.092319 5.147732 -0.185329
v 2.092156 5.147869 -0.185652
v 2.091914 5.148072 -0.185897
v 2.091618 5.148320 -0.186026
v 2.092378 5.147682 -0.184960
v 1.995382 5.204612 -0.201792
v 2.011683 5.215394 -0.206141
v 2.028540 5.224511 -0.210368
v 2.028288 5.225875 -0.209418
v 2.027161 5.225645 -0.210012
v 2.007870 5.243007 -0.194235
v 2.007529 5.243293 -0.181005
v 1.995381 5.204612 -0.197287
v 2.012049 5.215086 -0.201694
v 2.011691 5.215387 -0.201622
v 2.011342 5.215680 -0.201478
v 2.011046 5.215929 -0.201277
v 2.012375 5.214813 -0.201682
v 1.974096 5.222472 -0.186766
v 1.973451 5.223013 -0.185372
v 1.990805 5.232912 -0.190878
v 1.976947 5.220080 -0.181273
v 1.977513 5.219605 -0.182332
v 1.993983 5.230246 -0.186160
v 1.993788 5.230409 -0.185792
v 1.993657 5.230520 -0.185383
v 1.994222 5.230045 -0.186443
v 1.993608 5.230560 -0.184982
v 1.773589 5.390718 -0.186766
v 1.780968 5.408986 -0.190878
v 1.778165 5.411338 -0.184982
v 1.777552 5.411853 -0.186443
v 1.778117 5.411379 -0.185383
v 1.777985 5.411489 -0.185792
v 1.777790 5.411653 -0.186160
v 1.770172 5.393585 -0.182332
v 1.752303 5.408579 -0.201792
v 1.760450 5.426203 -0.206018
v 1.766538 5.445508 -0.209675
v 1.787947 5.427545 -0.194235
v 1.788287 5.427259 -0.181005
v 1.759399 5.427085 -0.201682
v 1.760728 5.425970 -0.201277
v 1.760431 5.426219 -0.201478
v 1.760083 5.426512 -0.201622
v 1.759724 5.426812 -0.201694
v 1.752304 5.408578 -0.197287
v 1.753633 5.407463 -0.196887
v 1.671841 5.476094 -0.185324
v 1.672601 5.475457 -0.186391
v 1.675948 5.497109 -0.189460
v 1.676709 5.496471 -0.190522
v 1.680617 5.516477 -0.194457
v 1.680752 5.517492 -0.193603
v 1.680735 5.517506 -0.181005
v 1.679870 5.517198 -0.180832
v 1.679395 5.494216 -0.184960
v 1.680155 5.493579 -0.186026
v 1.679859 5.493827 -0.185897
v 1.679617 5.494030 -0.185652
v 1.679455 5.494166 -0.185329
v 1.675288 5.473202 -0.180824
v 1.676047 5.472565 -0.181896
v 1.675510 5.473015 -0.181518
v 1.675752 5.472813 -0.181764
v 2.055108 5.130046 -0.182259
v 2.035132 5.122359 -0.178127
v 2.015151 5.114664 -0.173995
v 2.051662 5.132938 -0.177765
v 2.031687 5.125250 -0.173634
v 2.011706 5.117555 -0.169504
v 1.978393 5.194417 -0.197398
v 1.961405 5.184223 -0.193003
v 1.978393 5.194418 -0.192892
v 1.961404 5.184225 -0.188496
v 1.944411 5.174022 -0.188609
v 1.957393 5.212039 -0.182653
v 1.940689 5.201606 -0.178541
v 1.923980 5.191166 -0.174428
v 1.940043 5.202148 -0.177151
v 1.960809 5.209172 -0.178220
v 1.944106 5.198739 -0.174109
v 1.927396 5.188299 -0.169997
v 1.944410 5.174023 -0.184101
v 1.751460 5.335927 -0.174428
v 1.758840 5.354196 -0.178541
v 1.766214 5.372457 -0.182653
v 1.731029 5.353071 -0.188609
v 1.731031 5.353070 -0.184101
v 1.748044 5.338794 -0.169997
v 1.755424 5.357062 -0.174109
v 1.762798 5.375324 -0.178220
v 1.739485 5.370436 -0.192676
v 1.738124 5.371578 -0.193003
v 1.745214 5.390078 -0.197398
v 1.738126 5.371577 -0.188496
v 1.745214 5.390078 -0.192892
v 1.663639 5.434078 -0.177052
v 1.660289 5.412429 -0.173995
v 1.664397 5.433443 -0.178127
v 1.663734 5.409538 -0.169504
v 1.667843 5.430551 -0.173634
v 1.671945 5.451558 -0.177765
v 1.668499 5.454450 -0.182259
v 1.667800 5.455036 -0.181558
v 1.995175 5.106977 -0.169863
v 1.991730 5.109868 -0.165373
v 1.975194 5.099283 -0.165731
v 1.971750 5.102173 -0.161242
v 1.927423 5.163828 -0.184215
v 1.910429 5.153627 -0.179821
v 1.910692 5.177867 -0.165885
v 1.927421 5.163829 -0.179706
v 1.910427 5.153629 -0.175311
v 1.907277 5.180732 -0.170316
v 1.890568 5.170292 -0.166204
v 1.906629 5.181276 -0.168929
v 1.893983 5.167427 -0.161774
v 1.736706 5.299398 -0.166204
v 1.744085 5.317666 -0.170316
v 1.733291 5.302263 -0.161774
v 1.725301 5.333428 -0.183899
v 1.716844 5.316064 -0.179821
v 1.723940 5.334570 -0.184215
v 1.716847 5.316061 -0.175311
v 1.723941 5.334569 -0.179706
v 1.740671 5.320532 -0.165885
v 1.652080 5.370408 -0.165731
v 1.655524 5.367518 -0.161242
v 1.655432 5.392056 -0.168782
v 1.656187 5.391422 -0.169863
v 1.659632 5.388531 -0.165373
v 1.955218 5.091596 -0.161600
v 1.935242 5.083908 -0.157468
v 1.915261 5.076214 -0.153337
v 1.951774 5.094485 -0.157111
v 1.931798 5.086798 -0.152981
v 1.893441 5.143432 -0.175426
v 1.876453 5.133238 -0.171032
v 1.859459 5.123037 -0.166638
v 1.893438 5.143435 -0.170915
v 1.876450 5.133241 -0.166520
v 1.859456 5.123040 -0.162125
v 1.873864 5.159859 -0.162091
v 1.840452 5.138986 -0.153866
v 1.839802 5.139532 -0.152487
v 1.877279 5.156994 -0.157663
v 1.860576 5.146561 -0.153551
v 1.721957 5.262876 -0.157979
v 1.729332 5.281137 -0.162091
v 1.715177 5.244104 -0.152881
v 1.718543 5.265741 -0.153551
v 1.725917 5.284002 -0.157663
v 1.695571 5.260556 -0.166638
v 1.702666 5.279063 -0.171032
v 1.709755 5.297563 -0.175426
v 1.695573 5.260553 -0.162125
v 1.702668 5.279061 -0.166520
v 1.709758 5.297561 -0.170915
v 1.639017 5.308010 -0.152239
v 1.639769 5.307379 -0.153337
v 1.643876 5.328393 -0.157468
v 1.647978 5.349400 -0.161600
v 1.647320 5.325503 -0.152981
v 1.651422 5.346510 -0.157111
v 1.825450 5.102665 -0.157854
v 1.842471 5.112843 -0.162243
v 1.841766 5.113434 -0.157696
v 1.824447 5.103506 -0.153184
v 1.824795 5.103214 -0.153313
v 1.825152 5.102915 -0.153367
v 1.824149 5.103756 -0.152990
v 1.825473 5.102645 -0.153334
v 1.682698 5.222448 -0.157602
v 1.681413 5.223526 -0.157854
v 1.688481 5.242055 -0.162243
v 1.681390 5.223545 -0.153334
v 1.682713 5.222435 -0.152990
v 1.681711 5.223276 -0.153367
v 1.682067 5.222977 -0.153313
v 1.682416 5.222684 -0.153184
v 1.689511 5.241191 -0.157575
v 1.688485 5.242053 -0.157730
v 1.911818 5.079103 -0.148850
v 1.843866 5.136121 -0.149440
v 1.711163 5.247472 -0.149440
v 1.643212 5.304490 -0.148850
v 1.876054 5.060203 -0.143984
v 1.875377 5.060770 -0.145057
v 1.895285 5.068527 -0.149205
v 1.896037 5.067896 -0.148102
v 1.892530 5.070838 -0.143975
v 1.891842 5.071416 -0.144719
v 1.872152 5.063477 -0.140437
v 1.872388 5.063279 -0.140175
v 1.872548 5.063144 -0.139839
v 1.871861 5.063721 -0.140588
v 1.872607 5.063095 -0.139467
v 1.823097 5.129099 -0.148376
v 1.823749 5.128552 -0.149754
v 1.826726 5.126055 -0.144682
v 1.827163 5.125688 -0.145328
v 1.826545 5.126207 -0.143876
v 1.809884 5.115726 -0.140165
v 1.810016 5.115615 -0.140572
v 1.810213 5.115450 -0.140937
v 1.810453 5.115248 -0.141216
v 1.809835 5.115767 -0.139766
v 1.806996 5.118149 -0.145609
v 1.699867 5.208041 -0.145609
v 1.707854 5.225800 -0.148376
v 1.707203 5.226346 -0.149754
v 1.697028 5.210423 -0.139766
v 1.696409 5.210942 -0.141216
v 1.696650 5.210740 -0.140937
v 1.696847 5.210575 -0.140572
v 1.696979 5.210464 -0.140165
v 1.703789 5.229211 -0.145328
v 1.631485 5.265420 -0.145057
v 1.635667 5.286372 -0.149205
v 1.634256 5.263095 -0.139467
v 1.635001 5.262470 -0.140588
v 1.634315 5.263046 -0.139839
v 1.634475 5.262912 -0.140175
v 1.634711 5.262713 -0.140437
v 1.639110 5.283483 -0.144719
v 1.743428 5.079333 -0.115797
v 1.741976 5.079435 -0.115608
v 1.671980 5.138591 -0.129906
v 1.695369 5.081171 -0.134448
v 1.682836 5.091687 -0.134448
v 1.696396 5.095123 -0.132777
v 1.644633 5.123743 -0.134449
v 1.646082 5.124677 -0.134615
v 1.691799 4.989777 -0.106955
v 1.689070 4.989082 -0.105425
v 1.690634 4.988840 -0.105601
v 1.689070 4.989082 -0.092819
v 1.690603 4.988830 -0.092992
v 1.647950 5.024691 -0.106636
v 1.635446 5.035183 -0.106636
v 1.641154 5.029289 -0.100015
v 1.593424 5.072171 -0.106929
v 1.593238 5.069495 -0.105425
v 1.592724 5.070960 -0.092992
v 1.934979 5.379455 0.186458
v 1.943790 5.389955 0.126000
v 1.947134 5.393940 0.207832
v 1.867878 5.299487 0.197932
v 1.867878 5.299487 0.167782
v 1.869028 5.477360 0.186300
v 1.869028 5.477360 0.124650
v 1.850986 5.432052 0.207990
v 1.860004 5.454703 0.197145
v 1.815650 5.343311 0.182858
v 2.001362 5.305872 0.207990
v 1.920105 5.255663 0.182858
v 2.042849 5.331507 0.186300
v 2.022103 5.318685 0.197145
v 2.042849 5.331507 0.124650
v 1.955938 5.404434 0.063000
v 1.809576 5.230005 0.157725
v 1.968087 5.418912 0.123300
v 1.942482 5.388397 0.180959
v 1.943790 5.389955 0.177750
v 1.862626 5.455511 0.180919
v 1.862455 5.460858 0.180679
v 1.863387 5.457421 0.177750
v 1.858045 5.444010 0.186458
v 1.927482 5.370520 0.191956
v 1.924780 5.367300 0.192314
v 1.851902 5.428582 0.192343
v 1.850986 5.432052 0.195165
v 1.997786 5.306171 0.192343
v 2.011913 5.314900 0.186458
v 2.022443 5.321408 0.180919
v 2.024192 5.322490 0.177750
v 2.027739 5.322169 0.180679
v 1.863387 5.457421 0.126000
v 1.862495 5.460954 0.125848
v 2.024192 5.322490 0.126000
v 2.027827 5.322224 0.125848
v 2.024192 5.322490 0.074250
v 2.025935 5.323565 0.071073
v 2.027658 5.322119 0.073323
v 1.943790 5.389955 0.074250
v 1.945097 5.391514 0.071033
v 1.863387 5.457421 0.074250
v 1.862420 5.460770 0.073323
v 1.864144 5.459324 0.071073
v 1.865415 5.462510 0.207832
v 1.863123 5.462530 0.206186
v 1.877354 5.492496 0.193513
v 1.878115 5.494407 0.190350
v 1.875600 5.493863 0.191921
v 1.966774 5.417347 0.193552
v 1.968087 5.418912 0.190350
v 2.056309 5.342335 0.193513
v 2.057959 5.340845 0.191921
v 2.058059 5.343416 0.190350
v 2.028852 5.325370 0.207832
v 2.029270 5.323117 0.206186
v 1.927487 5.370527 0.222113
v 1.924780 5.367300 0.222464
v 2.001388 5.308399 0.222152
v 1.997786 5.306171 0.222493
v 2.001362 5.305872 0.220815
v 1.853471 5.432517 0.222152
v 1.850986 5.432052 0.220815
v 1.851902 5.428582 0.222493
v 1.817374 5.341865 0.197932
v 1.815650 5.343311 0.195682
v 1.918382 5.257109 0.197932
v 1.920105 5.255663 0.195682
v 1.810970 5.231667 0.173401
v 1.838972 5.208041 0.173372
v 1.840696 5.206594 0.171122
v 1.782840 5.255141 0.173372
v 1.781117 5.256588 0.171122
v 1.878115 5.494407 0.123300
v 1.875560 5.493767 0.123452
v 1.878115 5.494407 0.056250
v 1.877359 5.492504 0.054927
v 1.875635 5.493951 0.057177
v 1.968087 5.418912 0.056250
v 1.966780 5.417354 0.054967
v 2.058059 5.343416 0.056250
v 2.058040 5.340895 0.057177
v 2.058059 5.343416 0.123300
v 2.057872 5.340789 0.123452
v 1.918382 5.257109 0.167782
v 1.920105 5.255663 0.170032
v 1.817374 5.341865 0.167782
v 1.815650 5.343311 0.170032
v 1.810970 5.231667 0.143251
v 1.782840 5.255141 0.143222
v 1.781117 5.256588 0.145472
v 1.838972 5.208041 0.143222
v 1.840696 5.206594 0.145472
v 1.869028 5.477360 0.065250
v 1.870751 5.475914 0.063000
v 1.781117 5.256588 0.158297
v 1.782033 5.253117 0.157725
v 1.837119 5.206894 0.157725
v 1.840696 5.206594 0.158297
v 2.042849 5.331507 0.065250
v 2.041126 5.332953 0.063000
v 1.943408 5.389500 0.179622
v 1.943743 5.389900 0.178383
v 1.862626 5.458424 0.178978
v 1.863096 5.456420 0.180138
v 1.856843 5.445971 0.187273
v 1.853252 5.431925 0.192217
v 1.851520 5.429842 0.192982
v 1.925665 5.368355 0.192487
v 2.001236 5.305883 0.194547
v 2.000317 5.305961 0.193406
v 2.000244 5.307714 0.192378
v 2.014534 5.314099 0.187666
v 2.023855 5.322432 0.178997
v 2.025245 5.322053 0.178702
v 2.026624 5.321823 0.125924
v 2.024529 5.322548 0.073001
v 2.025269 5.321915 0.073929
v 1.943969 5.390169 0.072982
v 1.862634 5.458382 0.073929
v 1.863386 5.457763 0.073001
v 1.863640 5.463048 0.207017
v 1.878117 5.494065 0.191596
v 1.877232 5.494690 0.190943
v 1.967127 5.417767 0.193219
v 1.967908 5.418698 0.191615
v 2.057722 5.343359 0.191596
v 2.029538 5.324524 0.207608
v 1.998964 5.306897 0.222654
v 1.926631 5.369507 0.222512
v 1.851439 5.430333 0.222475
v 1.852994 5.431272 0.222531
v 1.815886 5.343114 0.196818
v 1.919252 5.256379 0.197626
v 1.837482 5.206953 0.171747
v 1.839669 5.207174 0.173014
v 1.809767 5.230233 0.171768
v 1.781248 5.256172 0.172214
v 1.877134 5.494855 0.123321
v 1.878219 5.494227 0.055731
v 1.877730 5.493427 0.054813
v 1.877190 5.494808 0.056610
v 1.967705 5.418457 0.054942
v 1.967127 5.417767 0.054791
v 2.058614 5.342575 0.056610
v 2.056794 5.342575 0.054784
v 2.057439 5.343150 0.054993
v 2.058721 5.342050 0.123345
v 1.919601 5.256087 0.168441
v 1.815886 5.343114 0.168897
v 1.782008 5.253513 0.143886
v 1.782039 5.255884 0.143581
v 1.809628 5.230067 0.144323
v 1.839843 5.207381 0.143581
v 1.837307 5.206841 0.144355
v 1.862588 5.457281 0.180338
v 1.852313 5.431573 0.192718
v 2.000964 5.306288 0.193373
v 2.025213 5.321692 0.179816
v 2.025450 5.322033 0.072861
v 1.862620 5.459005 0.072536
v 1.876447 5.494456 0.192228
v 2.058403 5.341753 0.192244
v 2.057239 5.342295 0.193111
v 2.000724 5.306842 0.222459
v 1.851431 5.431749 0.222175
v 1.838445 5.206427 0.171778
v 1.781118 5.255200 0.171925
v 1.781586 5.253680 0.171245
v 1.876036 5.493990 0.055891
v 2.057424 5.341764 0.055159
v 1.781677 5.254814 0.143536
v 1.838880 5.206497 0.143850
v 1.917468 5.272761 0.091433
v 1.915906 5.274073 0.092311
v 1.915906 5.274073 0.095578
v 1.917468 5.272761 0.096457
v 1.925607 5.265932 0.096457
v 1.927170 5.264620 0.095578
v 1.927170 5.264620 0.092311
v 1.925607 5.265932 0.091433
v 1.824808 5.350513 0.091433
v 1.823245 5.351824 0.092311
v 1.823245 5.351824 0.095578
v 1.824808 5.350513 0.096457
v 1.832947 5.343683 0.096457
v 1.834509 5.342372 0.095578
v 1.834509 5.342372 0.092311
v 1.832947 5.343683 0.091433
v 1.995417 5.345954 0.092311
v 1.995417 5.345954 0.095578
v 1.993854 5.347265 0.096457
v 1.985715 5.354095 0.096457
v 1.984152 5.355406 0.095578
v 1.984152 5.355406 0.092311
v 1.985715 5.354094 0.091433
v 1.993854 5.347265 0.091433
v 1.902756 5.423705 0.092311
v 1.902756 5.423705 0.095578
v 1.901193 5.425016 0.096457
v 1.893054 5.431846 0.096457
v 1.891492 5.433157 0.095578
v 1.891492 5.433157 0.092311
v 1.901193 5.425017 0.091433
v 1.893054 5.431846 0.091433
v 1.934979 5.379455 -0.186458
v 1.943790 5.389955 -0.126000
v 1.947134 5.393940 -0.207832
v 1.867878 5.299487 -0.197932
v 1.867878 5.299487 -0.167782
v 1.869028 5.477360 -0.186300
v 1.869028 5.477360 -0.124650
v 1.850986 5.432052 -0.207990
v 1.860004 5.454703 -0.197145
v 1.815650 5.343311 -0.182858
v 2.001362 5.305872 -0.207990
v 1.920105 5.255663 -0.182858
v 2.042849 5.331507 -0.186300
v 2.022103 5.318685 -0.197145
v 2.042849 5.331507 -0.124650
v 1.955938 5.404434 -0.063000
v 1.809576 5.230005 -0.157725
v 1.968087 5.418912 -0.123300
v 1.942482 5.388397 -0.180959
v 1.943790 5.389955 -0.177750
v 1.862626 5.455511 -0.180919
v 1.862455 5.460858 -0.180679
v 1.863387 5.457421 -0.177750
v 1.858045 5.444010 -0.186458
v 1.927482 5.370520 -0.191956
v 1.924780 5.367300 -0.192314
v 1.851902 5.428582 -0.192343
v 1.850986 5.432052 -0.195165
v 1.997786 5.306171 -0.192343
v 2.011913 5.314900 -0.186458
v 2.022443 5.321408 -0.180919
v 2.024192 5.322490 -0.177750
v 2.027739 5.322169 -0.180679
v 1.863387 5.457421 -0.126000
v 1.862495 5.460954 -0.125848
v 2.024192 5.322490 -0.126000
v 2.027827 5.322224 -0.125848
v 2.024192 5.322490 -0.074250
v 2.025935 5.323565 -0.071073
v 2.027658 5.322119 -0.073323
v 1.943790 5.389955 -0.074250
v 1.945097 5.391514 -0.071033
v 1.863387 5.457421 -0.074250
v 1.862420 5.460770 -0.073323
v 1.864144 5.459324 -0.071073
v 1.865415 5.462510 -0.207832
v 1.863123 5.462530 -0.206186
v 1.877354 5.492496 -0.193513
v 1.878115 5.494407 -0.190350
v 1.875600 5.493863 -0.191921
v 1.966774 5.417347 -0.193552
v 1.968087 5.418912 -0.190350
v 2.056309 5.342335 -0.193513
v 2.057959 5.340845 -0.191921
v 2.058059 5.343416 -0.190350
v 2.028852 5.325370 -0.207832
v 2.029270 5.323117 -0.206186
v 1.927487 5.370527 -0.222113
v 1.924780 5.367300 -0.222464
v 2.001388 5.308399 -0.222152
v 1.997786 5.306171 -0.222493
v 2.001362 5.305872 -0.220815
v 1.853471 5.432517 -0.222152
v 1.850986 5.432052 -0.220815
v 1.851902 5.428582 -0.222493
v 1.817374 5.341865 -0.197932
v 1.815650 5.343311 -0.195682
v 1.918382 5.257109 -0.197932
v 1.920105 5.255663 -0.195682
v 1.810970 5.231667 -0.173401
v 1.838972 5.208041 -0.173372
v 1.840696 5.206594 -0.171122
v 1.782840 5.255141 -0.173372
v 1.781117 5.256588 -0.171122
v 1.878115 5.494407 -0.123300
v 1.875560 5.493767 -0.123452
v 1.878115 5.494407 -0.056250
v 1.877359 5.492504 -0.054927
v 1.875635 5.493951 -0.057177
v 1.968087 5.418912 -0.056250
v 1.966780 5.417354 -0.054967
v 2.058059 5.343416 -0.056250
v 2.058040 5.340895 -0.057177
v 2.058059 5.343416 -0.123300
v 2.057872 5.340789 -0.123452
v 1.918382 5.257109 -0.167782
v 1.920105 5.255663 -0.170032
v 1.817374 5.341865 -0.167782
v 1.815650 5.343311 -0.170032
v 1.810970 5.231667 -0.143251
v 1.782840 5.255141 -0.143222
v 1.781117 5.256588 -0.145472
v 1.838972 5.208041 -0.143222
v 1.840696 5.206594 -0.145472
v 1.869028 5.477360 -0.065250
v 1.870751 5.475914 -0.063000
v 1.781117 5.256588 -0.158297
v 1.782033 5.253117 -0.157725
v 1.837119 5.206894 -0.157725
v 1.840696 5.206594 -0.158297
v 2.042849 5.331507 -0.065250
v 2.041126 5.332953 -0.063000
v 1.943408 5.389500 -0.179622
v 1.943743 5.389900 -0.178383
v 1.862626 5.458424 -0.178978
v 1.863096 5.456420 -0.180138
v 1.856843 5.445971 -0.187273
v 1.853252 5.431925 -0.192217
v 1.851520 5.429842 -0.192982
v 1.925665 5.368355 -0.192487
v 2.001236 5.305883 -0.194547
v 2.000317 5.305961 -0.193406
v 2.000244 5.307714 -0.192378
v 2.014534 5.314099 -0.187666
v 2.023855 5.322432 -0.178997
v 2.025245 5.322053 -0.178702
v 2.026624 5.321823 -0.125924
v 2.024529 5.322548 -0.073001
v 2.025269 5.321915 -0.073929
v 1.943969 5.390169 -0.072982
v 1.862634 5.458382 -0.073929
v 1.863386 5.457763 -0.073001
v 1.863640 5.463048 -0.207017
v 1.878117 5.494065 -0.191596
v 1.877232 5.494690 -0.190943
v 1.967127 5.417767 -0.193219
v 1.967908 5.418698 -0.191615
v 2.057722 5.343359 -0.191596
v 2.029538 5.324524 -0.207608
v 1.998964 5.306897 -0.222654
v 1.926631 5.369507 -0.222512
v 1.851439 5.430333 -0.222475
v 1.852994 5.431272 -0.222531
v 1.815886 5.343114 -0.196818
v 1.919252 5.256379 -0.197626
v 1.837482 5.206953 -0.171747
v 1.839669 5.207174 -0.173014
v 1.809767 5.230233 -0.171768
v 1.781248 5.256172 -0.172214
v 1.877134 5.494855 -0.123321
v 1.878219 5.494227 -0.055731
v 1.877730 5.493427 -0.054813
v 1.877190 5.494808 -0.056610
v 1.967705 5.418457 -0.054942
v 1.967127 5.417767 -0.054791
v 2.058614 5.342575 -0.056610
v 2.056794 5.342575 -0.054784
v 2.057439 5.343150 -0.054993
v 2.058721 5.342050 -0.123345
v 1.919601 5.256087 -0.168441
v 1.815886 5.343114 -0.168897
v 1.782008 5.253513 -0.143886
v 1.782039 5.255884 -0.143581
v 1.809628 5.230067 -0.144323
v 1.839843 5.207381 -0.143581
v 1.837307 5.206841 -0.144355
v 1.862588 5.457281 -0.180338
v 1.852313 5.431573 -0.192718
v 2.000964 5.306288 -0.193373
v 2.025213 5.321692 -0.179816
v 2.025450 5.322033 -0.072861
v 1.862620 5.459005 -0.072536
v 1.876447 5.494456 -0.192228
v 2.058403 5.341753 -0.192244
v 2.057239 5.342295 -0.193111
v 2.000724 5.306842 -0.222459
v 1.851431 5.431749 -0.222175
v 1.838445 5.206427 -0.171778
v 1.781118 5.255200 -0.171925
v 1.781586 5.253680 -0.171245
v 1.876036 5.493990 -0.055891
v 2.057424 5.341764 -0.055159
v 1.781677 5.254814 -0.143536
v 1.838880 5.206497 -0.143850
v 1.917468 5.272761 -0.091433
v 1.915906 5.274073 -0.092311
v 1.915906 5.274073 -0.095578
v 1.917468 5.272761 -0.096457
v 1.925607 5.265932 -0.096457
v 1.927170 5.264620 -0.095578
v 1.927170 5.264620 -0.092311
v 1.925607 5.265932 -0.091433
v 1.824808 5.350513 -0.091433
v 1.823245 5.351824 -0.092311
v 1.823245 5.351824 -0.095578
v 1.824808 5.350513 -0.096457
v 1.832947 5.343683 -0.096457
v 1.834509 5.342372 -0.095578
v 1.834509 5.342372 -0.092311
v 1.832947 5.343683 -0.091433
v 1.995417 5.345954 -0.092311
v 1.995417 5.345954 -0.095578
v 1.993854 5.347265 -0.096457
v 1.985715 5.354095 -0.096457
v 1.984152 5.355406 -0.095578
v 1.984152 5.355406 -0.092311
v 1.985715 5.354094 -0.091433
v 1.993854 5.347265 -0.091433
v 1.902756 5.423705 -0.092311
v 1.902756 5.423705 -0.095578
v 1.901193 5.425016 -0.096457
v 1.893054 5.431846 -0.096457
v 1.891492 5.433157 -0.095578
v 1.891492 5.433157 -0.092311
v 1.901193 5.425017 -0.091433
v 1.893054 5.431846 -0.091433
f 385 392 391
f 391 388 389
f 389 387 383
f 389 383 385
f 385 391 389
f 136 121 70
f 73 66 120
f 73 120 374
f 73 374 375
f 386 119 66
f 386 66 73
f 70 122 392
f 70 392 136
f 73 136 392
f 73 392 385
f 73 385 386
f 136 73 375
f 70 368 72
f 70 370 368
f 70 371 370
f 70 372 371
f 70 369 372
f 70 324 369
f 70 326 324
f 70 327 326
f 70 328 327
f 70 325 328
f 70 361 325
f 70 362 361
f 70 363 362
f 70 364 363
f 70 360 364
f 70 69 360
f 74 201 202
f 74 186 201
f 74 139 186
f 74 187 139
f 74 188 187
f 74 39 75
f 74 75 188
f 39 74 202
f 39 202 203
f 39 203 76
f 39 41 204
f 39 204 208
f 39 208 207
f 39 207 206
f 39 206 205
f 39 205 189
f 39 189 193
f 39 193 192
f 39 192 191
f 39 191 190
f 39 190 179
f 39 179 182
f 39 182 181
f 39 181 180
f 39 180 178
f 39 178 37
f 358 77 67
f 358 67 365
f 358 365 329
f 329 330 323
f 329 323 359
f 329 359 358
f 71 78 367
f 323 330 373
f 373 71 367
f 367 323 373
f 298 59 115
f 298 333 59
f 307 118 63
f 301 333 298
f 301 304 333
f 301 334 304
f 308 334 301
f 308 307 334
f 296 114 58
f 296 58 299
f 311 65 117
f 311 117 309
f 302 296 299
f 302 299 305
f 302 305 311
f 309 302 311
f 297 57 113
f 297 300 57
f 312 116 64
f 312 310 116
f 303 300 297
f 303 306 300
f 303 312 306
f 310 312 303
f 266 110 51
f 266 51 268
f 276 55 111
f 276 111 275
f 270 266 268
f 270 268 272
f 270 272 276
f 275 270 276
f 267 52 109
f 267 274 52
f 279 112 56
f 279 277 112
f 279 278 277
f 278 269 271
f 269 274 267
f 269 273 274
f 269 279 273
f 278 279 269
f 232 105 44
f 232 44 237
f 248 49 107
f 248 107 246
f 235 232 237
f 235 237 236
f 235 236 248
f 246 235 248
f 233 43 104
f 233 238 43
f 249 106 48
f 249 245 106
f 249 247 245
f 247 240 241
f 240 238 233
f 240 243 238
f 240 249 243
f 247 249 240
f 234 103 42
f 234 42 239
f 250 50 108
f 250 108 252
f 250 252 251
f 242 234 239
f 242 239 244
f 242 244 250
f 251 242 250
f 176 36 101
f 176 183 36
f 176 195 183
f 209 102 40
f 209 196 102
f 209 197 196
f 184 195 176
f 184 194 195
f 184 210 194
f 197 210 184
f 197 212 210
f 197 211 212
f 197 209 211
f 345 2 66
f 345 66 1
f 345 1 355
f 345 355 351
f 345 351 352
f 345 352 353
f 345 353 354
f 345 354 319
f 345 319 316
f 345 316 317
f 345 317 318
f 345 318 320
f 345 320 344
f 345 344 341
f 345 341 342
f 345 342 343
f 159 79 5
f 145 159 5
f 145 5 80
f 148 152 4
f 148 4 5
f 148 5 3
f 148 3 175
f 148 175 173
f 148 173 172
f 148 172 171
f 148 171 174
f 148 174 164
f 148 164 163
f 148 163 162
f 148 162 161
f 148 161 165
f 148 165 151
f 148 151 150
f 148 150 149
f 350 16 81
f 350 81 346
f 350 346 347
f 314 315 349
f 348 350 347
f 347 314 349
f 347 349 348
f 337 338 82
f 337 82 17
f 337 17 339
f 337 339 340
f 337 340 315
f 314 337 315
f 18 293 83
f 18 292 293
f 282 19 92
f 282 331 19
f 282 290 331
f 332 292 18
f 287 290 282
f 287 332 290
f 292 332 287
f 295 20 84
f 281 93 21
f 281 21 284
f 281 284 289
f 286 281 289
f 286 289 295
f 22 291 85
f 280 23 94
f 280 283 23
f 280 288 283
f 294 291 22
f 285 288 280
f 285 294 288
f 291 294 285
f 265 24 86
f 265 86 263
f 255 95 25
f 255 25 256
f 255 256 261
f 258 255 261
f 258 261 265
f 263 258 265
f 26 264 87
f 26 262 264
f 253 27 96
f 253 254 27
f 253 260 254
f 259 262 26
f 257 260 253
f 257 259 260
f 262 259 257
f 230 28 88
f 230 88 226
f 215 97 29
f 215 29 218
f 215 218 231
f 223 215 231
f 223 231 230
f 226 223 230
f 31 227 89
f 31 225 227
f 214 30 98
f 214 217 30
f 214 222 217
f 229 225 31
f 220 222 214
f 220 229 222
f 225 229 220
f 228 32 90
f 228 90 224
f 213 99 33
f 213 33 216
f 213 216 221
f 219 213 221
f 219 221 228
f 224 219 228
f 34 167 91
f 34 166 167
f 141 35 100
f 141 146 35
f 141 147 146
f 141 160 147
f 169 166 34
f 153 160 141
f 153 170 160
f 166 170 153
f 166 169 170
f 144 159 145
f 144 158 159
f 144 156 158
f 144 155 156
f 377 137 138
f 137 381 376
f 381 379 378
f 379 137 377
f 137 379 381
f 54 53 132
f 54 132 133
f 54 133 134
f 131 132 53
f 131 53 112
f 131 112 111
f 111 54 134
f 111 134 131
f 96 11 130
f 96 130 127
f 96 127 128
f 129 130 11
f 129 11 10
f 129 10 95
f 95 96 128
f 95 128 129
f 70 69 67
f 39 38 36
f 60 59 58
f 61 57 51
f 53 52 44
f 47 43 42
f 40 38 39
f 72 70 68
f 63 60 62
f 64 61 54
f 48 47 46
f 365 67 69
f 178 37 36
f 333 299 58
f 300 268 51
f 274 237 44
f 238 239 42
f 361 325 365
f 179 183 195
f 72 71 373
f 204 209 40
f 63 65 311
f 64 55 276
f 56 49 248
f 48 50 250
f 324 369 373
f 304 334 311
f 306 312 276
f 273 279 248
f 243 249 250
f 6 16 1
f 3 34 15
f 8 20 18
f 10 24 22
f 12 28 26
f 14 32 31
f 4 5 15
f 17 6 66
f 21 8 7
f 25 10 9
f 29 12 11
f 33 14 13
f 355 1 16
f 169 34 3
f 18 20 295
f 22 24 265
f 26 28 230
f 31 32 228
f 349 315 319
f 164 160 170
f 295 289 290
f 265 261 288
f 230 231 260
f 228 221 222
f 345 339 17
f 4 35 146
f 331 284 21
f 283 256 25
f 254 218 29
f 217 216 33
f 315 340 344
f 151 147 160
f 289 284 331
f 261 256 283
f 231 218 254
f 221 216 217
f 56 53 45
f 377 387 135
f 135 388 378
f 374 120 356
f 376 357 121
f 137 376 136
f 138 137 356
f 321 357 376
f 384 335 119
f 392 122 366
f 382 138 313
f 366 322 380
f 380 378 388
f 377 138 382
f 121 357 360
f 357 321 325
f 327 328 321
f 324 326 322
f 366 369 324
f 366 122 72
f 187 188 75
f 187 177 185
f 198 76 203
f 139 185 199
f 178 177 75
f 204 41 76
f 185 189 205
f 177 181 182
f 180 181 177
f 178 180 177
f 179 190 185
f 193 189 185
f 185 191 192
f 185 190 191
f 205 206 198
f 207 208 198
f 208 204 198
f 68 77 115
f 78 68 60
f 117 62 61
f 107 45 47
f 108 46 38
f 358 298 115
f 296 297 113
f 266 267 109
f 232 233 104
f 234 176 101
f 359 323 301
f 296 302 303
f 266 270 269
f 232 235 240
f 234 242 184
f 78 118 307
f 117 116 310
f 111 112 277
f 107 106 245
f 108 102 196
f 323 367 308
f 302 309 310
f 270 275 278
f 235 246 247
f 242 251 197
f 62 114 113
f 54 110 109
f 45 105 104
f 46 103 101
f 1 355 356
f 355 351 356
f 351 352 356
f 352 353 356
f 353 354 356
f 354 319 313
f 319 316 313
f 317 318 313
f 313 320 344
f 344 341 335
f 341 342 335
f 343 345 335
f 345 2 119
f 168 79 159
f 157 154 168
f 143 145 80
f 143 142 154
f 3 79 168
f 142 80 4
f 142 151 165
f 174 171 168
f 168 171 172
f 168 154 164
f 154 162 163
f 154 163 164
f 7 83 81
f 92 7 6
f 94 9 8
f 98 13 12
f 100 15 14
f 81 83 293
f 84 85 291
f 86 87 264
f 88 89 227
f 90 91 167
f 292 287 314
f 291 285 286
f 262 257 258
f 225 220 223
f 166 153 219
f 338 282 92
f 281 280 94
f 255 253 96
f 215 214 98
f 213 141 100
f 287 282 337
f 285 280 281
f 257 253 255
f 220 214 215
f 153 141 213
f 9 85 84
f 11 87 86
f 13 89 88
f 15 91 90
f 133 132 124
f 123 134 133
f 124 131 134
f 132 131 124
f 129 128 126
f 125 130 129
f 125 127 130
f 128 127 125
f 132 131 134
f 128 127 130
f 326 324 330
f 327 326 330
f 300 306 272
f 274 273 236
f 238 243 244
f 329 365 325
f 191 190 195
f 328 327 330
f 191 195 194
f 333 304 305
f 360 364 365
f 364 363 365
f 179 182 183
f 363 362 365
f 204 208 209
f 208 207 211
f 369 372 373
f 205 210 212
f 334 307 311
f 372 371 373
f 206 212 211
f 161 165 160
f 162 161 160
f 316 319 315
f 350 348 351
f 170 169 171
f 353 348 349
f 172 171 169
f 340 339 341
f 150 146 147
f 389 135 387
f 381 380 322
f 336 335 382
f 380 381 378
f 375 374 137
f 390 391 392
f 384 383 382
f 201 140 202
f 203 202 140
f 200 201 186
f 200 199 198
f 358 359 298
f 270 271 269
f 235 241 240
f 251 252 196
f 144 143 155
f 156 157 158
f 346 293 292
f 263 264 262
f 226 227 225
f 224 167 166
f 189 194 210
f 70 67 68
f 39 36 37
f 60 58 62
f 61 51 54
f 53 44 45
f 47 42 46
f 40 39 41
f 72 68 71
f 63 62 65
f 64 54 55
f 48 46 50
f 365 69 360
f 178 36 183
f 333 58 59
f 300 51 57
f 274 44 52
f 238 42 43
f 179 195 190
f 72 373 368
f 204 40 41
f 63 311 307
f 64 276 312
f 56 248 279
f 48 250 249
f 324 373 330
f 304 311 305
f 306 276 272
f 273 248 236
f 243 250 244
f 6 1 66
f 3 15 5
f 8 18 7
f 10 22 9
f 12 26 11
f 14 31 13
f 4 15 35
f 17 66 2
f 21 7 19
f 25 9 23
f 29 11 27
f 33 13 30
f 355 16 350
f 169 3 175
f 18 295 332
f 22 265 294
f 26 230 259
f 31 228 229
f 349 319 354
f 164 170 174
f 295 290 332
f 265 288 294
f 230 260 259
f 228 222 229
f 345 17 2
f 4 146 152
f 331 21 19
f 283 25 23
f 254 29 27
f 217 33 30
f 315 344 320
f 151 160 165
f 289 331 290
f 261 283 288
f 231 254 260
f 221 217 222
f 56 45 49
f 377 135 379
f 135 378 379
f 374 356 137
f 376 121 136
f 137 136 375
f 138 356 313
f 321 376 381
f 384 119 386
f 392 366 390
f 382 313 336
f 366 380 390
f 380 388 390
f 377 382 387
f 121 360 69
f 357 364 360
f 357 363 364
f 357 362 363
f 357 361 362
f 357 325 361
f 321 328 325
f 327 321 322
f 322 326 327
f 366 324 322
f 366 372 369
f 366 371 372
f 371 366 370
f 366 368 370
f 366 72 368
f 187 75 177
f 187 185 139
f 198 203 140
f 139 199 200
f 178 75 37
f 204 76 198
f 185 205 199
f 177 182 179
f 179 185 177
f 193 185 192
f 205 198 199
f 207 198 206
f 68 115 60
f 78 60 118
f 117 61 116
f 107 47 106
f 108 38 102
f 358 115 77
f 296 113 114
f 266 109 110
f 232 104 105
f 234 101 103
f 359 301 298
f 296 303 297
f 266 269 267
f 232 240 233
f 234 184 176
f 78 307 367
f 117 310 309
f 111 277 275
f 107 245 246
f 108 196 252
f 323 308 301
f 302 310 303
f 270 278 271
f 235 247 241
f 242 197 184
f 62 113 61
f 54 109 53
f 45 104 47
f 46 101 38
f 1 356 120
f 354 313 356
f 313 316 317
f 313 318 320
f 313 344 336
f 344 335 336
f 343 335 342
f 345 119 335
f 168 159 158
f 157 168 158
f 143 80 142
f 143 154 155
f 3 168 175
f 142 4 152
f 142 165 154
f 168 172 173
f 168 173 175
f 168 164 174
f 154 165 161
f 162 154 161
f 142 150 151
f 150 142 149
f 142 148 149
f 142 152 148
f 7 81 6
f 92 6 82
f 94 8 93
f 98 12 97
f 100 14 99
f 81 293 346
f 84 291 295
f 86 264 263
f 88 227 226
f 90 167 224
f 292 314 347
f 291 286 295
f 262 258 263
f 225 223 226
f 166 219 224
f 338 92 82
f 281 94 93
f 255 96 95
f 215 98 97
f 213 100 99
f 287 337 314
f 285 281 286
f 257 255 258
f 220 215 223
f 153 213 219
f 9 84 8
f 11 86 10
f 13 88 12
f 15 90 14
f 133 124 123
f 124 134 123
f 125 129 126
f 128 125 126
f 132 134 133
f 128 130 129
f 194 189 193
f 194 193 192
f 329 325 328
f 328 330 329
f 191 194 192
f 333 305 299
f 300 272 268
f 274 236 237
f 238 244 239
f 178 183 180
f 180 183 181
f 361 365 362
f 183 182 181
f 368 373 370
f 208 211 209
f 370 373 371
f 205 212 206
f 206 211 207
f 315 320 318
f 315 318 317
f 160 164 163
f 315 317 316
f 162 160 163
f 350 351 355
f 173 169 175
f 348 352 351
f 172 169 173
f 170 171 174
f 353 349 354
f 348 353 352
f 146 148 152
f 343 339 345
f 146 149 148
f 342 339 343
f 340 341 344
f 150 147 151
f 339 342 341
f 149 146 150
f 388 135 389
f 381 322 321
f 335 384 382
f 387 382 383
f 388 391 390
f 386 383 384
f 383 386 385
f 200 186 139
f 200 198 140
f 367 307 308
f 275 277 278
f 246 245 247
f 251 196 197
f 145 143 144
f 155 157 156
f 155 154 157
f 346 292 347
f 337 282 338
f 140 201 200
f 189 210 205
f 569 568 567
f 569 567 574
f 569 574 573
f 569 573 572
f 569 572 571
f 569 571 570
f 577 576 575
f 577 575 582
f 577 582 581
f 577 581 580
f 577 580 579
f 577 579 578
f 585 587 586
f 585 588 587
f 585 589 588
f 585 590 589
f 585 583 590
f 585 584 583
f 593 595 594
f 593 596 595
f 593 598 596
f 593 597 598
f 593 591 597
f 593 592 591
f 773 774 775
f 773 775 776
f 773 776 777
f 773 777 778
f 773 778 779
f 773 779 780
f 781 782 783
f 781 783 784
f 781 784 785
f 781 785 786
f 781 786 787
f 781 787 788
f 795 793 794
f 795 792 793
f 795 791 792
f 795 790 791
f 795 789 790
f 795 796 789
f 804 801 802
f 804 800 801
f 804 799 800
f 804 798 799
f 804 797 798
f 804 803 797
f 416 413 411
f 500 416 393
f 393 422 505
f 411 423 422
f 415 426 394
f 394 428 424
f 433 430 428
f 426 435 433
f 443 440 438
f 448 445 443
f 452 448 395
f 395 438 455
f 451 457 458
f 460 453 451
f 463 460 396
f 396 458 465
f 410 467 441
f 472 469 467
f 476 474 472
f 447 476 410
f 418 421 478
f 480 419 418
f 483 480 397
f 397 478 485
f 398 399 427
f 399 487 436
f 468 471 487
f 442 468 399
f 439 442 398
f 439 401 400
f 401 499 420
f 401 398 414
f 456 400 402
f 459 402 489
f 402 481 484
f 400 420 481
f 409 491 528
f 546 548 491
f 490 544 546
f 562 490 409
f 404 403 454
f 479 503 403
f 486 479 404
f 492 404 461
f 405 446 449
f 425 405 406
f 503 506 406
f 403 406 449
f 407 477 446
f 493 475 477
f 432 493 407
f 429 407 405
f 437 488 408
f 408 494 431
f 473 539 494
f 488 470 473
f 413 498 495
f 416 499 549
f 500 550 416
f 417 502 500
f 422 506 551
f 423 552 422
f 411 495 423
f 415 497 426
f 497 414 427
f 412 496 415
f 496 495 498
f 424 507 496
f 428 509 508
f 430 511 428
f 433 512 510
f 435 514 433
f 426 427 513
f 440 555 515
f 443 518 440
f 518 519 516
f 445 557 518
f 557 520 519
f 448 521 445
f 452 558 448
f 558 454 521
f 450 523 452
f 455 525 523
f 438 515 559
f 457 524 526
f 451 523 525
f 453 522 451
f 460 527 453
f 463 529 460
f 462 530 528
f 465 562 462
f 458 526 465
f 441 516 444
f 467 532 517
f 469 535 532
f 472 536 533
f 474 540 536
f 476 541 538
f 447 556 541
f 444 519 520
f 421 504 478
f 418 502 421
f 419 500 502
f 480 543 501
f 483 545 480
f 478 542 547
f 436 513 427
f 471 563 487
f 468 532 535
f 442 517 468
f 439 515 555
f 456 559 515
f 414 549 499
f 459 526 456
f 489 490 561
f 466 531 526
f 484 565 489
f 481 543 484
f 420 501 543
f 548 566 491
f 546 482 485
f 562 561 490
f 454 453 527
f 479 542 503
f 486 547 542
f 492 491 566
f 461 527 529
f 464 560 492
f 446 556 449
f 503 551 506
f 449 521 454
f 477 541 446
f 475 538 541
f 493 494 564
f 432 553 493
f 429 509 432
f 425 508 509
f 437 554 488
f 434 512 514
f 431 510 512
f 539 564 494
f 473 537 539
f 537 536 540
f 470 534 537
f 488 487 563
f 549 497 415
f 415 498 549
f 549 498 413
f 497 549 414
f 419 501 550
f 501 420 550
f 551 504 421
f 421 505 551
f 552 507 424
f 508 425 552
f 423 507 552
f 553 511 430
f 430 510 553
f 510 431 553
f 432 511 553
f 554 514 435
f 513 436 554
f 437 514 554
f 517 516 441
f 517 442 555
f 440 516 555
f 447 520 556
f 520 557 556
f 453 454 558
f 452 522 558
f 456 524 559
f 559 525 455
f 464 529 560
f 560 529 463
f 463 528 560
f 561 531 466
f 561 562 465
f 465 531 561
f 563 534 470
f 563 535 469
f 471 535 563
f 533 534 563
f 540 474 564
f 474 538 564
f 538 475 564
f 539 540 564
f 565 545 483
f 484 545 565
f 483 544 565
f 485 547 566
f 547 486 566
f 548 485 566
f 567 589 590
f 588 589 567
f 587 588 568
f 586 587 569
f 586 570 571
f 572 584 585
f 573 583 584
f 574 590 583
f 598 597 582
f 596 598 575
f 595 596 576
f 594 595 577
f 593 594 578
f 580 592 593
f 581 591 592
f 582 597 591
f 617 619 622
f 599 622 706
f 711 628 599
f 628 629 617
f 600 632 621
f 630 634 600
f 634 636 639
f 639 641 632
f 644 646 649
f 649 651 654
f 601 654 658
f 661 644 601
f 664 663 657
f 657 659 666
f 602 666 669
f 671 664 602
f 647 673 616
f 673 675 678
f 678 680 682
f 616 682 653
f 684 627 624
f 624 625 686
f 603 686 689
f 691 684 603
f 633 605 604
f 642 693 605
f 693 677 674
f 605 674 648
f 604 648 645
f 606 607 645
f 626 705 607
f 620 604 607
f 608 606 662
f 695 608 665
f 690 687 608
f 687 626 606
f 734 697 615
f 697 754 752
f 752 750 696
f 615 696 768
f 660 609 610
f 609 709 685
f 610 685 692
f 667 610 698
f 655 652 611
f 612 611 631
f 612 712 709
f 655 612 609
f 652 683 613
f 683 681 699
f 613 699 638
f 611 613 635
f 614 694 643
f 637 700 614
f 700 745 679
f 679 676 694
f 701 704 619
f 755 705 622
f 622 756 706
f 706 708 623
f 757 712 628
f 628 758 629
f 629 701 617
f 632 703 621
f 633 620 703
f 621 702 618
f 704 701 702
f 702 713 630
f 714 715 634
f 634 717 636
f 716 718 639
f 639 720 641
f 719 633 632
f 721 761 646
f 646 724 649
f 722 725 724
f 724 763 651
f 725 726 763
f 651 727 654
f 654 764 658
f 727 660 764
f 658 729 656
f 729 731 661
f 765 721 644
f 732 730 663
f 731 729 657
f 657 728 659
f 659 733 666
f 666 735 669
f 734 736 668
f 668 768 671
f 671 732 664
f 650 722 647
f 723 738 673
f 738 741 675
f 739 742 678
f 742 746 680
f 744 747 682
f 747 762 653
f 726 725 650
f 684 710 627
f 627 708 624
f 708 706 625
f 707 749 686
f 686 751 689
f 753 748 684
f 633 719 642
f 693 769 677
f 741 738 674
f 674 723 648
f 761 721 645
f 721 765 662
f 705 755 620
f 662 732 665
f 767 696 695
f 732 737 672
f 695 771 690
f 690 749 687
f 749 707 626
f 697 772 754
f 691 688 752
f 696 767 768
f 733 659 660
f 709 748 685
f 748 753 692
f 772 697 698
f 735 733 667
f 698 766 670
f 655 762 652
f 712 757 709
f 660 727 655
f 652 747 683
f 747 744 681
f 770 700 699
f 699 759 638
f 638 715 635
f 715 714 631
f 694 760 643
f 720 718 640
f 718 716 637
f 700 770 745
f 745 743 679
f 746 742 743
f 743 740 676
f 769 693 694
f 621 703 755
f 755 704 621
f 619 704 755
f 756 707 625
f 756 626 707
f 627 710 757
f 757 711 627
f 710 709 757
f 630 713 758
f 758 631 714
f 758 713 629
f 636 717 759
f 759 716 636
f 759 637 716
f 759 717 638
f 641 720 760
f 760 642 719
f 760 720 643
f 647 722 723
f 761 648 723
f 761 722 646
f 762 726 653
f 762 763 726
f 764 660 659
f 764 728 658
f 765 730 662
f 661 731 765
f 766 735 670
f 669 735 766
f 766 734 669
f 672 737 767
f 671 768 767
f 767 737 671
f 676 740 769
f 675 741 769
f 769 741 677
f 769 740 739
f 770 680 746
f 770 744 680
f 770 681 744
f 770 746 745
f 689 751 771
f 771 751 690
f 771 750 689
f 772 753 691
f 772 692 753
f 772 691 754
f 796 795 773
f 773 795 794
f 774 794 793
f 775 793 792
f 777 776 792
f 791 790 778
f 790 789 779
f 789 796 780
f 788 803 804
f 781 804 802
f 782 802 801
f 783 801 800
f 784 800 799
f 799 798 786
f 798 797 787
f 797 803 788
f 416 411 393
f 500 393 417
f 393 505 417
f 411 422 393
f 415 394 412
f 394 424 412
f 433 428 394
f 426 433 394
f 443 438 395
f 448 443 395
f 452 395 450
f 395 455 450
f 451 458 396
f 460 451 396
f 463 396 462
f 396 465 462
f 410 441 444
f 472 467 410
f 476 472 410
f 447 410 444
f 418 478 397
f 480 418 397
f 483 397 482
f 397 485 482
f 398 427 414
f 399 436 427
f 468 487 399
f 442 399 398
f 439 398 401
f 439 400 456
f 401 420 400
f 401 414 499
f 456 402 459
f 459 489 466
f 402 484 489
f 400 481 402
f 409 528 530
f 546 491 409
f 490 546 409
f 562 409 530
f 404 454 461
f 479 403 404
f 486 404 492
f 492 461 464
f 405 449 406
f 425 406 506
f 503 406 403
f 403 449 454
f 407 446 405
f 493 477 407
f 432 407 429
f 429 405 425
f 437 408 434
f 408 431 434
f 473 494 408
f 488 473 408
f 413 495 411
f 416 549 413
f 550 499 416
f 505 502 417
f 422 551 505
f 552 506 422
f 495 507 423
f 497 427 426
f 496 498 415
f 424 496 412
f 507 495 496
f 428 508 424
f 511 509 428
f 433 510 430
f 514 512 433
f 426 513 435
f 440 515 438
f 518 516 440
f 445 518 443
f 557 519 518
f 521 556 445
f 558 521 448
f 523 522 452
f 455 523 450
f 438 559 455
f 457 526 458
f 451 525 457
f 522 523 451
f 529 527 460
f 462 528 463
f 562 530 462
f 526 531 465
f 516 519 444
f 467 517 441
f 469 532 467
f 472 533 469
f 536 534 533
f 474 536 472
f 476 538 474
f 447 541 476
f 444 520 447
f 504 542 478
f 502 505 421
f 419 502 418
f 480 501 419
f 545 543 480
f 482 544 483
f 478 547 485
f 487 554 436
f 468 535 471
f 517 532 468
f 439 555 442
f 456 515 439
f 499 550 420
f 526 524 456
f 489 561 466
f 466 526 459
f 565 490 489
f 543 545 484
f 420 543 481
f 491 560 528
f 546 485 548
f 544 482 546
f 490 565 544
f 454 527 461
f 542 504 503
f 486 542 479
f 492 566 486
f 461 529 464
f 560 491 492
f 556 521 449
f 506 552 425
f 541 556 446
f 475 541 477
f 493 564 475
f 553 494 493
f 509 511 432
f 425 509 429
f 554 487 488
f 434 514 437
f 431 512 434
f 494 553 431
f 537 540 539
f 470 537 473
f 534 536 537
f 488 563 470
f 500 419 550
f 504 551 503
f 424 508 552
f 554 435 513
f 516 517 555
f 445 556 557
f 522 453 558
f 524 457 559
f 525 559 457
f 563 469 533
f 567 590 574
f 588 567 568
f 587 568 569
f 586 569 570
f 586 571 585
f 572 585 571
f 573 584 572
f 574 583 573
f 598 582 575
f 596 575 576
f 595 576 577
f 594 577 578
f 593 578 579
f 580 593 579
f 581 592 580
f 582 591 581
f 617 622 599
f 599 706 623
f 711 599 623
f 628 617 599
f 600 621 618
f 630 600 618
f 634 639 600
f 639 632 600
f 644 649 601
f 649 654 601
f 601 658 656
f 661 601 656
f 664 657 602
f 657 666 602
f 602 669 668
f 671 602 668
f 647 616 650
f 673 678 616
f 678 682 616
f 616 653 650
f 684 624 603
f 624 686 603
f 603 689 688
f 691 603 688
f 633 604 620
f 642 605 633
f 693 674 605
f 605 648 604
f 604 645 607
f 606 645 662
f 626 607 606
f 620 607 705
f 608 662 665
f 695 665 672
f 690 608 695
f 687 606 608
f 734 615 736
f 697 752 615
f 752 696 615
f 615 768 736
f 660 610 667
f 609 685 610
f 610 692 698
f 667 698 670
f 655 611 612
f 612 631 712
f 612 709 609
f 655 609 660
f 652 613 611
f 683 699 613
f 613 638 635
f 611 635 631
f 614 643 640
f 637 614 640
f 700 679 614
f 679 694 614
f 701 619 617
f 755 622 619
f 705 756 622
f 708 711 623
f 757 628 711
f 712 758 628
f 713 701 629
f 633 703 632
f 704 702 621
f 702 630 618
f 701 713 702
f 714 634 630
f 715 717 634
f 716 639 636
f 718 720 639
f 719 632 641
f 721 646 644
f 722 724 646
f 724 651 649
f 725 763 724
f 762 727 651
f 727 764 654
f 728 729 658
f 729 661 656
f 765 644 661
f 732 663 664
f 731 657 663
f 729 728 657
f 733 735 666
f 734 668 669
f 736 768 668
f 737 732 671
f 725 722 650
f 723 673 647
f 738 675 673
f 739 678 675
f 740 742 739
f 742 680 678
f 744 682 680
f 747 653 682
f 726 650 653
f 748 710 684
f 711 708 627
f 708 625 624
f 707 686 625
f 749 751 686
f 750 688 689
f 753 684 691
f 760 693 642
f 741 674 677
f 738 723 674
f 761 645 648
f 721 662 645
f 756 705 626
f 730 732 662
f 767 695 672
f 732 672 665
f 696 771 695
f 751 749 690
f 749 626 687
f 766 697 734
f 691 752 754
f 688 750 752
f 771 696 750
f 733 660 667
f 710 748 709
f 748 692 685
f 772 698 692
f 735 667 670
f 697 766 698
f 727 762 655
f 758 712 631
f 762 747 652
f 747 681 683
f 770 699 681
f 700 759 699
f 717 715 638
f 715 631 635
f 693 760 694
f 720 640 643
f 718 637 640
f 759 700 637
f 746 743 745
f 743 676 679
f 742 740 743
f 769 694 676
f 703 620 755
f 625 706 756
f 714 630 758
f 641 760 719
f 723 722 761
f 762 651 763
f 659 728 764
f 663 730 765
f 765 731 663
f 675 769 739
f 796 773 780
f 773 794 774
f 774 793 775
f 775 792 776
f 777 792 791
f 791 778 777
f 790 779 778
f 789 780 779
f 788 804 781
f 781 802 782
f 782 801 783
f 783 800 784
f 784 799 785
f 799 786 785
f 798 787 786
f 797 788 787
