# Original OZ Stargate parametric DHD console, 2026
o dhd-keys
v 0.349923 1.146000 0.007330
v 0.345880 1.146000 0.053545
v 0.533643 1.146000 0.082612
v 0.349923 1.146000 0.007330
v 0.533643 1.146000 0.082612
v 0.539882 1.146000 0.011309
v 0.549879 1.146000 0.011518
v 0.543526 1.146000 0.084142
v 0.681878 1.146000 0.105560
v 0.549879 1.146000 0.011518
v 0.681878 1.146000 0.105560
v 0.689849 1.146000 0.014450
v 0.343334 1.146000 0.067982
v 0.331327 1.146000 0.112793
v 0.511191 1.146000 0.174023
v 0.343334 1.146000 0.067982
v 0.511191 1.146000 0.174023
v 0.529716 1.146000 0.104887
v 0.539525 1.146000 0.106829
v 0.520657 1.146000 0.177246
v 0.653188 1.146000 0.222363
v 0.539525 1.146000 0.106829
v 0.653188 1.146000 0.222363
v 0.676859 1.146000 0.134022
v 0.326313 1.146000 0.126569
v 0.306707 1.146000 0.168614
v 0.473206 1.146000 0.260147
v 0.326313 1.146000 0.126569
v 0.473206 1.146000 0.260147
v 0.503455 1.146000 0.195277
v 0.512778 1.146000 0.198894
v 0.481969 1.146000 0.264965
v 0.604652 1.146000 0.332410
v 0.512778 1.146000 0.198894
v 0.604652 1.146000 0.332410
v 0.643303 1.146000 0.249521
v 0.299377 1.146000 0.181309
v 0.272768 1.146000 0.219311
v 0.420843 1.146000 0.338366
v 0.299377 1.146000 0.181309
v 0.420843 1.146000 0.338366
v 0.461897 1.146000 0.279735
v 0.470450 1.146000 0.284915
v 0.428636 1.146000 0.344632
v 0.537743 1.146000 0.432357
v 0.470450 1.146000 0.284915
v 0.537743 1.146000 0.432357
v 0.590201 1.146000 0.357439
v 0.263345 1.146000 0.230541
v 0.230541 1.146000 0.263345
v 0.355692 1.146000 0.406304
v 0.263345 1.146000 0.230541
v 0.355692 1.146000 0.406304
v 0.406304 1.146000 0.355692
v 0.413828 1.146000 0.362279
v 0.362279 1.146000 0.413828
v 0.454496 1.146000 0.519166
v 0.413828 1.146000 0.362279
v 0.454496 1.146000 0.519166
v 0.519166 1.146000 0.454496
v 0.219311 1.146000 0.272768
v 0.181309 1.146000 0.299377
v 0.279735 1.146000 0.461897
v 0.219311 1.146000 0.272768
v 0.279735 1.146000 0.461897
v 0.338366 1.146000 0.420843
v 0.344632 1.146000 0.428636
v 0.284915 1.146000 0.470450
v 0.357439 1.146000 0.590201
v 0.344632 1.146000 0.428636
v 0.357439 1.146000 0.590201
v 0.432357 1.146000 0.537743
v 0.168614 1.146000 0.306707
v 0.126569 1.146000 0.326313
v 0.195277 1.146000 0.503455
v 0.168614 1.146000 0.306707
v 0.195277 1.146000 0.503455
v 0.260147 1.146000 0.473206
v 0.264965 1.146000 0.481969
v 0.198894 1.146000 0.512778
v 0.249521 1.146000 0.643303
v 0.264965 1.146000 0.481969
v 0.249521 1.146000 0.643303
v 0.332410 1.146000 0.604652
v 0.112793 1.146000 0.331327
v 0.067982 1.146000 0.343334
v 0.104887 1.146000 0.529716
v 0.112793 1.146000 0.331327
v 0.104887 1.146000 0.529716
v 0.174023 1.146000 0.511191
v 0.177246 1.146000 0.520657
v 0.106829 1.146000 0.539525
v 0.134022 1.146000 0.676859
v 0.177246 1.146000 0.520657
v 0.134022 1.146000 0.676859
v 0.222363 1.146000 0.653188
v 0.053545 1.146000 0.345880
v 0.007330 1.146000 0.349923
v 0.011309 1.146000 0.539882
v 0.053545 1.146000 0.345880
v 0.011309 1.146000 0.539882
v 0.082612 1.146000 0.533643
v 0.084142 1.146000 0.543526
v 0.011518 1.146000 0.549879
v 0.014450 1.146000 0.689849
v 0.084142 1.146000 0.543526
v 0.014450 1.146000 0.689849
v 0.105560 1.146000 0.681878
v -0.007330 1.146000 0.349923
v -0.053545 1.146000 0.345880
v -0.082612 1.146000 0.533643
v -0.007330 1.146000 0.349923
v -0.082612 1.146000 0.533643
v -0.011309 1.146000 0.539882
v -0.011518 1.146000 0.549879
v -0.084142 1.146000 0.543526
v -0.105560 1.146000 0.681878
v -0.011518 1.146000 0.549879
v -0.105560 1.146000 0.681878
v -0.014450 1.146000 0.689849
v -0.067982 1.146000 0.343334
v -0.112793 1.146000 0.331327
v -0.174023 1.146000 0.511191
v -0.067982 1.146000 0.343334
v -0.174023 1.146000 0.511191
v -0.104887 1.146000 0.529716
v -0.106829 1.146000 0.539525
v -0.177246 1.146000 0.520657
v -0.222363 1.146000 0.653188
v -0.106829 1.146000 0.539525
v -0.222363 1.146000 0.653188
v -0.134022 1.146000 0.676859
v -0.126569 1.146000 0.326313
v -0.168614 1.146000 0.306707
v -0.260147 1.146000 0.473206
v -0.126569 1.146000 0.326313
v -0.260147 1.146000 0.473206
v -0.195277 1.146000 0.503455
v -0.198894 1.146000 0.512778
v -0.264965 1.146000 0.481969
v -0.332410 1.146000 0.604652
v -0.198894 1.146000 0.512778
v -0.332410 1.146000 0.604652
v -0.249521 1.146000 0.643303
v -0.181309 1.146000 0.299377
v -0.219311 1.146000 0.272768
v -0.338366 1.146000 0.420843
v -0.181309 1.146000 0.299377
v -0.338366 1.146000 0.420843
v -0.279735 1.146000 0.461897
v -0.284915 1.146000 0.470450
v -0.344632 1.146000 0.428636
v -0.432357 1.146000 0.537743
v -0.284915 1.146000 0.470450
v -0.432357 1.146000 0.537743
v -0.357439 1.146000 0.590201
v -0.230541 1.146000 0.263345
v -0.263345 1.146000 0.230541
v -0.406304 1.146000 0.355692
v -0.230541 1.146000 0.263345
v -0.406304 1.146000 0.355692
v -0.355692 1.146000 0.406304
v -0.362279 1.146000 0.413828
v -0.413828 1.146000 0.362279
v -0.519166 1.146000 0.454496
v -0.362279 1.146000 0.413828
v -0.519166 1.146000 0.454496
v -0.454496 1.146000 0.519166
v -0.272768 1.146000 0.219311
v -0.299377 1.146000 0.181309
v -0.461897 1.146000 0.279735
v -0.272768 1.146000 0.219311
v -0.461897 1.146000 0.279735
v -0.420843 1.146000 0.338366
v -0.428636 1.146000 0.344632
v -0.470450 1.146000 0.284915
v -0.590201 1.146000 0.357439
v -0.428636 1.146000 0.344632
v -0.590201 1.146000 0.357439
v -0.537743 1.146000 0.432357
v -0.306707 1.146000 0.168614
v -0.326313 1.146000 0.126569
v -0.503455 1.146000 0.195277
v -0.306707 1.146000 0.168614
v -0.503455 1.146000 0.195277
v -0.473206 1.146000 0.260147
v -0.481969 1.146000 0.264965
v -0.512778 1.146000 0.198894
v -0.643303 1.146000 0.249521
v -0.481969 1.146000 0.264965
v -0.643303 1.146000 0.249521
v -0.604652 1.146000 0.332410
v -0.331327 1.146000 0.112793
v -0.343334 1.146000 0.067982
v -0.529716 1.146000 0.104887
v -0.331327 1.146000 0.112793
v -0.529716 1.146000 0.104887
v -0.511191 1.146000 0.174023
v -0.520657 1.146000 0.177246
v -0.539525 1.146000 0.106829
v -0.676859 1.146000 0.134022
v -0.520657 1.146000 0.177246
v -0.676859 1.146000 0.134022
v -0.653188 1.146000 0.222363
v -0.345880 1.146000 0.053545
v -0.349923 1.146000 0.007330
v -0.539882 1.146000 0.011309
v -0.345880 1.146000 0.053545
v -0.539882 1.146000 0.011309
v -0.533643 1.146000 0.082612
v -0.543526 1.146000 0.084142
v -0.549879 1.146000 0.011518
v -0.689849 1.146000 0.014450
v -0.543526 1.146000 0.084142
v -0.689849 1.146000 0.014450
v -0.681878 1.146000 0.105560
v -0.349923 1.146000 -0.007330
v -0.345880 1.146000 -0.053545
v -0.533643 1.146000 -0.082612
v -0.349923 1.146000 -0.007330
v -0.533643 1.146000 -0.082612
v -0.539882 1.146000 -0.011309
v -0.549879 1.146000 -0.011518
v -0.543526 1.146000 -0.084142
v -0.681878 1.146000 -0.105560
v -0.549879 1.146000 -0.011518
v -0.681878 1.146000 -0.105560
v -0.689849 1.146000 -0.014450
v -0.343334 1.146000 -0.067982
v -0.331327 1.146000 -0.112793
v -0.511191 1.146000 -0.174023
v -0.343334 1.146000 -0.067982
v -0.511191 1.146000 -0.174023
v -0.529716 1.146000 -0.104887
v -0.539525 1.146000 -0.106829
v -0.520657 1.146000 -0.177246
v -0.653188 1.146000 -0.222363
v -0.539525 1.146000 -0.106829
v -0.653188 1.146000 -0.222363
v -0.676859 1.146000 -0.134022
v -0.326313 1.146000 -0.126569
v -0.306707 1.146000 -0.168614
v -0.473206 1.146000 -0.260147
v -0.326313 1.146000 -0.126569
v -0.473206 1.146000 -0.260147
v -0.503455 1.146000 -0.195277
v -0.512778 1.146000 -0.198894
v -0.481969 1.146000 -0.264965
v -0.604652 1.146000 -0.332410
v -0.512778 1.146000 -0.198894
v -0.604652 1.146000 -0.332410
v -0.643303 1.146000 -0.249521
v -0.299377 1.146000 -0.181309
v -0.272768 1.146000 -0.219311
v -0.420843 1.146000 -0.338366
v -0.299377 1.146000 -0.181309
v -0.420843 1.146000 -0.338366
v -0.461897 1.146000 -0.279735
v -0.470450 1.146000 -0.284915
v -0.428636 1.146000 -0.344632
v -0.537743 1.146000 -0.432357
v -0.470450 1.146000 -0.284915
v -0.537743 1.146000 -0.432357
v -0.590201 1.146000 -0.357439
v -0.263345 1.146000 -0.230541
v -0.230541 1.146000 -0.263345
v -0.355692 1.146000 -0.406304
v -0.263345 1.146000 -0.230541
v -0.355692 1.146000 -0.406304
v -0.406304 1.146000 -0.355692
v -0.413828 1.146000 -0.362279
v -0.362279 1.146000 -0.413828
v -0.454496 1.146000 -0.519166
v -0.413828 1.146000 -0.362279
v -0.454496 1.146000 -0.519166
v -0.519166 1.146000 -0.454496
v -0.219311 1.146000 -0.272768
v -0.181309 1.146000 -0.299377
v -0.279735 1.146000 -0.461897
v -0.219311 1.146000 -0.272768
v -0.279735 1.146000 -0.461897
v -0.338366 1.146000 -0.420843
v -0.344632 1.146000 -0.428636
v -0.284915 1.146000 -0.470450
v -0.357439 1.146000 -0.590201
v -0.344632 1.146000 -0.428636
v -0.357439 1.146000 -0.590201
v -0.432357 1.146000 -0.537743
v -0.168614 1.146000 -0.306707
v -0.126569 1.146000 -0.326313
v -0.195277 1.146000 -0.503455
v -0.168614 1.146000 -0.306707
v -0.195277 1.146000 -0.503455
v -0.260147 1.146000 -0.473206
v -0.264965 1.146000 -0.481969
v -0.198894 1.146000 -0.512778
v -0.249521 1.146000 -0.643303
v -0.264965 1.146000 -0.481969
v -0.249521 1.146000 -0.643303
v -0.332410 1.146000 -0.604652
v -0.112793 1.146000 -0.331327
v -0.067982 1.146000 -0.343334
v -0.104887 1.146000 -0.529716
v -0.112793 1.146000 -0.331327
v -0.104887 1.146000 -0.529716
v -0.174023 1.146000 -0.511191
v -0.177246 1.146000 -0.520657
v -0.106829 1.146000 -0.539525
v -0.134022 1.146000 -0.676859
v -0.177246 1.146000 -0.520657
v -0.134022 1.146000 -0.676859
v -0.222363 1.146000 -0.653188
v -0.053545 1.146000 -0.345880
v -0.007330 1.146000 -0.349923
v -0.011309 1.146000 -0.539882
v -0.053545 1.146000 -0.345880
v -0.011309 1.146000 -0.539882
v -0.082612 1.146000 -0.533643
v -0.084142 1.146000 -0.543526
v -0.011518 1.146000 -0.549879
v -0.014450 1.146000 -0.689849
v -0.084142 1.146000 -0.543526
v -0.014450 1.146000 -0.689849
v -0.105560 1.146000 -0.681878
v 0.007330 1.146000 -0.349923
v 0.053545 1.146000 -0.345880
v 0.082612 1.146000 -0.533643
v 0.007330 1.146000 -0.349923
v 0.082612 1.146000 -0.533643
v 0.011309 1.146000 -0.539882
v 0.011518 1.146000 -0.549879
v 0.084142 1.146000 -0.543526
v 0.105560 1.146000 -0.681878
v 0.011518 1.146000 -0.549879
v 0.105560 1.146000 -0.681878
v 0.014450 1.146000 -0.689849
v 0.067982 1.146000 -0.343334
v 0.112793 1.146000 -0.331327
v 0.174023 1.146000 -0.511191
v 0.067982 1.146000 -0.343334
v 0.174023 1.146000 -0.511191
v 0.104887 1.146000 -0.529716
v 0.106829 1.146000 -0.539525
v 0.177246 1.146000 -0.520657
v 0.222363 1.146000 -0.653188
v 0.106829 1.146000 -0.539525
v 0.222363 1.146000 -0.653188
v 0.134022 1.146000 -0.676859
v 0.126569 1.146000 -0.326313
v 0.168614 1.146000 -0.306707
v 0.260147 1.146000 -0.473206
v 0.126569 1.146000 -0.326313
v 0.260147 1.146000 -0.473206
v 0.195277 1.146000 -0.503455
v 0.198894 1.146000 -0.512778
v 0.264965 1.146000 -0.481969
v 0.332410 1.146000 -0.604652
v 0.198894 1.146000 -0.512778
v 0.332410 1.146000 -0.604652
v 0.249521 1.146000 -0.643303
v 0.181309 1.146000 -0.299377
v 0.219311 1.146000 -0.272768
v 0.338366 1.146000 -0.420843
v 0.181309 1.146000 -0.299377
v 0.338366 1.146000 -0.420843
v 0.279735 1.146000 -0.461897
v 0.284915 1.146000 -0.470450
v 0.344632 1.146000 -0.428636
v 0.432357 1.146000 -0.537743
v 0.284915 1.146000 -0.470450
v 0.432357 1.146000 -0.537743
v 0.357439 1.146000 -0.590201
v 0.230541 1.146000 -0.263345
v 0.263345 1.146000 -0.230541
v 0.406304 1.146000 -0.355692
v 0.230541 1.146000 -0.263345
v 0.406304 1.146000 -0.355692
v 0.355692 1.146000 -0.406304
v 0.362279 1.146000 -0.413828
v 0.413828 1.146000 -0.362279
v 0.519166 1.146000 -0.454496
v 0.362279 1.146000 -0.413828
v 0.519166 1.146000 -0.454496
v 0.454496 1.146000 -0.519166
v 0.272768 1.146000 -0.219311
v 0.299377 1.146000 -0.181309
v 0.461897 1.146000 -0.279735
v 0.272768 1.146000 -0.219311
v 0.461897 1.146000 -0.279735
v 0.420843 1.146000 -0.338366
v 0.428636 1.146000 -0.344632
v 0.470450 1.146000 -0.284915
v 0.590201 1.146000 -0.357439
v 0.428636 1.146000 -0.344632
v 0.590201 1.146000 -0.357439
v 0.537743 1.146000 -0.432357
v 0.306707 1.146000 -0.168614
v 0.326313 1.146000 -0.126569
v 0.503455 1.146000 -0.195277
v 0.306707 1.146000 -0.168614
v 0.503455 1.146000 -0.195277
v 0.473206 1.146000 -0.260147
v 0.481969 1.146000 -0.264965
v 0.512778 1.146000 -0.198894
v 0.643303 1.146000 -0.249521
v 0.481969 1.146000 -0.264965
v 0.643303 1.146000 -0.249521
v 0.604652 1.146000 -0.332410
v 0.331327 1.146000 -0.112793
v 0.343334 1.146000 -0.067982
v 0.529716 1.146000 -0.104887
v 0.331327 1.146000 -0.112793
v 0.529716 1.146000 -0.104887
v 0.511191 1.146000 -0.174023
v 0.520657 1.146000 -0.177246
v 0.539525 1.146000 -0.106829
v 0.676859 1.146000 -0.134022
v 0.520657 1.146000 -0.177246
v 0.676859 1.146000 -0.134022
v 0.653188 1.146000 -0.222363
v 0.345880 1.146000 -0.053545
v 0.349923 1.146000 -0.007330
v 0.539882 1.146000 -0.011309
v 0.345880 1.146000 -0.053545
v 0.539882 1.146000 -0.011309
v 0.533643 1.146000 -0.082612
v 0.543526 1.146000 -0.084142
v 0.549879 1.146000 -0.011518
v 0.689849 1.146000 -0.014450
v 0.543526 1.146000 -0.084142
v 0.689849 1.146000 -0.014450
v 0.681878 1.146000 -0.105560
f 1 2 3
f 4 5 6
f 7 8 9
f 10 11 12
f 13 14 15
f 16 17 18
f 19 20 21
f 22 23 24
f 25 26 27
f 28 29 30
f 31 32 33
f 34 35 36
f 37 38 39
f 40 41 42
f 43 44 45
f 46 47 48
f 49 50 51
f 52 53 54
f 55 56 57
f 58 59 60
f 61 62 63
f 64 65 66
f 67 68 69
f 70 71 72
f 73 74 75
f 76 77 78
f 79 80 81
f 82 83 84
f 85 86 87
f 88 89 90
f 91 92 93
f 94 95 96
f 97 98 99
f 100 101 102
f 103 104 105
f 106 107 108
f 109 110 111
f 112 113 114
f 115 116 117
f 118 119 120
f 121 122 123
f 124 125 126
f 127 128 129
f 130 131 132
f 133 134 135
f 136 137 138
f 139 140 141
f 142 143 144
f 145 146 147
f 148 149 150
f 151 152 153
f 154 155 156
f 157 158 159
f 160 161 162
f 163 164 165
f 166 167 168
f 169 170 171
f 172 173 174
f 175 176 177
f 178 179 180
f 181 182 183
f 184 185 186
f 187 188 189
f 190 191 192
f 193 194 195
f 196 197 198
f 199 200 201
f 202 203 204
f 205 206 207
f 208 209 210
f 211 212 213
f 214 215 216
f 217 218 219
f 220 221 222
f 223 224 225
f 226 227 228
f 229 230 231
f 232 233 234
f 235 236 237
f 238 239 240
f 241 242 243
f 244 245 246
f 247 248 249
f 250 251 252
f 253 254 255
f 256 257 258
f 259 260 261
f 262 263 264
f 265 266 267
f 268 269 270
f 271 272 273
f 274 275 276
f 277 278 279
f 280 281 282
f 283 284 285
f 286 287 288
f 289 290 291
f 292 293 294
f 295 296 297
f 298 299 300
f 301 302 303
f 304 305 306
f 307 308 309
f 310 311 312
f 313 314 315
f 316 317 318
f 319 320 321
f 322 323 324
f 325 326 327
f 328 329 330
f 331 332 333
f 334 335 336
f 337 338 339
f 340 341 342
f 343 344 345
f 346 347 348
f 349 350 351
f 352 353 354
f 355 356 357
f 358 359 360
f 361 362 363
f 364 365 366
f 367 368 369
f 370 371 372
f 373 374 375
f 376 377 378
f 379 380 381
f 382 383 384
f 385 386 387
f 388 389 390
f 391 392 393
f 394 395 396
f 397 398 399
f 400 401 402
f 403 404 405
f 406 407 408
f 409 410 411
f 412 413 414
f 415 416 417
f 418 419 420
f 421 422 423
f 424 425 426
f 427 428 429
f 430 431 432
