# Original OZ Stargate parametric DHD console, 2026
o dhd-key-markers
v 0.588744 1.149000 0.038480
v 0.586481 1.149000 0.064339
v 0.638171 1.149000 0.070010
v 0.588744 1.149000 0.038480
v 0.638171 1.149000 0.070010
v 0.640633 1.149000 0.041871
v 0.398927 1.149000 0.029280
v 0.397951 1.149000 0.040437
v 0.477541 1.149000 0.048525
v 0.398927 1.149000 0.029280
v 0.477541 1.149000 0.048525
v 0.478712 1.149000 0.035136
v 0.571978 1.149000 0.144710
v 0.567703 1.149000 0.160667
v 0.617737 1.149000 0.174827
v 0.571978 1.149000 0.144710
v 0.617737 1.149000 0.174827
v 0.622390 1.149000 0.157464
v 0.538160 1.149000 0.241834
v 0.531178 1.149000 0.256806
v 0.577994 1.149000 0.279440
v 0.538160 1.149000 0.241834
v 0.577994 1.149000 0.279440
v 0.585591 1.149000 0.263149
v 0.490627 1.149000 0.327696
v 0.475738 1.149000 0.348960
v 0.517668 1.149000 0.379716
v 0.490627 1.149000 0.327696
v 0.517668 1.149000 0.379716
v 0.533869 1.149000 0.356578
v 0.422993 1.149000 0.411312
v 0.411312 1.149000 0.422993
v 0.447563 1.149000 0.460273
v 0.422993 1.149000 0.411312
v 0.447563 1.149000 0.460273
v 0.460273 1.149000 0.447563
v 0.286775 1.149000 0.278855
v 0.278855 1.149000 0.286775
v 0.334626 1.149000 0.344130
v 0.286775 1.149000 0.278855
v 0.334626 1.149000 0.344130
v 0.344130 1.149000 0.334626
v 0.345143 1.149000 0.478515
v 0.331611 1.149000 0.487990
v 0.360838 1.149000 0.530999
v 0.345143 1.149000 0.478515
v 0.360838 1.149000 0.530999
v 0.375562 1.149000 0.520689
v 0.261047 1.149000 0.529107
v 0.237522 1.149000 0.540077
v 0.258456 1.149000 0.587677
v 0.261047 1.149000 0.529107
v 0.258456 1.149000 0.587677
v 0.284055 1.149000 0.575740
v 0.160667 1.149000 0.567703
v 0.144710 1.149000 0.571978
v 0.157464 1.149000 0.622390
v 0.160667 1.149000 0.567703
v 0.157464 1.149000 0.622390
v 0.174827 1.149000 0.617737
v 0.059645 1.149000 0.586977
v 0.043189 1.149000 0.588417
v 0.046995 1.149000 0.640278
v 0.059645 1.149000 0.586977
v 0.046995 1.149000 0.640278
v 0.064902 1.149000 0.638711
v 0.040437 1.149000 0.397951
v 0.029280 1.149000 0.398927
v 0.035136 1.149000 0.478712
v 0.040437 1.149000 0.397951
v 0.035136 1.149000 0.478712
v 0.048525 1.149000 0.477541
v -0.038480 1.149000 0.588744
v -0.064339 1.149000 0.586481
v -0.070010 1.149000 0.638171
v -0.038480 1.149000 0.588744
v -0.070010 1.149000 0.638171
v -0.041871 1.149000 0.640633
v -0.144710 1.149000 0.571978
v -0.160667 1.149000 0.567703
v -0.174827 1.149000 0.617737
v -0.144710 1.149000 0.571978
v -0.174827 1.149000 0.617737
v -0.157464 1.149000 0.622390
v -0.241834 1.149000 0.538160
v -0.256806 1.149000 0.531178
v -0.279440 1.149000 0.577994
v -0.241834 1.149000 0.538160
v -0.279440 1.149000 0.577994
v -0.263149 1.149000 0.585591
v -0.327696 1.149000 0.490627
v -0.348960 1.149000 0.475738
v -0.379716 1.149000 0.517668
v -0.327696 1.149000 0.490627
v -0.379716 1.149000 0.517668
v -0.356578 1.149000 0.533869
v -0.224821 1.149000 0.330841
v -0.233995 1.149000 0.324417
v -0.280794 1.149000 0.389300
v -0.224821 1.149000 0.330841
v -0.280794 1.149000 0.389300
v -0.269785 1.149000 0.397009
v -0.411312 1.149000 0.422993
v -0.422993 1.149000 0.411312
v -0.460273 1.149000 0.447563
v -0.411312 1.149000 0.422993
v -0.460273 1.149000 0.447563
v -0.447563 1.149000 0.460273
v -0.478515 1.149000 0.345143
v -0.487990 1.149000 0.331611
v -0.530999 1.149000 0.360838
v -0.478515 1.149000 0.345143
v -0.530999 1.149000 0.360838
v -0.520689 1.149000 0.375562
v -0.529107 1.149000 0.261047
v -0.540077 1.149000 0.237522
v -0.587677 1.149000 0.258456
v -0.529107 1.149000 0.261047
v -0.587677 1.149000 0.258456
v -0.575740 1.149000 0.284055
v -0.567703 1.149000 0.160667
v -0.571978 1.149000 0.144710
v -0.622390 1.149000 0.157464
v -0.567703 1.149000 0.160667
v -0.622390 1.149000 0.157464
v -0.617737 1.149000 0.174827
v -0.384883 1.149000 0.108926
v -0.387782 1.149000 0.098108
v -0.465338 1.149000 0.117730
v -0.384883 1.149000 0.108926
v -0.465338 1.149000 0.117730
v -0.461860 1.149000 0.130712
v -0.586977 1.149000 0.059645
v -0.588417 1.149000 0.043189
v -0.640278 1.149000 0.046995
v -0.586977 1.149000 0.059645
v -0.640278 1.149000 0.046995
v -0.638711 1.149000 0.064902
v -0.588744 1.149000 -0.038480
v -0.586481 1.149000 -0.064339
v -0.638171 1.149000 -0.070010
v -0.588744 1.149000 -0.038480
v -0.638171 1.149000 -0.070010
v -0.640633 1.149000 -0.041871
v -0.571978 1.149000 -0.144710
v -0.567703 1.149000 -0.160667
v -0.617737 1.149000 -0.174827
v -0.571978 1.149000 -0.144710
v -0.617737 1.149000 -0.174827
v -0.622390 1.149000 -0.157464
v -0.538160 1.149000 -0.241834
v -0.531178 1.149000 -0.256806
v -0.577994 1.149000 -0.279440
v -0.538160 1.149000 -0.241834
v -0.577994 1.149000 -0.279440
v -0.585591 1.149000 -0.263149
v -0.364854 1.149000 -0.163956
v -0.360121 1.149000 -0.174106
v -0.432145 1.149000 -0.208927
v -0.364854 1.149000 -0.163956
v -0.432145 1.149000 -0.208927
v -0.437825 1.149000 -0.196747
v -0.490627 1.149000 -0.327696
v -0.475738 1.149000 -0.348960
v -0.517668 1.149000 -0.379716
v -0.490627 1.149000 -0.327696
v -0.517668 1.149000 -0.379716
v -0.533869 1.149000 -0.356578
v -0.422993 1.149000 -0.411312
v -0.411312 1.149000 -0.422993
v -0.447563 1.149000 -0.460273
v -0.422993 1.149000 -0.411312
v -0.447563 1.149000 -0.460273
v -0.460273 1.149000 -0.447563
v -0.345143 1.149000 -0.478515
v -0.331611 1.149000 -0.487990
v -0.360838 1.149000 -0.530999
v -0.345143 1.149000 -0.478515
v -0.360838 1.149000 -0.530999
v -0.375562 1.149000 -0.520689
v -0.261047 1.149000 -0.529107
v -0.237522 1.149000 -0.540077
v -0.258456 1.149000 -0.587677
v -0.261047 1.149000 -0.529107
v -0.258456 1.149000 -0.587677
v -0.284055 1.149000 -0.575740
v -0.174106 1.149000 -0.360121
v -0.163956 1.149000 -0.364854
v -0.196747 1.149000 -0.437825
v -0.174106 1.149000 -0.360121
v -0.196747 1.149000 -0.437825
v -0.208927 1.149000 -0.432145
v -0.160667 1.149000 -0.567703
v -0.144710 1.149000 -0.571978
v -0.157464 1.149000 -0.622390
v -0.160667 1.149000 -0.567703
v -0.157464 1.149000 -0.622390
v -0.174827 1.149000 -0.617737
v -0.059645 1.149000 -0.586977
v -0.043189 1.149000 -0.588417
v -0.046995 1.149000 -0.640278
v -0.059645 1.149000 -0.586977
v -0.046995 1.149000 -0.640278
v -0.064902 1.149000 -0.638711
v 0.038480 1.149000 -0.588744
v 0.064339 1.149000 -0.586481
v 0.070010 1.149000 -0.638171
v 0.038480 1.149000 -0.588744
v 0.070010 1.149000 -0.638171
v 0.041871 1.149000 -0.640633
v 0.144710 1.149000 -0.571978
v 0.160667 1.149000 -0.567703
v 0.174827 1.149000 -0.617737
v 0.144710 1.149000 -0.571978
v 0.174827 1.149000 -0.617737
v 0.157464 1.149000 -0.622390
v 0.098108 1.149000 -0.387782
v 0.108926 1.149000 -0.384883
v 0.130712 1.149000 -0.461860
v 0.098108 1.149000 -0.387782
v 0.130712 1.149000 -0.461860
v 0.117730 1.149000 -0.465338
v 0.241834 1.149000 -0.538160
v 0.256806 1.149000 -0.531178
v 0.279440 1.149000 -0.577994
v 0.241834 1.149000 -0.538160
v 0.279440 1.149000 -0.577994
v 0.263149 1.149000 -0.585591
v 0.327696 1.149000 -0.490627
v 0.348960 1.149000 -0.475738
v 0.379716 1.149000 -0.517668
v 0.327696 1.149000 -0.490627
v 0.379716 1.149000 -0.517668
v 0.356578 1.149000 -0.533869
v 0.411312 1.149000 -0.422993
v 0.422993 1.149000 -0.411312
v 0.460273 1.149000 -0.447563
v 0.411312 1.149000 -0.422993
v 0.460273 1.149000 -0.447563
v 0.447563 1.149000 -0.460273
v 0.478515 1.149000 -0.345143
v 0.487990 1.149000 -0.331611
v 0.530999 1.149000 -0.360838
v 0.478515 1.149000 -0.345143
v 0.530999 1.149000 -0.360838
v 0.520689 1.149000 -0.375562
v 0.324417 1.149000 -0.233995
v 0.330841 1.149000 -0.224821
v 0.397009 1.149000 -0.269785
v 0.324417 1.149000 -0.233995
v 0.397009 1.149000 -0.269785
v 0.389300 1.149000 -0.280794
v 0.529107 1.149000 -0.261047
v 0.540077 1.149000 -0.237522
v 0.587677 1.149000 -0.258456
v 0.529107 1.149000 -0.261047
v 0.587677 1.149000 -0.258456
v 0.575740 1.149000 -0.284055
v 0.567703 1.149000 -0.160667
v 0.571978 1.149000 -0.144710
v 0.622390 1.149000 -0.157464
v 0.567703 1.149000 -0.160667
v 0.622390 1.149000 -0.157464
v 0.617737 1.149000 -0.174827
v 0.586977 1.149000 -0.059645
v 0.588417 1.149000 -0.043189
v 0.640278 1.149000 -0.046995
v 0.586977 1.149000 -0.059645
v 0.640278 1.149000 -0.046995
v 0.638711 1.149000 -0.064902
f 1 2 3
f 4 5 6
f 7 8 9
f 10 11 12
f 13 14 15
f 16 17 18
f 19 20 21
f 22 23 24
f 25 26 27
f 28 29 30
f 31 32 33
f 34 35 36
f 37 38 39
f 40 41 42
f 43 44 45
f 46 47 48
f 49 50 51
f 52 53 54
f 55 56 57
f 58 59 60
f 61 62 63
f 64 65 66
f 67 68 69
f 70 71 72
f 73 74 75
f 76 77 78
f 79 80 81
f 82 83 84
f 85 86 87
f 88 89 90
f 91 92 93
f 94 95 96
f 97 98 99
f 100 101 102
f 103 104 105
f 106 107 108
f 109 110 111
f 112 113 114
f 115 116 117
f 118 119 120
f 121 122 123
f 124 125 126
f 127 128 129
f 130 131 132
f 133 134 135
f 136 137 138
f 139 140 141
f 142 143 144
f 145 146 147
f 148 149 150
f 151 152 153
f 154 155 156
f 157 158 159
f 160 161 162
f 163 164 165
f 166 167 168
f 169 170 171
f 172 173 174
f 175 176 177
f 178 179 180
f 181 182 183
f 184 185 186
f 187 188 189
f 190 191 192
f 193 194 195
f 196 197 198
f 199 200 201
f 202 203 204
f 205 206 207
f 208 209 210
f 211 212 213
f 214 215 216
f 217 218 219
f 220 221 222
f 223 224 225
f 226 227 228
f 229 230 231
f 232 233 234
f 235 236 237
f 238 239 240
f 241 242 243
f 244 245 246
f 247 248 249
f 250 251 252
f 253 254 255
f 256 257 258
f 259 260 261
f 262 263 264
f 265 266 267
f 268 269 270
