# Derived from blenderjunky Stargate DHD (BlendSwap 75540 / 13419).
# Source notice: supplied-dhd-LICENSE.html; Fan Art, noncommercial use only.
o supplied-dhd-activate
v 0.022718 1.018504 -0.110965
v 0.044641 1.012608 -0.107423
v 0.064846 1.003034 -0.101670
v 0.082555 0.990149 -0.093928
v 0.097089 0.974450 -0.084495
v 0.022280 1.020794 -0.107152
v 0.043782 1.017102 -0.099944
v 0.063598 1.009558 -0.090812
v 0.080967 0.998453 -0.080109
v 0.095222 0.984213 -0.068245
v 0.020982 1.022997 -0.103486
v 0.041237 1.021423 -0.092752
v 0.059903 1.015831 -0.080372
v 0.076265 1.006437 -0.066821
v 0.089692 0.993601 -0.052621
v 0.018875 1.025027 -0.100107
v 0.037104 1.025405 -0.086125
v 0.053903 1.021612 -0.070750
v 0.068628 1.013795 -0.054575
v 0.080713 1.002254 -0.038221
v 0.016040 1.026807 -0.097146
v 0.031542 1.028895 -0.080316
v 0.045829 1.026679 -0.062317
v 0.058351 1.020245 -0.043841
v 0.068628 1.009838 -0.025599
v 0.012585 1.028267 -0.094716
v 0.024765 1.031760 -0.075548
v 0.035990 1.030838 -0.055396
v 0.045829 1.025538 -0.035032
v 0.053903 1.016062 -0.015241
v 0.008643 1.029352 -0.092910
v 0.017033 1.033888 -0.072006
v 0.024765 1.033928 -0.050253
v 0.031542 1.029471 -0.028487
v 0.037104 1.020686 -0.007544
v 0.004366 1.030021 -0.091797
v 0.008643 1.035199 -0.069824
v 0.012585 1.035831 -0.047086
v 0.016040 1.031893 -0.024456
v 0.018876 1.023534 -0.002804
v -0.000082 1.030246 -0.091422
v -0.000082 1.035642 -0.069088
v -0.000082 1.036474 -0.046016
v -0.000081 1.032710 -0.023095
v -0.000081 1.024496 -0.001203
v -0.004530 1.030021 -0.091797
v -0.008807 1.035199 -0.069824
v -0.012748 1.035831 -0.047086
v -0.016203 1.031893 -0.024456
v -0.019038 1.023534 -0.002804
v -0.008807 1.029352 -0.092910
v -0.017196 1.033888 -0.072006
v -0.024928 1.033928 -0.050253
v -0.031705 1.029471 -0.028486
v -0.037267 1.020686 -0.007543
v -0.012748 1.028267 -0.094716
v -0.024928 1.031760 -0.075548
v -0.036153 1.030838 -0.055396
v -0.045992 1.025538 -0.035032
v -0.054066 1.016062 -0.015240
v -0.016203 1.026807 -0.097146
v -0.031705 1.028895 -0.080316
v -0.045992 1.026679 -0.062317
v -0.058514 1.020245 -0.043841
v -0.068791 1.009838 -0.025599
v -0.019039 1.025027 -0.100107
v -0.037267 1.025405 -0.086125
v -0.054066 1.021612 -0.070750
v -0.068791 1.013795 -0.054575
v -0.080876 1.002254 -0.038220
v -0.021146 1.022997 -0.103486
v -0.041400 1.021423 -0.092752
v -0.060066 1.015831 -0.080372
v -0.076428 1.006437 -0.066821
v -0.089855 0.993601 -0.052620
v -0.022443 1.020794 -0.107152
v -0.043945 1.017102 -0.099944
v -0.063761 1.009558 -0.090812
v -0.081130 0.998453 -0.080109
v -0.095385 0.984213 -0.068245
v -0.022881 1.018504 -0.110965
v -0.044804 1.012608 -0.107422
v -0.065009 1.003034 -0.101670
v -0.082718 0.990149 -0.093928
v -0.097252 0.974450 -0.084494
v -0.022443 1.016213 -0.114778
v -0.043945 1.008114 -0.114901
v -0.063761 0.996510 -0.112527
v -0.081130 0.981846 -0.107747
v -0.095385 0.964686 -0.100744
v -0.021146 1.014010 -0.118444
v -0.041400 1.003793 -0.122092
v -0.060066 0.990237 -0.122967
v -0.076428 0.973862 -0.121035
v -0.089855 0.955298 -0.116369
v -0.019039 1.011980 -0.121822
v -0.037267 0.999811 -0.128720
v -0.054067 0.984456 -0.132589
v -0.068791 0.966504 -0.133281
v -0.080876 0.946645 -0.130768
v -0.016203 1.010200 -0.124784
v -0.031705 0.996321 -0.134529
v -0.045992 0.979388 -0.141023
v -0.058515 0.960054 -0.144014
v -0.068791 0.939061 -0.143390
v -0.012748 1.008740 -0.127214
v -0.024928 0.993456 -0.139297
v -0.036153 0.975230 -0.147944
v -0.045992 0.954761 -0.152824
v -0.054067 0.932837 -0.153749
v -0.008807 1.007655 -0.129020
v -0.017196 0.991327 -0.142839
v -0.024928 0.972139 -0.153087
v -0.031705 0.950828 -0.159369
v -0.037267 0.928213 -0.161445
v -0.004530 1.006987 -0.130132
v -0.008807 0.990017 -0.145020
v -0.012748 0.970236 -0.156254
v -0.016203 0.948406 -0.163400
v -0.019039 0.925365 -0.166185
v -0.000082 1.006761 -0.130508
v -0.000082 0.989574 -0.145757
v -0.000082 0.969594 -0.157323
v -0.000082 0.947588 -0.164761
v -0.000082 0.924403 -0.167786
v 0.004366 1.006987 -0.130132
v 0.008643 0.990017 -0.145021
v 0.012585 0.970236 -0.156254
v 0.016040 0.948406 -0.163400
v 0.018875 0.925365 -0.166185
v 0.008643 1.007655 -0.129020
v 0.017033 0.991327 -0.142839
v 0.024765 0.972139 -0.153087
v 0.031542 0.950828 -0.159369
v 0.037104 0.928213 -0.161445
v 0.012585 1.008740 -0.127214
v 0.024765 0.993456 -0.139297
v 0.035990 0.975230 -0.147944
v 0.045829 0.954761 -0.152824
v 0.053903 0.932837 -0.153749
v 0.016040 1.010200 -0.124784
v 0.031542 0.996321 -0.134529
v 0.045829 0.979388 -0.141023
v 0.058351 0.960054 -0.144015
v 0.068628 0.939061 -0.143390
v 0.018875 1.011980 -0.121822
v 0.037104 0.999811 -0.128720
v 0.053903 0.984456 -0.132589
v 0.068628 0.966504 -0.133281
v 0.080712 0.946645 -0.130769
v -0.000082 1.020494 -0.112161
v 0.020982 1.014010 -0.118444
v 0.041237 1.003793 -0.122092
v 0.059903 0.990237 -0.122967
v 0.076265 0.973862 -0.121035
v 0.089692 0.955298 -0.116369
v 0.022280 1.016213 -0.114778
v 0.043782 1.008114 -0.114901
v 0.063598 0.996510 -0.112527
v 0.080967 0.981846 -0.107747
v 0.095222 0.964686 -0.100744
f 4 3 8
f 4 8 9
f 2 1 6
f 2 6 7
f 5 4 9
f 5 9 10
f 3 2 7
f 3 7 8
f 9 8 13
f 9 13 14
f 7 6 11
f 7 11 12
f 10 9 14
f 10 14 15
f 8 7 12
f 8 12 13
f 14 13 18
f 14 18 19
f 12 11 16
f 12 16 17
f 15 14 19
f 15 19 20
f 13 12 17
f 13 17 18
f 19 18 23
f 19 23 24
f 17 16 21
f 17 21 22
f 20 19 24
f 20 24 25
f 18 17 22
f 18 22 23
f 24 23 28
f 24 28 29
f 22 21 26
f 22 26 27
f 25 24 29
f 25 29 30
f 23 22 27
f 23 27 28
f 29 28 33
f 29 33 34
f 27 26 31
f 27 31 32
f 30 29 34
f 30 34 35
f 28 27 32
f 28 32 33
f 34 33 38
f 34 38 39
f 32 31 36
f 32 36 37
f 35 34 39
f 35 39 40
f 33 32 37
f 33 37 38
f 39 38 43
f 39 43 44
f 37 36 41
f 37 41 42
f 40 39 44
f 40 44 45
f 38 37 42
f 38 42 43
f 44 43 48
f 44 48 49
f 42 41 46
f 42 46 47
f 45 44 49
f 45 49 50
f 43 42 47
f 43 47 48
f 49 48 53
f 49 53 54
f 47 46 51
f 47 51 52
f 50 49 54
f 50 54 55
f 48 47 52
f 48 52 53
f 54 53 58
f 54 58 59
f 52 51 56
f 52 56 57
f 55 54 59
f 55 59 60
f 53 52 57
f 53 57 58
f 59 58 63
f 59 63 64
f 57 56 61
f 57 61 62
f 60 59 64
f 60 64 65
f 58 57 62
f 58 62 63
f 64 63 68
f 64 68 69
f 62 61 66
f 62 66 67
f 65 64 69
f 65 69 70
f 63 62 67
f 63 67 68
f 69 68 73
f 69 73 74
f 67 66 71
f 67 71 72
f 70 69 74
f 70 74 75
f 68 67 72
f 68 72 73
f 74 73 78
f 74 78 79
f 72 71 76
f 72 76 77
f 75 74 79
f 75 79 80
f 73 72 77
f 73 77 78
f 79 78 83
f 79 83 84
f 77 76 81
f 77 81 82
f 80 79 84
f 80 84 85
f 78 77 82
f 78 82 83
f 84 83 88
f 84 88 89
f 82 81 86
f 82 86 87
f 85 84 89
f 85 89 90
f 83 82 87
f 83 87 88
f 89 88 93
f 89 93 94
f 87 86 91
f 87 91 92
f 90 89 94
f 90 94 95
f 88 87 92
f 88 92 93
f 94 93 98
f 94 98 99
f 92 91 96
f 92 96 97
f 95 94 99
f 95 99 100
f 93 92 97
f 93 97 98
f 99 98 103
f 99 103 104
f 97 96 101
f 97 101 102
f 100 99 104
f 100 104 105
f 98 97 102
f 98 102 103
f 104 103 108
f 104 108 109
f 102 101 106
f 102 106 107
f 105 104 109
f 105 109 110
f 103 102 107
f 103 107 108
f 109 108 113
f 109 113 114
f 107 106 111
f 107 111 112
f 110 109 114
f 110 114 115
f 108 107 112
f 108 112 113
f 114 113 118
f 114 118 119
f 112 111 116
f 112 116 117
f 115 114 119
f 115 119 120
f 113 112 117
f 113 117 118
f 119 118 123
f 119 123 124
f 117 116 121
f 117 121 122
f 120 119 124
f 120 124 125
f 118 117 122
f 118 122 123
f 124 123 128
f 124 128 129
f 122 121 126
f 122 126 127
f 125 124 129
f 125 129 130
f 123 122 127
f 123 127 128
f 129 128 133
f 129 133 134
f 127 126 131
f 127 131 132
f 130 129 134
f 130 134 135
f 128 127 132
f 128 132 133
f 134 133 138
f 134 138 139
f 132 131 136
f 132 136 137
f 135 134 139
f 135 139 140
f 133 132 137
f 133 137 138
f 139 138 143
f 139 143 144
f 137 136 141
f 137 141 142
f 140 139 144
f 140 144 145
f 138 137 142
f 138 142 143
f 144 143 148
f 144 148 149
f 142 141 146
f 142 146 147
f 145 144 149
f 145 149 150
f 143 142 147
f 143 147 148
f 149 148 154
f 149 154 155
f 147 146 152
f 147 152 153
f 150 149 155
f 150 155 156
f 148 147 153
f 148 153 154
f 155 154 159
f 155 159 160
f 153 152 157
f 153 157 158
f 156 155 160
f 156 160 161
f 154 153 158
f 154 158 159
f 1 151 6
f 6 151 11
f 11 151 16
f 16 151 21
f 21 151 26
f 26 151 31
f 31 151 36
f 36 151 41
f 41 151 46
f 46 151 51
f 51 151 56
f 56 151 61
f 61 151 66
f 66 151 71
f 71 151 76
f 76 151 81
f 81 151 86
f 86 151 91
f 91 151 96
f 96 151 101
f 101 151 106
f 106 151 111
f 111 151 116
f 116 151 121
f 121 151 126
f 126 151 131
f 131 151 136
f 136 151 141
f 141 151 146
f 146 151 152
f 152 151 157
f 157 151 1
f 160 159 3
f 160 3 4
f 158 157 1
f 158 1 2
f 161 160 4
f 161 4 5
f 159 158 2
f 159 2 3
