# Derived from blenderjunky Stargate DHD (BlendSwap 75540 / 13419).
# Source notice: supplied-dhd-LICENSE.html; Fan Art, noncommercial use only.
o supplied-dhd-symbols-1
v 0.347470 0.889831 -0.033218
v 0.361699 0.887880 -0.026949
v 0.363667 0.880921 -0.036878
v 0.353913 0.884776 -0.037113
v 0.337872 0.881036 -0.053766
v 0.344199 0.877461 -0.055348
v 0.364634 0.873742 -0.047826
v 0.357538 0.867227 -0.063038
v 0.313652 0.890127 -0.055123
v 0.307564 0.883706 -0.069517
v 0.308411 0.880122 -0.074740
v 0.296993 0.886111 -0.072632
v 0.302687 0.886256 -0.068630
v 0.308317 0.896794 -0.047894
v 0.332170 0.884233 -0.052380
v 0.347776 0.875335 -0.056411
v 0.359493 0.873203 -0.052099
v 0.355983 0.869981 -0.059622
v 0.349086 0.891564 -0.036073
v 0.354786 0.889302 -0.035951
v 0.361835 0.889652 -0.030720
v 0.363154 0.884987 -0.037377
v 0.354589 0.888371 -0.037583
v 0.336686 0.884197 -0.056170
v 0.345128 0.879427 -0.058281
v 0.363457 0.876091 -0.051535
v 0.357967 0.871051 -0.063303
v 0.314035 0.893976 -0.055379
v 0.307312 0.886885 -0.071275
v 0.307888 0.884449 -0.074824
v 0.301074 0.888023 -0.073566
v 0.304923 0.888121 -0.070860
v 0.310313 0.898212 -0.051005
v 0.333656 0.885919 -0.055396
v 0.348570 0.892514 -0.034881
v 0.354522 0.890151 -0.034754
v 0.362800 0.890563 -0.028611
v 0.364767 0.883604 -0.038540
v 0.355013 0.887459 -0.038775
v 0.338972 0.883719 -0.055428
v 0.345299 0.880145 -0.057010
v 0.365735 0.876425 -0.049488
v 0.358638 0.869910 -0.064701
v 0.314752 0.892811 -0.056785
v 0.308664 0.886389 -0.071180
v 0.309511 0.882805 -0.076403
v 0.298094 0.888794 -0.074294
v 0.303787 0.888939 -0.070292
v 0.309417 0.899477 -0.049556
v 0.333270 0.886916 -0.054042
v 0.348843 0.893180 -0.035294
v 0.349118 0.893227 -0.035825
v 0.354999 0.890893 -0.035700
v 0.354795 0.890818 -0.035167
v 0.362930 0.891287 -0.029815
v 0.363073 0.891229 -0.029024
v 0.364715 0.884976 -0.038820
v 0.365040 0.884270 -0.038953
v 0.355296 0.888698 -0.039047
v 0.355286 0.888125 -0.039188
v 0.338730 0.884836 -0.056246
v 0.339246 0.884385 -0.055841
v 0.345653 0.880924 -0.057977
v 0.345572 0.880811 -0.057423
v 0.365494 0.877312 -0.050674
v 0.366008 0.877091 -0.049901
v 0.358851 0.871213 -0.064914
v 0.358911 0.870576 -0.065113
v 0.314952 0.894121 -0.056997
v 0.315025 0.893477 -0.057198
v 0.308685 0.887510 -0.071815
v 0.308937 0.887055 -0.071592
v 0.309456 0.884251 -0.076565
v 0.309785 0.883472 -0.076815
v 0.299337 0.889558 -0.074697
v 0.298367 0.889460 -0.074707
v 0.304510 0.889690 -0.071060
v 0.304061 0.889605 -0.070705
v 0.310072 0.900102 -0.050573
v 0.309690 0.900144 -0.049969
v 0.333782 0.887616 -0.055033
v 0.333543 0.887582 -0.054455
v 0.349335 0.892828 -0.036326
v 0.349352 0.892213 -0.036474
v 0.355052 0.889950 -0.036353
v 0.355110 0.890536 -0.036203
v 0.362101 0.890301 -0.031122
v 0.362525 0.890905 -0.030701
v 0.363420 0.885635 -0.037779
v 0.364037 0.885557 -0.038332
v 0.354855 0.889020 -0.037985
v 0.355118 0.889081 -0.038546
v 0.336952 0.884846 -0.056572
v 0.337769 0.885036 -0.056558
v 0.345394 0.880076 -0.058683
v 0.345581 0.880622 -0.058511
v 0.363723 0.876740 -0.051937
v 0.364538 0.877172 -0.051533
v 0.358233 0.871700 -0.063705
v 0.358569 0.871693 -0.064327
v 0.314301 0.894625 -0.055781
v 0.314651 0.894611 -0.056406
v 0.307578 0.887533 -0.071677
v 0.308117 0.887719 -0.071855
v 0.308154 0.885098 -0.075226
v 0.308774 0.884942 -0.075902
v 0.301340 0.888672 -0.073968
v 0.300589 0.889234 -0.074391
v 0.305189 0.888770 -0.071262
v 0.304987 0.889346 -0.071299
v 0.310580 0.898861 -0.051407
v 0.310449 0.899570 -0.051182
v 0.333923 0.886568 -0.055798
v 0.333944 0.887198 -0.055601
v 0.347145 0.878669 -0.058170
v 0.348645 0.877455 -0.057725
v 0.360362 0.875322 -0.053412
v 0.361915 0.875980 -0.052733
v 0.356852 0.872100 -0.060935
v 0.357491 0.871919 -0.062216
v 0.349086 0.891564 -0.036073
v 0.349086 0.891564 -0.036073
v 0.354786 0.889302 -0.035951
v 0.354786 0.889302 -0.035951
v 0.361835 0.889652 -0.030720
v 0.361835 0.889652 -0.030720
v 0.363154 0.884987 -0.037377
v 0.363154 0.884987 -0.037377
v 0.354589 0.888371 -0.037583
v 0.354589 0.888371 -0.037583
v 0.336686 0.884197 -0.056170
v 0.336686 0.884197 -0.056170
v 0.345128 0.879427 -0.058281
v 0.345128 0.879427 -0.058281
v 0.363457 0.876091 -0.051535
v 0.363457 0.876091 -0.051535
v 0.357967 0.871051 -0.063303
v 0.357967 0.871051 -0.063303
v 0.314035 0.893976 -0.055379
v 0.314035 0.893976 -0.055379
v 0.307312 0.886885 -0.071275
v 0.307312 0.886885 -0.071275
v 0.307888 0.884449 -0.074824
v 0.307888 0.884449 -0.074824
v 0.301074 0.888023 -0.073566
v 0.301074 0.888023 -0.073566
v 0.304923 0.888121 -0.070860
v 0.310313 0.898212 -0.051005
v 0.333656 0.885919 -0.055396
v 0.333656 0.885919 -0.055396
v 0.364767 0.883604 -0.038540
v 0.363667 0.880921 -0.036878
v 0.309417 0.899477 -0.049556
v 0.308317 0.896794 -0.047894
v 0.302687 0.886256 -0.068630
v 0.303787 0.888939 -0.070292
v 0.298094 0.888794 -0.074294
v 0.296993 0.886111 -0.072632
v 0.308411 0.880122 -0.074740
v 0.309511 0.882805 -0.076403
v 0.308664 0.886389 -0.071180
v 0.307564 0.883706 -0.069517
v 0.313652 0.890127 -0.055123
v 0.314752 0.892811 -0.056785
v 0.358638 0.869910 -0.064701
v 0.357538 0.867227 -0.063038
v 0.364634 0.873742 -0.047826
v 0.365735 0.876425 -0.049488
v 0.345299 0.880145 -0.057010
v 0.344199 0.877461 -0.055348
v 0.337872 0.881036 -0.053766
v 0.338972 0.883719 -0.055428
v 0.355013 0.887459 -0.038775
v 0.353913 0.884776 -0.037113
v 0.333270 0.886916 -0.054042
v 0.332170 0.884233 -0.052380
v 0.349118 0.893227 -0.035825
v 0.349118 0.893227 -0.035825
v 0.348843 0.893180 -0.035294
v 0.354795 0.890818 -0.035167
v 0.354999 0.890893 -0.035700
v 0.354999 0.890893 -0.035700
v 0.363073 0.891229 -0.029024
v 0.362930 0.891287 -0.029815
v 0.365040 0.884270 -0.038953
v 0.364715 0.884976 -0.038820
v 0.355286 0.888125 -0.039188
v 0.355296 0.888698 -0.039047
v 0.355296 0.888698 -0.039047
v 0.339246 0.884385 -0.055841
v 0.338730 0.884836 -0.056246
v 0.338730 0.884836 -0.056246
v 0.345572 0.880811 -0.057423
v 0.345653 0.880924 -0.057977
v 0.345653 0.880924 -0.057977
v 0.366008 0.877091 -0.049901
v 0.365494 0.877312 -0.050674
v 0.358911 0.870576 -0.065113
v 0.358851 0.871213 -0.064914
v 0.315025 0.893477 -0.057198
v 0.314952 0.894121 -0.056997
v 0.309785 0.883472 -0.076815
v 0.309456 0.884251 -0.076565
v 0.298367 0.889460 -0.074707
v 0.299337 0.889558 -0.074697
v 0.299337 0.889558 -0.074697
v 0.304061 0.889605 -0.070705
v 0.304510 0.889690 -0.071060
v 0.304510 0.889690 -0.071060
v 0.309690 0.900144 -0.049969
v 0.310072 0.900102 -0.050573
v 0.310072 0.900102 -0.050573
v 0.333543 0.887582 -0.054455
v 0.333782 0.887616 -0.055033
v 0.333782 0.887616 -0.055033
v 0.354522 0.890151 -0.034754
v 0.348570 0.892514 -0.034881
v 0.362800 0.890563 -0.028611
v 0.349352 0.892213 -0.036474
v 0.349335 0.892828 -0.036326
v 0.349335 0.892828 -0.036326
v 0.355110 0.890536 -0.036203
v 0.355110 0.890536 -0.036203
v 0.355052 0.889950 -0.036353
v 0.362525 0.890905 -0.030701
v 0.362525 0.890905 -0.030701
v 0.362101 0.890301 -0.031122
v 0.364037 0.885557 -0.038332
v 0.364037 0.885557 -0.038332
v 0.363420 0.885635 -0.037779
v 0.355118 0.889081 -0.038546
v 0.355118 0.889081 -0.038546
v 0.354855 0.889020 -0.037985
v 0.337769 0.885036 -0.056558
v 0.337769 0.885036 -0.056558
v 0.336952 0.884846 -0.056572
v 0.345581 0.880622 -0.058511
v 0.345581 0.880622 -0.058511
v 0.345394 0.880076 -0.058683
v 0.364538 0.877172 -0.051533
v 0.364538 0.877172 -0.051533
v 0.363723 0.876740 -0.051937
v 0.358569 0.871693 -0.064327
v 0.358569 0.871693 -0.064327
v 0.358233 0.871700 -0.063705
v 0.314651 0.894611 -0.056406
v 0.314651 0.894611 -0.056406
v 0.314301 0.894625 -0.055781
v 0.308117 0.887719 -0.071855
v 0.308117 0.887719 -0.071855
v 0.307578 0.887533 -0.071677
v 0.308774 0.884942 -0.075902
v 0.308774 0.884942 -0.075902
v 0.308154 0.885098 -0.075226
v 0.300589 0.889234 -0.074391
v 0.300589 0.889234 -0.074391
v 0.301340 0.888672 -0.073968
v 0.304987 0.889346 -0.071299
v 0.305189 0.888770 -0.071262
v 0.310449 0.899570 -0.051182
v 0.310580 0.898861 -0.051407
v 0.333944 0.887198 -0.055601
v 0.333944 0.887198 -0.055601
v 0.333923 0.886568 -0.055798
v 0.348645 0.877455 -0.057725
v 0.347145 0.878669 -0.058170
v 0.347145 0.878669 -0.058170
v 0.361915 0.875980 -0.052733
v 0.361915 0.875980 -0.052733
v 0.360362 0.875322 -0.053412
v 0.357491 0.871919 -0.062216
v 0.357491 0.871919 -0.062216
v 0.356852 0.872100 -0.060935
v 0.347776 0.875335 -0.056411
v 0.359493 0.873203 -0.052099
v 0.355983 0.869981 -0.059622
f 26 118 266
f 26 266 133
f 94 191 194
f 94 194 96
f 32 259 111
f 32 111 33
f 98 197 67
f 98 67 100
f 102 201 71
f 102 71 104
f 220 177 181
f 220 181 86
f 106 73 205
f 106 205 108
f 114 214 177
f 114 177 220
f 110 208 211
f 110 211 112
f 88 184 57
f 88 57 90
f 132 133 137
f 137 28 33
f 33 34 132
f 132 137 33
f 28 142 32
f 28 32 33
f 142 143 31
f 142 31 32
f 23 132 34
f 23 34 19
f 19 20 23
f 20 125 22
f 20 22 23
f 3 38 218
f 3 218 2
f 10 45 164
f 10 164 163
f 8 43 168
f 8 168 167
f 133 266 120
f 133 120 137
f 11 46 161
f 11 161 162
f 137 120 118
f 137 118 26
f 38 58 183
f 38 183 218
f 43 68 196
f 43 196 168
f 45 72 200
f 45 200 164
f 46 74 72
f 46 72 161
f 90 57 188
f 90 188 92
f 112 211 214
f 112 214 114
f 86 181 184
f 86 184 88
f 108 205 208
f 108 208 110
f 104 71 73
f 104 73 106
f 100 67 201
f 100 201 102
f 96 194 197
f 96 197 98
f 92 188 191
f 92 191 94
f 183 58 57
f 183 57 184
f 196 68 67
f 196 67 197
f 200 72 71
f 200 71 201
f 72 74 73
f 72 73 71
f 110 112 111
f 110 111 259
f 141 251 105
f 141 105 30
f 250 252 105
f 250 105 251
f 123 224 87
f 123 87 21
f 223 225 87
f 223 87 224
f 129 233 93
f 129 93 24
f 232 234 93
f 232 93 233
f 131 236 95
f 131 95 25
f 235 237 95
f 235 95 236
f 135 242 99
f 135 99 27
f 241 243 99
f 241 99 242
f 139 248 103
f 139 103 29
f 247 249 103
f 247 103 248
f 276 273 265
f 276 265 274
f 265 273 272
f 265 272 267
f 14 49 156
f 14 156 155
f 49 80 207
f 49 207 156
f 207 80 79
f 207 79 209
f 12 47 160
f 12 160 159
f 47 76 202
f 47 202 160
f 202 76 75
f 202 75 203
f 275 270 119
f 275 119 18
f 269 271 119
f 269 119 270
f 6 41 172
f 6 172 171
f 41 64 190
f 41 190 172
f 190 64 63
f 190 63 192
f 4 39 151
f 4 151 152
f 39 60 185
f 39 185 151
f 185 60 59
f 185 59 186
f 15 50 153
f 15 153 154
f 50 82 210
f 50 210 153
f 210 82 81
f 210 81 212
f 13 48 157
f 13 157 158
f 48 78 204
f 48 204 157
f 204 78 77
f 204 77 206
f 9 44 165
f 9 165 166
f 44 70 198
f 44 198 165
f 198 70 69
f 198 69 199
f 7 42 169
f 7 169 170
f 42 66 193
f 42 193 169
f 193 66 65
f 193 65 195
f 5 40 173
f 5 173 174
f 40 62 187
f 40 187 173
f 187 62 61
f 187 61 189
f 1 217 175
f 1 175 176
f 217 179 213
f 217 213 175
f 213 179 178
f 213 178 215
f 37 56 180
f 37 180 216
f 180 56 55
f 180 55 182
f 144 254 107
f 144 107 145
f 253 255 107
f 253 107 254
f 126 227 89
f 126 89 127
f 226 228 89
f 226 89 227
f 138 245 101
f 138 101 140
f 244 246 101
f 244 101 245
f 134 239 97
f 134 97 136
f 238 240 97
f 238 97 239
f 148 261 113
f 148 113 149
f 260 262 113
f 260 113 261
f 128 230 91
f 128 91 130
f 229 231 91
f 229 91 230
f 146 257 109
f 146 109 147
f 256 258 109
f 256 109 257
f 121 84 85
f 121 85 124
f 83 222 85
f 83 85 84
f 51 54 53
f 51 53 52
f 36 54 51
f 36 51 35
f 263 221 219
f 263 219 264
f 150 264 219
f 150 219 122
f 115 268 117
f 115 117 116
f 16 116 117
f 16 117 17
