# Derived from blenderjunky Stargate DHD (BlendSwap 75540 / 13419).
# Source notice: supplied-dhd-LICENSE.html; Fan Art, noncommercial use only.
o supplied-dhd-symbols-0
v -0.363208 0.905519 0.002551
v -0.356490 0.903384 -0.005863
v -0.335703 0.913685 -0.001768
v -0.329206 0.915551 -0.002901
v -0.334484 0.918023 0.005126
v -0.336712 0.915418 0.002012
v -0.353813 0.907136 -0.001013
v -0.353015 0.910970 0.005272
v -0.362536 0.908745 0.007839
v -0.334161 0.919575 0.007670
v -0.333091 0.924718 0.016100
v -0.326633 0.921335 0.005640
v -0.324399 0.922957 0.006999
v -0.323880 0.925453 0.011089
v -0.318455 0.926721 0.009627
v -0.318987 0.924165 0.005436
v -0.316361 0.924634 0.004471
v -0.315430 0.929107 0.011803
v -0.319416 0.928175 0.012878
v -0.307904 0.936425 0.019680
v -0.299693 0.935391 0.012204
v -0.289471 0.941486 0.016052
v -0.286066 0.938113 0.007705
v -0.300409 0.930939 0.004762
v -0.304890 0.933192 0.011851
v -0.309651 0.932079 0.013134
v -0.310937 0.925902 0.003008
v -0.363188 0.908378 0.001297
v -0.357149 0.906458 -0.006267
v -0.336807 0.916539 -0.002259
v -0.331883 0.917954 -0.003117
v -0.335365 0.919585 0.002178
v -0.337023 0.917646 -0.000140
v -0.355828 0.908538 -0.003467
v -0.354965 0.912687 0.003334
v -0.362665 0.910887 0.005409
v -0.334082 0.922718 0.006881
v -0.333411 0.925941 0.012163
v -0.329365 0.923821 0.005610
v -0.324322 0.926090 0.006194
v -0.324009 0.927595 0.008660
v -0.320405 0.928437 0.007688
v -0.320726 0.926892 0.005156
v -0.316282 0.927776 0.003682
v -0.315351 0.932250 0.011015
v -0.318098 0.931608 0.011755
v -0.308836 0.938245 0.017228
v -0.300712 0.937222 0.009831
v -0.290860 0.943097 0.013540
v -0.288193 0.940456 0.007005
v -0.300986 0.934057 0.004380
v -0.305292 0.936222 0.011192
v -0.311392 0.934796 0.012837
v -0.312678 0.928619 0.002711
v -0.364143 0.907949 0.001188
v -0.357425 0.905813 -0.007227
v -0.336638 0.916115 -0.003132
v -0.330141 0.917981 -0.004264
v -0.335420 0.920453 0.003762
v -0.337647 0.917848 0.000648
v -0.354748 0.909566 -0.002377
v -0.353950 0.913400 0.003908
v -0.363472 0.911174 0.006475
v -0.335096 0.922005 0.006306
v -0.334026 0.927148 0.014737
v -0.327568 0.923765 0.004277
v -0.325335 0.925387 0.005635
v -0.324815 0.927882 0.009726
v -0.319390 0.929150 0.008263
v -0.319922 0.926594 0.004073
v -0.317297 0.927063 0.003107
v -0.316366 0.931536 0.010440
v -0.320351 0.930605 0.011514
v -0.308839 0.938854 0.018316
v -0.300628 0.937821 0.010841
v -0.290407 0.943916 0.014689
v -0.287001 0.940543 0.006342
v -0.301344 0.933369 0.003398
v -0.305825 0.935621 0.010488
v -0.310586 0.934509 0.011771
v -0.311872 0.928331 0.001645
v -0.363906 0.908847 0.000866
v -0.364243 0.908207 0.001042
v -0.357525 0.906072 -0.007372
v -0.357541 0.906824 -0.007106
v -0.336738 0.916374 -0.003277
v -0.336986 0.917011 -0.003056
v -0.330241 0.918240 -0.004409
v -0.331307 0.918642 -0.004046
v -0.335519 0.920712 0.003617
v -0.335651 0.920676 0.002559
v -0.337747 0.918107 0.000503
v -0.337582 0.918417 -0.000141
v -0.354848 0.909824 -0.002522
v -0.355570 0.909706 -0.003323
v -0.354050 0.913659 0.003763
v -0.354738 0.913703 0.003231
v -0.363571 0.911433 0.006330
v -0.363312 0.911699 0.005542
v -0.335196 0.922264 0.006161
v -0.334828 0.923051 0.006227
v -0.333966 0.927194 0.013018
v -0.334126 0.927407 0.014591
v -0.328763 0.924469 0.004592
v -0.327668 0.924024 0.004132
v -0.325434 0.925646 0.005490
v -0.325067 0.926428 0.005547
v -0.324655 0.928407 0.008792
v -0.324915 0.928141 0.009580
v -0.320178 0.929454 0.007585
v -0.319490 0.929409 0.008118
v -0.320601 0.927424 0.004258
v -0.320022 0.926853 0.003928
v -0.317397 0.927322 0.002962
v -0.317029 0.928109 0.003028
v -0.316098 0.932583 0.010361
v -0.316465 0.931795 0.010295
v -0.319438 0.931802 0.011261
v -0.320451 0.930864 0.011369
v -0.309097 0.939212 0.017371
v -0.308939 0.939113 0.018171
v -0.300931 0.938184 0.009937
v -0.300728 0.938080 0.010695
v -0.290902 0.944164 0.013712
v -0.290506 0.944175 0.014543
v -0.287881 0.941172 0.006308
v -0.287101 0.940802 0.006196
v -0.301417 0.934402 0.003531
v -0.301444 0.933627 0.003253
v -0.305808 0.936609 0.010476
v -0.305925 0.935880 0.010342
v -0.311266 0.935333 0.011947
v -0.310686 0.934768 0.011626
v -0.312551 0.929156 0.001821
v -0.311972 0.928590 0.001500
v -0.363369 0.908850 0.001032
v -0.363690 0.908944 0.000890
v -0.357479 0.906969 -0.006889
v -0.357331 0.906930 -0.006532
v -0.337024 0.917106 -0.002859
v -0.336989 0.917011 -0.002524
v -0.331700 0.918635 -0.003787
v -0.332064 0.918426 -0.003382
v -0.335639 0.920480 0.002201
v -0.335547 0.920057 0.001913
v -0.337441 0.918372 -0.000319
v -0.337204 0.918118 -0.000405
v -0.355814 0.909474 -0.003569
v -0.356010 0.909010 -0.003732
v -0.354967 0.913543 0.003101
v -0.355147 0.913159 0.003069
v -0.363130 0.911635 0.005301
v -0.362847 0.911359 0.005145
v -0.334599 0.923212 0.006357
v -0.334264 0.923190 0.006616
v -0.333593 0.926413 0.011898
v -0.333827 0.926922 0.012438
v -0.329547 0.924293 0.005345
v -0.329169 0.924481 0.004893
v -0.324839 0.926586 0.005673
v -0.324504 0.926562 0.005929
v -0.324191 0.928067 0.008395
v -0.324473 0.928342 0.008552
v -0.320587 0.928909 0.007423
v -0.320407 0.929293 0.007455
v -0.320908 0.927364 0.004891
v -0.320782 0.927491 0.004502
v -0.316800 0.928270 0.003158
v -0.316464 0.928248 0.003417
v -0.315533 0.932722 0.010750
v -0.315869 0.932744 0.010490
v -0.318280 0.932080 0.011490
v -0.318930 0.932028 0.011316
v -0.309017 0.938717 0.016963
v -0.309096 0.939074 0.017125
v -0.300893 0.937694 0.009566
v -0.300950 0.938049 0.009709
v -0.291041 0.943569 0.013276
v -0.291005 0.943979 0.013453
v -0.288375 0.940928 0.006740
v -0.288151 0.941153 0.006458
v -0.301168 0.934530 0.004115
v -0.301337 0.934557 0.003752
v -0.305474 0.936694 0.010927
v -0.305687 0.936745 0.010635
v -0.311574 0.935268 0.012572
v -0.311448 0.935398 0.012188
v -0.312860 0.929091 0.002446
v -0.312733 0.929221 0.002061
v -0.363188 0.908378 0.001297
v -0.363188 0.908378 0.001297
v -0.357149 0.906458 -0.006267
v -0.357149 0.906458 -0.006267
v -0.336807 0.916539 -0.002259
v -0.331883 0.917954 -0.003117
v -0.331883 0.917954 -0.003117
v -0.335365 0.919585 0.002178
v -0.335365 0.919585 0.002178
v -0.337023 0.917646 -0.000140
v -0.337023 0.917646 -0.000140
v -0.355828 0.908538 -0.003467
v -0.354965 0.912687 0.003334
v -0.362665 0.910887 0.005409
v -0.362665 0.910887 0.005409
v -0.334082 0.922718 0.006881
v -0.334082 0.922718 0.006881
v -0.333411 0.925941 0.012163
v -0.333411 0.925941 0.012163
v -0.329365 0.923821 0.005610
v -0.329365 0.923821 0.005610
v -0.324322 0.926090 0.006194
v -0.324322 0.926090 0.006194
v -0.324009 0.927595 0.008660
v -0.324009 0.927595 0.008660
v -0.320405 0.928437 0.007688
v -0.316282 0.927776 0.003682
v -0.316282 0.927776 0.003682
v -0.315351 0.932250 0.011015
v -0.315351 0.932250 0.011015
v -0.320726 0.926892 0.005156
v -0.318098 0.931608 0.011755
v -0.318098 0.931608 0.011755
v -0.308836 0.938245 0.017228
v -0.308836 0.938245 0.017228
v -0.300712 0.937222 0.009831
v -0.300712 0.937222 0.009831
v -0.290860 0.943097 0.013540
v -0.288193 0.940456 0.007005
v -0.300986 0.934057 0.004380
v -0.300986 0.934057 0.004380
v -0.305292 0.936222 0.011192
v -0.305292 0.936222 0.011192
v -0.311392 0.934796 0.012837
v -0.312678 0.928619 0.002711
v -0.287001 0.940543 0.006342
v -0.286066 0.938113 0.007705
v -0.300409 0.930939 0.004762
v -0.301344 0.933369 0.003398
v -0.357425 0.905813 -0.007227
v -0.356490 0.903384 -0.005863
v -0.363208 0.905519 0.002551
v -0.364143 0.907949 0.001188
v -0.325335 0.925387 0.005635
v -0.324399 0.922957 0.006999
v -0.323880 0.925453 0.011089
v -0.324815 0.927882 0.009726
v -0.300628 0.937821 0.010841
v -0.299693 0.935391 0.012204
v -0.289471 0.941486 0.016052
v -0.290407 0.943916 0.014689
v -0.362536 0.908745 0.007839
v -0.363472 0.911174 0.006475
v -0.320351 0.930605 0.011514
v -0.319416 0.928175 0.012878
v -0.307904 0.936425 0.019680
v -0.308839 0.938854 0.018316
v -0.353015 0.910970 0.005272
v -0.353950 0.913400 0.003908
v -0.319922 0.926594 0.004073
v -0.318987 0.924165 0.005436
v -0.354748 0.909566 -0.002377
v -0.353813 0.907136 -0.001013
v -0.336712 0.915418 0.002012
v -0.337647 0.917848 0.000648
v -0.310586 0.934509 0.011771
v -0.309651 0.932079 0.013134
v -0.310937 0.925902 0.003008
v -0.311872 0.928331 0.001645
v -0.335420 0.920453 0.003762
v -0.334484 0.918023 0.005126
v -0.329206 0.915551 -0.002901
v -0.330141 0.917981 -0.004264
v -0.319390 0.929150 0.008263
v -0.318455 0.926721 0.009627
v -0.304890 0.933192 0.011851
v -0.305825 0.935621 0.010488
v -0.327568 0.923765 0.004277
v -0.326633 0.921335 0.005640
v -0.334161 0.919575 0.007670
v -0.335096 0.922005 0.006306
v -0.334026 0.927148 0.014737
v -0.333091 0.924718 0.016100
v -0.316366 0.931536 0.010440
v -0.315430 0.929107 0.011803
v -0.316361 0.924634 0.004471
v -0.317297 0.927063 0.003107
v -0.364243 0.908207 0.001042
v -0.363906 0.908847 0.000866
v -0.357541 0.906824 -0.007106
v -0.357541 0.906824 -0.007106
v -0.357525 0.906072 -0.007372
v -0.336986 0.917011 -0.003056
v -0.331307 0.918642 -0.004046
v -0.331307 0.918642 -0.004046
v -0.330241 0.918240 -0.004409
v -0.335651 0.920676 0.002559
v -0.335519 0.920712 0.003617
v -0.337582 0.918417 -0.000141
v -0.337747 0.918107 0.000503
v -0.355570 0.909706 -0.003323
v -0.355570 0.909706 -0.003323
v -0.354848 0.909824 -0.002522
v -0.354738 0.913703 0.003231
v -0.354738 0.913703 0.003231
v -0.354050 0.913659 0.003763
v -0.363312 0.911699 0.005542
v -0.363571 0.911433 0.006330
v -0.334828 0.923051 0.006227
v -0.335196 0.922264 0.006161
v -0.334126 0.927407 0.014591
v -0.333966 0.927194 0.013018
v -0.327668 0.924024 0.004132
v -0.328763 0.924469 0.004592
v -0.328763 0.924469 0.004592
v -0.325067 0.926428 0.005547
v -0.325434 0.925646 0.005490
v -0.324915 0.928141 0.009580
v -0.324655 0.928407 0.008792
v -0.319490 0.929409 0.008118
v -0.320178 0.929454 0.007585
v -0.320178 0.929454 0.007585
v -0.320022 0.926853 0.003928
v -0.320601 0.927424 0.004258
v -0.320601 0.927424 0.004258
v -0.317029 0.928109 0.003028
v -0.317397 0.927322 0.002962
v -0.316465 0.931795 0.010295
v -0.316098 0.932583 0.010361
v -0.320451 0.930864 0.011369
v -0.319438 0.931802 0.011261
v -0.319438 0.931802 0.011261
v -0.308939 0.939113 0.018171
v -0.309097 0.939212 0.017371
v -0.309097 0.939212 0.017371
v -0.300728 0.938080 0.010695
v -0.300931 0.938184 0.009937
v -0.300931 0.938184 0.009937
v -0.290506 0.944175 0.014543
v -0.290902 0.944164 0.013712
v -0.290902 0.944164 0.013712
v -0.287101 0.940802 0.006196
v -0.287881 0.941172 0.006308
v -0.287881 0.941172 0.006308
v -0.301444 0.933627 0.003253
v -0.301417 0.934402 0.003531
v -0.301417 0.934402 0.003531
v -0.305925 0.935880 0.010342
v -0.305808 0.936609 0.010476
v -0.305808 0.936609 0.010476
v -0.310686 0.934768 0.011626
v -0.311266 0.935333 0.011947
v -0.311266 0.935333 0.011947
v -0.311972 0.928590 0.001500
v -0.312551 0.929156 0.001821
v -0.312551 0.929156 0.001821
v -0.363690 0.908944 0.000890
v -0.363690 0.908944 0.000890
v -0.363369 0.908850 0.001032
v -0.357331 0.906930 -0.006532
v -0.357479 0.906969 -0.006889
v -0.357479 0.906969 -0.006889
v -0.337024 0.917106 -0.002859
v -0.332064 0.918426 -0.003382
v -0.331700 0.918635 -0.003787
v -0.331700 0.918635 -0.003787
v -0.335547 0.920057 0.001913
v -0.335639 0.920480 0.002201
v -0.335639 0.920480 0.002201
v -0.337204 0.918118 -0.000405
v -0.337441 0.918372 -0.000319
v -0.337441 0.918372 -0.000319
v -0.356010 0.909010 -0.003732
v -0.355814 0.909474 -0.003569
v -0.355147 0.913159 0.003069
v -0.354967 0.913543 0.003101
v -0.362847 0.911359 0.005145
v -0.363130 0.911635 0.005301
v -0.363130 0.911635 0.005301
v -0.334264 0.923190 0.006616
v -0.334599 0.923212 0.006357
v -0.334599 0.923212 0.006357
v -0.333827 0.926922 0.012438
v -0.333827 0.926922 0.012438
v -0.333593 0.926413 0.011898
v -0.329169 0.924481 0.004893
v -0.329169 0.924481 0.004893
v -0.329547 0.924293 0.005345
v -0.324504 0.926562 0.005929
v -0.324839 0.926586 0.005673
v -0.324839 0.926586 0.005673
v -0.324473 0.928342 0.008552
v -0.324473 0.928342 0.008552
v -0.324191 0.928067 0.008395
v -0.320407 0.929293 0.007455
v -0.320587 0.928909 0.007423
v -0.320782 0.927491 0.004502
v -0.320908 0.927364 0.004891
v -0.316464 0.928248 0.003417
v -0.316800 0.928270 0.003158
v -0.316800 0.928270 0.003158
v -0.315869 0.932744 0.010490
v -0.315869 0.932744 0.010490
v -0.315533 0.932722 0.010750
v -0.318930 0.932028 0.011316
v -0.318930 0.932028 0.011316
v -0.318280 0.932080 0.011490
v -0.309096 0.939074 0.017125
v -0.309096 0.939074 0.017125
v -0.309017 0.938717 0.016963
v -0.300950 0.938049 0.009709
v -0.300950 0.938049 0.009709
v -0.300893 0.937694 0.009566
v -0.291005 0.943979 0.013453
v -0.291041 0.943569 0.013276
v -0.288151 0.941153 0.006458
v -0.288375 0.940928 0.006740
v -0.301337 0.934557 0.003752
v -0.301337 0.934557 0.003752
v -0.301168 0.934530 0.004115
v -0.305687 0.936745 0.010635
v -0.305687 0.936745 0.010635
v -0.305474 0.936694 0.010927
v -0.311448 0.935398 0.012188
v -0.311574 0.935268 0.012572
v -0.312733 0.929221 0.002061
v -0.312860 0.929091 0.002446
f 29 28 36
f 36 35 34
f 33 32 31
f 29 36 34
f 33 31 30
f 30 29 34
f 34 33 30
f 370 373 95
f 370 95 93
f 360 362 87
f 360 87 289
f 367 370 93
f 367 93 91
f 34 35 151
f 34 151 372
f 364 367 91
f 364 91 89
f 373 150 97
f 373 97 95
f 362 364 89
f 362 89 87
f 241 251 252
f 241 252 242
f 6 270 269
f 6 269 60
f 242 252 307
f 242 307 287
f 60 269 297
f 60 297 92
f 150 377 99
f 150 99 97
f 377 356 288
f 377 288 99
f 91 93 92
f 91 92 297
f 99 288 287
f 99 287 307
f 372 151 150
f 372 150 373
f 356 360 289
f 356 289 288
f 37 38 39
f 40 41 42
f 40 42 43
f 165 163 108
f 165 108 320
f 389 167 323
f 389 323 107
f 43 42 395
f 43 395 166
f 13 14 68
f 13 68 67
f 67 68 109
f 67 109 106
f 163 389 107
f 163 107 108
f 167 165 320
f 167 320 323
f 106 109 108
f 106 108 107
f 165 167 166
f 165 166 395
f 54 44 45
f 45 46 47
f 48 49 50
f 53 54 45
f 53 45 47
f 48 50 51
f 52 53 47
f 48 51 52
f 47 48 52
f 179 177 336
f 179 336 339
f 177 175 333
f 177 333 336
f 175 173 330
f 175 330 333
f 189 187 351
f 189 351 354
f 50 49 414
f 50 414 180
f 173 171 116
f 173 116 330
f 187 185 348
f 187 348 351
f 17 18 72
f 17 72 71
f 71 72 117
f 71 117 114
f 54 53 424
f 54 424 188
f 181 179 339
f 181 339 342
f 183 181 342
f 183 342 345
f 399 189 354
f 399 354 115
f 185 183 345
f 185 345 348
f 171 399 115
f 171 115 116
f 114 117 116
f 114 116 115
f 179 181 180
f 179 180 414
f 187 189 188
f 187 188 424
f 209 207 384
f 209 384 158
f 383 385 158
f 383 158 384
f 223 221 406
f 223 406 174
f 405 407 174
f 405 174 406
f 231 229 419
f 231 419 184
f 418 420 184
f 418 184 419
f 157 380 101
f 157 101 102
f 159 157 102
f 159 102 313
f 10 11 65
f 10 65 64
f 64 65 103
f 64 103 100
f 380 159 313
f 380 313 101
f 100 103 102
f 100 102 101
f 202 203 153
f 202 153 374
f 374 153 152
f 374 152 375
f 216 234 426
f 216 426 398
f 425 400 398
f 425 398 426
f 218 217 169
f 218 169 170
f 168 401 170
f 168 170 169
f 230 228 416
f 230 416 182
f 415 417 182
f 415 182 416
f 205 210 387
f 205 387 379
f 386 381 379
f 386 379 387
f 236 24 78
f 236 78 235
f 235 78 129
f 235 129 341
f 341 129 128
f 341 128 343
f 2 1 55
f 2 55 56
f 82 85 84
f 82 84 83
f 56 55 83
f 56 83 84
f 248 22 76
f 248 76 247
f 247 76 125
f 247 125 335
f 335 125 124
f 335 124 337
f 254 20 74
f 254 74 253
f 253 74 121
f 253 121 329
f 329 121 120
f 329 120 331
f 9 257 258
f 9 258 63
f 63 258 305
f 63 305 98
f 304 306 98
f 304 98 305
f 260 244 243
f 260 243 259
f 259 243 316
f 259 316 322
f 322 316 315
f 322 315 324
f 7 263 264
f 7 264 61
f 61 264 299
f 61 299 94
f 298 300 94
f 298 94 299
f 266 27 81
f 266 81 265
f 265 81 135
f 265 135 350
f 350 135 134
f 350 134 352
f 5 271 272
f 5 272 59
f 59 272 295
f 59 295 90
f 294 296 90
f 294 90 295
f 274 16 70
f 274 70 273
f 273 70 113
f 273 113 319
f 319 113 112
f 319 112 321
f 237 25 79
f 237 79 238
f 238 79 131
f 238 131 344
f 344 131 130
f 344 130 346
f 3 240 239
f 3 239 57
f 4 3 57
f 4 57 58
f 58 57 86
f 58 86 88
f 57 239 291
f 57 291 86
f 290 292 86
f 290 86 291
f 292 293 88
f 292 88 86
f 278 279 280
f 278 280 277
f 277 280 309
f 277 309 312
f 312 309 308
f 312 308 314
f 249 23 77
f 249 77 250
f 250 77 127
f 250 127 338
f 338 127 126
f 338 126 340
f 282 12 66
f 282 66 281
f 281 66 105
f 281 105 310
f 310 105 104
f 310 104 311
f 255 21 75
f 255 75 256
f 256 75 123
f 256 123 332
f 332 123 122
f 332 122 334
f 284 19 73
f 284 73 283
f 283 73 119
f 283 119 327
f 327 119 118
f 327 118 328
f 8 262 261
f 8 261 62
f 62 261 302
f 62 302 96
f 301 303 96
f 301 96 302
f 267 285 286
f 267 286 268
f 268 286 326
f 268 326 353
f 353 326 325
f 353 325 355
f 275 26 80
f 275 80 276
f 276 80 133
f 276 133 347
f 347 133 132
f 347 132 349
f 245 15 69
f 245 69 246
f 246 69 111
f 246 111 317
f 317 111 110
f 317 110 318
f 204 190 358
f 204 358 376
f 376 358 357
f 376 357 378
f 211 220 397
f 211 397 388
f 396 390 388
f 396 388 397
f 222 219 403
f 222 403 172
f 402 404 172
f 402 172 403
f 233 232 422
f 233 422 186
f 421 423 186
f 421 186 422
f 192 194 141
f 192 141 359
f 194 196 143
f 194 143 141
f 359 141 140
f 359 140 361
f 141 143 142
f 141 142 140
f 195 197 145
f 195 145 363
f 363 145 144
f 363 144 365
f 225 224 409
f 225 409 176
f 408 410 176
f 408 176 409
f 208 206 155
f 208 155 156
f 154 382 156
f 154 156 155
f 215 213 393
f 215 393 164
f 392 394 164
f 392 164 393
f 198 199 147
f 198 147 366
f 366 147 146
f 366 146 368
f 227 226 412
f 227 412 178
f 411 413 178
f 411 178 412
f 214 212 161
f 214 161 162
f 160 391 162
f 160 162 161
f 200 201 149
f 200 149 369
f 369 149 148
f 369 148 371
f 191 193 139
f 191 139 136
f 136 139 138
f 136 138 137
