# Derived from blenderjunky Stargate DHD (BlendSwap 75540 / 13419).
# Source notice: supplied-dhd-LICENSE.html; Fan Art, noncommercial use only.
o supplied-dhd-symbols-2
v -0.038667 0.703262 -0.339623
v -0.054076 0.707046 -0.335821
v -0.041490 0.709119 -0.334540
v -0.050228 0.719648 -0.325263
v -0.051578 0.709727 -0.333639
v -0.061217 0.714539 -0.329184
v -0.060853 0.717222 -0.326919
v -0.054873 0.720726 -0.324170
v -0.053160 0.733344 -0.313516
v -0.054692 0.745520 -0.303114
v -0.057646 0.747651 -0.301191
v -0.057484 0.748843 -0.300184
v -0.048906 0.748326 -0.300951
v -0.048542 0.751009 -0.298686
v -0.046104 0.750862 -0.298903
v -0.048400 0.733947 -0.313185
v -0.036596 0.733235 -0.314240
v -0.015634 0.738582 -0.310496
v -0.016393 0.730814 -0.317066
v -0.036268 0.729083 -0.317779
v -0.037544 0.719681 -0.325718
v -0.022791 0.705228 -0.338558
v -0.016503 0.704632 -0.339304
v -0.027736 0.699035 -0.343630
v -0.027182 0.703113 -0.340188
v -0.041988 0.719151 -0.325999
v -0.049074 0.722152 -0.323179
v -0.047840 0.731247 -0.315500
v -0.047454 0.731223 -0.315535
v -0.041600 0.730870 -0.316058
v -0.041725 0.729954 -0.316832
v -0.042835 0.721776 -0.323737
v -0.043265 0.721802 -0.323698
v -0.048689 0.722129 -0.323214
v -0.053042 0.718344 -0.326263
v -0.054036 0.711022 -0.332446
v -0.054170 0.710807 -0.332623
v -0.058111 0.714943 -0.328959
v -0.057960 0.716054 -0.328021
v -0.054197 0.718413 -0.326160
v -0.040136 0.705461 -0.340056
v -0.051093 0.721657 -0.325880
v -0.042162 0.709664 -0.336409
v -0.052635 0.710296 -0.335473
v -0.053591 0.708765 -0.336737
v -0.060386 0.715895 -0.330421
v -0.060092 0.718064 -0.328590
v -0.054076 0.721837 -0.325614
v -0.052363 0.734454 -0.314960
v -0.053922 0.746997 -0.304246
v -0.056806 0.749077 -0.302369
v -0.056775 0.749305 -0.302176
v -0.048196 0.748788 -0.302943
v -0.047832 0.751470 -0.300678
v -0.047052 0.751423 -0.300747
v -0.049380 0.734275 -0.315227
v -0.036768 0.733514 -0.316353
v -0.016631 0.738816 -0.312617
v -0.017243 0.732563 -0.317905
v -0.037131 0.730836 -0.318615
v -0.038481 0.720896 -0.327007
v -0.023307 0.705776 -0.340430
v -0.018963 0.705364 -0.340946
v -0.026757 0.701480 -0.343948
v -0.026352 0.704464 -0.341429
v -0.041542 0.721081 -0.326734
v -0.038719 0.704424 -0.340991
v -0.054128 0.708208 -0.337189
v -0.041542 0.710281 -0.335908
v -0.050280 0.720810 -0.326631
v -0.051630 0.710890 -0.335007
v -0.061269 0.715701 -0.330552
v -0.060905 0.718384 -0.328287
v -0.054925 0.721888 -0.325538
v -0.053212 0.734506 -0.314884
v -0.054744 0.746682 -0.304482
v -0.057698 0.748813 -0.302559
v -0.057536 0.750006 -0.301552
v -0.048958 0.749488 -0.302319
v -0.048594 0.752171 -0.300054
v -0.046157 0.752024 -0.300271
v -0.048453 0.735109 -0.314553
v -0.036648 0.734397 -0.315608
v -0.015686 0.739744 -0.311865
v -0.016445 0.731977 -0.318434
v -0.036320 0.730245 -0.319147
v -0.037596 0.720843 -0.327086
v -0.022843 0.706390 -0.339926
v -0.016555 0.705794 -0.340672
v -0.027788 0.700197 -0.344998
v -0.027234 0.704275 -0.341556
v -0.042040 0.720313 -0.327367
v -0.038739 0.704863 -0.341508
v -0.039242 0.705445 -0.341443
v -0.053971 0.709062 -0.337809
v -0.054148 0.708647 -0.337706
v -0.041562 0.710720 -0.336425
v -0.041787 0.710727 -0.336859
v -0.050300 0.721249 -0.327147
v -0.050591 0.721764 -0.327148
v -0.052009 0.711343 -0.335946
v -0.051649 0.711328 -0.335523
v -0.060991 0.716429 -0.331284
v -0.061289 0.716140 -0.331069
v -0.060652 0.718933 -0.329170
v -0.060925 0.718823 -0.328804
v -0.054526 0.722522 -0.326354
v -0.054945 0.722327 -0.326055
v -0.052813 0.735140 -0.315700
v -0.053232 0.734945 -0.315401
v -0.054368 0.747498 -0.305143
v -0.054764 0.747121 -0.304999
v -0.057287 0.749604 -0.303242
v -0.057718 0.749252 -0.303076
v -0.057190 0.750320 -0.302638
v -0.057556 0.750444 -0.302069
v -0.048611 0.749802 -0.303404
v -0.048977 0.749927 -0.302835
v -0.048274 0.752510 -0.301117
v -0.048613 0.752610 -0.300570
v -0.046565 0.752430 -0.301250
v -0.046176 0.752463 -0.300788
v -0.048874 0.735416 -0.315615
v -0.048472 0.735548 -0.315070
v -0.036728 0.734684 -0.316700
v -0.036668 0.734836 -0.316125
v -0.016211 0.739917 -0.313036
v -0.015705 0.740183 -0.312381
v -0.016893 0.732944 -0.318934
v -0.016465 0.732415 -0.318951
v -0.036772 0.731213 -0.319647
v -0.036340 0.730684 -0.319664
v -0.038086 0.721531 -0.327822
v -0.037616 0.721282 -0.327603
v -0.023056 0.706807 -0.340903
v -0.022863 0.706829 -0.340443
v -0.017538 0.706284 -0.341557
v -0.016575 0.706233 -0.341188
v -0.027409 0.701365 -0.345360
v -0.027808 0.700636 -0.345515
v -0.026915 0.705010 -0.342283
v -0.027254 0.704714 -0.342072
v -0.041897 0.721239 -0.327925
v -0.042060 0.720752 -0.327883
v -0.039874 0.705908 -0.341026
v -0.040160 0.705990 -0.340679
v -0.050955 0.722143 -0.326812
v -0.051116 0.722186 -0.326503
v -0.042064 0.710451 -0.337083
v -0.042185 0.710193 -0.337032
v -0.052659 0.710825 -0.336096
v -0.052457 0.711078 -0.336154
v -0.053615 0.709295 -0.337359
v -0.053732 0.709311 -0.337607
v -0.060410 0.716425 -0.331043
v -0.060598 0.716516 -0.331225
v -0.060116 0.718593 -0.329213
v -0.060289 0.718790 -0.329305
v -0.054099 0.722366 -0.326237
v -0.054354 0.722512 -0.326369
v -0.052387 0.734984 -0.315583
v -0.052641 0.735130 -0.315715
v -0.053946 0.747526 -0.304869
v -0.054188 0.747567 -0.305091
v -0.056830 0.749606 -0.302992
v -0.057092 0.749662 -0.303201
v -0.056799 0.749834 -0.302799
v -0.057023 0.750166 -0.302775
v -0.048220 0.749317 -0.303566
v -0.048445 0.749649 -0.303541
v -0.047856 0.751999 -0.301301
v -0.048064 0.752317 -0.301289
v -0.047076 0.751952 -0.301370
v -0.046863 0.752230 -0.301408
v -0.049404 0.734804 -0.315850
v -0.049183 0.735139 -0.315840
v -0.036792 0.734043 -0.316976
v -0.036768 0.734390 -0.316949
v -0.016655 0.739345 -0.313240
v -0.016371 0.739760 -0.313164
v -0.017266 0.733092 -0.318528
v -0.017028 0.733044 -0.318844
v -0.037155 0.731365 -0.319238
v -0.036914 0.731316 -0.319554
v -0.038504 0.721425 -0.327630
v -0.038242 0.721540 -0.327808
v -0.023331 0.706305 -0.341053
v -0.023228 0.706579 -0.341090
v -0.018986 0.705893 -0.341568
v -0.018430 0.706125 -0.341659
v -0.026781 0.702009 -0.344571
v -0.027028 0.701841 -0.344971
v -0.026376 0.704993 -0.342052
v -0.026588 0.705080 -0.342236
v -0.041566 0.721610 -0.327357
v -0.041674 0.721583 -0.327641
v -0.049112 0.723005 -0.324183
v -0.049726 0.723135 -0.324677
v -0.048434 0.732657 -0.316637
v -0.047878 0.732100 -0.316504
v -0.047493 0.732076 -0.316539
v -0.047734 0.732615 -0.316700
v -0.041060 0.732212 -0.317296
v -0.041639 0.731723 -0.317062
v -0.041763 0.730806 -0.317836
v -0.041214 0.731082 -0.318250
v -0.042353 0.722690 -0.325336
v -0.042873 0.722628 -0.324741
v -0.043303 0.722654 -0.324702
v -0.043102 0.722735 -0.325269
v -0.049026 0.723093 -0.324739
v -0.048727 0.722982 -0.324218
v -0.052788 0.719835 -0.327363
v -0.053083 0.719258 -0.327339
v -0.053865 0.711895 -0.334068
v -0.054077 0.711936 -0.333522
v -0.054211 0.711721 -0.333699
v -0.054125 0.711479 -0.334411
v -0.058152 0.715857 -0.330035
v -0.058503 0.716073 -0.330342
v -0.058001 0.716968 -0.329097
v -0.058331 0.717346 -0.329267
v -0.054238 0.719328 -0.327236
v -0.054223 0.719922 -0.327235
v -0.040136 0.705461 -0.340056
v -0.040136 0.705461 -0.340056
v -0.053591 0.708765 -0.336737
v -0.053591 0.708765 -0.336737
v -0.042162 0.709664 -0.336409
v -0.051093 0.721657 -0.325880
v -0.051093 0.721657 -0.325880
v -0.052635 0.710296 -0.335473
v -0.060386 0.715895 -0.330421
v -0.060386 0.715895 -0.330421
v -0.060092 0.718064 -0.328590
v -0.060092 0.718064 -0.328590
v -0.054076 0.721837 -0.325614
v -0.054076 0.721837 -0.325614
v -0.052363 0.734454 -0.314960
v -0.053922 0.746997 -0.304246
v -0.053922 0.746997 -0.304246
v -0.056806 0.749077 -0.302369
v -0.056806 0.749077 -0.302369
v -0.056775 0.749305 -0.302176
v -0.048196 0.748788 -0.302943
v -0.047832 0.751470 -0.300678
v -0.047052 0.751423 -0.300747
v -0.049380 0.734275 -0.315227
v -0.016631 0.738816 -0.312617
v -0.017243 0.732563 -0.317905
v -0.017243 0.732563 -0.317905
v -0.037131 0.730836 -0.318615
v -0.037131 0.730836 -0.318615
v -0.038481 0.720896 -0.327007
v -0.038481 0.720896 -0.327007
v -0.023307 0.705776 -0.340430
v -0.018963 0.705364 -0.340946
v -0.026757 0.701480 -0.343948
v -0.026757 0.701480 -0.343948
v -0.026352 0.704464 -0.341429
v -0.026352 0.704464 -0.341429
v -0.041542 0.721081 -0.326734
v -0.041542 0.721081 -0.326734
v -0.048453 0.735109 -0.314553
v -0.048400 0.733947 -0.313185
v -0.061269 0.715701 -0.330552
v -0.061217 0.714539 -0.329184
v -0.060853 0.717222 -0.326919
v -0.060905 0.718384 -0.328287
v -0.016555 0.705794 -0.340672
v -0.016503 0.704632 -0.339304
v -0.027736 0.699035 -0.343630
v -0.027788 0.700197 -0.344998
v -0.048958 0.749488 -0.302319
v -0.048906 0.748326 -0.300951
v -0.048542 0.751009 -0.298686
v -0.048594 0.752171 -0.300054
v -0.036320 0.730245 -0.319147
v -0.036268 0.729083 -0.317779
v -0.037544 0.719681 -0.325718
v -0.037596 0.720843 -0.327086
v -0.050280 0.720810 -0.326631
v -0.050228 0.719648 -0.325263
v -0.051578 0.709727 -0.333639
v -0.051630 0.710890 -0.335007
v -0.054744 0.746682 -0.304482
v -0.054692 0.745520 -0.303114
v -0.057646 0.747651 -0.301191
v -0.057698 0.748813 -0.302559
v -0.015634 0.738582 -0.310496
v -0.015686 0.739744 -0.311865
v -0.027182 0.703113 -0.340188
v -0.027234 0.704275 -0.341556
v -0.054873 0.720726 -0.324170
v -0.054925 0.721888 -0.325538
v -0.046104 0.750862 -0.298903
v -0.046157 0.752024 -0.300271
v -0.041490 0.709119 -0.334540
v -0.041542 0.710281 -0.335908
v -0.022791 0.705228 -0.338558
v -0.022843 0.706390 -0.339926
v -0.057484 0.748843 -0.300184
v -0.057536 0.750006 -0.301552
v -0.038719 0.704424 -0.340991
v -0.038667 0.703262 -0.339623
v -0.054076 0.707046 -0.335821
v -0.054128 0.708208 -0.337189
v -0.016393 0.730814 -0.317066
v -0.016445 0.731977 -0.318434
v -0.041988 0.719151 -0.325999
v -0.042040 0.720313 -0.327367
v -0.039242 0.705445 -0.341443
v -0.038739 0.704863 -0.341508
v -0.041787 0.710727 -0.336859
v -0.041787 0.710727 -0.336859
v -0.041562 0.710720 -0.336425
v -0.050591 0.721764 -0.327148
v -0.050300 0.721249 -0.327147
v -0.051649 0.711328 -0.335523
v -0.052009 0.711343 -0.335946
v -0.052009 0.711343 -0.335946
v -0.061289 0.716140 -0.331069
v -0.060991 0.716429 -0.331284
v -0.060991 0.716429 -0.331284
v -0.060925 0.718823 -0.328804
v -0.060652 0.718933 -0.329170
v -0.060652 0.718933 -0.329170
v -0.054945 0.722327 -0.326055
v -0.054526 0.722522 -0.326354
v -0.054526 0.722522 -0.326354
v -0.052813 0.735140 -0.315700
v -0.054764 0.747121 -0.304999
v -0.054368 0.747498 -0.305143
v -0.057718 0.749252 -0.303076
v -0.057287 0.749604 -0.303242
v -0.057556 0.750444 -0.302069
v -0.057190 0.750320 -0.302638
v -0.057190 0.750320 -0.302638
v -0.048977 0.749927 -0.302835
v -0.048611 0.749802 -0.303404
v -0.048611 0.749802 -0.303404
v -0.048613 0.752610 -0.300570
v -0.048274 0.752510 -0.301117
v -0.048274 0.752510 -0.301117
v -0.046176 0.752463 -0.300788
v -0.046565 0.752430 -0.301250
v -0.046565 0.752430 -0.301250
v -0.048472 0.735548 -0.315070
v -0.048874 0.735416 -0.315615
v -0.048874 0.735416 -0.315615
v -0.036728 0.734684 -0.316700
v -0.036728 0.734684 -0.316700
v -0.015705 0.740183 -0.312381
v -0.016211 0.739917 -0.313036
v -0.016211 0.739917 -0.313036
v -0.016465 0.732415 -0.318951
v -0.016893 0.732944 -0.318934
v -0.036340 0.730684 -0.319664
v -0.036772 0.731213 -0.319647
v -0.037616 0.721282 -0.327603
v -0.038086 0.721531 -0.327822
v -0.038086 0.721531 -0.327822
v -0.022863 0.706829 -0.340443
v -0.023056 0.706807 -0.340903
v -0.023056 0.706807 -0.340903
v -0.016575 0.706233 -0.341188
v -0.017538 0.706284 -0.341557
v -0.027808 0.700636 -0.345515
v -0.027409 0.701365 -0.345360
v -0.027254 0.704714 -0.342072
v -0.026915 0.705010 -0.342283
v -0.026915 0.705010 -0.342283
v -0.042060 0.720752 -0.327883
v -0.041897 0.721239 -0.327925
v -0.040160 0.705990 -0.340679
v -0.039874 0.705908 -0.341026
v -0.039874 0.705908 -0.341026
v -0.053732 0.709311 -0.337607
v -0.053732 0.709311 -0.337607
v -0.053615 0.709295 -0.337359
v -0.042185 0.710193 -0.337032
v -0.042064 0.710451 -0.337083
v -0.051116 0.722186 -0.326503
v -0.050955 0.722143 -0.326812
v -0.050955 0.722143 -0.326812
v -0.052457 0.711078 -0.336154
v -0.052659 0.710825 -0.336096
v -0.060598 0.716516 -0.331225
v -0.060598 0.716516 -0.331225
v -0.060410 0.716425 -0.331043
v -0.060289 0.718790 -0.329305
v -0.060289 0.718790 -0.329305
v -0.060116 0.718593 -0.329213
v -0.054354 0.722512 -0.326369
v -0.054354 0.722512 -0.326369
v -0.054099 0.722366 -0.326237
v -0.052641 0.735130 -0.315715
v -0.054188 0.747567 -0.305091
v -0.054188 0.747567 -0.305091
v -0.053946 0.747526 -0.304869
v -0.057092 0.749662 -0.303201
v -0.057092 0.749662 -0.303201
v -0.056830 0.749606 -0.302992
v -0.057023 0.750166 -0.302775
v -0.056799 0.749834 -0.302799
v -0.048445 0.749649 -0.303541
v -0.048220 0.749317 -0.303566
v -0.048064 0.752317 -0.301289
v -0.047856 0.751999 -0.301301
v -0.046863 0.752230 -0.301408
v -0.047076 0.751952 -0.301370
v -0.049183 0.735139 -0.315840
v -0.049404 0.734804 -0.315850
v -0.016371 0.739760 -0.313164
v -0.016655 0.739345 -0.313240
v -0.017028 0.733044 -0.318844
v -0.017028 0.733044 -0.318844
v -0.017266 0.733092 -0.318528
v -0.036914 0.731316 -0.319554
v -0.036914 0.731316 -0.319554
v -0.037155 0.731365 -0.319238
v -0.038242 0.721540 -0.327808
v -0.023228 0.706579 -0.341090
v -0.023331 0.706305 -0.341053
v -0.018430 0.706125 -0.341659
v -0.018986 0.705893 -0.341568
v -0.027028 0.701841 -0.344971
v -0.027028 0.701841 -0.344971
v -0.026781 0.702009 -0.344571
v -0.026588 0.705080 -0.342236
v -0.026588 0.705080 -0.342236
v -0.026376 0.704993 -0.342052
v -0.041674 0.721583 -0.327641
v -0.041674 0.721583 -0.327641
v -0.041566 0.721610 -0.327357
v -0.047878 0.732100 -0.316504
v -0.048434 0.732657 -0.316637
v -0.042873 0.722628 -0.324741
v -0.042353 0.722690 -0.325336
v -0.042353 0.722690 -0.325336
v -0.043102 0.722735 -0.325269
v -0.041639 0.731723 -0.317062
v -0.041060 0.732212 -0.317296
v -0.041214 0.731082 -0.318250
v -0.049026 0.723093 -0.324739
v -0.049726 0.723135 -0.324677
v -0.049726 0.723135 -0.324677
v -0.049112 0.723005 -0.324183
v -0.047840 0.731247 -0.315500
v -0.049074 0.722152 -0.323179
v -0.041600 0.730870 -0.316058
v -0.042835 0.721776 -0.323737
v -0.053865 0.711895 -0.334068
v -0.054125 0.711479 -0.334411
v -0.054125 0.711479 -0.334411
v -0.054211 0.711721 -0.333699
v -0.053083 0.719258 -0.327339
v -0.052788 0.719835 -0.327363
v -0.058503 0.716073 -0.330342
v -0.058503 0.716073 -0.330342
v -0.058152 0.715857 -0.330035
v -0.058331 0.717346 -0.329267
v -0.058331 0.717346 -0.329267
v -0.058001 0.716968 -0.329097
v -0.054223 0.719922 -0.327235
v -0.054238 0.719328 -0.327236
v -0.053042 0.718344 -0.326263
v -0.054197 0.718413 -0.326160
v -0.054170 0.710807 -0.332623
v -0.058111 0.714943 -0.328959
v -0.057960 0.716054 -0.328021
f 384 196 374
f 384 374 317
f 57 56 413
f 57 413 177
f 196 194 371
f 196 371 374
f 63 256 424
f 63 424 189
f 166 164 333
f 166 333 113
f 180 178 351
f 180 351 354
f 55 246 409
f 55 409 173
f 194 192 139
f 194 139 371
f 164 162 331
f 164 331 333
f 178 176 349
f 178 349 351
f 376 382 314
f 376 314 94
f 192 190 367
f 192 367 139
f 162 160 329
f 162 329 331
f 43 44 387
f 43 387 381
f 176 174 346
f 176 346 349
f 53 52 405
f 53 405 169
f 190 188 364
f 190 364 367
f 160 158 326
f 160 326 329
f 451 29 201
f 451 201 442
f 467 468 466
f 467 466 457
f 453 458 42
f 453 42 44
f 225 227 44
f 225 44 43
f 256 63 64
f 256 64 65
f 255 256 65
f 255 65 66
f 57 58 59
f 57 59 253
f 49 50 53
f 49 53 56
f 53 246 55
f 53 55 56
f 50 51 52
f 50 52 53
f 458 224 237
f 458 237 42
f 199 446 237
f 199 237 49
f 271 24 90
f 271 90 270
f 210 439 255
f 210 255 66
f 287 11 77
f 287 77 286
f 220 218 227
f 220 227 46
f 443 202 56
f 443 56 57
f 206 443 57
f 206 57 253
f 1 2 68
f 1 68 67
f 222 220 46
f 222 46 236
f 439 206 253
f 439 253 255
f 218 453 44
f 218 44 227
f 29 28 200
f 29 200 201
f 306 6 72
f 306 72 307
f 202 199 49
f 202 49 56
f 308 20 86
f 308 86 309
f 224 222 236
f 224 236 237
f 310 283 282
f 310 282 311
f 445 210 66
f 445 66 42
f 67 68 96
f 67 96 93
f 311 282 318
f 311 318 373
f 286 77 114
f 286 114 332
f 309 86 132
f 309 132 356
f 270 90 140
f 270 140 366
f 182 180 354
f 182 354 357
f 168 166 113
f 168 113 337
f 152 384 317
f 152 317 320
f 58 57 177
f 58 177 179
f 184 182 357
f 184 357 131
f 170 168 337
f 170 337 340
f 307 72 104
f 307 104 96
f 156 154 95
f 156 95 323
f 186 184 131
f 186 131 361
f 172 170 340
f 172 340 343
f 154 376 94
f 154 94 95
f 158 156 323
f 158 323 326
f 188 186 361
f 188 361 364
f 174 172 343
f 174 343 346
f 382 152 320
f 382 320 314
f 93 96 95
f 93 95 94
f 96 104 103
f 96 103 95
f 332 114 113
f 332 113 333
f 356 132 131
f 356 131 357
f 366 140 139
f 366 139 367
f 373 318 317
f 373 317 374
f 152 382 381
f 152 381 387
f 168 170 169
f 168 169 405
f 172 174 173
f 172 173 409
f 176 178 177
f 176 177 413
f 178 180 179
f 178 179 177
f 188 190 189
f 188 189 424
f 199 202 201
f 199 201 200
f 202 443 442
f 202 442 201
f 446 445 42
f 446 42 237
f 457 466 224
f 457 224 458
f 48 235 393
f 48 393 159
f 392 394 159
f 392 159 393
f 45 41 146
f 45 146 153
f 145 378 153
f 145 153 146
f 62 254 185
f 62 185 187
f 61 252 421
f 61 421 185
f 420 422 185
f 420 185 421
f 422 423 187
f 422 187 185
f 47 233 390
f 47 390 157
f 389 391 157
f 389 157 390
f 54 245 407
f 54 407 171
f 406 408 171
f 406 171 407
f 230 262 435
f 230 435 383
f 434 385 383
f 434 383 435
f 60 250 418
f 60 418 183
f 417 419 183
f 417 183 418
f 27 34 212
f 27 212 197
f 33 32 208
f 33 208 209
f 34 33 209
f 34 209 212
f 207 441 209
f 207 209 208
f 211 198 197
f 211 197 212
f 441 211 212
f 441 212 209
f 31 30 204
f 31 204 205
f 452 31 205
f 452 205 438
f 203 444 205
f 203 205 204
f 444 440 438
f 444 438 205
f 449 450 448
f 449 448 436
f 447 437 436
f 447 436 448
f 39 470 461
f 39 461 221
f 460 462 221
f 460 221 461
f 40 471 464
f 40 464 223
f 463 465 223
f 463 223 464
f 38 469 456
f 38 456 219
f 455 459 219
f 455 219 456
f 265 17 83
f 265 83 264
f 17 18 84
f 17 84 83
f 264 83 126
f 264 126 348
f 83 84 128
f 83 128 126
f 348 126 125
f 348 125 350
f 126 128 127
f 126 127 352
f 267 7 73
f 267 73 266
f 266 73 106
f 266 106 322
f 322 106 105
f 322 105 324
f 275 14 80
f 275 80 274
f 274 80 120
f 274 120 339
f 339 120 119
f 339 119 341
f 279 21 87
f 279 87 278
f 278 87 134
f 278 134 358
f 358 134 133
f 358 133 359
f 4 5 71
f 4 71 70
f 70 71 102
f 70 102 99
f 99 102 101
f 99 101 100
f 37 36 216
f 37 216 217
f 215 454 217
f 215 217 216
f 213 215 216
f 213 216 214
f 36 35 214
f 36 214 216
f 272 25 91
f 272 91 273
f 273 91 142
f 273 142 368
f 368 142 141
f 368 141 369
f 268 8 74
f 268 74 269
f 269 74 108
f 269 108 325
f 325 108 107
f 325 107 327
f 276 15 81
f 276 81 277
f 277 81 122
f 277 122 342
f 342 122 121
f 342 121 344
f 284 298 299
f 284 299 285
f 285 299 316
f 285 316 319
f 319 316 315
f 319 315 321
f 280 22 88
f 280 88 281
f 281 88 136
f 281 136 360
f 360 136 135
f 360 135 362
f 288 12 78
f 288 78 289
f 289 78 116
f 289 116 334
f 334 116 115
f 334 115 335
f 290 19 85
f 290 85 291
f 291 85 130
f 291 130 353
f 353 130 129
f 353 129 355
f 294 9 75
f 294 75 295
f 9 10 76
f 9 76 75
f 295 75 110
f 295 110 328
f 75 76 112
f 75 112 110
f 328 110 109
f 328 109 330
f 110 112 111
f 110 111 109
f 292 26 92
f 292 92 293
f 293 92 144
f 293 144 370
f 370 144 143
f 370 143 372
f 296 16 82
f 296 82 297
f 297 82 124
f 297 124 345
f 345 124 123
f 345 123 347
f 300 23 89
f 300 89 301
f 301 89 138
f 301 138 363
f 363 138 137
f 363 137 365
f 302 13 79
f 302 79 303
f 303 79 118
f 303 118 336
f 336 118 117
f 336 117 338
f 3 305 304
f 3 304 69
f 69 304 313
f 69 313 97
f 97 313 312
f 97 312 98
f 239 238 396
f 239 396 161
f 240 239 161
f 240 161 163
f 395 397 161
f 395 161 396
f 397 398 163
f 397 163 161
f 248 247 411
f 248 411 175
f 410 412 175
f 410 175 411
f 258 257 426
f 258 426 191
f 425 427 191
f 425 191 426
f 260 259 429
f 260 429 193
f 428 430 193
f 428 193 429
f 234 228 380
f 234 380 155
f 379 388 155
f 379 155 380
f 242 241 400
f 242 400 165
f 399 401 165
f 399 165 400
f 263 261 432
f 263 432 195
f 431 433 195
f 431 195 432
f 251 249 415
f 251 415 181
f 414 416 181
f 414 181 415
f 244 243 403
f 244 403 167
f 402 404 167
f 402 167 403
f 232 231 148
f 232 148 151
f 147 386 151
f 147 151 148
f 149 377 375
f 149 375 150
f 226 229 150
f 226 150 375
