# Derived from blenderjunky Stargate DHD (BlendSwap 75540 / 13419).
# Source notice: supplied-dhd-LICENSE.html; Fan Art, noncommercial use only.
o supplied-dhd-keys-6
v -0.157247 0.885072 -0.164825
v -0.173039 0.873513 -0.170632
v -0.158068 0.885738 -0.163940
v -0.141463 0.896625 -0.159021
v -0.156831 0.884566 -0.164997
v -0.172590 0.872984 -0.170844
v -0.173938 0.874237 -0.169651
v -0.142205 0.897233 -0.158232
v -0.141079 0.896143 -0.159154
v -0.180798 0.908673 -0.125545
v -0.198948 0.899478 -0.127419
v -0.180863 0.908637 -0.124936
v -0.162657 0.917864 -0.123672
v -0.180399 0.908129 -0.126675
v -0.198507 0.898870 -0.128654
v -0.199029 0.899465 -0.126771
v -0.162706 0.917804 -0.123102
v -0.162301 0.917383 -0.124696
v -0.133638 0.932462 -0.120609
v -0.138340 0.930183 -0.121162
v -0.133668 0.932370 -0.120109
v -0.131892 0.933036 -0.120227
v -0.133350 0.932081 -0.121461
v -0.138042 0.929787 -0.122044
v -0.138368 0.930092 -0.120644
v -0.131937 0.932957 -0.119753
v -0.131601 0.932656 -0.121062
v -0.121870 0.919265 -0.142790
v -0.124251 0.921226 -0.139526
v -0.120264 0.919999 -0.142127
v -0.119678 0.917592 -0.145574
v -0.122615 0.921935 -0.138904
v -0.118099 0.918347 -0.144876
v -0.116212 0.914998 -0.149674
v -0.120306 0.912110 -0.151240
v -0.116825 0.915512 -0.149037
v -0.114682 0.915789 -0.148931
v -0.115887 0.914559 -0.149750
v -0.119965 0.911660 -0.151321
v -0.120942 0.912641 -0.150580
v -0.115281 0.916292 -0.148296
v -0.114382 0.915372 -0.149019
v -0.130343 0.927769 -0.128637
v -0.131723 0.929678 -0.125460
v -0.128632 0.928397 -0.128149
v -0.128621 0.925612 -0.132227
v -0.129995 0.930283 -0.125011
v -0.126931 0.926267 -0.131694
v -0.131211 0.931735 -0.119077
v -0.131323 0.931782 -0.118715
v -0.229218 0.881104 -0.127774
v -0.229540 0.882191 -0.128639
v -0.113385 0.913169 -0.147077
v -0.114027 0.914514 -0.147739
v -0.113791 0.914220 -0.147942
v -0.131519 0.931722 -0.118683
v -0.198289 0.850561 -0.178801
v -0.197211 0.852828 -0.179195
v -0.198667 0.851660 -0.179626
v -0.198663 0.850498 -0.178710
v -0.199005 0.851603 -0.179544
v -0.115317 0.913098 -0.148723
v -0.113471 0.912984 -0.147241
v -0.113868 0.914053 -0.148090
v -0.222399 0.876582 -0.143984
v -0.223974 0.875383 -0.144043
v -0.224749 0.879834 -0.138570
v -0.219464 0.872907 -0.150100
v -0.221017 0.871680 -0.150205
v -0.226342 0.878660 -0.138589
v -0.198339 0.854886 -0.179875
v -0.199735 0.853538 -0.180205
v -0.199365 0.855698 -0.178740
v -0.194258 0.857982 -0.178435
v -0.197840 0.854332 -0.180150
v -0.199236 0.853020 -0.180488
v -0.200768 0.854342 -0.179060
v -0.195264 0.858783 -0.177326
v -0.193766 0.857421 -0.178699
v -0.207961 0.862093 -0.168097
v -0.209429 0.860786 -0.168337
v -0.212018 0.865434 -0.162536
v -0.204227 0.859243 -0.172840
v -0.205667 0.857914 -0.173116
v -0.213516 0.864152 -0.162735
v -0.228030 0.884641 -0.130355
v -0.229644 0.883512 -0.130320
v -0.228133 0.884675 -0.129651
v -0.223336 0.887123 -0.129937
v -0.227520 0.883928 -0.131757
v -0.229134 0.882784 -0.131725
v -0.229740 0.883575 -0.129635
v -0.223438 0.887142 -0.129236
v -0.222837 0.886429 -0.131314
v -0.229336 0.882362 -0.128529
v -0.224799 0.873062 -0.134265
v -0.222427 0.869781 -0.139727
v -0.219466 0.866073 -0.145898
v -0.199187 0.848709 -0.174795
v -0.198168 0.847988 -0.176008
v -0.197714 0.847722 -0.176489
v -0.195814 0.848860 -0.176064
v -0.197327 0.847787 -0.176582
v -0.228042 0.878530 -0.125418
v -0.115654 0.913994 -0.149391
v -0.114179 0.914855 -0.148695
v -0.127868 0.924998 -0.120604
v -0.126508 0.923117 -0.123736
v -0.124810 0.920990 -0.127275
v -0.113181 0.911034 -0.143845
v -0.112617 0.910606 -0.144548
v -0.112414 0.910411 -0.144845
v -0.204093 0.852286 -0.168842
v -0.207860 0.855162 -0.164056
v -0.211954 0.858533 -0.158446
v -0.115995 0.913085 -0.140432
v -0.118155 0.914734 -0.137687
v -0.120502 0.916667 -0.134470
v -0.130175 0.927908 -0.115576
v -0.227595 0.877193 -0.127390
v -0.228125 0.878009 -0.126044
v -0.228275 0.878334 -0.125543
v -0.129471 0.927367 -0.116662
v -0.129797 0.927824 -0.115893
v -0.129951 0.927976 -0.115612
v -0.112503 0.910220 -0.145014
v -0.199698 0.852909 -0.179832
v -0.199207 0.852454 -0.180142
v -0.193487 0.856813 -0.178372
v -0.197565 0.853743 -0.179834
v -0.198978 0.852492 -0.180198
v -0.227971 0.884187 -0.129168
v -0.229583 0.883137 -0.129196
v -0.215989 0.869096 -0.156442
v -0.217516 0.867840 -0.156595
v -0.114395 0.915342 -0.148466
v -0.114126 0.914969 -0.148594
v -0.229627 0.882902 -0.129914
v -0.229721 0.883021 -0.129270
v -0.131588 0.932572 -0.119791
v -0.131661 0.932534 -0.119360
v -0.131377 0.931697 -0.118634
v -0.229447 0.882198 -0.128520
v -0.113390 0.913067 -0.147149
v -0.113777 0.914074 -0.147964
v -0.198480 0.850478 -0.178774
v -0.198821 0.851531 -0.179558
v -0.131794 0.932494 -0.119339
v -0.126581 0.923375 -0.135950
v -0.124917 0.924058 -0.135371
v -0.147545 0.925459 -0.121571
v -0.147509 0.925538 -0.122109
v -0.147190 0.925110 -0.123044
v -0.128959 0.906831 -0.153465
v -0.128283 0.906271 -0.154174
v -0.127927 0.905809 -0.154275
v -0.186241 0.863850 -0.175487
v -0.185766 0.863301 -0.175731
v -0.214216 0.891798 -0.128305
v -0.214122 0.891791 -0.128986
v -0.197531 0.847719 -0.176569
v -0.215960 0.862227 -0.152297
v -0.228198 0.878422 -0.125471
v -0.112426 0.910323 -0.144935
v -0.130041 0.927959 -0.115585
v -0.122799 0.918785 -0.130945
v -0.199013 0.852180 -0.179992
v -0.229599 0.882810 -0.129015
v -0.114032 0.914660 -0.148440
v -0.131617 0.932271 -0.119131
f 59 58 102
f 102 103 57
f 102 57 59
f 94 89 160
f 160 11 15
f 160 15 94
f 142 165 125
f 142 125 50
f 127 100 99
f 99 113 84
f 84 77 72
f 72 127 99
f 99 84 72
f 107 47 27
f 27 140 49
f 49 124 123
f 123 107 27
f 27 49 123
f 64 63 126
f 126 102 58
f 62 105 38
f 126 58 62
f 106 64 126
f 38 42 106
f 126 62 38
f 126 38 106
f 73 83 31
f 31 36 40
f 154 8 3
f 31 40 154
f 78 73 31
f 154 3 7
f 7 78 31
f 31 154 7
f 84 113 114
f 84 114 81
f 163 104 95
f 163 95 143
f 69 98 97
f 69 97 66
f 157 74 78
f 78 7 2
f 78 2 157
f 134 68 46
f 134 46 149
f 66 97 96
f 66 96 70
f 83 80 28
f 83 28 31
f 150 166 118
f 150 118 32
f 67 90 94
f 15 14 18
f 67 94 15
f 23 44 67
f 153 24 23
f 15 18 153
f 23 67 15
f 15 153 23
f 47 107 108
f 47 108 45
f 162 98 69
f 162 69 135
f 57 103 161
f 57 161 146
f 96 120 121
f 138 87 91
f 96 121 138
f 91 70 96
f 138 91 96
f 81 114 115
f 81 115 85
f 1 5 6
f 1 6 2
f 2 6 158
f 2 158 157
f 1 2 7
f 1 7 3
f 1 3 8
f 1 8 4
f 4 8 154
f 4 154 155
f 1 4 9
f 1 9 5
f 4 155 156
f 4 156 9
f 10 14 15
f 10 15 11
f 10 11 16
f 10 16 12
f 11 160 159
f 11 159 16
f 10 12 17
f 10 17 13
f 13 17 151
f 13 151 152
f 10 13 18
f 10 18 14
f 13 152 153
f 13 153 18
f 19 23 24
f 19 24 20
f 20 24 153
f 20 153 152
f 65 43 46
f 65 46 68
f 19 20 25
f 19 25 21
f 20 152 151
f 20 151 25
f 19 21 26
f 19 26 22
f 22 26 141
f 22 141 140
f 26 148 170
f 26 170 141
f 19 22 27
f 19 27 23
f 22 140 27
f 44 23 27
f 44 27 47
f 43 65 67
f 43 67 44
f 29 82 134
f 29 134 149
f 90 67 70
f 90 70 91
f 28 29 32
f 28 32 30
f 29 149 150
f 29 150 32
f 28 30 33
f 28 33 31
f 34 38 39
f 34 39 35
f 35 39 156
f 35 156 155
f 34 35 40
f 34 40 36
f 35 155 154
f 35 154 40
f 34 36 41
f 34 41 37
f 37 41 136
f 34 37 42
f 34 42 38
f 37 136 137
f 37 137 42
f 42 137 169
f 42 169 106
f 43 44 47
f 43 47 45
f 43 45 48
f 43 48 46
f 46 48 150
f 46 150 149
f 49 140 141
f 49 141 50
f 50 141 170
f 50 170 142
f 52 143 168
f 52 168 139
f 54 55 137
f 54 137 136
f 53 144 145
f 53 145 55
f 55 145 169
f 55 169 137
f 56 142 170
f 56 170 148
f 58 59 131
f 58 131 130
f 57 146 147
f 57 147 59
f 59 147 167
f 59 167 131
f 61 128 167
f 61 167 147
f 64 106 169
f 64 169 145
f 65 68 69
f 65 69 66
f 68 134 135
f 68 135 69
f 85 115 162
f 85 162 135
f 65 66 70
f 65 70 67
f 71 75 76
f 71 76 72
f 72 76 128
f 72 128 127
f 75 130 131
f 75 131 76
f 76 131 167
f 76 167 128
f 71 72 77
f 71 77 73
f 71 73 78
f 71 78 74
f 71 74 79
f 71 79 75
f 75 79 129
f 75 129 130
f 74 157 158
f 74 158 79
f 80 83 84
f 80 84 81
f 80 81 85
f 80 85 82
f 82 85 135
f 82 135 134
f 86 90 91
f 86 91 87
f 86 87 92
f 86 92 88
f 88 92 133
f 88 133 132
f 87 138 139
f 87 139 92
f 92 139 168
f 92 168 133
f 86 88 93
f 86 93 89
f 89 93 159
f 89 159 160
f 86 89 94
f 86 94 90
f 132 133 95
f 95 133 168
f 95 168 143
f 30 117 116
f 30 116 33
f 45 108 109
f 45 109 48
f 48 109 166
f 48 166 150
f 130 129 105
f 105 62 58
f 105 58 130
f 36 31 33
f 36 33 41
f 61 60 101
f 101 100 127
f 127 128 61
f 101 127 61
f 104 119 56
f 148 26 21
f 104 56 148
f 132 95 104
f 148 21 132
f 148 132 104
f 83 73 77
f 83 77 84
f 52 51 122
f 122 163 143
f 122 143 52
f 32 118 117
f 32 117 30
f 53 112 164
f 53 164 144
f 146 161 101
f 101 60 61
f 61 147 146
f 101 61 146
f 50 125 124
f 50 124 49
f 122 51 52
f 52 139 138
f 138 121 122
f 52 138 122
f 6 5 9
f 156 39 38
f 79 158 6
f 105 129 79
f 156 38 105
f 105 79 6
f 156 105 6
f 144 164 126
f 63 64 145
f 144 126 63
f 63 145 144
f 41 33 116
f 110 111 54
f 41 116 110
f 54 136 41
f 110 54 41
f 82 29 28
f 82 28 80
f 88 132 21
f 21 25 151
f 21 151 17
f 93 88 21
f 16 159 93
f 21 17 16
f 21 16 93
f 55 54 111
f 111 112 53
f 111 53 55
f 56 119 165
f 56 165 142
