# Derived from blenderjunky Stargate DHD (BlendSwap 75540 / 13419).
# Source notice: supplied-dhd-LICENSE.html; Fan Art, noncommercial use only.
o supplied-dhd-keys-3
v 0.023637 1.047147 0.189783
v 0.023419 1.046798 0.187626
v 0.024349 1.047228 0.189752
v 0.021411 1.046796 0.187668
v 0.024124 1.046876 0.187619
v 0.024925 1.048389 0.195550
v -0.037476 1.045714 0.185867
v -0.027861 1.046289 0.186825
v -0.058680 1.044501 0.185381
v -0.059446 1.044532 0.185265
v -0.058210 1.044175 0.183260
v -0.058967 1.044203 0.183171
v -0.056176 1.044305 0.183522
v 0.002472 1.046994 0.187998
v -0.007251 1.046949 0.187924
v 0.023531 1.052916 0.188304
v 0.024245 1.052819 0.188318
v 0.023315 1.052388 0.186192
v 0.024023 1.052303 0.186227
v 0.021307 1.052441 0.186220
v -0.037580 1.051359 0.184419
v -0.027966 1.051934 0.185377
v -0.045914 1.050764 0.183430
v -0.058786 1.050271 0.183901
v -0.058313 1.049765 0.181826
v -0.059550 1.050123 0.183831
v -0.056280 1.049950 0.182075
v -0.059067 1.049630 0.181779
v 0.002368 1.052639 0.186550
v 0.010824 1.052583 0.186457
v -0.007355 1.052594 0.186476
v 0.023266 1.051830 0.185911
v 0.023979 1.051421 0.185997
v 0.023977 1.051799 0.185974
v -0.037504 1.050784 0.184133
v -0.027910 1.051358 0.185088
v -0.084933 1.072194 0.299700
v -0.058949 1.048753 0.181557
v -0.058198 1.049212 0.181554
v -0.058962 1.049131 0.181533
v 0.002360 1.052062 0.186259
v -0.007343 1.052017 0.186185
v -0.084636 1.071688 0.297178
v -0.085062 1.072098 0.299279
v -0.084598 1.072080 0.297077
v -0.085022 1.072459 0.299163
v 0.024062 1.047231 0.187145
v 0.004319 1.072313 0.308081
v -0.009802 1.072291 0.308044
v -0.083752 1.068045 0.300941
v -0.084862 1.068352 0.300685
v -0.084821 1.067977 0.300714
v -0.058878 1.044912 0.182542
v -0.084991 1.068256 0.300265
v -0.084938 1.067891 0.300334
v 0.024184 1.047662 0.187384
v 0.024182 1.047305 0.187508
v -0.053677 1.070456 0.304990
v -0.039724 1.071333 0.306450
v 0.034742 1.071852 0.307276
v 0.035762 1.072232 0.307142
v 0.035752 1.071855 0.307168
v 0.034700 1.071295 0.307002
v 0.031791 1.071324 0.307108
v 0.035713 1.071352 0.306919
v -0.053607 1.069882 0.304709
v -0.065684 1.068969 0.303189
v -0.039672 1.070758 0.306167
v -0.084277 1.066984 0.298421
v -0.083647 1.067493 0.300674
v -0.084724 1.067478 0.300473
v -0.080706 1.067714 0.301100
v 0.004315 1.071737 0.307796
v -0.009788 1.071715 0.307759
v 0.016583 1.071605 0.307576
v 0.034388 1.076538 0.303415
v 0.034597 1.076885 0.305568
v 0.035408 1.076428 0.303399
v 0.033835 1.075378 0.297612
v 0.031687 1.076969 0.305660
v 0.035613 1.076779 0.305527
v 0.034842 1.075268 0.297605
v -0.053711 1.075527 0.303261
v -0.039776 1.076403 0.304719
v -0.083294 1.072757 0.297122
v -0.083750 1.073083 0.299240
v -0.082056 1.071655 0.291416
v -0.084381 1.072575 0.296987
v -0.084824 1.072905 0.299081
v -0.080810 1.073359 0.299652
v -0.083132 1.071473 0.291290
v 0.004211 1.077382 0.306348
v -0.009892 1.077360 0.306311
v 0.035747 1.075990 0.305757
v 0.035718 1.076347 0.305635
v 0.035818 1.072148 0.306742
v 0.035802 1.071780 0.306806
v 0.029075 1.058929 0.247353
v 0.027002 1.054401 0.225288
v 0.029941 1.059007 0.247305
v 0.031147 1.063456 0.269416
v 0.027809 1.054481 0.225244
v 0.032071 1.063532 0.269366
v -0.070943 1.055715 0.242004
v -0.071875 1.055731 0.241854
v -0.066254 1.051405 0.220301
v -0.075631 1.060026 0.263707
v -0.076626 1.060036 0.263547
v -0.067123 1.051427 0.220161
v 0.028968 1.064758 0.245858
v 0.031039 1.069286 0.267921
v 0.029836 1.064652 0.245857
v 0.026895 1.060230 0.223793
v 0.031967 1.069177 0.267918
v 0.027705 1.060126 0.223796
v -0.071051 1.061544 0.240509
v -0.075739 1.065855 0.262212
v -0.066361 1.057234 0.218806
v -0.071979 1.061376 0.240406
v -0.076730 1.065681 0.262099
v -0.067227 1.057072 0.218713
v -0.059720 1.049241 0.184021
v -0.059700 1.049635 0.183932
v -0.059214 1.048819 0.181930
v -0.059202 1.049190 0.181871
v -0.059143 1.044977 0.182916
v -0.059117 1.044622 0.183042
v 0.031818 1.071560 0.307317
v 0.034727 1.071525 0.307203
v 0.035734 1.071560 0.307101
v -0.053649 1.070118 0.304916
v -0.039702 1.070994 0.306375
v 0.035768 1.071508 0.306856
v -0.024769 1.071426 0.307278
v -0.084421 1.067150 0.298350
v -0.084851 1.067626 0.300394
v 0.002458 1.047124 0.187690
v -0.007252 1.047079 0.187616
v -0.058145 1.044305 0.182968
v -0.058902 1.044322 0.182909
v -0.080769 1.067947 0.301304
v -0.083708 1.067720 0.300871
v -0.084771 1.067684 0.300652
v -0.037437 1.045845 0.185562
v -0.027836 1.046420 0.186519
v 0.004320 1.071974 0.308006
v -0.009794 1.071952 0.307969
v 0.023378 1.046924 0.187328
v 0.024083 1.046992 0.187351
v 0.034630 1.076758 0.305861
v 0.035640 1.076663 0.305792
v -0.053746 1.075395 0.303563
v -0.039800 1.076271 0.305021
v 0.035477 1.076247 0.303438
v 0.035674 1.076612 0.305547
v -0.024873 1.077071 0.305830
v -0.083273 1.071277 0.291317
v -0.084518 1.072384 0.297008
v -0.084945 1.072729 0.299085
v 0.002361 1.052401 0.186336
v -0.007350 1.052356 0.186263
v -0.056211 1.049715 0.181867
v -0.058242 1.049538 0.181626
v -0.058996 1.049425 0.181600
v -0.083804 1.072953 0.299529
v -0.084865 1.072788 0.299343
v -0.037535 1.051122 0.184209
v -0.027933 1.051697 0.185165
v 0.004222 1.077251 0.306652
v -0.009892 1.077229 0.306615
v 0.021275 1.052203 0.186007
v 0.023281 1.052158 0.185986
v 0.023989 1.052095 0.186042
v 0.024118 1.047616 0.187131
v 0.024123 1.047282 0.187275
v -0.024802 1.072001 0.307562
v -0.084967 1.068317 0.300518
v -0.084916 1.067964 0.300557
v -0.059087 1.048769 0.181694
v -0.059087 1.049126 0.181662
v 0.035809 1.072206 0.306990
v 0.035794 1.071850 0.307025
v 0.024048 1.051446 0.186149
v 0.024039 1.051803 0.186116
v -0.017652 1.051805 0.185832
v -0.085038 1.072147 0.299536
v -0.085000 1.072484 0.299398
v -0.059017 1.044939 0.182676
v -0.059004 1.044606 0.182821
v 0.035739 1.076036 0.306008
v 0.035711 1.076370 0.305865
v 0.024165 1.047042 0.187597
v -0.017581 1.046737 0.187570
v -0.060820 1.045810 0.190904
v -0.059064 1.044362 0.183138
v 0.024296 1.052640 0.188368
v 0.024071 1.052145 0.186288
v -0.017686 1.052382 0.186122
v -0.059647 1.049937 0.183869
v -0.059158 1.049465 0.181829
v -0.067242 1.051602 0.220098
v -0.076762 1.060209 0.263481
v 0.027763 1.059941 0.223842
v -0.072100 1.061182 0.240437
v -0.076860 1.065486 0.262128
v 0.025265 1.050614 0.206831
v 0.026022 1.050695 0.206789
v 0.025918 1.056340 0.205341
v 0.025157 1.056443 0.205336
v -0.062435 1.053628 0.200651
v -0.063248 1.053471 0.200567
v 0.035769 1.071632 0.307004
v -0.024787 1.071663 0.307487
v -0.084852 1.067750 0.300544
v 0.024124 1.047095 0.187402
v -0.058991 1.044419 0.182950
v -0.017569 1.046867 0.187263
v 0.035678 1.076559 0.305740
v -0.024885 1.076940 0.306134
v -0.084943 1.072677 0.299280
v 0.024033 1.052022 0.186139
v -0.059082 1.049346 0.181687
v -0.017667 1.052144 0.185910
v -0.063353 1.053279 0.200600
f 183 184 221
f 221 173 19
f 19 197 56
f 56 174 183
f 183 221 19
f 19 56 183
f 175 215 149
f 47 33 183
f 174 175 149
f 47 183 174
f 174 149 47
f 88 91 120
f 120 205 157
f 157 158 88
f 120 157 88
f 122 43 45
f 122 45 123
f 2 1 206
f 206 99 98
f 101 63 64
f 206 98 101
f 4 2 206
f 101 64 4
f 206 101 4
f 141 72 67
f 67 66 131
f 67 131 141
f 145 36 185
f 145 185 217
f 4 64 75
f 75 73 14
f 75 14 4
f 90 83 21
f 23 27 90
f 21 23 90
f 117 120 91
f 117 91 87
f 80 20 30
f 30 29 92
f 30 92 80
f 52 50 165
f 165 166 37
f 37 51 52
f 165 37 52
f 145 144 35
f 145 35 36
f 165 152 83
f 83 90 86
f 83 86 165
f 84 22 21
f 84 21 83
f 186 37 166
f 166 220 187
f 166 187 186
f 170 49 48
f 170 48 169
f 74 15 14
f 74 14 73
f 151 150 60
f 60 62 61
f 60 61 151
f 129 60 48
f 48 146 128
f 48 128 129
f 41 32 148
f 41 148 137
f 126 124 179
f 126 179 188
f 188 53 140
f 140 216 189
f 140 189 188
f 139 39 35
f 139 35 144
f 193 134 68
f 193 68 8
f 61 181 190
f 191 218 151
f 151 61 190
f 190 191 151
f 177 51 37
f 177 37 186
f 133 192 57
f 133 57 97
f 86 90 27
f 27 25 24
f 24 210 118
f 118 116 117
f 117 87 85
f 85 86 27
f 27 24 118
f 117 85 27
f 27 118 117
f 181 182 212
f 212 133 97
f 97 96 181
f 212 97 181
f 202 201 109
f 109 105 108
f 109 108 202
f 162 27 23
f 23 21 167
f 23 167 162
f 135 202 108
f 135 108 69
f 154 203 115
f 115 112 114
f 114 82 78
f 78 154 115
f 115 114 78
f 169 150 77
f 77 80 92
f 77 92 169
f 12 10 109
f 109 201 194
f 194 195 12
f 109 194 12
f 208 115 203
f 203 196 17
f 203 17 208
f 29 30 20
f 20 171 160
f 20 160 29
f 152 165 50
f 152 50 58
f 66 67 72
f 72 13 7
f 72 7 66
f 177 186 44
f 177 44 54
f 150 169 48
f 150 48 60
f 95 196 203
f 203 154 155
f 203 155 95
f 121 211 224
f 224 204 119
f 121 224 119
f 93 31 198
f 93 198 156
f 11 13 72
f 72 70 107
f 107 104 106
f 106 9 11
f 11 72 107
f 107 106 11
f 96 94 190
f 96 190 181
f 111 79 82
f 111 82 114
f 16 209 208
f 16 208 17
f 84 156 198
f 84 198 22
f 96 97 57
f 57 56 197
f 197 196 95
f 95 94 96
f 96 57 197
f 197 95 96
f 34 33 47
f 47 149 148
f 148 32 34
f 47 148 34
f 42 41 137
f 42 137 138
f 59 176 219
f 59 219 153
f 193 15 74
f 193 74 134
f 1 2 5
f 1 5 3
f 2 148 149
f 2 149 5
f 5 149 215
f 5 215 192
f 11 139 144
f 144 7 13
f 144 13 11
f 7 144 145
f 7 145 8
f 8 145 217
f 8 217 193
f 9 10 12
f 9 12 11
f 11 12 140
f 11 140 139
f 12 195 216
f 12 216 140
f 6 207 206
f 206 1 3
f 6 206 3
f 14 15 138
f 14 138 137
f 26 211 210
f 26 210 24
f 15 193 217
f 15 217 138
f 14 137 148
f 148 2 4
f 148 4 14
f 16 17 19
f 16 19 18
f 18 19 173
f 18 173 172
f 17 196 197
f 17 197 19
f 18 172 171
f 18 171 20
f 92 29 31
f 92 31 93
f 21 22 168
f 21 168 167
f 124 125 200
f 200 222 180
f 180 179 124
f 200 180 124
f 22 198 223
f 22 223 168
f 25 27 162
f 25 162 163
f 24 25 28
f 24 28 26
f 26 28 200
f 26 200 199
f 25 163 164
f 25 164 28
f 28 164 222
f 28 222 200
f 29 160 161
f 29 161 31
f 31 161 223
f 31 223 198
f 33 34 184
f 33 184 183
f 32 172 173
f 32 173 34
f 34 173 221
f 34 221 184
f 170 219 176
f 170 176 49
f 59 153 152
f 59 152 58
f 163 162 167
f 167 35 39
f 167 39 163
f 35 167 168
f 35 168 36
f 36 168 223
f 36 223 185
f 39 40 164
f 39 164 163
f 38 179 180
f 38 180 40
f 40 180 222
f 40 222 164
f 41 42 161
f 41 161 160
f 42 185 223
f 42 223 161
f 41 160 171
f 171 172 32
f 171 32 41
f 43 44 46
f 43 46 45
f 45 46 159
f 45 159 158
f 44 186 187
f 44 187 46
f 46 187 220
f 46 220 159
f 7 8 68
f 7 68 66
f 39 139 140
f 140 53 38
f 38 40 39
f 140 38 39
f 48 49 147
f 48 147 146
f 49 176 213
f 49 213 147
f 42 138 217
f 42 217 185
f 50 52 143
f 50 143 142
f 51 177 178
f 51 178 52
f 52 178 214
f 52 214 143
f 54 55 178
f 54 178 177
f 136 55 127
f 127 195 194
f 201 202 135
f 127 194 201
f 135 136 127
f 127 201 135
f 55 136 214
f 55 214 178
f 56 57 175
f 56 175 174
f 57 192 215
f 57 215 175
f 58 131 132
f 58 132 59
f 59 132 213
f 59 213 176
f 61 62 182
f 61 182 181
f 60 129 130
f 60 130 62
f 62 130 212
f 62 212 182
f 63 129 128
f 63 128 64
f 63 65 130
f 63 130 129
f 65 133 212
f 65 212 130
f 66 68 132
f 66 132 131
f 68 134 213
f 68 213 132
f 69 71 136
f 69 136 135
f 70 142 143
f 70 143 71
f 71 143 214
f 71 214 136
f 70 72 141
f 70 141 142
f 73 146 147
f 73 147 74
f 74 147 213
f 74 213 134
f 76 77 81
f 76 81 78
f 78 81 155
f 78 155 154
f 77 150 151
f 77 151 81
f 81 151 218
f 81 218 155
f 76 78 82
f 76 82 79
f 83 152 153
f 83 153 84
f 84 153 219
f 84 219 156
f 85 88 89
f 85 89 86
f 86 89 166
f 86 166 165
f 88 158 159
f 88 159 89
f 89 159 220
f 89 220 166
f 85 87 91
f 85 91 88
f 92 93 170
f 92 170 169
f 93 156 219
f 93 219 170
f 94 95 191
f 94 191 190
f 95 155 218
f 95 218 191
f 98 99 102
f 98 102 100
f 99 206 207
f 99 207 102
f 98 100 103
f 98 103 101
f 63 101 103
f 63 103 65
f 104 107 108
f 104 108 105
f 69 108 107
f 107 70 71
f 69 107 71
f 104 105 109
f 104 109 106
f 110 111 114
f 110 114 112
f 110 112 115
f 110 115 113
f 113 115 208
f 113 208 209
f 116 119 120
f 116 120 117
f 119 204 205
f 119 205 120
f 116 118 121
f 116 121 119
f 118 210 211
f 118 211 121
f 122 123 125
f 122 125 124
f 123 199 200
f 123 200 125
f 55 54 122
f 122 124 126
f 126 127 55
f 122 126 55
f 126 188 189
f 126 189 127
f 127 189 216
f 127 216 195
f 123 45 158
f 158 157 205
f 205 204 224
f 224 199 123
f 123 158 205
f 205 224 123
f 54 44 43
f 54 43 122
f 224 211 26
f 224 26 199
f 131 58 50
f 50 142 141
f 50 141 131
f 75 64 128
f 128 146 73
f 75 128 73
f 9 106 109
f 9 109 10
f 110 113 209
f 209 16 18
f 18 20 80
f 80 77 76
f 76 79 111
f 111 110 209
f 209 18 80
f 80 76 111
f 209 80 111
f 38 53 188
f 38 188 179
f 5 192 133
f 133 65 103
f 133 103 100
f 3 5 133
f 207 6 3
f 133 100 102
f 102 207 3
f 133 102 3
