# Derived from blenderjunky Stargate DHD (BlendSwap 75540 / 13419).
# Source notice: supplied-dhd-LICENSE.html; Fan Art, noncommercial use only.
o supplied-dhd-keys-2
v -0.074241 0.768873 -0.273342
v -0.073658 0.770576 -0.272084
v -0.074943 0.769005 -0.273288
v -0.071690 0.770350 -0.272414
v -0.074357 0.770685 -0.272040
v -0.076521 0.764532 -0.276867
v -0.013400 0.765908 -0.279806
v -0.023058 0.766242 -0.279252
v 0.007641 0.763777 -0.281822
v 0.008410 0.763821 -0.281916
v 0.007539 0.765523 -0.280493
v 0.008664 0.759235 -0.285683
v 0.008295 0.765544 -0.280596
v 0.005486 0.765545 -0.280411
v -0.053135 0.768385 -0.275685
v -0.043558 0.767519 -0.277126
v -0.074445 0.772892 -0.277734
v -0.075141 0.772900 -0.277544
v -0.073856 0.774471 -0.276340
v -0.074549 0.774466 -0.276171
v -0.071890 0.774283 -0.276711
v -0.013600 0.769842 -0.284104
v -0.023257 0.770175 -0.283549
v -0.005195 0.769647 -0.284427
v 0.007436 0.767797 -0.286214
v 0.007341 0.769418 -0.284749
v 0.008212 0.767717 -0.286171
v 0.005286 0.769479 -0.284708
v 0.008103 0.769325 -0.284727
v -0.053335 0.772318 -0.279982
v -0.061632 0.773164 -0.278575
v -0.043758 0.771452 -0.281423
v -0.073711 0.774448 -0.275730
v -0.074388 0.774245 -0.275301
v -0.074417 0.774445 -0.275621
v -0.013576 0.769827 -0.283458
v -0.023213 0.770160 -0.282904
v 0.013079 0.674346 -0.362429
v 0.008103 0.769115 -0.283839
v 0.007323 0.769405 -0.284122
v 0.008085 0.769314 -0.284160
v -0.053228 0.772298 -0.279345
v -0.043671 0.771435 -0.280782
v 0.013227 0.676342 -0.360787
v 0.013281 0.674657 -0.362173
v 0.013169 0.676620 -0.361078
v 0.013226 0.674934 -0.362429
v -0.106908 0.681809 -0.350009
v -0.074256 0.771262 -0.272144
v -0.076005 0.675409 -0.352477
v -0.062111 0.674111 -0.354638
v 0.012113 0.671404 -0.359180
v 0.013215 0.671670 -0.359505
v 0.013206 0.671471 -0.359183
v 0.008239 0.766438 -0.280914
v 0.013417 0.671980 -0.359249
v 0.013388 0.671751 -0.358952
v -0.074453 0.771269 -0.272611
v -0.074437 0.770991 -0.272355
v -0.018318 0.671813 -0.358462
v -0.032348 0.672255 -0.357726
v -0.105754 0.678740 -0.346972
v -0.106772 0.679133 -0.347084
v -0.106731 0.678931 -0.346767
v -0.105618 0.678713 -0.346365
v -0.102777 0.678361 -0.346891
v -0.106607 0.678906 -0.346219
v -0.018290 0.671794 -0.357821
v -0.006091 0.671562 -0.358206
v -0.032302 0.672235 -0.357086
v 0.013121 0.673059 -0.357181
v 0.012102 0.671386 -0.358558
v 0.013195 0.671454 -0.358621
v 0.009123 0.671393 -0.358488
v -0.075903 0.675385 -0.351843
v -0.062027 0.674089 -0.354002
v -0.087921 0.676663 -0.349718
v -0.105244 0.684309 -0.349364
v -0.105817 0.682608 -0.350620
v -0.106233 0.684366 -0.349102
v -0.103689 0.688788 -0.345781
v -0.102977 0.682294 -0.351188
v -0.106799 0.682687 -0.350350
v -0.104667 0.688836 -0.345525
v -0.018490 0.675727 -0.362118
v -0.032502 0.676168 -0.361383
v 0.011816 0.677023 -0.361489
v 0.011904 0.675281 -0.362814
v 0.011590 0.681614 -0.357721
v 0.012923 0.676954 -0.361436
v 0.013002 0.675236 -0.362752
v 0.008923 0.675326 -0.362786
v 0.012684 0.681537 -0.357672
v -0.076103 0.679318 -0.356141
v -0.062227 0.678022 -0.358299
v -0.106893 0.682125 -0.349744
v -0.106878 0.682399 -0.350005
v -0.106757 0.679448 -0.346819
v -0.106717 0.679216 -0.346528
v -0.089649 0.724556 -0.309137
v -0.083753 0.741537 -0.295406
v -0.090500 0.724715 -0.309049
v -0.095543 0.707576 -0.322868
v -0.084547 0.741689 -0.295330
v -0.096451 0.707742 -0.322767
v 0.009841 0.718365 -0.319441
v 0.010779 0.718416 -0.319532
v 0.009009 0.735764 -0.305013
v 0.010671 0.700966 -0.333869
v 0.011673 0.701018 -0.333959
v 0.009884 0.735816 -0.305104
v -0.089855 0.728617 -0.313574
v -0.095749 0.711637 -0.327305
v -0.090699 0.728648 -0.313346
v -0.083960 0.745598 -0.299843
v -0.096651 0.711675 -0.327065
v -0.084747 0.745622 -0.299627
v 0.009634 0.722426 -0.323878
v 0.010464 0.705027 -0.338306
v 0.008803 0.739825 -0.309450
v 0.010579 0.722350 -0.323829
v 0.011473 0.704951 -0.338256
v 0.009684 0.739749 -0.309401
v 0.008432 0.767117 -0.285512
v 0.008389 0.767383 -0.285813
v 0.008299 0.768794 -0.284108
v 0.008262 0.769024 -0.284404
v 0.008435 0.766118 -0.281184
v 0.008424 0.765841 -0.280926
v -0.102858 0.678293 -0.347190
v -0.105698 0.678647 -0.346654
v -0.106675 0.678847 -0.346481
v -0.018303 0.671720 -0.358129
v -0.032326 0.672162 -0.357393
v -0.106666 0.679041 -0.346319
v -0.047193 0.672972 -0.355860
v 0.013257 0.673186 -0.357316
v 0.013317 0.671581 -0.358734
v -0.053086 0.768715 -0.275661
v -0.043521 0.767850 -0.277099
v 0.007509 0.765847 -0.280464
v 0.008261 0.765836 -0.280570
v 0.009132 0.671319 -0.358797
v 0.012110 0.671315 -0.358857
v 0.013194 0.671391 -0.358891
v -0.013402 0.766241 -0.279776
v -0.023047 0.766574 -0.279223
v -0.075962 0.675315 -0.352146
v -0.062075 0.674017 -0.354306
v -0.073583 0.770893 -0.272065
v -0.074286 0.770970 -0.272025
v -0.105883 0.682293 -0.350638
v -0.106856 0.682403 -0.350366
v -0.018490 0.675397 -0.362145
v -0.032513 0.675839 -0.361410
v -0.106290 0.684252 -0.348950
v -0.106846 0.682597 -0.350203
v -0.047393 0.676905 -0.360157
v 0.012837 0.681407 -0.357535
v 0.013072 0.676832 -0.361300
v 0.013136 0.675137 -0.362618
v -0.053273 0.772391 -0.279677
v -0.043708 0.771527 -0.281116
v 0.005272 0.769556 -0.284397
v 0.007323 0.769493 -0.284447
v 0.008080 0.769392 -0.284454
v 0.011925 0.674961 -0.362840
v 0.013013 0.674947 -0.362775
v -0.013589 0.769918 -0.283793
v -0.023234 0.770251 -0.283240
v -0.076149 0.678991 -0.356163
v -0.062262 0.677694 -0.358323
v -0.071803 0.774354 -0.276410
v -0.073768 0.774539 -0.276049
v -0.074467 0.774526 -0.275909
v -0.074345 0.771462 -0.272466
v -0.074341 0.771178 -0.272239
v -0.047258 0.672993 -0.356499
v 0.013348 0.671790 -0.359414
v 0.013325 0.671593 -0.359115
v 0.008216 0.768990 -0.283936
v 0.008188 0.769187 -0.284235
v -0.106792 0.679258 -0.346984
v -0.106749 0.679058 -0.346691
v -0.074481 0.774131 -0.275381
v -0.074501 0.774328 -0.275679
v -0.033459 0.770679 -0.282040
v 0.013213 0.674458 -0.362329
v 0.013165 0.674742 -0.362556
v 0.008352 0.766322 -0.281021
v 0.008348 0.766038 -0.280794
v -0.106928 0.681927 -0.349900
v -0.106910 0.682207 -0.350132
v -0.074410 0.770787 -0.272169
v -0.033324 0.766762 -0.278386
v 0.008763 0.759361 -0.285826
v 0.008381 0.765640 -0.280735
v -0.075182 0.772777 -0.277403
v -0.074591 0.774342 -0.276053
v -0.033524 0.770695 -0.282683
v 0.008319 0.767587 -0.286041
v 0.008200 0.769195 -0.284619
v 0.009995 0.735942 -0.305247
v 0.011801 0.701144 -0.334102
v -0.090750 0.728527 -0.313195
v 0.010711 0.722220 -0.323692
v 0.011614 0.704821 -0.338119
v -0.078818 0.755741 -0.283920
v -0.079564 0.755886 -0.283854
v 0.009131 0.750370 -0.293034
v 0.008310 0.750319 -0.292944
v -0.079764 0.759820 -0.288151
v -0.079025 0.759802 -0.288358
v 0.008104 0.754380 -0.297381
v 0.008931 0.754304 -0.297331
v -0.106701 0.678970 -0.346494
v -0.047229 0.672900 -0.356166
v 0.013284 0.671509 -0.358911
v -0.074344 0.770978 -0.272132
v 0.008332 0.765838 -0.280687
v -0.033301 0.767094 -0.278357
v -0.106875 0.682403 -0.350245
v -0.047416 0.676576 -0.360182
v 0.013109 0.674942 -0.362662
v -0.074519 0.774411 -0.275883
v 0.008158 0.769270 -0.284438
v -0.033488 0.770771 -0.282374
v 0.009048 0.754174 -0.297194
f 17 213 212
f 17 212 18
f 98 96 192
f 98 192 183
f 124 44 46
f 124 46 125
f 6 209 208
f 208 1 3
f 6 208 3
f 193 222 153
f 153 48 192
f 193 153 192
f 185 186 225
f 225 175 20
f 20 199 58
f 58 176 185
f 185 225 20
f 20 58 185
f 90 93 122
f 122 207 159
f 159 160 90
f 122 159 90
f 95 32 200
f 95 200 158
f 181 190 128
f 181 128 126
f 123 215 228
f 228 206 121
f 123 228 121
f 183 184 216
f 216 135 99
f 99 98 183
f 216 99 183
f 92 85 22
f 24 28 92
f 22 24 92
f 86 23 22
f 86 22 85
f 172 223 178
f 172 178 51
f 64 63 48
f 48 153 152
f 152 62 64
f 48 152 64
f 125 46 160
f 160 159 207
f 207 206 228
f 228 201 125
f 125 160 207
f 207 228 125
f 179 53 38
f 179 38 188
f 112 115 213
f 213 17 19
f 19 21 82
f 82 79 78
f 78 81 113
f 113 112 213
f 213 19 82
f 82 78 113
f 213 82 113
f 77 66 130
f 130 148 75
f 77 130 75
f 1 2 5
f 1 5 3
f 2 150 151
f 2 151 5
f 5 151 219
f 5 219 194
f 11 141 146
f 146 7 14
f 146 14 11
f 7 146 147
f 7 147 8
f 8 147 221
f 8 221 195
f 9 10 13
f 9 13 11
f 11 13 142
f 11 142 141
f 13 197 220
f 13 220 142
f 15 16 140
f 15 140 139
f 16 195 221
f 16 221 140
f 15 139 150
f 150 2 4
f 150 4 15
f 17 18 20
f 17 20 19
f 19 20 175
f 19 175 174
f 18 198 199
f 18 199 20
f 19 174 173
f 19 173 21
f 22 23 170
f 22 170 169
f 23 200 227
f 23 227 170
f 26 28 164
f 26 164 165
f 25 26 29
f 25 29 27
f 27 29 202
f 27 202 201
f 26 165 166
f 26 166 29
f 29 166 226
f 29 226 202
f 30 162 163
f 30 163 32
f 32 163 227
f 32 227 200
f 34 35 186
f 34 186 185
f 33 174 175
f 33 175 35
f 35 175 225
f 35 225 186
f 50 171 172
f 50 172 51
f 178 223 155
f 178 155 61
f 165 164 169
f 169 36 40
f 169 40 165
f 36 169 170
f 36 170 37
f 37 170 227
f 37 227 187
f 142 55 39
f 39 41 40
f 40 141 142
f 39 40 142
f 40 41 166
f 40 166 165
f 39 181 182
f 39 182 41
f 41 182 226
f 41 226 166
f 42 43 163
f 42 163 162
f 43 187 227
f 43 227 163
f 42 162 173
f 173 174 33
f 173 33 42
f 44 45 47
f 44 47 46
f 46 47 161
f 46 161 160
f 45 188 189
f 45 189 47
f 47 189 224
f 47 224 161
f 5 194 135
f 135 67 105
f 135 105 102
f 3 5 135
f 209 6 3
f 135 102 104
f 104 209 3
f 135 104 3
f 50 51 149
f 50 149 148
f 51 178 217
f 51 217 149
f 140 43 42
f 140 42 139
f 52 54 145
f 52 145 144
f 53 179 180
f 53 180 54
f 54 180 218
f 54 218 145
f 56 57 180
f 56 180 179
f 138 57 129
f 129 197 196
f 203 204 137
f 129 196 203
f 137 138 129
f 129 203 137
f 57 138 218
f 57 218 180
f 58 59 177
f 58 177 176
f 59 194 219
f 59 219 177
f 60 133 134
f 60 134 61
f 61 134 217
f 61 217 178
f 63 64 184
f 63 184 183
f 62 131 132
f 62 132 64
f 64 132 216
f 64 216 184
f 65 131 130
f 65 130 66
f 65 67 132
f 65 132 131
f 67 135 216
f 67 216 132
f 68 70 134
f 68 134 133
f 70 136 217
f 70 217 134
f 71 73 138
f 71 138 137
f 72 144 145
f 72 145 73
f 73 145 218
f 73 218 138
f 72 74 143
f 72 143 144
f 8 195 136
f 8 136 70
f 75 148 149
f 75 149 76
f 76 149 217
f 76 217 136
f 78 79 83
f 78 83 80
f 80 83 157
f 80 157 156
f 79 152 153
f 79 153 83
f 83 153 222
f 83 222 157
f 78 80 84
f 78 84 81
f 85 154 155
f 85 155 86
f 86 155 223
f 86 223 158
f 87 90 91
f 87 91 88
f 88 91 168
f 88 168 167
f 90 160 161
f 90 161 91
f 91 161 224
f 91 224 168
f 87 89 93
f 87 93 90
f 94 95 172
f 94 172 171
f 95 158 223
f 95 223 172
f 96 97 193
f 96 193 192
f 97 157 222
f 97 222 193
f 100 101 104
f 100 104 102
f 101 208 209
f 101 209 104
f 100 102 105
f 100 105 103
f 65 103 105
f 65 105 67
f 106 109 110
f 106 110 107
f 71 110 109
f 109 72 73
f 71 109 73
f 106 107 111
f 106 111 108
f 108 111 210
f 108 210 211
f 112 113 116
f 112 116 114
f 112 114 117
f 112 117 115
f 115 117 212
f 115 212 213
f 118 121 122
f 118 122 119
f 121 206 207
f 121 207 122
f 118 120 123
f 118 123 121
f 120 214 215
f 120 215 123
f 124 125 127
f 124 127 126
f 125 201 202
f 125 202 127
f 57 56 124
f 124 126 128
f 128 129 57
f 124 128 57
f 128 190 191
f 128 191 129
f 129 191 220
f 129 220 197
f 137 204 110
f 137 110 71
f 205 198 18
f 18 212 117
f 117 114 205
f 18 117 205
f 190 55 142
f 142 220 191
f 142 191 190
f 113 81 84
f 113 84 116
f 119 122 93
f 119 93 89
f 75 15 4
f 4 66 77
f 4 77 75
f 188 38 168
f 168 224 189
f 168 189 188
f 27 215 214
f 27 214 25
f 61 155 154
f 61 154 60
f 80 156 205
f 205 114 116
f 116 84 80
f 205 116 80
f 82 21 31
f 31 30 94
f 31 94 82
f 167 52 60
f 167 60 154
f 98 99 59
f 59 58 199
f 199 198 97
f 97 96 98
f 98 59 199
f 199 97 98
f 88 92 28
f 28 26 25
f 25 214 120
f 120 118 119
f 119 89 87
f 87 88 28
f 28 25 120
f 119 87 28
f 28 120 119
f 228 215 27
f 228 27 201
f 147 37 187
f 147 187 221
f 143 74 69
f 69 68 133
f 69 133 143
f 200 23 86
f 200 86 158
f 55 190 181
f 55 181 39
f 2 1 208
f 208 101 100
f 103 65 66
f 208 100 103
f 4 2 208
f 103 66 4
f 208 103 4
f 10 12 210
f 210 111 203
f 196 197 13
f 210 203 196
f 13 10 210
f 210 196 13
f 131 62 50
f 50 148 130
f 50 130 131
f 146 36 37
f 146 37 147
f 52 167 168
f 168 38 53
f 53 54 52
f 168 53 52
f 195 16 76
f 195 76 136
f 151 150 33
f 33 35 34
f 49 151 33
f 33 34 49
f 10 9 211
f 211 210 12
f 211 12 10
f 94 30 32
f 94 32 95
f 42 33 150
f 42 150 139
f 40 36 146
f 40 146 141
f 221 187 43
f 221 43 140
f 11 14 74
f 74 72 109
f 109 106 108
f 108 211 9
f 9 11 74
f 74 109 108
f 74 108 9
f 171 152 79
f 79 82 94
f 79 94 171
f 56 45 44
f 56 44 124
f 63 183 192
f 63 192 48
f 99 135 194
f 99 194 59
f 7 8 70
f 7 70 68
f 76 16 15
f 76 15 75
f 97 198 205
f 205 156 157
f 205 157 97
f 204 203 111
f 107 110 204
f 111 107 204
f 126 127 202
f 202 226 182
f 182 181 126
f 202 182 126
f 30 31 21
f 21 173 162
f 21 162 30
f 167 154 85
f 85 92 88
f 85 88 167
f 62 152 171
f 62 171 50
f 179 188 45
f 179 45 56
f 133 60 52
f 52 144 143
f 52 143 133
f 68 69 74
f 74 14 7
f 74 7 68
f 177 219 151
f 49 34 185
f 176 177 151
f 49 185 176
f 176 151 49
f 164 28 24
f 24 22 169
f 24 169 164
