# Derived from blenderjunky Stargate DHD (BlendSwap 75540 / 13419).
# Source notice: supplied-dhd-LICENSE.html; Fan Art, noncommercial use only.
o supplied-dhd-keys-1
v 0.270050 0.878599 -0.090726
v 0.268054 0.879516 -0.090777
v 0.269990 0.878308 -0.091378
v 0.268298 0.880522 -0.089057
v 0.268016 0.879214 -0.091418
v 0.275469 0.876008 -0.091340
v 0.272328 0.910799 -0.038668
v 0.272440 0.905815 -0.046963
v 0.273496 0.921041 -0.020091
v 0.273494 0.921512 -0.019475
v 0.271472 0.921603 -0.020733
v 0.279048 0.920161 -0.017856
v 0.271490 0.922055 -0.020119
v 0.271552 0.920525 -0.022482
v 0.270649 0.890203 -0.072945
v 0.271573 0.895188 -0.064649
v 0.271755 0.883455 -0.093727
v 0.271642 0.883013 -0.094286
v 0.269706 0.884221 -0.093685
v 0.269620 0.883781 -0.094240
v 0.269966 0.885273 -0.091993
v 0.273997 0.915551 -0.041603
v 0.274109 0.910566 -0.049899
v 0.273715 0.919881 -0.034396
v 0.275201 0.925897 -0.023092
v 0.273124 0.926308 -0.023641
v 0.275146 0.926217 -0.022382
v 0.273220 0.925276 -0.025417
v 0.273094 0.926622 -0.022941
v 0.272317 0.894954 -0.075881
v 0.271330 0.890628 -0.083081
v 0.273242 0.899940 -0.067584
v 0.269186 0.883989 -0.093424
v 0.268976 0.883292 -0.093816
v 0.269149 0.883572 -0.094003
v 0.273450 0.915245 -0.041442
v 0.273562 0.910271 -0.049720
v 0.387870 0.898358 0.010389
v 0.272443 0.926049 -0.022656
v 0.272597 0.925991 -0.023520
v 0.272617 0.926335 -0.022833
v 0.271774 0.894692 -0.075648
v 0.272697 0.899667 -0.067369
v 0.385431 0.899077 0.009906
v 0.387476 0.898562 0.010467
v 0.385542 0.899385 0.009664
v 0.387557 0.898853 0.010235
v 0.267800 0.879727 -0.091627
v 0.385801 0.848639 -0.064175
v 0.387225 0.855874 -0.052133
v 0.386681 0.894215 0.011639
v 0.386735 0.895125 0.012387
v 0.386563 0.894825 0.012540
v 0.271308 0.922816 -0.020658
v 0.386341 0.895328 0.012465
v 0.386207 0.895009 0.012610
v 0.268211 0.879853 -0.091896
v 0.268134 0.879541 -0.091698
v 0.388242 0.878540 -0.014411
v 0.388485 0.871302 -0.026458
v 0.381717 0.833121 -0.090039
v 0.381691 0.832932 -0.091119
v 0.381520 0.832659 -0.090922
v 0.381201 0.832882 -0.089784
v 0.381609 0.834340 -0.087298
v 0.381055 0.832443 -0.090691
v 0.387701 0.878235 -0.014244
v 0.387193 0.884517 -0.003790
v 0.387944 0.871006 -0.026276
v 0.384043 0.894962 0.012127
v 0.386159 0.893900 0.011768
v 0.386092 0.894540 0.012655
v 0.386330 0.892342 0.009233
v 0.385263 0.848372 -0.063945
v 0.386686 0.855599 -0.051918
v 0.383732 0.842102 -0.074381
v 0.380861 0.838497 -0.092751
v 0.382853 0.837587 -0.092691
v 0.380686 0.837905 -0.093569
v 0.375378 0.840789 -0.092810
v 0.383277 0.839091 -0.090234
v 0.382659 0.837011 -0.093513
v 0.375211 0.840198 -0.093616
v 0.389369 0.882986 -0.017180
v 0.389612 0.875757 -0.029212
v 0.385791 0.899173 0.008231
v 0.387811 0.898605 0.008860
v 0.380233 0.900541 0.006634
v 0.385695 0.899667 0.009220
v 0.387696 0.899107 0.009833
v 0.387998 0.897093 0.006297
v 0.380144 0.901025 0.007616
v 0.386931 0.853123 -0.066881
v 0.388354 0.860350 -0.054854
v 0.382436 0.836273 -0.093199
v 0.382518 0.836600 -0.093372
v 0.381301 0.833039 -0.091201
v 0.381168 0.832755 -0.090996
v 0.324599 0.856089 -0.090230
v 0.303685 0.864702 -0.090424
v 0.324509 0.855724 -0.091014
v 0.345513 0.847476 -0.090034
v 0.303604 0.864367 -0.091159
v 0.345413 0.847081 -0.090869
v 0.328788 0.907657 -0.004406
v 0.328766 0.908219 -0.003647
v 0.307590 0.912784 -0.010403
v 0.349986 0.902530 0.001590
v 0.349958 0.903125 0.002403
v 0.307573 0.913313 -0.009699
v 0.326322 0.860995 -0.093261
v 0.347236 0.852382 -0.093066
v 0.326177 0.860475 -0.093950
v 0.305407 0.869608 -0.093455
v 0.347081 0.851832 -0.093805
v 0.305272 0.869118 -0.094095
v 0.330511 0.912563 -0.007437
v 0.351708 0.907436 -0.001441
v 0.309313 0.917690 -0.013434
v 0.330434 0.912970 -0.006583
v 0.351626 0.907876 -0.000533
v 0.309241 0.918064 -0.012634
v 0.274873 0.925588 -0.021771
v 0.274997 0.925900 -0.021997
v 0.272822 0.926049 -0.022392
v 0.272960 0.926335 -0.022595
v 0.271687 0.922816 -0.020394
v 0.271610 0.922490 -0.020219
v 0.381905 0.834393 -0.087396
v 0.381488 0.832932 -0.089880
v 0.381314 0.832491 -0.090775
v 0.388003 0.878323 -0.014284
v 0.388246 0.871088 -0.026326
v 0.381076 0.832557 -0.090826
v 0.387685 0.863303 -0.039097
v 0.384083 0.895187 0.012156
v 0.386114 0.894747 0.012676
v 0.270454 0.890453 -0.073055
v 0.271378 0.895431 -0.064769
v 0.271284 0.921804 -0.020907
v 0.271320 0.922233 -0.020282
v 0.386630 0.892441 0.009212
v 0.386450 0.893996 0.011746
v 0.386355 0.894623 0.012628
v 0.272132 0.911022 -0.038822
v 0.272244 0.906044 -0.047107
v 0.385563 0.848436 -0.064025
v 0.386987 0.855668 -0.051989
v 0.267870 0.879771 -0.090861
v 0.267850 0.879447 -0.091490
v 0.383035 0.837337 -0.092602
v 0.382822 0.836786 -0.093429
v 0.389562 0.882764 -0.017029
v 0.389805 0.875529 -0.029070
v 0.380619 0.837723 -0.093532
v 0.382584 0.836852 -0.093480
v 0.389353 0.868054 -0.042033
v 0.380081 0.900945 0.007837
v 0.385629 0.899592 0.009434
v 0.387622 0.899042 0.010022
v 0.272014 0.894894 -0.075799
v 0.272937 0.899872 -0.067513
v 0.272915 0.925176 -0.025401
v 0.272830 0.926208 -0.023629
v 0.272828 0.926528 -0.022936
v 0.387997 0.898400 0.009024
v 0.387863 0.898917 0.009975
v 0.273691 0.915463 -0.041566
v 0.273803 0.910485 -0.049851
v 0.387122 0.852877 -0.066769
v 0.388546 0.860109 -0.054733
v 0.269666 0.885225 -0.091890
v 0.269416 0.884176 -0.093582
v 0.269358 0.883741 -0.094144
v 0.267979 0.879977 -0.091866
v 0.267931 0.879669 -0.091680
v 0.388225 0.863588 -0.039295
v 0.386586 0.895236 0.012462
v 0.386433 0.894941 0.012598
v 0.272582 0.926065 -0.022520
v 0.272738 0.926333 -0.022701
v 0.381543 0.832964 -0.091176
v 0.381391 0.832703 -0.090983
v 0.269111 0.883201 -0.093858
v 0.269266 0.883473 -0.094031
v 0.273359 0.904970 -0.058543
v 0.387717 0.898459 0.010470
v 0.387769 0.898745 0.010247
v 0.271450 0.922841 -0.020528
v 0.271402 0.922529 -0.020350
v 0.382674 0.836187 -0.093167
v 0.382727 0.836507 -0.093333
v 0.268077 0.879320 -0.091538
v 0.272237 0.900502 -0.055805
v 0.279098 0.920371 -0.017862
v 0.271553 0.922233 -0.020120
v 0.271588 0.882837 -0.094233
v 0.269585 0.883615 -0.094192
v 0.273905 0.905253 -0.058741
v 0.275093 0.926117 -0.022202
v 0.273061 0.926528 -0.022774
v 0.307621 0.913528 -0.009694
v 0.350005 0.903349 0.002422
v 0.326115 0.860290 -0.093904
v 0.330373 0.912880 -0.006380
v 0.351564 0.907790 -0.000322
v 0.286190 0.871909 -0.090583
v 0.286117 0.871599 -0.091276
v 0.289845 0.917572 -0.014764
v 0.289858 0.917071 -0.015422
v 0.287785 0.876350 -0.094212
v 0.287913 0.876815 -0.093615
v 0.291581 0.921977 -0.018454
v 0.291513 0.922323 -0.017700
v 0.381265 0.832572 -0.090858
v 0.387986 0.863378 -0.039157
v 0.386305 0.894763 0.012645
v 0.267943 0.879473 -0.091566
v 0.271415 0.922327 -0.020246
v 0.272041 0.900738 -0.055937
v 0.382721 0.836719 -0.093421
v 0.389546 0.867819 -0.041901
v 0.387761 0.898910 0.010083
v 0.269399 0.883620 -0.094128
v 0.272871 0.926474 -0.022808
v 0.273600 0.905179 -0.058681
v 0.291453 0.922225 -0.017510
f 176 218 150
f 48 34 184
f 175 176 150
f 48 184 175
f 175 150 48
f 134 193 58
f 134 58 98
f 180 39 54
f 180 54 189
f 171 222 177
f 171 177 50
f 79 155 204
f 204 113 115
f 115 83 79
f 204 115 79
f 124 46 159
f 159 158 206
f 206 205 227
f 227 200 124
f 124 159 206
f 206 227 124
f 30 31 21
f 21 172 161
f 21 161 30
f 59 153 166
f 59 166 51
f 89 92 121
f 121 206 158
f 158 159 89
f 121 158 89
f 141 54 39
f 39 41 40
f 40 140 141
f 39 40 141
f 60 177 222
f 60 222 154
f 132 59 51
f 51 143 142
f 51 142 132
f 122 214 227
f 227 205 120
f 122 227 120
f 27 214 213
f 27 213 25
f 97 98 58
f 58 57 198
f 198 197 96
f 96 95 97
f 97 58 198
f 198 96 97
f 11 14 73
f 73 71 108
f 108 105 107
f 107 210 9
f 9 11 73
f 73 108 107
f 73 107 9
f 227 214 27
f 227 27 200
f 178 187 45
f 178 45 55
f 142 73 68
f 68 67 132
f 68 132 142
f 203 202 110
f 106 109 203
f 110 106 203
f 204 197 18
f 18 211 116
f 116 113 204
f 18 116 204
f 49 61 151
f 49 151 170
f 94 32 199
f 94 199 157
f 170 151 78
f 78 81 93
f 78 93 170
f 75 135 194
f 75 194 16
f 184 185 224
f 224 174 20
f 20 198 57
f 57 175 184
f 184 224 20
f 20 57 184
f 73 14 7
f 7 67 68
f 7 68 73
f 118 121 92
f 118 92 88
f 5 193 134
f 134 66 104
f 134 104 101
f 3 5 134
f 208 6 3
f 134 101 103
f 103 208 3
f 134 103 3
f 130 61 49
f 49 147 129
f 49 129 130
f 4 65 76
f 76 74 15
f 76 15 4
f 166 153 84
f 84 91 87
f 84 87 166
f 187 38 167
f 167 223 188
f 167 188 187
f 48 150 149
f 149 33 35
f 35 34 48
f 48 149 35
f 63 62 152
f 152 151 61
f 152 61 63
f 52 38 187
f 52 187 178
f 87 91 28
f 28 26 25
f 25 213 119
f 119 117 118
f 118 88 86
f 86 87 28
f 28 25 119
f 118 86 28
f 28 119 118
f 189 54 141
f 141 219 190
f 141 190 189
f 76 65 129
f 129 147 74
f 76 129 74
f 8 194 135
f 8 135 69
f 10 12 209
f 209 110 202
f 195 196 13
f 209 202 195
f 13 10 209
f 209 195 13
f 93 30 32
f 93 32 94
f 10 9 210
f 210 209 12
f 210 12 10
f 17 212 211
f 17 211 18
f 62 182 191
f 192 221 152
f 152 62 191
f 191 192 152
f 81 21 31
f 31 30 93
f 31 93 81
f 55 45 44
f 55 44 123
f 85 23 22
f 85 22 84
f 91 84 22
f 24 28 91
f 22 24 91
f 199 23 85
f 199 85 157
f 44 46 124
f 44 124 123
f 6 208 207
f 207 1 3
f 6 207 3
f 111 114 212
f 212 17 19
f 19 21 81
f 81 78 77
f 77 80 112
f 112 111 212
f 212 19 81
f 81 77 112
f 212 81 112
f 146 145 36
f 146 36 37
f 97 95 191
f 97 191 182
f 171 50 49
f 171 49 170
f 53 51 166
f 166 167 38
f 38 52 53
f 166 38 53
f 146 37 186
f 146 186 220
f 127 125 180
f 127 180 189
f 2 1 207
f 207 100 99
f 102 64 65
f 207 99 102
f 4 2 207
f 102 65 4
f 207 102 4
f 96 197 204
f 204 155 156
f 204 156 96
f 182 183 215
f 215 134 98
f 98 97 182
f 215 98 182
f 1 2 5
f 1 5 3
f 2 149 150
f 2 150 5
f 5 150 218
f 5 218 193
f 11 140 145
f 145 7 14
f 145 14 11
f 7 145 146
f 7 146 8
f 8 146 220
f 8 220 194
f 9 10 13
f 9 13 11
f 11 13 141
f 11 141 140
f 13 196 219
f 13 219 141
f 15 16 139
f 15 139 138
f 16 194 220
f 16 220 139
f 15 138 149
f 149 2 4
f 149 4 15
f 17 18 20
f 17 20 19
f 19 20 174
f 19 174 173
f 18 197 198
f 18 198 20
f 19 173 172
f 19 172 21
f 22 23 169
f 22 169 168
f 23 199 226
f 23 226 169
f 163 28 24
f 24 22 168
f 24 168 163
f 26 28 163
f 26 163 164
f 25 26 29
f 25 29 27
f 27 29 201
f 27 201 200
f 26 164 165
f 26 165 29
f 29 165 225
f 29 225 201
f 30 161 162
f 30 162 32
f 32 162 226
f 32 226 199
f 34 35 185
f 34 185 184
f 33 173 174
f 33 174 35
f 35 174 224
f 35 224 185
f 7 8 69
f 7 69 67
f 59 60 154
f 59 154 153
f 164 163 168
f 168 36 40
f 168 40 164
f 36 168 169
f 36 169 37
f 37 169 226
f 37 226 186
f 42 33 149
f 42 149 138
f 40 41 165
f 40 165 164
f 39 180 181
f 39 181 41
f 41 181 225
f 41 225 165
f 125 126 201
f 201 225 181
f 181 180 125
f 201 181 125
f 42 43 162
f 42 162 161
f 43 186 226
f 43 226 162
f 42 161 172
f 172 173 33
f 172 33 42
f 44 45 47
f 44 47 46
f 46 47 160
f 46 160 159
f 45 187 188
f 45 188 47
f 47 188 223
f 47 223 160
f 140 40 36
f 140 36 145
f 49 50 148
f 49 148 147
f 50 177 216
f 50 216 148
f 43 42 138
f 43 138 139
f 43 139 220
f 43 220 186
f 51 53 144
f 51 144 143
f 52 178 179
f 52 179 53
f 53 179 217
f 53 217 144
f 55 56 179
f 55 179 178
f 137 56 128
f 128 196 195
f 202 203 136
f 128 195 202
f 136 137 128
f 128 202 136
f 56 137 217
f 56 217 179
f 57 58 176
f 57 176 175
f 58 193 218
f 58 218 176
f 59 132 133
f 59 133 60
f 60 133 216
f 60 216 177
f 62 63 183
f 62 183 182
f 61 130 131
f 61 131 63
f 63 131 215
f 63 215 183
f 64 130 129
f 64 129 65
f 64 66 131
f 64 131 130
f 66 134 215
f 66 215 131
f 67 69 133
f 67 133 132
f 69 135 216
f 69 216 133
f 70 72 137
f 70 137 136
f 71 143 144
f 71 144 72
f 72 144 217
f 72 217 137
f 71 73 142
f 71 142 143
f 74 147 148
f 74 148 75
f 75 148 216
f 75 216 135
f 77 78 82
f 77 82 79
f 79 82 156
f 79 156 155
f 78 151 152
f 78 152 82
f 82 152 221
f 82 221 156
f 77 79 83
f 77 83 80
f 84 153 154
f 84 154 85
f 85 154 222
f 85 222 157
f 86 89 90
f 86 90 87
f 87 90 167
f 87 167 166
f 89 159 160
f 89 160 90
f 90 160 223
f 90 223 167
f 86 88 92
f 86 92 89
f 93 94 171
f 93 171 170
f 94 157 222
f 94 222 171
f 95 96 192
f 95 192 191
f 96 156 221
f 96 221 192
f 99 100 103
f 99 103 101
f 100 207 208
f 100 208 103
f 99 101 104
f 99 104 102
f 64 102 104
f 64 104 66
f 105 108 109
f 105 109 106
f 70 109 108
f 108 71 72
f 70 108 72
f 105 106 110
f 105 110 107
f 107 110 209
f 107 209 210
f 111 112 115
f 111 115 113
f 111 113 116
f 111 116 114
f 114 116 211
f 114 211 212
f 117 120 121
f 117 121 118
f 120 205 206
f 120 206 121
f 117 119 122
f 117 122 120
f 119 213 214
f 119 214 122
f 123 124 126
f 123 126 125
f 124 200 201
f 124 201 126
f 56 55 123
f 123 125 127
f 127 128 56
f 123 127 56
f 127 189 190
f 127 190 128
f 128 190 219
f 128 219 196
f 136 203 109
f 136 109 70
f 75 16 15
f 75 15 74
f 112 80 83
f 112 83 115
