# Derived from blenderjunky Stargate DHD (BlendSwap 75540 / 13419).
# Source notice: supplied-dhd-LICENSE.html; Fan Art, noncommercial use only.
o supplied-dhd-keys-4
v 0.087845 1.031635 0.079098
v 0.096312 1.034585 0.097437
v 0.089098 1.031444 0.078557
v 0.079382 1.028687 0.060768
v 0.087283 1.031419 0.079407
v 0.095699 1.034381 0.097767
v 0.097688 1.034364 0.096845
v 0.080512 1.028526 0.060277
v 0.078871 1.028458 0.061056
v 0.130736 1.016932 0.054627
v 0.143497 1.018410 0.070516
v 0.131037 1.016426 0.054455
v 0.117980 1.015455 0.038747
v 0.129780 1.017492 0.055336
v 0.142443 1.019015 0.071300
v 0.143835 1.017888 0.070316
v 0.118246 1.014966 0.038602
v 0.117122 1.015971 0.039381
v 0.097579 1.012985 0.013404
v 0.100883 1.013476 0.017460
v 0.097791 1.012533 0.013304
v 0.096358 1.012520 0.012056
v 0.096876 1.013426 0.013919
v 0.100155 1.013931 0.017995
v 0.101100 1.013009 0.017352
v 0.096576 1.012099 0.011962
v 0.095660 1.012946 0.012564
v 0.074729 1.021738 0.027753
v 0.078663 1.020623 0.025897
v 0.073787 1.021155 0.026226
v 0.071233 1.022649 0.029269
v 0.077673 1.020054 0.024393
v 0.070334 1.022055 0.027724
v 0.065842 1.023865 0.031511
v 0.068039 1.024735 0.036198
v 0.066773 1.023750 0.031102
v 0.065016 1.023264 0.029938
v 0.065417 1.023626 0.031766
v 0.067595 1.024489 0.036459
v 0.069004 1.024615 0.035776
v 0.065929 1.023143 0.029533
v 0.064612 1.023052 0.030191
v 0.090172 1.016437 0.018931
v 0.093183 1.015116 0.016733
v 0.089039 1.015920 0.017513
v 0.086628 1.017889 0.021347
v 0.092013 1.014616 0.015342
v 0.085539 1.017354 0.019899
v 0.095917 1.010744 0.012415
v 0.096177 1.010495 0.012286
v 0.165175 1.017054 0.098485
v 0.165368 1.018397 0.098046
v 0.063999 1.020087 0.030865
v 0.064621 1.021473 0.030270
v 0.064256 1.021434 0.030491
v 0.096347 1.010489 0.012406
v 0.109194 1.036129 0.130037
v 0.108656 1.037326 0.127860
v 0.109455 1.037460 0.129596
v 0.109543 1.036116 0.130211
v 0.109770 1.037448 0.129753
v 0.064981 1.021898 0.032350
v 0.063959 1.020151 0.031116
v 0.064220 1.021492 0.030718
v 0.151316 1.026474 0.105479
v 0.152366 1.026315 0.107151
v 0.156446 1.024223 0.101733
v 0.145277 1.028947 0.109595
v 0.146282 1.028807 0.111297
v 0.157534 1.024048 0.103377
v 0.109874 1.039206 0.126885
v 0.110618 1.039151 0.128707
v 0.111448 1.038933 0.126215
v 0.107688 1.038549 0.122079
v 0.109184 1.039030 0.127238
v 0.109934 1.038999 0.129034
v 0.112200 1.038868 0.128042
v 0.109231 1.038287 0.121419
v 0.107008 1.038362 0.122436
v 0.125004 1.035505 0.120509
v 0.125857 1.035414 0.122294
v 0.131707 1.033605 0.117347
v 0.119048 1.037057 0.123092
v 0.119856 1.036978 0.124896
v 0.132610 1.033500 0.119108
v 0.163947 1.020670 0.096035
v 0.165088 1.020478 0.097630
v 0.164339 1.020131 0.095785
v 0.160645 1.020395 0.091865
v 0.162738 1.021343 0.096940
v 0.163873 1.021146 0.098548
v 0.165473 1.019967 0.097360
v 0.161031 1.019851 0.091629
v 0.159460 1.021060 0.092749
v 0.165278 1.018342 0.097778
v 0.156588 1.017268 0.105734
v 0.151412 1.019539 0.109513
v 0.145319 1.022034 0.113666
v 0.111186 1.032110 0.130435
v 0.109609 1.032495 0.131063
v 0.108945 1.032645 0.131274
v 0.107749 1.032389 0.129380
v 0.108584 1.032658 0.131094
v 0.164486 1.013515 0.099236
v 0.065221 1.022986 0.032001
v 0.064440 1.022473 0.030411
v 0.090669 1.007779 0.017165
v 0.087702 1.009081 0.019333
v 0.084208 1.010512 0.021714
v 0.064635 1.016290 0.031330
v 0.063741 1.016514 0.031712
v 0.063392 1.016611 0.031901
v 0.118854 1.030217 0.127285
v 0.124864 1.028651 0.124678
v 0.131627 1.026734 0.121488
v 0.069032 1.015204 0.029523
v 0.072478 1.014306 0.028028
v 0.076357 1.013207 0.026199
v 0.095514 1.005663 0.013830
v 0.162936 1.014362 0.100897
v 0.164165 1.013793 0.099937
v 0.164588 1.013578 0.099543
v 0.094310 1.006112 0.014392
v 0.095030 1.005788 0.013861
v 0.095320 1.005670 0.013693
v 0.063350 1.016677 0.032160
v 0.110583 1.038517 0.129072
v 0.109911 1.038421 0.129360
v 0.106748 1.037716 0.122700
v 0.108929 1.038403 0.127492
v 0.109697 1.038429 0.129253
v 0.164277 1.019445 0.095940
v 0.165410 1.019344 0.097491
v 0.138638 1.031403 0.113683
v 0.139593 1.031282 0.115416
v 0.064847 1.022583 0.030013
v 0.064464 1.022433 0.030257
v 0.165089 1.019831 0.097974
v 0.165471 1.019382 0.097673
v 0.096158 1.011849 0.012149
v 0.096393 1.011492 0.012048
v 0.096237 1.010400 0.012349
v 0.165338 1.018279 0.097957
v 0.063948 1.020097 0.030979
v 0.064199 1.021375 0.030615
v 0.109351 1.036113 0.130175
v 0.109586 1.037377 0.129741
v 0.096508 1.011488 0.012129
v 0.082731 1.019330 0.023747
v 0.081690 1.018778 0.022269
v 0.107565 1.013747 0.025365
v 0.107330 1.014222 0.025486
v 0.106553 1.014700 0.026059
v 0.073343 1.026090 0.045014
v 0.072316 1.026225 0.045462
v 0.071847 1.025986 0.045734
v 0.103390 1.037052 0.112769
v 0.102735 1.036858 0.113116
v 0.154535 1.019109 0.083577
v 0.154166 1.019645 0.083800
v 0.108751 1.032664 0.131231
v 0.138620 1.024513 0.117791
v 0.164572 1.013544 0.099410
v 0.063343 1.016644 0.032012
v 0.095406 1.005662 0.013735
v 0.080366 1.011933 0.024079
v 0.109735 1.038111 0.129448
v 0.165417 1.019035 0.097700
v 0.064369 1.022127 0.030415
v 0.096383 1.011159 0.012162
f 9 156 39
f 39 38 105
f 105 129 79
f 158 6 9
f 105 79 158
f 9 39 105
f 9 105 158
f 163 104 95
f 163 95 143
f 94 89 160
f 160 11 15
f 160 15 94
f 64 63 126
f 126 102 58
f 62 105 38
f 126 58 62
f 106 64 126
f 38 42 106
f 126 62 38
f 126 38 106
f 66 97 96
f 66 96 70
f 162 98 69
f 162 69 135
f 150 166 118
f 150 118 32
f 83 80 28
f 83 28 31
f 69 98 97
f 69 97 66
f 36 31 33
f 36 33 41
f 83 73 77
f 83 77 84
f 1 5 6
f 1 6 2
f 2 6 158
f 2 158 157
f 1 2 7
f 1 7 3
f 1 3 8
f 1 8 4
f 4 8 154
f 4 154 155
f 1 4 9
f 1 9 5
f 4 155 156
f 4 156 9
f 85 115 162
f 85 162 135
f 10 14 15
f 10 15 11
f 10 11 16
f 10 16 12
f 11 160 159
f 11 159 16
f 10 12 17
f 10 17 13
f 13 17 151
f 13 151 152
f 10 13 18
f 10 18 14
f 13 152 153
f 13 153 18
f 19 23 24
f 19 24 20
f 20 24 153
f 20 153 152
f 45 108 109
f 45 109 48
f 19 20 25
f 19 25 21
f 20 152 151
f 20 151 25
f 19 21 26
f 19 26 22
f 22 26 141
f 22 141 140
f 26 148 170
f 26 170 141
f 19 22 27
f 19 27 23
f 22 140 27
f 67 44 43
f 67 43 65
f 28 29 32
f 28 32 30
f 29 149 150
f 29 150 32
f 32 118 117
f 32 117 30
f 28 30 33
f 28 33 31
f 34 38 39
f 34 39 35
f 35 39 156
f 35 156 155
f 34 35 40
f 34 40 36
f 35 155 154
f 35 154 40
f 34 36 41
f 34 41 37
f 37 41 136
f 34 37 42
f 34 42 38
f 37 136 137
f 37 137 42
f 42 137 169
f 42 169 106
f 43 44 47
f 43 47 45
f 43 45 48
f 43 48 46
f 46 48 150
f 46 150 149
f 48 109 166
f 48 166 150
f 30 117 116
f 30 116 33
f 49 140 141
f 49 141 50
f 50 141 170
f 50 170 142
f 52 143 168
f 52 168 139
f 54 55 137
f 54 137 136
f 53 144 145
f 53 145 55
f 55 145 169
f 55 169 137
f 56 142 170
f 56 170 148
f 58 59 131
f 58 131 130
f 57 146 147
f 57 147 59
f 59 147 167
f 59 167 131
f 61 128 167
f 61 167 147
f 64 106 169
f 64 169 145
f 65 68 69
f 65 69 66
f 68 134 135
f 68 135 69
f 65 66 70
f 65 70 67
f 84 113 114
f 84 114 81
f 71 75 76
f 71 76 72
f 72 76 128
f 72 128 127
f 75 130 131
f 75 131 76
f 76 131 167
f 76 167 128
f 71 72 77
f 71 77 73
f 71 73 78
f 71 78 74
f 90 67 70
f 90 70 91
f 71 74 79
f 71 79 75
f 75 79 129
f 75 129 130
f 74 157 158
f 74 158 79
f 80 83 84
f 80 84 81
f 80 81 85
f 80 85 82
f 82 85 135
f 82 135 134
f 86 90 91
f 86 91 87
f 86 87 92
f 86 92 88
f 88 92 133
f 88 133 132
f 87 138 139
f 87 139 92
f 92 139 168
f 92 168 133
f 86 88 93
f 86 93 89
f 89 93 159
f 89 159 160
f 86 89 94
f 86 94 90
f 132 133 95
f 95 133 168
f 95 168 143
f 65 43 46
f 65 46 68
f 90 94 15
f 15 14 18
f 24 23 44
f 44 67 90
f 90 15 18
f 18 24 44
f 18 44 90
f 28 80 82
f 28 82 29
f 73 83 31
f 31 36 40
f 40 154 8
f 3 7 78
f 73 31 40
f 3 78 73
f 40 3 73
f 55 54 111
f 111 112 53
f 111 53 55
f 41 33 116
f 110 111 54
f 41 116 110
f 54 136 41
f 110 54 41
f 122 51 52
f 52 139 138
f 138 121 122
f 52 138 122
f 157 74 78
f 78 7 2
f 78 2 157
f 68 46 149
f 68 149 134
f 134 149 29
f 134 29 82
f 127 100 99
f 99 113 84
f 84 77 72
f 72 127 99
f 99 84 72
f 53 112 164
f 53 164 144
f 57 103 161
f 57 161 146
f 47 107 108
f 47 108 45
f 146 161 101
f 101 60 61
f 61 147 146
f 101 61 146
f 100 127 128
f 61 60 101
f 100 128 61
f 61 101 100
f 104 119 56
f 148 26 21
f 104 56 148
f 132 95 104
f 148 21 132
f 148 132 104
f 144 164 126
f 63 64 145
f 144 126 63
f 63 145 144
f 52 51 122
f 122 163 143
f 122 143 52
f 130 129 105
f 105 62 58
f 105 58 130
f 59 58 102
f 102 103 57
f 102 57 59
f 44 23 27
f 44 27 47
f 50 125 124
f 50 124 49
f 56 119 165
f 56 165 142
f 81 114 115
f 81 115 85
f 142 165 125
f 142 125 50
f 123 107 47
f 47 27 140
f 140 49 124
f 124 123 47
f 47 140 124
f 21 25 151
f 151 17 12
f 12 16 159
f 159 93 88
f 88 132 21
f 21 151 12
f 12 159 88
f 12 88 21
f 96 120 121
f 138 87 91
f 96 121 138
f 91 70 96
f 138 91 96
