# Derived from blenderjunky Stargate DHD (BlendSwap 75540 / 13419).
# Source notice: supplied-dhd-LICENSE.html; Fan Art, noncommercial use only.
o supplied-dhd-keys-5
v 0.165960 0.888265 -0.159511
v 0.182161 0.877023 -0.164791
v 0.165263 0.887753 -0.160585
v 0.149767 0.899500 -0.154235
v 0.166175 0.888248 -0.158869
v 0.182405 0.877031 -0.164108
v 0.181392 0.876452 -0.165964
v 0.149143 0.899049 -0.155209
v 0.149952 0.899459 -0.153633
v 0.132859 0.867929 -0.193355
v 0.145745 0.854651 -0.202023
v 0.132420 0.867502 -0.193396
v 0.119979 0.881200 -0.184691
v 0.133855 0.868466 -0.192684
v 0.146839 0.855234 -0.201278
v 0.145271 0.854208 -0.202092
v 0.119576 0.880790 -0.184704
v 0.120878 0.881692 -0.184095
v 0.099373 0.902322 -0.170770
v 0.102715 0.898989 -0.173078
v 0.099033 0.901944 -0.170747
v 0.098121 0.903280 -0.169750
v 0.100115 0.902740 -0.170292
v 0.103484 0.899421 -0.172583
v 0.102360 0.898601 -0.173054
v 0.097801 0.902918 -0.169747
v 0.098848 0.903689 -0.169271
v 0.118596 0.913161 -0.152949
v 0.116010 0.911270 -0.156096
v 0.117101 0.913981 -0.152142
v 0.120739 0.914851 -0.150137
v 0.114547 0.912113 -0.155250
v 0.119218 0.915649 -0.149365
v 0.123866 0.917369 -0.145727
v 0.128062 0.914561 -0.147162
v 0.123356 0.917012 -0.146539
v 0.122309 0.918140 -0.145019
v 0.124008 0.917293 -0.145201
v 0.128208 0.914487 -0.146615
v 0.127535 0.914190 -0.148003
v 0.121802 0.917784 -0.145812
v 0.122461 0.918073 -0.144524
v 0.106665 0.905840 -0.165133
v 0.103784 0.904445 -0.167456
v 0.105317 0.906750 -0.164176
v 0.109857 0.907495 -0.162380
v 0.102472 0.905372 -0.166470
v 0.108470 0.908384 -0.161456
v 0.097566 0.902076 -0.168438
v 0.097301 0.901831 -0.168562
v 0.166491 0.828890 -0.214672
v 0.166783 0.829954 -0.215576
v 0.121585 0.915964 -0.142425
v 0.121719 0.916915 -0.143743
v 0.121927 0.916966 -0.143373
v 0.097380 0.901681 -0.168681
v 0.209305 0.855540 -0.170514
v 0.208122 0.857726 -0.171044
v 0.209582 0.856561 -0.171470
v 0.209408 0.855267 -0.170773
v 0.209675 0.856314 -0.171704
v 0.123669 0.916011 -0.143875
v 0.121836 0.915907 -0.142376
v 0.122154 0.916914 -0.143329
v 0.178798 0.839202 -0.206194
v 0.180026 0.837733 -0.206702
v 0.173889 0.836824 -0.210151
v 0.184236 0.842021 -0.201502
v 0.185504 0.840573 -0.201976
v 0.175080 0.835338 -0.210689
v 0.208120 0.858907 -0.173183
v 0.209562 0.857595 -0.173454
v 0.207236 0.858237 -0.174514
v 0.203930 0.861918 -0.171884
v 0.208407 0.858963 -0.172444
v 0.209838 0.857677 -0.172736
v 0.208676 0.856911 -0.174785
v 0.203063 0.861267 -0.173192
v 0.204214 0.861959 -0.171147
v 0.199126 0.851676 -0.185434
v 0.200506 0.850300 -0.185787
v 0.194721 0.848454 -0.190796
v 0.202778 0.854554 -0.180644
v 0.204185 0.853200 -0.180961
v 0.196067 0.847054 -0.191189
v 0.166389 0.833270 -0.215850
v 0.167524 0.831769 -0.216435
v 0.165857 0.832812 -0.215966
v 0.163060 0.836811 -0.213671
v 0.167638 0.833921 -0.214983
v 0.168782 0.832412 -0.215558
v 0.166990 0.831344 -0.216562
v 0.162537 0.836345 -0.213777
v 0.164284 0.837453 -0.212824
v 0.166536 0.830092 -0.215522
v 0.173722 0.829884 -0.206126
v 0.178675 0.832283 -0.202133
v 0.184161 0.835127 -0.197400
v 0.207368 0.851489 -0.170168
v 0.208273 0.852260 -0.168898
v 0.208603 0.852602 -0.168366
v 0.206990 0.853962 -0.167571
v 0.208496 0.852884 -0.168099
v 0.165395 0.826378 -0.212213
v 0.123902 0.916826 -0.144677
v 0.122371 0.917644 -0.144053
v 0.100674 0.900343 -0.161638
v 0.103514 0.901718 -0.159349
v 0.106660 0.903349 -0.156635
v 0.119967 0.912731 -0.141020
v 0.120506 0.913160 -0.140298
v 0.120755 0.913315 -0.140012
v 0.202870 0.847773 -0.176354
v 0.199185 0.844869 -0.181187
v 0.194740 0.841618 -0.186597
v 0.117387 0.910600 -0.144567
v 0.115275 0.908935 -0.147338
v 0.112726 0.907071 -0.150440
v 0.096215 0.898005 -0.165343
v 0.167414 0.826954 -0.211002
v 0.166169 0.826394 -0.211947
v 0.165677 0.826220 -0.212274
v 0.097057 0.898663 -0.164434
v 0.096359 0.898325 -0.164987
v 0.096124 0.898176 -0.165207
v 0.121014 0.913255 -0.139962
v 0.209552 0.856986 -0.173046
v 0.209823 0.857121 -0.172373
v 0.204136 0.861507 -0.170561
v 0.208330 0.858527 -0.171872
v 0.209759 0.857289 -0.172215
v 0.165645 0.832284 -0.215549
v 0.166790 0.830873 -0.216179
v 0.189708 0.845149 -0.196297
v 0.191018 0.843724 -0.196731
v 0.122043 0.917709 -0.144527
v 0.122217 0.917679 -0.144083
v 0.167486 0.831144 -0.216055
v 0.166958 0.830779 -0.216215
v 0.097879 0.902864 -0.169234
v 0.097584 0.902541 -0.169277
v 0.097299 0.901702 -0.168554
v 0.166650 0.829929 -0.215509
v 0.121693 0.915941 -0.142365
v 0.122009 0.916893 -0.143272
v 0.209397 0.855380 -0.170615
v 0.209649 0.856364 -0.171514
v 0.097638 0.902439 -0.169358
v 0.113069 0.909330 -0.159324
v 0.111642 0.910197 -0.158439
v 0.108852 0.891885 -0.177447
v 0.109225 0.892282 -0.177457
v 0.110043 0.892736 -0.176924
v 0.135682 0.908481 -0.150720
v 0.136246 0.908882 -0.149829
v 0.136407 0.908821 -0.149262
v 0.195706 0.867625 -0.169204
v 0.195975 0.867653 -0.168488
v 0.156014 0.843093 -0.209362
v 0.156519 0.843551 -0.209270
v 0.208597 0.852737 -0.168219
v 0.189683 0.838283 -0.192147
v 0.165549 0.826269 -0.212269
v 0.120872 0.913309 -0.139966
v 0.096145 0.898106 -0.165268
v 0.109826 0.905159 -0.153623
v 0.209759 0.856949 -0.172055
v 0.166809 0.830548 -0.215995
v 0.122205 0.917434 -0.143823
v 0.097512 0.902255 -0.169085
f 31 83 80
f 31 80 28
f 47 107 108
f 47 108 45
f 100 127 128
f 61 60 101
f 100 128 61
f 61 101 100
f 81 114 115
f 81 115 85
f 82 134 149
f 82 149 29
f 134 68 46
f 134 46 149
f 69 98 97
f 69 97 66
f 53 112 164
f 53 164 144
f 32 118 117
f 32 117 30
f 122 51 52
f 52 139 138
f 138 121 122
f 52 138 122
f 163 104 95
f 163 95 143
f 123 107 47
f 47 27 140
f 140 49 124
f 124 123 47
f 47 140 124
f 146 161 101
f 101 60 61
f 61 147 146
f 101 61 146
f 52 51 122
f 122 163 143
f 122 143 52
f 144 164 126
f 63 64 145
f 144 126 63
f 63 145 144
f 67 44 43
f 67 43 65
f 36 31 33
f 36 33 41
f 83 73 77
f 83 77 84
f 130 129 105
f 105 62 58
f 105 58 130
f 104 119 56
f 148 26 21
f 104 56 148
f 132 95 104
f 148 21 132
f 148 132 104
f 59 58 102
f 102 103 57
f 102 57 59
f 30 117 116
f 30 116 33
f 55 54 111
f 111 112 53
f 111 53 55
f 64 63 126
f 126 102 58
f 62 105 38
f 126 58 62
f 106 64 126
f 38 42 106
f 126 62 38
f 126 38 106
f 162 98 69
f 162 69 135
f 88 132 21
f 21 25 151
f 17 12 16
f 21 151 17
f 93 88 21
f 17 16 159
f 159 93 21
f 21 17 159
f 157 74 78
f 78 7 2
f 78 2 157
f 94 89 160
f 160 11 15
f 160 15 94
f 45 108 109
f 45 109 48
f 85 115 162
f 85 162 135
f 1 5 6
f 1 6 2
f 2 6 158
f 2 158 157
f 1 2 7
f 1 7 3
f 1 3 8
f 1 8 4
f 4 8 154
f 4 154 155
f 1 4 9
f 1 9 5
f 4 155 156
f 4 156 9
f 10 14 15
f 10 15 11
f 10 11 16
f 10 16 12
f 11 160 159
f 11 159 16
f 10 12 17
f 10 17 13
f 13 17 151
f 13 151 152
f 10 13 18
f 10 18 14
f 13 152 153
f 13 153 18
f 19 23 24
f 19 24 20
f 20 24 153
f 20 153 152
f 19 20 25
f 19 25 21
f 20 152 151
f 20 151 25
f 19 21 26
f 19 26 22
f 22 26 141
f 22 141 140
f 26 148 170
f 26 170 141
f 19 22 27
f 19 27 23
f 22 140 27
f 28 80 82
f 28 82 29
f 46 68 65
f 46 65 43
f 28 29 32
f 28 32 30
f 29 149 150
f 29 150 32
f 28 30 33
f 28 33 31
f 34 38 39
f 34 39 35
f 35 39 156
f 35 156 155
f 34 35 40
f 34 40 36
f 35 155 154
f 35 154 40
f 34 36 41
f 34 41 37
f 37 41 136
f 34 37 42
f 34 42 38
f 37 136 137
f 37 137 42
f 42 137 169
f 42 169 106
f 14 18 153
f 153 24 23
f 23 44 67
f 67 90 94
f 94 15 14
f 14 153 23
f 23 67 94
f 14 23 94
f 43 44 47
f 43 47 45
f 43 45 48
f 43 48 46
f 46 48 150
f 46 150 149
f 48 109 166
f 48 166 150
f 150 166 118
f 150 118 32
f 56 119 165
f 56 165 142
f 49 140 141
f 49 141 50
f 50 141 170
f 50 170 142
f 52 143 168
f 52 168 139
f 54 55 137
f 54 137 136
f 53 144 145
f 53 145 55
f 55 145 169
f 55 169 137
f 44 23 27
f 44 27 47
f 56 142 170
f 56 170 148
f 58 59 131
f 58 131 130
f 57 146 147
f 57 147 59
f 59 147 167
f 59 167 131
f 61 128 167
f 61 167 147
f 64 106 169
f 64 169 145
f 65 68 69
f 65 69 66
f 68 134 135
f 68 135 69
f 65 66 70
f 65 70 67
f 71 75 76
f 71 76 72
f 72 76 128
f 72 128 127
f 75 130 131
f 75 131 76
f 76 131 167
f 76 167 128
f 71 72 77
f 71 77 73
f 71 73 78
f 71 78 74
f 66 97 96
f 66 96 70
f 71 74 79
f 71 79 75
f 75 79 129
f 75 129 130
f 74 157 158
f 74 158 79
f 80 83 84
f 80 84 81
f 80 81 85
f 80 85 82
f 82 85 135
f 82 135 134
f 86 90 91
f 86 91 87
f 86 87 92
f 86 92 88
f 88 92 133
f 88 133 132
f 87 138 139
f 87 139 92
f 92 139 168
f 92 168 133
f 86 88 93
f 86 93 89
f 89 93 159
f 89 159 160
f 86 89 94
f 86 94 90
f 132 133 95
f 95 133 168
f 95 168 143
f 127 100 99
f 99 113 84
f 84 77 72
f 72 127 99
f 99 84 72
f 41 33 116
f 110 111 54
f 41 116 110
f 54 136 41
f 110 54 41
f 142 165 125
f 142 125 50
f 96 120 121
f 138 87 91
f 96 121 138
f 91 70 96
f 138 91 96
f 73 83 31
f 31 36 40
f 8 3 7
f 7 78 73
f 73 31 40
f 8 7 73
f 40 8 73
f 57 103 161
f 57 161 146
f 50 125 124
f 50 124 49
f 6 5 9
f 9 156 39
f 39 38 105
f 105 129 79
f 105 79 158
f 9 39 105
f 105 158 6
f 9 105 6
f 90 67 70
f 90 70 91
f 84 113 114
f 84 114 81
