# Derived from blenderjunky Stargate DHD (BlendSwap 75540 / 13419).
# Source notice: supplied-dhd-LICENSE.html; Fan Art, noncommercial use only.
o supplied-dhd-symbols-3
v -0.054718 1.059074 0.222673
v -0.045775 1.057179 0.213344
v -0.045123 1.058429 0.219111
v -0.026563 1.062897 0.238774
v 0.001814 1.066393 0.253350
v 0.012234 1.066404 0.252789
v 0.004588 1.069225 0.266342
v 0.000234 1.067753 0.259759
v -0.029340 1.064638 0.247026
v -0.048470 1.059366 0.223661
v -0.051727 1.061537 0.221094
v -0.046944 1.060523 0.216104
v -0.046595 1.061191 0.219186
v -0.027526 1.065781 0.239389
v 0.001446 1.069351 0.254270
v 0.009578 1.069359 0.253832
v 0.004454 1.071250 0.262914
v 0.001219 1.070156 0.258023
v -0.028429 1.067033 0.245257
v -0.047690 1.061726 0.221733
v -0.054751 1.061716 0.222104
v -0.045809 1.059821 0.212775
v -0.045156 1.061071 0.218542
v -0.026596 1.065538 0.238206
v 0.001781 1.069035 0.252781
v 0.012200 1.069046 0.252221
v 0.004554 1.071866 0.265773
v 0.000201 1.070394 0.259190
v -0.029373 1.067279 0.246457
v -0.048503 1.062008 0.223092
v -0.054164 1.062370 0.221757
v -0.054756 1.062116 0.222018
v -0.045814 1.060221 0.212689
v -0.046041 1.060648 0.213283
v -0.045161 1.061471 0.218456
v -0.045448 1.061784 0.218521
v -0.026601 1.065938 0.238120
v -0.026788 1.066275 0.238290
v 0.001776 1.069434 0.252695
v 0.001706 1.069786 0.252926
v 0.012195 1.069445 0.252134
v 0.011675 1.069797 0.252390
v 0.004549 1.072266 0.265687
v 0.004526 1.072434 0.265062
v 0.000196 1.070794 0.259104
v 0.000393 1.071037 0.258812
v -0.029378 1.067679 0.246371
v -0.029196 1.067920 0.246072
v -0.048508 1.062408 0.223006
v -0.048352 1.062641 0.222676
v -0.051731 1.061842 0.221028
v -0.052528 1.062273 0.221210
v -0.046655 1.061028 0.215084
v -0.046948 1.060828 0.216039
v -0.046227 1.061849 0.218869
v -0.046599 1.061496 0.219121
v -0.027291 1.066407 0.238931
v -0.027530 1.066086 0.239323
v 0.001525 1.069957 0.253731
v 0.001442 1.069655 0.254204
v 0.010256 1.069966 0.253262
v 0.009574 1.069664 0.253767
v 0.004471 1.072100 0.263514
v 0.004450 1.071554 0.262848
v 0.000944 1.070908 0.258180
v 0.001216 1.070460 0.257957
v -0.028685 1.067787 0.245423
v -0.028432 1.067338 0.245192
v -0.047912 1.062489 0.221940
v -0.047694 1.062030 0.221667
v -0.051727 1.061537 0.221094
v -0.051727 1.061537 0.221094
v -0.046944 1.060523 0.216104
v -0.046944 1.060523 0.216104
v -0.046595 1.061191 0.219186
v -0.046595 1.061191 0.219186
v 0.009578 1.069359 0.253832
v 0.004454 1.071250 0.262914
v 0.004454 1.071250 0.262914
v 0.001219 1.070156 0.258023
v 0.001219 1.070156 0.258023
v -0.028429 1.067033 0.245257
v -0.047690 1.061726 0.221733
v -0.047690 1.061726 0.221733
v -0.054751 1.061716 0.222104
v -0.054718 1.059074 0.222673
v -0.048470 1.059366 0.223661
v -0.048503 1.062008 0.223092
v 0.000234 1.067753 0.259759
v 0.000201 1.070394 0.259190
v 0.004588 1.069225 0.266342
v 0.004554 1.071866 0.265773
v 0.012234 1.066404 0.252789
v 0.012200 1.069046 0.252221
v 0.001814 1.066393 0.253350
v 0.001781 1.069035 0.252781
v -0.045123 1.058429 0.219111
v -0.045156 1.061071 0.218542
v -0.045775 1.057179 0.213344
v -0.045809 1.059821 0.212775
v -0.054756 1.062116 0.222018
v -0.054164 1.062370 0.221757
v -0.046041 1.060648 0.213283
v -0.046041 1.060648 0.213283
v -0.045814 1.060221 0.212689
v -0.045448 1.061784 0.218521
v -0.045448 1.061784 0.218521
v -0.045161 1.061471 0.218456
v -0.026788 1.066275 0.238290
v 0.001706 1.069786 0.252926
v 0.001706 1.069786 0.252926
v 0.001776 1.069434 0.252695
v 0.011675 1.069797 0.252390
v 0.011675 1.069797 0.252390
v 0.012195 1.069445 0.252134
v 0.004526 1.072434 0.265062
v 0.004526 1.072434 0.265062
v 0.004549 1.072266 0.265687
v -0.048352 1.062641 0.222676
v -0.048508 1.062408 0.223006
v -0.052528 1.062273 0.221210
v -0.052528 1.062273 0.221210
v -0.051731 1.061842 0.221028
v -0.046948 1.060828 0.216039
v -0.046655 1.061028 0.215084
v -0.046655 1.061028 0.215084
v -0.046227 1.061849 0.218869
v 0.009574 1.069664 0.253767
v 0.010256 1.069966 0.253262
v 0.004450 1.071554 0.262848
v 0.004471 1.072100 0.263514
v 0.004471 1.072100 0.263514
v 0.001216 1.070460 0.257957
v 0.000944 1.070908 0.258180
v 0.000944 1.070908 0.258180
v -0.028685 1.067787 0.245423
v -0.028685 1.067787 0.245423
v -0.047694 1.062030 0.221667
v -0.047912 1.062489 0.221940
v -0.047912 1.062489 0.221940
f 12 11 20
f 18 17 16
f 18 16 15
f 13 12 20
f 18 15 14
f 14 13 20
f 19 18 14
f 20 19 14
f 125 127 36
f 125 36 34
f 15 16 62
f 15 62 60
f 59 61 42
f 59 42 40
f 131 134 46
f 131 46 44
f 134 136 48
f 134 48 46
f 139 121 102
f 139 102 50
f 127 57 38
f 127 38 36
f 121 125 34
f 121 34 102
f 86 87 88
f 86 88 85
f 10 9 29
f 10 29 30
f 9 89 90
f 9 90 29
f 8 91 92
f 8 92 28
f 85 88 120
f 85 120 101
f 28 92 118
f 28 118 45
f 29 90 45
f 29 45 47
f 30 29 47
f 30 47 49
f 75 14 58
f 75 58 56
f 73 76 56
f 73 56 124
f 136 139 50
f 136 50 48
f 61 131 44
f 61 44 42
f 57 59 40
f 57 40 38
f 14 15 60
f 14 60 58
f 117 46 45
f 117 45 118
f 46 48 47
f 46 47 45
f 48 119 49
f 48 49 47
f 50 102 101
f 50 101 120
f 124 56 55
f 124 55 126
f 56 58 57
f 56 57 55
f 58 60 59
f 58 59 57
f 60 62 61
f 60 61 59
f 78 80 66
f 78 66 130
f 130 66 65
f 130 65 132
f 7 93 94
f 7 94 27
f 27 94 115
f 27 115 43
f 114 116 43
f 114 43 115
f 6 95 96
f 6 96 26
f 26 96 112
f 26 112 41
f 111 113 41
f 111 41 112
f 5 4 24
f 5 24 25
f 4 97 98
f 4 98 24
f 24 98 108
f 24 108 37
f 25 24 37
f 25 37 39
f 107 109 37
f 107 37 108
f 109 110 39
f 109 39 37
f 3 99 100
f 3 100 23
f 23 100 105
f 23 105 35
f 104 106 35
f 104 35 105
f 2 1 21
f 2 21 22
f 31 103 33
f 31 33 32
f 22 21 32
f 22 32 33
f 83 71 123
f 83 123 138
f 138 123 122
f 138 122 140
f 82 84 70
f 82 70 68
f 81 82 68
f 81 68 133
f 133 68 67
f 133 67 135
f 68 70 69
f 68 69 137
f 77 79 64
f 77 64 128
f 128 64 63
f 128 63 129
f 51 54 53
f 51 53 52
f 72 74 54
f 72 54 51
