# Derived from blenderjunky Stargate DHD (BlendSwap 75540 / 13419).
# Source notice: supplied-dhd-LICENSE.html; Fan Art, noncommercial use only.
o supplied-dhd-symbols-4
v 0.117054 1.027141 0.096336
v 0.102570 1.028962 0.091627
v 0.094200 1.028372 0.080692
v 0.094255 1.023714 0.057464
v 0.090108 1.024258 0.056225
v 0.090175 1.023703 0.053518
v 0.102533 1.021544 0.054509
v 0.102279 1.022220 0.057647
v 0.098138 1.023125 0.058220
v 0.097309 1.026463 0.074115
v 0.100291 1.026024 0.074765
v 0.109021 1.023023 0.068090
v 0.109346 1.022154 0.064055
v 0.119028 1.021499 0.070014
v 0.113648 1.022701 0.070894
v 0.102609 1.026602 0.079864
v 0.102416 1.027117 0.082255
v 0.106774 1.026387 0.082764
v 0.105462 1.027633 0.087740
v 0.112314 1.026637 0.089295
v 0.114161 1.025090 0.083325
v 0.119933 1.023218 0.079473
v 0.134232 1.020764 0.080842
v 0.137588 1.019327 0.076859
v 0.136502 1.022225 0.090310
v 0.133546 1.021845 0.085590
v 0.121098 1.023869 0.083834
v 0.117599 1.024937 0.085839
v 0.116966 1.030701 0.094485
v 0.103755 1.032362 0.090190
v 0.095731 1.031796 0.079707
v 0.095787 1.027067 0.056124
v 0.091655 1.027609 0.054889
v 0.091684 1.027364 0.053692
v 0.102322 1.025505 0.054545
v 0.102190 1.025857 0.056180
v 0.098030 1.026766 0.056755
v 0.097129 1.030397 0.074046
v 0.101211 1.029796 0.074936
v 0.110520 1.026596 0.067818
v 0.110768 1.025933 0.064741
v 0.117389 1.025485 0.068816
v 0.113964 1.026251 0.069376
v 0.102496 1.030303 0.078695
v 0.102208 1.031071 0.082260
v 0.106406 1.030368 0.082751
v 0.105120 1.031589 0.087629
v 0.113589 1.030358 0.089550
v 0.115572 1.028698 0.083142
v 0.120870 1.026980 0.079606
v 0.135304 1.024502 0.080988
v 0.137231 1.023677 0.078700
v 0.136560 1.025469 0.087018
v 0.134728 1.025233 0.084091
v 0.121596 1.027368 0.082239
v 0.117479 1.028625 0.084599
v 0.117748 1.030777 0.095609
v 0.103263 1.032598 0.090900
v 0.094893 1.032007 0.079965
v 0.094949 1.027350 0.056737
v 0.090801 1.027893 0.055498
v 0.090868 1.027339 0.052790
v 0.103227 1.025179 0.053781
v 0.102973 1.025856 0.056920
v 0.098831 1.026760 0.057492
v 0.098003 1.030098 0.073388
v 0.100984 1.029660 0.074038
v 0.109714 1.026659 0.067363
v 0.110040 1.025789 0.063328
v 0.119722 1.025134 0.069286
v 0.114342 1.026337 0.070167
v 0.103303 1.030237 0.079136
v 0.103110 1.030752 0.081528
v 0.107468 1.030023 0.082037
v 0.106156 1.031269 0.087013
v 0.113008 1.030272 0.088568
v 0.114855 1.028726 0.082598
v 0.120626 1.026854 0.078746
v 0.134926 1.024400 0.080115
v 0.138281 1.022963 0.076131
v 0.137195 1.025861 0.089583
v 0.134239 1.025481 0.084862
v 0.121791 1.027504 0.083107
v 0.118292 1.028573 0.085112
v 0.118031 1.032258 0.095313
v 0.117747 1.032596 0.094729
v 0.103840 1.034345 0.090207
v 0.103546 1.034079 0.090603
v 0.095627 1.033765 0.079477
v 0.095176 1.033488 0.079668
v 0.095682 1.029075 0.056088
v 0.095231 1.028831 0.056441
v 0.091542 1.029618 0.054852
v 0.091084 1.029375 0.055202
v 0.091592 1.029204 0.052828
v 0.091151 1.028820 0.052494
v 0.103170 1.027180 0.053757
v 0.103509 1.026661 0.053485
v 0.102972 1.027710 0.056214
v 0.103256 1.027337 0.056624
v 0.098822 1.028616 0.056787
v 0.099114 1.028242 0.057196
v 0.097960 1.032087 0.073315
v 0.098286 1.031580 0.073091
v 0.101440 1.031575 0.074074
v 0.101267 1.031141 0.073741
v 0.110433 1.028484 0.067199
v 0.109997 1.028140 0.067067
v 0.110724 1.027708 0.063598
v 0.110323 1.027271 0.063031
v 0.119018 1.027147 0.068702
v 0.120004 1.026616 0.068990
v 0.114524 1.028151 0.069438
v 0.114624 1.027818 0.069870
v 0.103291 1.032120 0.078566
v 0.103586 1.031718 0.078840
v 0.103055 1.032750 0.081489
v 0.103392 1.032234 0.081231
v 0.107340 1.032033 0.081990
v 0.107750 1.031504 0.081741
v 0.106040 1.033267 0.086921
v 0.106438 1.032750 0.086717
v 0.113625 1.032165 0.088642
v 0.113290 1.031754 0.088272
v 0.115533 1.030567 0.082474
v 0.115137 1.030207 0.082302
v 0.121090 1.028764 0.078765
v 0.120909 1.028335 0.078450
v 0.135451 1.026300 0.080140
v 0.135209 1.025881 0.079818
v 0.138159 1.025140 0.076925
v 0.138564 1.024444 0.075835
v 0.137261 1.027537 0.088049
v 0.137478 1.027342 0.089286
v 0.134814 1.027222 0.084142
v 0.134522 1.026962 0.084566
v 0.122057 1.029296 0.082343
v 0.122074 1.028985 0.082810
v 0.118277 1.030450 0.084509
v 0.118575 1.030054 0.084815
v 0.117797 1.030295 0.084265
v 0.118015 1.030467 0.084343
v 0.121915 1.029037 0.081905
v 0.121994 1.029252 0.082063
v 0.135046 1.026903 0.083757
v 0.134972 1.027142 0.083893
v 0.136878 1.027138 0.086684
v 0.137056 1.027410 0.087222
v 0.137550 1.025346 0.078366
v 0.137820 1.025370 0.077753
v 0.135623 1.026172 0.080654
v 0.135573 1.026333 0.080421
v 0.121188 1.028649 0.079272
v 0.121169 1.028805 0.079042
v 0.115890 1.030367 0.082808
v 0.115765 1.030557 0.082649
v 0.113908 1.032027 0.089216
v 0.113812 1.032192 0.088959
v 0.105438 1.033259 0.087295
v 0.105706 1.033371 0.087120
v 0.106724 1.032038 0.082417
v 0.106997 1.032144 0.082220
v 0.102527 1.032740 0.081927
v 0.102764 1.032853 0.081725
v 0.102815 1.031972 0.078361
v 0.103031 1.032142 0.078423
v 0.114283 1.027920 0.069043
v 0.114402 1.028123 0.069183
v 0.117707 1.027155 0.068482
v 0.118265 1.027260 0.068551
v 0.111087 1.027603 0.064408
v 0.110959 1.027754 0.064054
v 0.110838 1.028265 0.067484
v 0.110693 1.028464 0.067346
v 0.101529 1.031465 0.074602
v 0.101513 1.031619 0.074364
v 0.097447 1.032066 0.073712
v 0.097678 1.032183 0.073528
v 0.098348 1.028435 0.056421
v 0.098563 1.028618 0.056550
v 0.102509 1.027526 0.055846
v 0.102719 1.027710 0.055975
v 0.102641 1.027174 0.054211
v 0.102879 1.027285 0.054003
v 0.092003 1.029033 0.053358
v 0.091855 1.029211 0.053119
v 0.091973 1.029278 0.054555
v 0.091817 1.029526 0.054655
v 0.096106 1.028737 0.055790
v 0.095953 1.028984 0.055891
v 0.096050 1.033465 0.079373
v 0.095897 1.033697 0.079394
v 0.104073 1.034032 0.089856
v 0.103998 1.034268 0.089978
v 0.117495 1.032571 0.094367
v 0.117285 1.032370 0.094152
f 53 54 145
f 53 145 147
f 58 57 85
f 58 85 88
f 84 83 138
f 84 138 140
f 83 82 136
f 83 136 138
f 82 81 134
f 82 134 136
f 81 80 132
f 81 132 134
f 80 79 130
f 80 130 132
f 79 78 128
f 79 128 130
f 78 77 126
f 78 126 128
f 77 76 124
f 77 124 126
f 76 75 122
f 76 122 124
f 75 74 120
f 75 120 122
f 74 73 118
f 74 118 120
f 73 72 116
f 73 116 118
f 72 71 114
f 72 114 116
f 71 70 112
f 71 112 114
f 70 69 110
f 70 110 112
f 69 68 108
f 69 108 110
f 68 67 106
f 68 106 108
f 67 66 104
f 67 104 106
f 66 65 102
f 66 102 104
f 65 64 100
f 65 100 102
f 64 63 98
f 64 98 100
f 63 62 96
f 63 96 98
f 62 61 94
f 62 94 96
f 61 60 92
f 61 92 94
f 60 59 90
f 60 90 92
f 59 58 88
f 59 88 90
f 54 53 52
f 54 52 51
f 55 54 51
f 50 49 48
f 47 46 45
f 43 42 41
f 43 41 40
f 44 43 40
f 44 40 39
f 45 44 39
f 45 39 38
f 47 45 38
f 37 36 35
f 37 35 34
f 34 33 32
f 55 51 50
f 56 55 50
f 37 34 32
f 38 37 32
f 56 50 48
f 29 56 48
f 38 32 31
f 29 48 47
f 47 38 31
f 30 29 47
f 47 31 30
f 38 39 175
f 38 175 177
f 194 192 89
f 194 89 87
f 150 148 133
f 150 133 131
f 45 46 161
f 45 161 163
f 180 178 103
f 180 103 101
f 30 31 191
f 30 191 193
f 166 164 117
f 166 117 115
f 52 53 147
f 52 147 149
f 37 38 177
f 37 177 179
f 195 194 87
f 195 87 86
f 152 150 131
f 152 131 129
f 44 45 163
f 44 163 165
f 182 180 101
f 182 101 99
f 29 30 193
f 29 193 196
f 51 52 149
f 51 149 151
f 168 166 115
f 168 115 113
f 36 37 179
f 36 179 181
f 154 152 129
f 154 129 127
f 43 44 165
f 43 165 167
f 184 182 99
f 184 99 97
f 57 84 140
f 57 140 85
f 50 51 151
f 50 151 153
f 170 168 113
f 170 113 111
f 35 36 181
f 35 181 183
f 156 154 127
f 156 127 125
f 42 43 167
f 42 167 169
f 186 184 97
f 186 97 95
f 144 142 139
f 144 139 137
f 28 27 83
f 28 83 84
f 6 5 61
f 6 61 62
f 17 16 72
f 17 72 73
f 26 25 81
f 26 81 82
f 4 3 59
f 4 59 60
f 15 14 70
f 15 70 71
f 24 23 79
f 24 79 80
f 2 1 57
f 2 57 58
f 13 12 68
f 13 68 69
f 22 21 77
f 22 77 78
f 11 10 66
f 11 66 67
f 20 19 75
f 20 75 76
f 9 8 64
f 9 64 65
f 1 28 84
f 1 84 57
f 18 17 73
f 18 73 74
f 7 6 62
f 7 62 63
f 27 26 82
f 27 82 83
f 5 4 60
f 5 60 61
f 16 15 71
f 16 71 72
f 25 24 80
f 25 80 81
f 3 2 58
f 3 58 59
f 14 13 69
f 14 69 70
f 23 22 78
f 23 78 79
f 12 11 67
f 12 67 68
f 21 20 76
f 21 76 77
f 10 9 65
f 10 65 66
f 19 18 74
f 19 74 75
f 8 7 63
f 8 63 64
f 164 162 119
f 164 119 117
f 31 32 189
f 31 189 191
f 46 47 159
f 46 159 161
f 178 176 105
f 178 105 103
f 148 146 135
f 148 135 133
f 39 40 173
f 39 173 175
f 192 190 91
f 192 91 89
f 54 55 143
f 54 143 145
f 162 160 121
f 162 121 119
f 32 33 187
f 32 187 189
f 176 174 107
f 176 107 105
f 47 48 157
f 47 157 159
f 146 144 137
f 146 137 135
f 190 188 93
f 190 93 91
f 40 41 171
f 40 171 173
f 160 158 123
f 160 123 121
f 33 34 185
f 33 185 187
f 174 172 109
f 174 109 107
f 48 49 155
f 48 155 157
f 56 29 196
f 56 196 141
f 188 186 95
f 188 95 93
f 41 42 169
f 41 169 171
f 158 156 125
f 158 125 123
f 34 35 183
f 34 183 185
f 172 170 111
f 172 111 109
f 49 50 153
f 49 153 155
f 139 86 85
f 139 85 140
f 137 139 140
f 137 140 138
f 135 137 138
f 135 138 136
f 133 135 136
f 133 136 134
f 131 133 134
f 131 134 132
f 129 131 132
f 129 132 130
f 127 129 130
f 127 130 128
f 125 127 128
f 125 128 126
f 123 125 126
f 123 126 124
f 121 123 124
f 121 124 122
f 119 121 122
f 119 122 120
f 117 119 120
f 117 120 118
f 115 117 118
f 115 118 116
f 113 115 116
f 113 116 114
f 111 113 114
f 111 114 112
f 109 111 112
f 109 112 110
f 107 109 110
f 107 110 108
f 105 107 108
f 105 108 106
f 103 105 106
f 103 106 104
f 101 103 104
f 101 104 102
f 99 101 102
f 99 102 100
f 97 99 100
f 97 100 98
f 95 97 98
f 95 98 96
f 93 95 96
f 93 96 94
f 91 93 94
f 91 94 92
f 89 91 92
f 89 92 90
f 87 89 90
f 87 90 88
f 86 87 88
f 86 88 85
f 55 56 141
f 55 141 143
f 141 196 195
f 141 195 142
f 143 141 142
f 143 142 144
f 145 143 144
f 145 144 146
f 147 145 146
f 147 146 148
f 149 147 148
f 149 148 150
f 151 149 150
f 151 150 152
f 153 151 152
f 153 152 154
f 155 153 154
f 155 154 156
f 157 155 156
f 157 156 158
f 159 157 158
f 159 158 160
f 161 159 160
f 161 160 162
f 163 161 162
f 163 162 164
f 165 163 164
f 165 164 166
f 167 165 166
f 167 166 168
f 169 167 168
f 169 168 170
f 171 169 170
f 171 170 172
f 173 171 172
f 173 172 174
f 175 173 174
f 175 174 176
f 177 175 176
f 177 176 178
f 179 177 178
f 179 178 180
f 181 179 180
f 181 180 182
f 183 181 182
f 183 182 184
f 185 183 184
f 185 184 186
f 187 185 186
f 187 186 188
f 189 187 188
f 189 188 190
f 191 189 190
f 191 190 192
f 193 191 192
f 193 192 194
f 196 193 194
f 196 194 195
f 142 195 86
f 142 86 139
