# Derived from blenderjunky Stargate DHD (BlendSwap 75540 / 13419).
# Source notice: supplied-dhd-LICENSE.html; Fan Art, noncommercial use only.
o supplied-dhd-keys-0
v -0.262487 0.950034 0.028161
v -0.260561 0.950383 0.027165
v -0.262340 0.950466 0.028714
v -0.261052 0.949360 0.025508
v -0.260435 0.950801 0.027723
v -0.267631 0.949701 0.031306
v -0.272407 0.919581 -0.024053
v -0.271307 0.924533 -0.015810
v -0.276219 0.908148 -0.041549
v -0.276312 0.907828 -0.042249
v -0.274178 0.908847 -0.041962
v -0.281910 0.906126 -0.041216
v -0.274290 0.908521 -0.042643
v -0.273999 0.909882 -0.040195
v -0.265737 0.939907 0.009775
v -0.267865 0.935020 0.001643
v -0.264170 0.955073 0.025465
v -0.263970 0.955349 0.026101
v -0.262192 0.955265 0.024552
v -0.262018 0.955540 0.025187
v -0.262699 0.954290 0.022870
v -0.274054 0.924511 -0.026691
v -0.272954 0.929463 -0.018449
v -0.274826 0.920196 -0.033873
v -0.277901 0.913187 -0.044245
v -0.275808 0.913729 -0.044575
v -0.277943 0.912710 -0.044862
v -0.275646 0.914811 -0.042833
v -0.275873 0.913260 -0.045179
v -0.267383 0.944836 0.007137
v -0.265353 0.949065 0.014174
v -0.269512 0.939950 -0.000996
v -0.261688 0.954892 0.024579
v -0.261393 0.954896 0.025352
v -0.261563 0.955203 0.025211
v -0.273509 0.924189 -0.026556
v -0.272411 0.929132 -0.018331
v -0.391501 0.878017 -0.023465
v -0.275221 0.912698 -0.044877
v -0.275277 0.913440 -0.044408
v -0.275394 0.912999 -0.045027
v -0.266852 0.944473 0.007201
v -0.268977 0.939597 -0.000914
v -0.389076 0.878623 -0.024136
v -0.391132 0.878019 -0.023723
v -0.389179 0.878988 -0.024282
v -0.391206 0.878365 -0.023863
v -0.260231 0.951214 0.027346
v -0.378245 0.920015 0.054615
v -0.381417 0.912928 0.042820
v -0.390188 0.874887 -0.020529
v -0.390381 0.874662 -0.021670
v -0.390207 0.874374 -0.021496
v -0.274101 0.909343 -0.043082
v -0.390011 0.874664 -0.021927
v -0.389874 0.874376 -0.021728
v -0.260618 0.951536 0.027404
v -0.260543 0.951209 0.027578
v -0.387932 0.890506 0.005503
v -0.386415 0.897703 0.017482
v -0.370419 0.935181 0.079817
v -0.370266 0.936040 0.080481
v -0.370100 0.935727 0.080612
v -0.369920 0.934811 0.079854
v -0.370685 0.933338 0.077462
v -0.369649 0.935392 0.080645
v -0.387394 0.890181 0.005636
v -0.388416 0.883916 -0.004790
v -0.385879 0.897369 0.017600
v -0.387671 0.874639 -0.021695
v -0.389664 0.874592 -0.020368
v -0.389734 0.874108 -0.021349
v -0.389461 0.876097 -0.017804
v -0.377720 0.919652 0.054685
v -0.380887 0.912574 0.042905
v -0.374677 0.925775 0.064875
v -0.369626 0.940046 0.076254
v -0.371550 0.939693 0.077241
v -0.369326 0.940475 0.077136
v -0.364327 0.940825 0.073679
v -0.372331 0.938268 0.074824
v -0.371232 0.940131 0.078108
v -0.364037 0.941245 0.074554
v -0.389041 0.895111 0.002998
v -0.387525 0.902299 0.014961
v -0.389259 0.880165 -0.023404
v -0.391294 0.879474 -0.022980
v -0.383661 0.881856 -0.024463
v -0.389302 0.879522 -0.024308
v -0.391317 0.878847 -0.023885
v -0.391107 0.881027 -0.020442
v -0.383710 0.881214 -0.025354
v -0.379366 0.924582 0.052047
v -0.382533 0.917504 0.040267
v -0.370998 0.939493 0.078588
v -0.371081 0.939804 0.078389
v -0.369877 0.936138 0.080383
v -0.369749 0.935815 0.080524
v -0.315211 0.942498 0.053579
v -0.294995 0.945383 0.043851
v -0.315013 0.943010 0.054255
v -0.335426 0.939613 0.063307
v -0.294814 0.945866 0.044478
v -0.335212 0.940154 0.064030
v -0.331896 0.891605 -0.031121
v -0.331991 0.891202 -0.031969
v -0.310552 0.897931 -0.035123
v -0.353239 0.885280 -0.027118
v -0.353337 0.884844 -0.028021
v -0.310644 0.897560 -0.035916
v -0.316911 0.947589 0.050855
v -0.337126 0.944704 0.060582
v -0.316660 0.947940 0.051616
v -0.296695 0.950473 0.041127
v -0.336858 0.945084 0.061392
v -0.296460 0.950796 0.041840
v -0.333596 0.896696 -0.033845
v -0.354939 0.890371 -0.029842
v -0.312252 0.903021 -0.037847
v -0.333637 0.896132 -0.034607
v -0.354984 0.889774 -0.030659
v -0.312290 0.902490 -0.038555
v -0.277698 0.911859 -0.044622
v -0.277817 0.912212 -0.044777
v -0.275626 0.912490 -0.044959
v -0.275759 0.912811 -0.045101
v -0.274505 0.909135 -0.043164
v -0.274427 0.908822 -0.042966
v -0.370972 0.933469 0.077494
v -0.370197 0.934938 0.079885
v -0.369901 0.935506 0.080669
v -0.387695 0.890277 0.005611
v -0.386178 0.897471 0.017583
v -0.369663 0.935566 0.080609
v -0.383750 0.904995 0.030292
v -0.387729 0.874723 -0.021902
v -0.389771 0.874189 -0.021539
v -0.265548 0.940108 0.009586
v -0.267674 0.935228 0.001464
v -0.273985 0.909083 -0.042079
v -0.274116 0.908737 -0.042742
v -0.389763 0.876181 -0.017848
v -0.389956 0.874674 -0.020410
v -0.389997 0.874188 -0.021381
v -0.272210 0.919809 -0.024198
v -0.271112 0.924755 -0.015966
v -0.378013 0.919772 0.054698
v -0.381182 0.912688 0.042909
v -0.260386 0.950565 0.026959
v -0.260278 0.950964 0.027534
v -0.371724 0.939508 0.077439
v -0.371389 0.939962 0.078284
v -0.389234 0.894885 0.003144
v -0.387717 0.902079 0.015117
v -0.369252 0.940353 0.077272
v -0.371151 0.940022 0.078224
v -0.385396 0.909925 0.027653
v -0.383666 0.880979 -0.025392
v -0.389255 0.879293 -0.024348
v -0.391259 0.878645 -0.023924
v -0.267087 0.944716 0.007120
v -0.269213 0.939836 -0.001002
v -0.275339 0.914730 -0.042786
v -0.275511 0.913653 -0.044525
v -0.275605 0.913194 -0.045127
v -0.391483 0.879244 -0.022856
v -0.391486 0.878644 -0.023766
v -0.273749 0.924417 -0.026664
v -0.272651 0.929363 -0.018432
v -0.379552 0.924380 0.052232
v -0.382721 0.917297 0.040443
v -0.262409 0.954158 0.022832
v -0.261912 0.955135 0.024513
v -0.261766 0.955421 0.025150
v -0.260400 0.951553 0.027256
v -0.260351 0.951241 0.027436
v -0.384283 0.905339 0.030190
v -0.390248 0.874638 -0.021819
v -0.390092 0.874369 -0.021638
v -0.275374 0.912594 -0.044939
v -0.275527 0.912889 -0.045074
v -0.370115 0.936095 0.080464
v -0.369968 0.935793 0.080587
v -0.261517 0.954898 0.025466
v -0.261670 0.955188 0.025323
v -0.270922 0.934378 -0.009599
v -0.391365 0.877983 -0.023608
v -0.391410 0.878317 -0.023751
v -0.274257 0.909250 -0.043149
v -0.274209 0.908942 -0.042962
v -0.371232 0.939440 0.078674
v -0.371287 0.939740 0.078475
v -0.260490 0.950961 0.027692
v -0.269815 0.929791 -0.007060
v -0.281972 0.906232 -0.041393
v -0.274364 0.908610 -0.042792
v -0.263911 0.955215 0.026225
v -0.261978 0.955418 0.025307
v -0.271461 0.934721 -0.009699
v -0.277903 0.912501 -0.044864
v -0.275853 0.913066 -0.045177
v -0.310706 0.897661 -0.036103
v -0.353401 0.884936 -0.028222
v -0.296393 0.950662 0.041971
v -0.333593 0.895906 -0.034629
v -0.354939 0.889544 -0.030688
v -0.278085 0.947794 0.035710
v -0.277919 0.948252 0.036296
v -0.292787 0.902881 -0.039215
v -0.292697 0.903224 -0.038467
v -0.279565 0.953182 0.033658
v -0.279785 0.952884 0.032985
v -0.294397 0.908315 -0.041191
v -0.294433 0.907811 -0.041853
v -0.369848 0.935614 0.080632
v -0.384047 0.905103 0.030285
v -0.389958 0.874236 -0.021518
v -0.260363 0.951049 0.027556
v -0.274220 0.908756 -0.042832
v -0.269621 0.930006 -0.007228
v -0.371284 0.939916 0.078329
v -0.385586 0.909711 0.027819
v -0.391395 0.878539 -0.023820
v -0.261800 0.955352 0.025253
v -0.275657 0.913059 -0.045134
v -0.271160 0.934614 -0.009694
v -0.294388 0.907593 -0.041861
f 150 149 33
f 33 35 34
f 48 150 33
f 33 34 48
f 87 91 28
f 28 26 25
f 25 213 119
f 119 117 118
f 118 88 86
f 86 87 28
f 28 25 119
f 118 86 28
f 28 119 118
f 30 31 21
f 21 172 161
f 21 161 30
f 10 9 210
f 210 209 12
f 210 12 10
f 139 220 186
f 139 186 43
f 7 8 69
f 7 69 67
f 75 16 15
f 75 15 74
f 125 126 201
f 201 225 181
f 181 180 125
f 201 181 125
f 154 153 59
f 154 59 60
f 138 42 33
f 138 33 149
f 73 14 7
f 7 67 68
f 7 68 73
f 166 153 84
f 84 91 87
f 84 87 166
f 81 21 31
f 31 30 93
f 31 93 81
f 189 54 141
f 141 219 190
f 141 190 189
f 17 212 211
f 17 211 18
f 112 80 83
f 112 83 115
f 91 84 22
f 24 28 91
f 22 24 91
f 2 1 207
f 207 100 99
f 102 64 65
f 207 99 102
f 4 2 207
f 102 65 4
f 207 102 4
f 176 218 150
f 48 34 184
f 175 176 150
f 48 184 175
f 175 150 48
f 75 135 194
f 75 194 16
f 134 193 58
f 134 58 98
f 85 23 22
f 85 22 84
f 141 54 39
f 39 41 40
f 40 140 141
f 39 40 141
f 97 98 58
f 58 57 198
f 198 197 96
f 96 95 97
f 97 58 198
f 198 96 97
f 130 61 49
f 49 147 129
f 49 129 130
f 53 51 166
f 166 167 38
f 38 52 53
f 166 38 53
f 6 208 207
f 207 1 3
f 6 207 3
f 1 2 5
f 1 5 3
f 2 149 150
f 2 150 5
f 5 150 218
f 5 218 193
f 11 140 145
f 145 7 14
f 145 14 11
f 7 145 146
f 7 146 8
f 8 146 220
f 8 220 194
f 9 10 13
f 9 13 11
f 11 13 141
f 11 141 140
f 13 196 219
f 13 219 141
f 15 16 139
f 15 139 138
f 16 194 220
f 16 220 139
f 187 38 167
f 167 223 188
f 167 188 187
f 15 138 149
f 149 2 4
f 149 4 15
f 17 18 20
f 17 20 19
f 19 20 174
f 19 174 173
f 18 197 198
f 18 198 20
f 19 173 172
f 19 172 21
f 22 23 169
f 22 169 168
f 23 199 226
f 23 226 169
f 26 28 163
f 26 163 164
f 25 26 29
f 25 29 27
f 27 29 201
f 27 201 200
f 26 164 165
f 26 165 29
f 29 165 225
f 29 225 201
f 30 161 162
f 30 162 32
f 32 162 226
f 32 226 199
f 34 35 185
f 34 185 184
f 33 173 174
f 33 174 35
f 35 174 224
f 35 224 185
f 177 50 171
f 177 171 222
f 164 163 168
f 168 36 40
f 168 40 164
f 36 168 169
f 36 169 37
f 37 169 226
f 37 226 186
f 40 41 165
f 40 165 164
f 39 180 181
f 39 181 41
f 41 181 225
f 41 225 165
f 42 43 162
f 42 162 161
f 43 186 226
f 43 226 162
f 42 161 172
f 172 173 33
f 172 33 42
f 44 45 47
f 44 47 46
f 46 47 160
f 46 160 159
f 45 187 188
f 45 188 47
f 47 188 223
f 47 223 160
f 171 50 49
f 171 49 170
f 49 50 148
f 49 148 147
f 50 177 216
f 50 216 148
f 51 53 144
f 51 144 143
f 52 178 179
f 52 179 53
f 53 179 217
f 53 217 144
f 55 56 179
f 55 179 178
f 137 56 128
f 128 196 195
f 202 203 136
f 128 195 202
f 136 137 128
f 128 202 136
f 56 137 217
f 56 217 179
f 57 58 176
f 57 176 175
f 58 193 218
f 58 218 176
f 59 132 133
f 59 133 60
f 60 133 216
f 60 216 177
f 62 63 183
f 62 183 182
f 61 130 131
f 61 131 63
f 63 131 215
f 63 215 183
f 64 130 129
f 64 129 65
f 64 66 131
f 64 131 130
f 66 134 215
f 66 215 131
f 67 69 133
f 67 133 132
f 69 135 216
f 69 216 133
f 70 72 137
f 70 137 136
f 71 143 144
f 71 144 72
f 72 144 217
f 72 217 137
f 71 73 142
f 71 142 143
f 74 147 148
f 74 148 75
f 75 148 216
f 75 216 135
f 77 78 82
f 77 82 79
f 79 82 156
f 79 156 155
f 78 151 152
f 78 152 82
f 82 152 221
f 82 221 156
f 77 79 83
f 77 83 80
f 84 153 154
f 84 154 85
f 85 154 222
f 85 222 157
f 86 89 90
f 86 90 87
f 87 90 167
f 87 167 166
f 89 159 160
f 89 160 90
f 90 160 223
f 90 223 167
f 86 88 92
f 86 92 89
f 93 94 171
f 93 171 170
f 94 157 222
f 94 222 171
f 95 96 192
f 95 192 191
f 96 156 221
f 96 221 192
f 99 100 103
f 99 103 101
f 55 45 44
f 55 44 123
f 100 207 208
f 100 208 103
f 99 101 104
f 99 104 102
f 64 102 104
f 64 104 66
f 105 108 109
f 105 109 106
f 70 109 108
f 108 71 72
f 70 108 72
f 105 106 110
f 105 110 107
f 107 110 209
f 107 209 210
f 111 112 115
f 111 115 113
f 111 113 116
f 111 116 114
f 114 116 211
f 114 211 212
f 117 120 121
f 117 121 118
f 120 205 206
f 120 206 121
f 117 119 122
f 117 122 120
f 119 213 214
f 119 214 122
f 123 124 126
f 123 126 125
f 124 200 201
f 124 201 126
f 56 55 123
f 123 125 127
f 127 128 56
f 123 127 56
f 127 189 190
f 127 190 128
f 128 190 219
f 128 219 196
f 93 30 32
f 93 32 94
f 199 23 85
f 199 85 157
f 95 191 182
f 95 182 97
f 203 202 110
f 106 109 203
f 110 106 203
f 118 121 92
f 118 92 88
f 163 28 24
f 24 22 168
f 24 168 163
f 177 222 154
f 177 154 60
f 5 193 134
f 134 66 104
f 134 104 101
f 3 5 134
f 208 6 3
f 134 101 103
f 103 208 3
f 134 103 3
f 42 138 139
f 42 139 43
f 123 44 46
f 123 46 124
f 122 214 227
f 227 205 120
f 122 227 120
f 62 182 191
f 192 221 152
f 152 62 191
f 191 192 152
f 211 116 204
f 204 197 18
f 204 18 211
f 180 39 54
f 180 54 189
f 51 59 153
f 51 153 166
f 8 194 135
f 8 135 69
f 170 151 78
f 78 81 93
f 78 93 170
f 140 40 36
f 140 36 145
f 96 197 204
f 204 155 156
f 204 156 96
f 178 52 38
f 178 38 187
f 27 214 213
f 27 213 25
f 220 146 37
f 220 37 186
f 182 183 215
f 215 134 98
f 98 97 182
f 215 98 182
f 136 203 109
f 136 109 70
f 37 146 145
f 37 145 36
f 4 65 76
f 76 74 15
f 76 15 4
f 11 14 73
f 73 71 108
f 108 105 107
f 107 210 9
f 9 11 73
f 73 108 107
f 73 107 9
f 89 92 121
f 121 206 158
f 158 159 89
f 121 158 89
f 124 46 159
f 159 158 206
f 206 205 227
f 227 200 124
f 124 159 206
f 206 227 124
f 152 151 61
f 61 63 62
f 61 62 152
f 132 59 51
f 51 143 142
f 51 142 132
f 227 214 27
f 227 27 200
f 76 65 129
f 129 147 74
f 76 129 74
f 10 12 209
f 209 110 202
f 195 196 13
f 209 202 195
f 13 10 209
f 209 195 13
f 142 73 68
f 68 67 132
f 68 132 142
f 94 32 199
f 94 199 157
f 178 187 45
f 178 45 55
f 111 114 212
f 212 17 19
f 19 21 81
f 81 78 77
f 77 80 112
f 112 111 212
f 212 19 81
f 81 77 112
f 212 81 112
f 184 185 224
f 224 174 20
f 20 198 57
f 57 175 184
f 184 224 20
f 20 57 184
f 61 151 170
f 61 170 49
f 125 180 189
f 125 189 127
f 155 204 116
f 155 116 113
f 83 79 155
f 155 113 115
f 115 83 155
