# Derived from blenderjunky Stargate DHD (BlendSwap 75540 / 13419).
# Source notice: supplied-dhd-LICENSE.html; Fan Art, noncommercial use only.
o supplied-dhd-symbols-5
v 0.161160 0.858752 -0.188565
v 0.160355 0.848679 -0.199984
v 0.146694 0.860936 -0.192351
v 0.147181 0.865138 -0.187522
v 0.158110 0.862883 -0.185327
v 0.162595 0.863971 -0.182213
v 0.164857 0.865930 -0.179092
v 0.165733 0.869367 -0.174938
v 0.165394 0.872616 -0.171511
v 0.163093 0.876169 -0.168589
v 0.159603 0.878668 -0.167334
v 0.155030 0.880607 -0.167158
v 0.143365 0.883009 -0.169506
v 0.143211 0.888285 -0.163771
v 0.155615 0.885651 -0.161362
v 0.162654 0.882878 -0.161401
v 0.167520 0.879246 -0.163313
v 0.171812 0.874352 -0.166857
v 0.173166 0.869784 -0.171301
v 0.172463 0.864592 -0.177310
v 0.169175 0.860171 -0.183577
v 0.162987 0.858905 -0.187615
v 0.157650 0.859592 -0.189143
v 0.157264 0.854755 -0.194626
v 0.151033 0.860346 -0.191144
v 0.151224 0.861997 -0.189247
v 0.156889 0.860828 -0.188110
v 0.137094 0.885866 -0.169047
v 0.122260 0.888810 -0.172154
v 0.130911 0.877001 -0.181438
v 0.137270 0.882726 -0.172424
v 0.134159 0.884554 -0.171745
v 0.127587 0.885858 -0.173121
v 0.131296 0.880795 -0.177102
v 0.134222 0.883429 -0.172955
v 0.160901 0.862310 -0.190527
v 0.160212 0.853691 -0.200299
v 0.149107 0.863654 -0.194094
v 0.149449 0.866596 -0.190713
v 0.159543 0.864513 -0.188686
v 0.164593 0.865738 -0.185180
v 0.167160 0.867961 -0.181638
v 0.168109 0.871686 -0.177135
v 0.167738 0.875250 -0.173376
v 0.165161 0.879229 -0.170104
v 0.161233 0.882041 -0.168692
v 0.156252 0.884154 -0.168499
v 0.145705 0.886325 -0.170623
v 0.145607 0.889708 -0.166946
v 0.156476 0.887400 -0.164835
v 0.163088 0.884795 -0.164871
v 0.167594 0.881432 -0.166641
v 0.171600 0.876865 -0.169949
v 0.172846 0.872661 -0.174038
v 0.172182 0.867762 -0.179708
v 0.169158 0.863697 -0.185471
v 0.163411 0.862521 -0.189222
v 0.162191 0.861401 -0.190975
v 0.161386 0.851328 -0.202394
v 0.147724 0.863585 -0.194761
v 0.148212 0.867788 -0.189931
v 0.159141 0.865533 -0.187737
v 0.163625 0.866620 -0.184623
v 0.165887 0.868579 -0.181502
v 0.166763 0.872017 -0.177348
v 0.166425 0.875266 -0.173921
v 0.164124 0.878818 -0.170999
v 0.160633 0.881317 -0.169744
v 0.156061 0.883257 -0.169568
v 0.144395 0.885658 -0.171916
v 0.144241 0.890934 -0.166181
v 0.156646 0.888300 -0.163772
v 0.163684 0.885527 -0.163811
v 0.168550 0.881895 -0.165722
v 0.172843 0.877002 -0.169267
v 0.174197 0.872433 -0.173711
v 0.173494 0.867241 -0.179720
v 0.170205 0.862820 -0.185987
v 0.164017 0.861555 -0.190025
v 0.136840 0.887834 -0.172756
v 0.125639 0.890057 -0.175102
v 0.131961 0.881427 -0.181886
v 0.136948 0.885916 -0.174818
v 0.138124 0.888515 -0.171457
v 0.123290 0.891460 -0.174564
v 0.131941 0.879650 -0.183848
v 0.138301 0.885375 -0.174834
v 0.148613 0.868818 -0.190868
v 0.149251 0.868739 -0.191530
v 0.148125 0.864615 -0.195698
v 0.148820 0.865031 -0.195789
v 0.161787 0.852358 -0.203331
v 0.161477 0.853677 -0.202861
v 0.162236 0.863178 -0.192089
v 0.162592 0.862432 -0.191912
v 0.159542 0.866563 -0.188674
v 0.159851 0.866551 -0.189401
v 0.164026 0.867650 -0.185560
v 0.164558 0.867693 -0.186133
v 0.166288 0.869609 -0.182439
v 0.166940 0.869755 -0.182846
v 0.167164 0.873047 -0.178285
v 0.167845 0.873306 -0.178555
v 0.166825 0.876296 -0.174858
v 0.167493 0.876679 -0.174997
v 0.164525 0.879849 -0.171936
v 0.165084 0.880399 -0.171938
v 0.161034 0.882347 -0.170681
v 0.161421 0.883021 -0.170621
v 0.156461 0.884287 -0.170504
v 0.156688 0.885029 -0.170438
v 0.144796 0.886688 -0.172853
v 0.145463 0.887340 -0.172698
v 0.144642 0.891964 -0.167118
v 0.145331 0.891871 -0.167773
v 0.157047 0.889330 -0.164709
v 0.157131 0.889365 -0.165481
v 0.164085 0.886557 -0.164748
v 0.164002 0.886658 -0.165519
v 0.168951 0.882926 -0.166659
v 0.168726 0.883133 -0.167375
v 0.173244 0.878032 -0.170204
v 0.172906 0.878367 -0.170826
v 0.174597 0.873464 -0.174648
v 0.174217 0.873942 -0.175130
v 0.173895 0.868271 -0.180657
v 0.173530 0.868865 -0.181006
v 0.170606 0.863851 -0.186924
v 0.170345 0.864584 -0.187075
v 0.164418 0.862585 -0.190962
v 0.164331 0.863354 -0.191000
v 0.138171 0.889666 -0.173259
v 0.138525 0.889545 -0.172394
v 0.123691 0.892490 -0.175501
v 0.124766 0.892327 -0.176066
v 0.132342 0.880681 -0.184785
v 0.132501 0.881769 -0.184367
v 0.138702 0.886405 -0.175771
v 0.138321 0.887007 -0.176119
v 0.164121 0.863689 -0.190722
v 0.163863 0.863683 -0.190278
v 0.169983 0.864888 -0.186897
v 0.169610 0.864858 -0.186528
v 0.173076 0.869046 -0.181002
v 0.172634 0.868924 -0.180765
v 0.173750 0.874021 -0.175244
v 0.173298 0.873823 -0.175095
v 0.172476 0.878320 -0.171063
v 0.172052 0.878026 -0.171006
v 0.168395 0.882972 -0.167693
v 0.168045 0.882594 -0.167698
v 0.163795 0.886405 -0.165886
v 0.163540 0.885956 -0.165928
v 0.157073 0.889053 -0.165849
v 0.156928 0.888561 -0.165891
v 0.145803 0.891446 -0.168038
v 0.146059 0.890870 -0.168002
v 0.145916 0.887571 -0.172250
v 0.146157 0.887487 -0.171679
v 0.156754 0.885340 -0.170068
v 0.156704 0.885316 -0.169556
v 0.161629 0.883272 -0.170257
v 0.161685 0.883203 -0.169749
v 0.165443 0.880542 -0.171627
v 0.165613 0.880391 -0.171160
v 0.167948 0.876674 -0.174809
v 0.168190 0.876412 -0.174433
v 0.168311 0.873192 -0.178482
v 0.168561 0.872848 -0.178192
v 0.167381 0.869541 -0.182893
v 0.167612 0.869123 -0.182694
v 0.164893 0.867387 -0.186326
v 0.165045 0.866899 -0.186236
v 0.159991 0.866198 -0.189730
v 0.159995 0.865675 -0.189743
v 0.149679 0.868326 -0.191800
v 0.149901 0.867758 -0.191770
v 0.149299 0.865055 -0.195558
v 0.149559 0.864816 -0.195150
v 0.161070 0.854495 -0.202135
v 0.160664 0.854852 -0.201355
v 0.161353 0.863472 -0.191584
v 0.161789 0.863493 -0.191934
v 0.137292 0.888995 -0.173812
v 0.137727 0.889430 -0.173709
v 0.125580 0.891841 -0.176253
v 0.126091 0.891219 -0.176158
v 0.132508 0.882384 -0.183688
v 0.132413 0.882589 -0.182943
v 0.137852 0.887194 -0.176113
v 0.137400 0.887078 -0.175875
v 0.159490 0.862266 -0.191179
v 0.158444 0.861633 -0.190999
v 0.158058 0.856796 -0.196482
v 0.158993 0.856051 -0.198224
v 0.151827 0.862387 -0.193001
v 0.150986 0.863235 -0.193751
v 0.152018 0.864038 -0.191104
v 0.151232 0.865357 -0.191313
v 0.157683 0.862869 -0.189966
v 0.158511 0.863855 -0.189851
v 0.134953 0.886595 -0.173602
v 0.136062 0.887536 -0.173415
v 0.127043 0.889327 -0.175304
v 0.128382 0.887899 -0.174978
v 0.132133 0.882378 -0.180767
v 0.132091 0.882836 -0.178958
v 0.136149 0.885992 -0.175076
v 0.135016 0.885470 -0.174812
f 148 150 121
f 148 121 123
f 55 54 147
f 55 147 145
f 178 180 93
f 178 93 91
f 61 62 96
f 61 96 88
f 164 166 105
f 164 105 107
f 47 46 163
f 47 163 161
f 150 152 119
f 150 119 121
f 54 53 149
f 54 149 147
f 180 183 94
f 180 94 93
f 37 36 182
f 37 182 181
f 79 58 95
f 79 95 130
f 78 79 130
f 78 130 128
f 77 78 128
f 77 128 126
f 76 77 126
f 76 126 124
f 75 76 124
f 75 124 122
f 74 75 122
f 74 122 120
f 73 74 120
f 73 120 118
f 72 73 118
f 72 118 116
f 71 72 116
f 71 116 114
f 70 71 114
f 70 114 112
f 69 70 112
f 69 112 110
f 68 69 110
f 68 110 108
f 67 68 108
f 67 108 106
f 66 67 106
f 66 106 104
f 65 66 104
f 65 104 102
f 64 65 102
f 64 102 100
f 63 64 100
f 63 100 98
f 62 63 98
f 62 98 96
f 60 61 88
f 60 88 90
f 36 37 195
f 36 195 192
f 40 39 177
f 40 177 175
f 59 60 90
f 59 90 92
f 58 59 92
f 58 92 95
f 166 168 103
f 166 103 105
f 46 45 165
f 46 165 163
f 152 154 117
f 152 117 119
f 53 52 151
f 53 151 149
f 142 144 127
f 142 127 129
f 168 170 101
f 168 101 103
f 45 44 167
f 45 167 165
f 154 156 115
f 154 115 117
f 52 51 153
f 52 153 151
f 140 142 129
f 140 129 131
f 41 40 175
f 41 175 173
f 170 172 99
f 170 99 101
f 44 43 169
f 44 169 167
f 156 158 113
f 156 113 115
f 51 50 155
f 51 155 153
f 183 140 131
f 183 131 94
f 36 40 41
f 41 56 57
f 41 57 36
f 56 41 42
f 56 42 43
f 54 55 56
f 52 53 54
f 50 51 52
f 48 49 50
f 47 48 50
f 50 52 54
f 54 56 43
f 54 43 44
f 46 47 50
f 54 44 45
f 45 46 50
f 45 50 54
f 27 26 198
f 27 198 200
f 26 25 196
f 26 196 198
f 23 27 200
f 23 200 193
f 172 174 97
f 172 97 99
f 43 42 171
f 43 171 169
f 158 160 111
f 158 111 113
f 50 49 157
f 50 157 155
f 40 36 192
f 40 192 201
f 13 14 71
f 13 71 70
f 3 4 61
f 3 61 60
f 20 21 78
f 20 78 77
f 10 11 68
f 10 68 67
f 25 24 194
f 25 194 196
f 17 18 75
f 17 75 74
f 7 8 65
f 7 65 64
f 14 15 72
f 14 72 71
f 37 38 197
f 37 197 195
f 4 5 62
f 4 62 61
f 21 22 79
f 21 79 78
f 11 12 69
f 11 69 68
f 1 2 59
f 1 59 58
f 18 19 76
f 18 76 75
f 8 9 66
f 8 66 65
f 38 39 199
f 38 199 197
f 15 16 73
f 15 73 72
f 5 6 63
f 5 63 62
f 22 1 58
f 22 58 79
f 12 13 70
f 12 70 69
f 2 3 60
f 2 60 59
f 19 20 77
f 19 77 76
f 9 10 67
f 9 67 66
f 16 17 74
f 16 74 73
f 39 40 201
f 39 201 199
f 6 7 64
f 6 64 63
f 48 47 161
f 48 161 159
f 162 164 107
f 162 107 109
f 38 37 181
f 38 181 179
f 176 178 91
f 176 91 89
f 56 55 145
f 56 145 143
f 146 148 123
f 146 123 125
f 49 48 159
f 49 159 157
f 160 162 109
f 160 109 111
f 42 41 173
f 42 173 171
f 57 56 143
f 57 143 141
f 174 176 89
f 174 89 97
f 144 146 125
f 144 125 127
f 130 95 94
f 130 94 131
f 128 130 131
f 128 131 129
f 126 128 129
f 126 129 127
f 124 126 127
f 124 127 125
f 122 124 125
f 122 125 123
f 120 122 123
f 120 123 121
f 118 120 121
f 118 121 119
f 116 118 119
f 116 119 117
f 114 116 117
f 114 117 115
f 112 114 115
f 112 115 113
f 110 112 113
f 110 113 111
f 108 110 111
f 108 111 109
f 106 108 109
f 106 109 107
f 104 106 107
f 104 107 105
f 102 104 105
f 102 105 103
f 100 102 103
f 100 103 101
f 98 100 101
f 98 101 99
f 96 98 99
f 96 99 97
f 88 96 97
f 88 97 89
f 90 88 89
f 90 89 91
f 92 90 91
f 92 91 93
f 95 92 93
f 95 93 94
f 39 38 179
f 39 179 177
f 140 183 182
f 140 182 141
f 142 140 141
f 142 141 143
f 144 142 143
f 144 143 145
f 146 144 145
f 146 145 147
f 148 146 147
f 148 147 149
f 150 148 149
f 150 149 151
f 152 150 151
f 152 151 153
f 154 152 153
f 154 153 155
f 156 154 155
f 156 155 157
f 158 156 157
f 158 157 159
f 160 158 159
f 160 159 161
f 162 160 161
f 162 161 163
f 164 162 163
f 164 163 165
f 166 164 165
f 166 165 167
f 168 166 167
f 168 167 169
f 170 168 169
f 170 169 171
f 172 170 171
f 172 171 173
f 174 172 173
f 174 173 175
f 176 174 175
f 176 175 177
f 178 176 177
f 178 177 179
f 180 178 179
f 180 179 181
f 183 180 181
f 183 181 182
f 36 57 141
f 36 141 182
f 192 195 194
f 192 194 193
f 195 197 196
f 195 196 194
f 197 199 198
f 197 198 196
f 199 201 200
f 199 200 198
f 193 200 201
f 193 201 192
f 24 23 193
f 24 193 194
f 82 83 191
f 82 191 189
f 83 80 184
f 83 184 191
f 87 86 136
f 87 136 138
f 84 87 138
f 84 138 133
f 81 82 189
f 81 189 187
f 80 81 187
f 80 187 184
f 190 185 132
f 190 132 139
f 188 190 139
f 188 139 137
f 186 188 137
f 186 137 135
f 85 84 133
f 85 133 134
f 32 33 205
f 32 205 202
f 81 80 203
f 81 203 204
f 34 35 209
f 34 209 207
f 33 34 207
f 33 207 205
f 35 32 202
f 35 202 209
f 28 31 87
f 28 87 84
f 29 28 84
f 29 84 85
f 80 83 208
f 80 208 203
f 30 29 85
f 30 85 86
f 82 81 204
f 82 204 206
f 31 30 86
f 31 86 87
f 83 82 206
f 83 206 208
f 86 85 134
f 86 134 136
f 185 186 135
f 185 135 132
f 132 135 134
f 132 134 133
f 135 137 136
f 135 136 134
f 137 139 138
f 137 138 136
f 139 132 133
f 139 133 138
f 184 187 186
f 184 186 185
f 187 189 188
f 187 188 186
f 189 191 190
f 189 190 188
f 191 184 185
f 191 185 190
f 202 205 204
f 202 204 203
f 205 207 206
f 205 206 204
f 207 209 208
f 207 208 206
f 209 202 203
f 209 203 208
