# Derived from blenderjunky Stargate DHD (BlendSwap 75540 / 13419).
# Source notice: supplied-dhd-LICENSE.html; Fan Art, noncommercial use only.
o supplied-dhd-symbols-6
v -0.175764 0.877544 -0.161821
v -0.179047 0.876480 -0.161594
v -0.200673 0.885789 -0.140822
v -0.171167 0.895685 -0.142467
v -0.179630 0.881396 -0.155523
v -0.180586 0.881086 -0.155457
v -0.191531 0.885797 -0.144944
v -0.177306 0.890568 -0.145738
v -0.165638 0.914729 -0.122467
v -0.162349 0.915768 -0.122726
v -0.140977 0.906228 -0.143657
v -0.170541 0.896559 -0.141717
v -0.161856 0.910828 -0.128785
v -0.160898 0.911130 -0.128861
v -0.150082 0.906303 -0.139453
v -0.164335 0.901641 -0.138518
v -0.177983 0.880890 -0.163044
v -0.179665 0.880345 -0.162927
v -0.198920 0.888633 -0.144433
v -0.173893 0.897027 -0.145828
v -0.176838 0.880352 -0.164197
v -0.180121 0.879288 -0.163970
v -0.201747 0.888596 -0.143198
v -0.172241 0.898493 -0.144843
v -0.165581 0.916986 -0.126005
v -0.163896 0.917518 -0.126138
v -0.144868 0.909025 -0.144773
v -0.169943 0.900823 -0.143129
v -0.166712 0.917537 -0.124844
v -0.163423 0.918575 -0.125103
v -0.142051 0.909036 -0.146033
v -0.171615 0.899366 -0.144094
v -0.172640 0.899536 -0.145726
v -0.173363 0.899378 -0.146380
v -0.202146 0.889639 -0.144081
v -0.201284 0.890013 -0.144823
v -0.180520 0.880331 -0.164853
v -0.180496 0.881066 -0.164789
v -0.177780 0.881946 -0.164977
v -0.177237 0.881395 -0.165080
v -0.166849 0.918746 -0.126443
v -0.167111 0.918580 -0.125726
v -0.163822 0.919618 -0.125986
v -0.164128 0.919605 -0.126658
v -0.142450 0.910079 -0.146916
v -0.143585 0.910436 -0.146775
v -0.172014 0.900409 -0.144977
v -0.171561 0.901286 -0.144940
v -0.173880 0.898919 -0.146688
v -0.174300 0.898091 -0.146729
v -0.200400 0.890024 -0.145209
v -0.199327 0.889697 -0.145333
v -0.180354 0.881396 -0.164463
v -0.180072 0.881409 -0.163828
v -0.178390 0.881954 -0.163944
v -0.178138 0.882114 -0.164616
v -0.165989 0.918050 -0.126906
v -0.166495 0.918573 -0.126806
v -0.164276 0.919274 -0.126981
v -0.164303 0.918582 -0.127039
v -0.144466 0.910432 -0.146381
v -0.145275 0.910089 -0.145674
v -0.171038 0.901741 -0.144639
v -0.170350 0.901887 -0.144029
v -0.180025 0.883376 -0.159183
v -0.180322 0.883204 -0.157054
v -0.181278 0.882894 -0.156988
v -0.181162 0.883008 -0.159105
v -0.192223 0.887605 -0.146475
v -0.194182 0.888611 -0.146600
v -0.177998 0.892376 -0.147268
v -0.177260 0.894287 -0.147543
v -0.163592 0.914472 -0.129875
v -0.162548 0.912636 -0.130316
v -0.161590 0.912939 -0.130392
v -0.162453 0.914832 -0.129964
v -0.150774 0.908111 -0.140984
v -0.149587 0.909089 -0.142565
v -0.165027 0.903449 -0.140049
v -0.166541 0.903543 -0.141453
f 19 18 54
f 19 54 52
f 56 49 34
f 56 34 39
f 23 24 33
f 23 33 35
f 51 53 38
f 51 38 36
f 22 23 35
f 22 35 37
f 21 22 37
f 21 37 40
f 17 18 68
f 17 68 65
f 24 21 40
f 24 40 33
f 53 56 39
f 53 39 38
f 8 7 69
f 8 69 71
f 5 8 71
f 5 71 66
f 49 51 36
f 49 36 34
f 18 17 55
f 18 55 54
f 20 17 65
f 20 65 72
f 3 4 24
f 3 24 23
f 1 2 22
f 1 22 21
f 7 6 67
f 7 67 69
f 18 19 70
f 18 70 68
f 4 1 21
f 4 21 24
f 2 3 23
f 2 23 22
f 19 20 72
f 19 72 70
f 33 40 39
f 33 39 34
f 35 33 34
f 35 34 36
f 37 35 36
f 37 36 38
f 40 37 38
f 40 38 39
f 20 19 52
f 20 52 50
f 49 56 55
f 49 55 50
f 51 49 50
f 51 50 52
f 53 51 52
f 53 52 54
f 56 53 54
f 56 54 55
f 17 20 50
f 17 50 55
f 65 68 67
f 65 67 66
f 68 70 69
f 68 69 67
f 70 72 71
f 70 71 69
f 72 65 66
f 72 66 71
f 6 5 66
f 6 66 67
f 25 28 64
f 25 64 57
f 63 61 46
f 63 46 48
f 58 63 48
f 58 48 41
f 28 27 62
f 28 62 64
f 26 25 57
f 26 57 60
f 32 29 42
f 32 42 47
f 31 32 47
f 31 47 45
f 30 31 45
f 30 45 43
f 29 30 43
f 29 43 42
f 61 59 44
f 61 44 46
f 59 58 41
f 59 41 44
f 25 26 76
f 25 76 73
f 14 13 74
f 14 74 75
f 27 26 60
f 27 60 62
f 16 15 77
f 16 77 79
f 13 16 79
f 13 79 74
f 27 28 80
f 27 80 78
f 28 25 73
f 28 73 80
f 11 12 32
f 11 32 31
f 9 10 30
f 9 30 29
f 15 14 75
f 15 75 77
f 26 27 78
f 26 78 76
f 12 9 29
f 12 29 32
f 10 11 31
f 10 31 30
f 47 42 41
f 47 41 48
f 45 47 48
f 45 48 46
f 43 45 46
f 43 46 44
f 42 43 44
f 42 44 41
f 63 58 57
f 63 57 64
f 61 63 64
f 61 64 62
f 59 61 62
f 59 62 60
f 58 59 60
f 58 60 57
f 73 76 75
f 73 75 74
f 76 78 77
f 76 77 75
f 78 80 79
f 78 79 77
f 80 73 74
f 80 74 79
